M48
; DRILL file {KiCad 7.0.9} date Thursday, June 06, 2024 at 01:46:16 AM
; FORMAT={-:-/ absolute / metric / decimal}
; #@! TF.CreationDate,2024-06-06T01:46:16+04:00
; #@! TF.GenerationSoftware,Kicad,Pcbnew,7.0.9
; #@! TF.FileFunction,Plated,1,2,PTH
FMAT,2
METRIC
; #@! TA.AperFunction,Plated,PTH,ViaDrill
T1C0.400
; #@! TA.AperFunction,Plated,PTH,ComponentDrill
T2C0.500
; #@! TA.AperFunction,Plated,PTH,ComponentDrill
T3C0.800
; #@! TA.AperFunction,Plated,PTH,ComponentDrill
T4C1.000
; #@! TA.AperFunction,Plated,PTH,ComponentDrill
T5C1.200
; #@! TA.AperFunction,Plated,PTH,ComponentDrill
T6C1.270
; #@! TA.AperFunction,Plated,PTH,ComponentDrill
T7C1.500
; #@! TA.AperFunction,Plated,PTH,ComponentDrill
T8C1.800
; #@! TA.AperFunction,Plated,PTH,ComponentDrill
T9C3.200
%
G90
G05
T1
X42.5Y-30.0
X42.5Y-32.0
X42.5Y-34.0
X42.5Y-36.0
X42.5Y-38.0
X42.5Y-40.0
X42.5Y-42.0
X42.5Y-44.0
X42.5Y-46.0
X42.5Y-48.0
X42.5Y-50.0
X42.5Y-52.0
X42.5Y-54.0
X42.5Y-56.0
X42.5Y-58.0
X42.5Y-60.0
X42.5Y-62.0
X42.5Y-64.0
X42.5Y-66.0
X42.5Y-68.0
X42.5Y-70.0
X42.5Y-72.0
X42.5Y-74.0
X42.5Y-76.0
X42.5Y-78.0
X42.5Y-80.0
X42.5Y-82.0
X42.5Y-84.0
X42.5Y-86.0
X42.5Y-88.0
X42.5Y-90.0
X43.5Y-28.0
X43.5Y-92.0
X44.5Y-93.0
X44.5Y-27.0
X45.0Y-30.0
X45.0Y-35.0
X45.0Y-50.0
X45.0Y-55.0
X45.0Y-60.0
X45.0Y-65.0
X45.0Y-70.0
X45.0Y-75.0
X45.0Y-80.0
X45.0Y-85.0
X45.0Y-91.0
X45.5Y-26.0
X45.5Y-94.0
X47.0Y-26.0
X47.0Y-94.0
X49.0Y-26.0
X49.0Y-94.0
X49.8Y-51.0
X49.8Y-52.0
X49.8Y-53.0
X49.8Y-54.0
X49.8Y-55.0
X49.8Y-56.0
X49.8Y-57.0
X49.8Y-58.0
X49.8Y-59.0
X49.8Y-60.0
X49.8Y-61.0
X49.8Y-62.0
X49.8Y-63.0
X49.8Y-64.0
X49.8Y-65.0
X49.8Y-66.0
X49.8Y-67.0
X49.8Y-68.0
X49.8Y-69.0
X49.8Y-70.0
X50.0Y-30.0
X50.0Y-35.0
X50.0Y-50.0
X50.0Y-71.0
X50.0Y-75.0
X50.0Y-80.0
X50.0Y-85.0
X50.0Y-91.0
X50.4Y-49.0
X50.4Y-72.0
X51.0Y-26.0
X51.0Y-48.2
X51.0Y-72.8
X51.0Y-94.0
X51.8Y-47.6
X51.8Y-73.4
X52.4Y-51.0
X52.4Y-52.0
X52.4Y-53.0
X52.4Y-54.0
X52.4Y-55.0
X52.4Y-56.0
X52.4Y-57.0
X52.4Y-58.0
X52.4Y-59.0
X52.4Y-60.0
X52.4Y-61.0
X52.4Y-62.0
X52.4Y-63.0
X52.4Y-64.0
X52.4Y-65.0
X52.4Y-66.0
X52.4Y-67.0
X52.4Y-68.0
X52.6Y-47.0
X52.6Y-50.0
X52.6Y-74.0
X52.8Y-69.8
X53.0Y-26.0
X53.0Y-68.8
X53.0Y-94.0
X53.2Y-70.8
X53.4Y-49.4
X53.6Y-46.8
X53.6Y-68.0
X53.6Y-74.4
X54.0Y-71.6
X54.4Y-49.0
X54.4Y-67.4
X54.6Y-46.8
X54.6Y-74.4
X55.0Y-35.0
X55.0Y-40.0
X55.0Y-50.0
X55.0Y-55.0
X55.0Y-71.8
X55.0Y-80.0
X55.0Y-85.0
X55.2Y-62.8
X55.2Y-63.8
X55.2Y-64.8
X55.2Y-65.8
X55.2Y-66.8
X55.4Y-49.0
X55.4Y-61.8
X55.6Y-46.8
X55.6Y-74.4
X55.8Y-60.8
X56.0Y-71.6
X56.4Y-49.0
X56.6Y-46.8
X56.6Y-60.2
X56.6Y-74.4
X56.8Y-71.0
X57.0Y-70.0
X57.4Y-49.0
X57.4Y-63.0
X57.4Y-64.0
X57.4Y-65.0
X57.4Y-66.0
X57.4Y-67.0
X57.4Y-72.2
X57.6Y-59.8
X57.6Y-74.4
X57.75Y-83.75
X57.75Y-84.75
X57.8Y-75.6
X57.8Y-76.8
X57.8Y-77.8
X57.8Y-78.8
X57.8Y-79.8
X57.8Y-80.8
X57.8Y-81.8
X57.8Y-82.8
X58.0Y-62.2
X58.0Y-68.0
X58.0Y-71.0
X58.1Y-85.6
X58.4Y-49.0
X58.6Y-59.8
X58.6Y-63.6
X58.7Y-86.4
X58.75Y-76.0
X59.0Y-26.0
X59.0Y-62.2
X59.0Y-94.0
X59.4Y-49.0
X59.5Y-87.0
X59.6Y-59.8
X59.6Y-63.2
X60.0Y-30.0
X60.0Y-35.0
X60.0Y-40.0
X60.0Y-50.0
X60.0Y-55.0
X60.0Y-62.2
X60.2Y-79.0
X60.2Y-80.0
X60.2Y-81.0
X60.2Y-82.0
X60.2Y-83.8
X60.4Y-48.8
X60.4Y-77.8
X60.5Y-84.75
X60.5Y-87.0
X60.6Y-59.8
X60.75Y-83.0
X60.8Y-63.2
X61.0Y-26.0
X61.0Y-62.2
X61.0Y-94.0
X61.2Y-48.2
X61.2Y-76.0
X61.2Y-77.0
X61.4Y-67.6
X61.5Y-84.9
X61.5Y-87.0
X61.6Y-59.8
X61.8Y-47.4
X61.8Y-63.8
X61.8Y-71.2
X62.0Y-62.2
X62.0Y-66.8
X62.2Y-68.2
X62.2Y-75.4
X62.4Y-69.2
X62.4Y-70.2
X62.4Y-72.0
X62.4Y-73.2
X62.4Y-74.2
X62.5Y-84.9
X62.5Y-87.0
X62.6Y-59.8
X62.6Y-64.4
X63.0Y-26.0
X63.0Y-62.2
X63.0Y-66.6
X63.0Y-94.0
X63.5Y-84.9
X63.5Y-87.0
X63.6Y-59.8
X63.6Y-64.4
X64.0Y-62.2
X64.0Y-66.6
X64.5Y-84.9
X64.5Y-87.0
X64.6Y-59.8
X64.6Y-64.4
X65.0Y-26.0
X65.0Y-30.0
X65.0Y-35.0
X65.0Y-40.0
X65.0Y-50.0
X65.0Y-55.0
X65.0Y-62.2
X65.0Y-66.6
X65.0Y-75.0
X65.0Y-80.0
X65.0Y-90.0
X65.0Y-94.0
X65.5Y-84.9
X65.5Y-87.0
X65.6Y-59.8
X65.6Y-64.4
X66.0Y-62.2
X66.0Y-66.6
X66.5Y-84.9
X66.5Y-87.0
X66.6Y-59.8
X66.6Y-64.4
X67.0Y-26.0
X67.0Y-62.2
X67.0Y-66.6
X67.0Y-94.0
X67.5Y-84.9
X67.5Y-87.0
X67.6Y-59.8
X67.6Y-64.4
X67.8Y-67.2
X67.8Y-68.2
X67.8Y-69.2
X68.0Y-62.2
X68.2Y-70.2
X68.4Y-84.9
X68.4Y-87.0
X68.6Y-59.8
X68.6Y-64.8
X68.8Y-71.0
X69.0Y-26.0
X69.0Y-62.2
X69.0Y-94.0
X69.1Y-84.3
X69.2Y-87.7
X69.4Y-65.4
X69.6Y-59.8
X69.6Y-71.8
X70.0Y-30.0
X70.0Y-35.0
X70.0Y-40.0
X70.0Y-45.0
X70.0Y-50.0
X70.0Y-55.0
X70.0Y-62.2
X70.0Y-66.4
X70.0Y-67.4
X70.0Y-68.4
X70.0Y-75.0
X70.0Y-90.0
X70.2Y-69.4
X70.2Y-84.2
X70.2Y-87.8
X70.6Y-59.8
X70.6Y-72.2
X71.0Y-26.0
X71.0Y-62.2
X71.0Y-70.0
X71.0Y-94.0
X71.1Y-84.7
X71.1Y-87.3
X71.6Y-59.8
X71.6Y-72.4
X71.6Y-85.5
X71.6Y-86.5
X72.0Y-62.2
X72.0Y-70.2
X72.6Y-56.2
X72.6Y-59.8
X72.6Y-65.8
X72.6Y-66.8
X72.6Y-72.4
X72.8Y-55.2
X72.8Y-64.8
X73.0Y-26.0
X73.0Y-57.2
X73.0Y-62.4
X73.0Y-67.6
X73.0Y-70.2
X73.0Y-94.0
X73.4Y-54.4
X73.4Y-59.4
X73.4Y-64.0
X73.4Y-73.0
X73.6Y-58.0
X73.6Y-68.4
X73.6Y-69.4
X73.8Y-63.0
X74.2Y-53.8
X74.2Y-58.8
X74.4Y-69.0
X74.4Y-73.4
X74.8Y-63.4
X75.0Y-26.0
X75.0Y-30.0
X75.0Y-35.0
X75.0Y-40.0
X75.0Y-50.0
X75.0Y-90.0
X75.0Y-94.0
X75.2Y-53.6
X75.2Y-58.8
X75.4Y-69.0
X75.4Y-73.4
X75.8Y-63.2
X76.0Y-58.0
X76.0Y-68.2
X76.2Y-54.0
X76.2Y-59.2
X76.4Y-64.4
X76.4Y-69.4
X76.4Y-73.0
X76.6Y-62.6
X76.8Y-57.4
X76.8Y-67.6
X77.0Y-26.0
X77.0Y-54.8
X77.0Y-59.8
X77.0Y-63.6
X77.0Y-70.2
X77.0Y-72.2
X77.0Y-94.0
X77.2Y-60.8
X77.2Y-61.8
X77.2Y-65.0
X77.2Y-71.2
X77.8Y-57.2
X77.8Y-67.4
X78.0Y-54.8
X78.0Y-79.8
X78.2Y-65.0
X78.2Y-78.8
X78.2Y-80.8
X78.3Y-85.7
X78.4Y-86.7
X78.7Y-84.8
X78.8Y-57.2
X78.8Y-67.4
X78.9Y-81.8
X78.9Y-82.8
X78.9Y-83.8
X79.0Y-26.0
X79.0Y-54.8
X79.0Y-78.2
X79.0Y-87.4
X79.0Y-94.0
X79.2Y-65.0
X79.8Y-57.2
X79.8Y-67.4
X79.9Y-87.7
X80.0Y-30.0
X80.0Y-35.0
X80.0Y-40.0
X80.0Y-45.0
X80.0Y-50.0
X80.0Y-54.8
X80.0Y-70.0
X80.0Y-75.0
X80.0Y-78.0
X80.0Y-90.0
X80.2Y-64.8
X80.8Y-57.6
X80.8Y-67.2
X80.8Y-87.5
X81.0Y-26.0
X81.0Y-55.0
X81.0Y-64.2
X81.0Y-78.3
X81.0Y-94.0
X81.1Y-81.8
X81.1Y-82.8
X81.1Y-83.8
X81.3Y-84.9
X81.4Y-58.4
X81.5Y-86.8
X81.6Y-63.4
X81.7Y-80.8
X81.7Y-85.8
X81.8Y-59.4
X81.8Y-60.4
X81.8Y-61.4
X81.8Y-62.4
X81.8Y-66.8
X81.8Y-78.8
X81.9Y-79.8
X82.0Y-55.4
X82.6Y-66.2
X82.8Y-56.0
X83.0Y-26.0
X83.0Y-94.0
X83.4Y-56.8
X83.4Y-65.6
X83.8Y-64.6
X84.0Y-57.6
X84.0Y-63.6
X84.2Y-58.6
X84.2Y-59.6
X84.2Y-60.6
X84.2Y-61.6
X84.2Y-62.6
X85.0Y-26.0
X85.0Y-35.0
X85.0Y-40.0
X85.0Y-50.0
X85.0Y-55.0
X85.0Y-70.0
X85.0Y-75.0
X85.0Y-80.0
X85.0Y-85.0
X85.0Y-94.0
X90.0Y-35.0
X90.0Y-40.0
X90.0Y-50.0
X90.0Y-55.0
X90.0Y-60.0
X90.0Y-65.0
X90.0Y-70.0
X90.0Y-75.0
X90.0Y-80.0
X90.0Y-85.0
X91.0Y-26.0
X91.0Y-94.0
X93.0Y-26.0
X93.0Y-94.0
X95.0Y-26.0
X95.0Y-30.0
X95.0Y-35.0
X95.0Y-40.0
X95.0Y-45.0
X95.0Y-50.0
X95.0Y-55.0
X95.0Y-60.0
X95.0Y-65.0
X95.0Y-70.0
X95.0Y-75.0
X95.0Y-80.0
X95.0Y-85.0
X95.0Y-90.0
X95.0Y-94.0
X97.0Y-26.0
X97.0Y-94.0
X99.0Y-26.0
X99.0Y-94.0
X100.0Y-30.0
X100.0Y-35.0
X100.0Y-40.0
X100.0Y-45.0
X100.0Y-50.0
X100.0Y-75.0
X100.0Y-80.0
X100.0Y-85.0
X100.0Y-90.0
X100.6Y-55.6
X100.6Y-61.2
X100.8Y-56.8
X100.8Y-60.2
X100.8Y-70.6
X100.8Y-71.6
X101.0Y-26.0
X101.0Y-54.4
X101.0Y-94.0
X101.2Y-72.6
X101.4Y-57.8
X101.4Y-59.4
X101.4Y-69.7
X101.8Y-73.4
X102.2Y-53.8
X102.2Y-58.8
X102.2Y-69.1
X102.8Y-63.4
X102.8Y-73.6
X103.0Y-26.0
X103.0Y-94.0
X103.2Y-58.8
X103.2Y-69.0
X103.4Y-53.8
X103.8Y-63.2
X103.8Y-73.4
X104.2Y-59.0
X104.2Y-69.4
X104.6Y-54.2
X104.6Y-57.8
X104.6Y-62.8
X104.6Y-72.8
X105.0Y-26.0
X105.0Y-30.0
X105.0Y-35.0
X105.0Y-40.0
X105.0Y-45.0
X105.0Y-50.0
X105.0Y-59.6
X105.0Y-70.0
X105.0Y-75.0
X105.0Y-85.0
X105.0Y-90.0
X105.0Y-94.0
X105.4Y-57.2
X105.4Y-62.2
X105.6Y-54.8
X105.6Y-72.4
X106.0Y-60.0
X106.0Y-70.0
X106.4Y-57.2
X106.4Y-62.2
X106.7Y-72.4
X106.8Y-54.8
X107.0Y-26.0
X107.0Y-60.0
X107.0Y-69.9
X107.0Y-94.0
X107.4Y-57.2
X107.4Y-62.2
X107.7Y-72.2
X108.0Y-54.8
X108.0Y-60.0
X108.0Y-69.6
X108.4Y-57.2
X108.4Y-62.2
X108.6Y-71.8
X108.9Y-69.0
X109.0Y-26.0
X109.0Y-60.0
X109.0Y-94.0
X109.2Y-54.8
X109.4Y-57.2
X109.4Y-62.2
X109.4Y-65.9
X109.5Y-71.3
X109.6Y-59.2
X109.6Y-66.8
X109.7Y-68.4
X109.8Y-65.0
X110.0Y-30.0
X110.0Y-35.0
X110.0Y-40.0
X110.0Y-45.0
X110.0Y-50.0
X110.0Y-75.0
X110.0Y-85.0
X110.0Y-90.0
X110.2Y-58.4
X110.2Y-67.6
X110.3Y-64.2
X110.3Y-70.7
X110.4Y-54.8
X110.4Y-57.2
X110.4Y-62.2
X110.4Y-63.2
X111.0Y-26.0
X111.0Y-70.0
X111.0Y-94.0
X111.2Y-58.0
X111.6Y-54.8
X111.6Y-57.2
X111.7Y-69.3
X112.2Y-58.0
X112.3Y-68.5
X112.6Y-67.6
X112.8Y-54.8
X112.8Y-62.4
X112.8Y-63.4
X112.8Y-64.4
X113.0Y-26.0
X113.0Y-57.2
X113.0Y-59.2
X113.0Y-61.4
X113.0Y-94.0
X113.2Y-60.4
X113.2Y-66.9
X113.3Y-65.2
X113.4Y-58.2
X113.6Y-66.1
X114.0Y-54.8
X114.0Y-57.2
X115.0Y-26.0
X115.0Y-30.0
X115.0Y-35.0
X115.0Y-40.0
X115.0Y-45.0
X115.0Y-50.0
X115.0Y-57.2
X115.0Y-75.0
X115.0Y-80.0
X115.0Y-85.0
X115.0Y-90.0
X115.0Y-94.0
X115.2Y-54.8
X116.0Y-57.6
X116.4Y-55.0
X117.0Y-26.0
X117.0Y-58.2
X117.0Y-94.0
X117.4Y-55.6
X117.4Y-59.8
X117.6Y-60.9
X117.8Y-58.8
X118.4Y-56.2
X118.4Y-61.6
X119.0Y-26.0
X119.0Y-94.0
X119.2Y-57.0
X119.5Y-61.7
X119.8Y-57.8
X120.0Y-30.0
X120.0Y-35.0
X120.0Y-40.0
X120.0Y-45.0
X120.0Y-50.0
X120.0Y-55.0
X120.0Y-80.0
X120.0Y-90.0
X120.4Y-61.2
X120.8Y-58.0
X121.0Y-26.0
X121.0Y-94.0
X121.2Y-60.7
X121.31Y-72.19
X121.31Y-73.19
X121.4Y-74.3
X121.7Y-57.6
X121.9Y-60.1
X121.91Y-71.39
X122.0Y-75.2
X122.5Y-57.0
X122.6Y-70.6
X122.8Y-59.6
X123.0Y-26.0
X123.0Y-75.7
X123.0Y-94.0
X123.17Y-69.92
X123.5Y-56.8
X123.6Y-58.9
X123.8Y-69.2
X124.1Y-75.7
X124.2Y-68.4
X124.4Y-67.4
X124.5Y-56.8
X124.5Y-64.4
X124.5Y-65.4
X124.5Y-66.4
X124.6Y-58.9
X124.8Y-63.4
X125.0Y-26.0
X125.0Y-35.0
X125.0Y-40.0
X125.0Y-45.0
X125.0Y-50.0
X125.0Y-55.0
X125.0Y-80.0
X125.0Y-94.0
X125.1Y-75.4
X125.2Y-62.5
X125.5Y-56.8
X125.6Y-58.9
X125.6Y-70.6
X125.7Y-71.7
X125.8Y-61.8
X125.8Y-74.7
X126.1Y-72.6
X126.2Y-69.8
X126.2Y-73.7
X126.4Y-61.0
X126.4Y-68.8
X126.5Y-56.8
X126.6Y-58.9
X126.6Y-65.8
X126.6Y-66.8
X126.6Y-67.8
X126.7Y-64.8
X127.0Y-63.9
X127.1Y-60.3
X127.5Y-56.8
X127.5Y-63.1
X127.6Y-58.9
X128.0Y-59.8
X128.1Y-62.4
X128.5Y-56.8
X128.6Y-58.9
X128.8Y-61.7
X129.5Y-56.8
X129.5Y-59.4
X129.7Y-61.6
X130.0Y-35.0
X130.0Y-40.0
X130.0Y-45.0
X130.0Y-50.0
X130.0Y-55.0
X130.0Y-80.0
X130.5Y-56.8
X130.5Y-58.9
X130.7Y-61.6
X131.5Y-56.8
X131.5Y-59.4
X131.7Y-61.6
X132.5Y-56.8
X132.5Y-58.9
X132.7Y-61.6
X133.0Y-26.0
X133.0Y-94.0
X133.5Y-56.8
X133.5Y-59.4
X133.7Y-61.6
X134.4Y-58.9
X134.6Y-56.8
X134.7Y-61.6
X135.0Y-26.0
X135.0Y-94.0
X135.4Y-59.4
X135.7Y-61.6
X135.8Y-56.8
X136.2Y-58.8
X136.7Y-61.6
X136.8Y-56.6
X137.0Y-26.0
X137.0Y-59.4
X137.0Y-94.0
X137.6Y-56.0
X137.6Y-58.4
X137.7Y-61.7
X137.8Y-55.0
X138.2Y-59.4
X138.4Y-54.2
X138.5Y-26.0
X138.5Y-30.0
X138.5Y-35.0
X138.5Y-40.0
X138.5Y-45.0
X138.5Y-50.0
X138.5Y-62.2
X138.5Y-80.0
X138.5Y-90.0
X138.5Y-94.0
X138.8Y-58.5
X139.2Y-57.4
X139.4Y-53.7
X139.4Y-62.5
X139.5Y-27.0
X139.5Y-80.0
X139.5Y-93.0
X140.1Y-58.7
X140.2Y-57.2
X140.3Y-62.3
X140.4Y-53.9
X140.5Y-28.0
X140.5Y-92.0
X141.0Y-56.6
X141.0Y-59.1
X141.0Y-61.7
X141.2Y-54.6
X141.4Y-55.6
X141.4Y-60.0
X141.4Y-60.9
X141.5Y-30.0
X141.5Y-32.0
X141.5Y-34.0
X141.5Y-36.0
X141.5Y-38.0
X141.5Y-40.0
X141.5Y-42.0
X141.5Y-44.0
X141.5Y-46.0
X141.5Y-48.0
X141.5Y-50.0
X141.5Y-52.0
X141.5Y-64.0
X141.5Y-66.0
X141.5Y-68.0
X141.5Y-70.0
X141.5Y-72.0
X141.5Y-74.0
X141.5Y-76.0
X141.5Y-78.0
X141.5Y-80.0
X141.5Y-82.0
X141.5Y-84.0
X141.5Y-86.0
X141.5Y-88.0
X141.5Y-90.0
T2
X53.2Y-29.3
X53.2Y-91.0
X53.903Y-27.603
X53.903Y-30.997
X53.903Y-89.303
X53.903Y-92.697
X55.6Y-26.9
X55.6Y-31.7
X55.6Y-88.6
X55.6Y-93.4
X57.297Y-27.603
X57.297Y-30.997
X57.297Y-89.303
X57.297Y-92.697
X58.0Y-29.3
X58.0Y-91.0
X72.6Y-44.5
X73.303Y-42.803
X73.303Y-46.197
X75.0Y-42.1
X75.0Y-46.9
X76.697Y-42.803
X76.697Y-46.197
X77.4Y-44.5
X85.6Y-44.303
X85.603Y-29.003
X85.603Y-91.003
X86.303Y-42.606
X86.303Y-46.0
X86.306Y-27.306
X86.306Y-30.7
X86.306Y-89.306
X86.306Y-92.7
X88.0Y-41.903
X88.0Y-46.703
X88.003Y-26.603
X88.003Y-31.403
X88.003Y-88.603
X88.003Y-93.403
X89.697Y-42.606
X89.697Y-46.0
X89.7Y-27.306
X89.7Y-30.7
X89.7Y-89.306
X89.7Y-92.7
X90.4Y-44.303
X90.403Y-29.003
X90.403Y-91.003
X104.9Y-80.3
X105.603Y-78.603
X105.603Y-81.997
X107.3Y-77.9
X107.3Y-82.7
X108.997Y-78.603
X108.997Y-81.997
X109.7Y-80.3
X126.6Y-29.0
X126.6Y-91.0
X127.303Y-27.303
X127.303Y-30.697
X127.303Y-89.303
X127.303Y-92.697
X129.0Y-26.6
X129.0Y-31.4
X129.0Y-88.6
X129.0Y-93.4
X130.697Y-27.303
X130.697Y-30.697
X130.697Y-89.303
X130.697Y-92.697
X131.4Y-29.0
X131.4Y-91.0
X131.85Y-44.25
X132.553Y-42.553
X132.553Y-45.947
X134.25Y-41.85
X134.25Y-46.65
X135.947Y-42.553
X135.947Y-45.947
X136.65Y-44.25
T3
X69.84Y-86.0
X80.0Y-86.0
X111.5Y-60.0
X111.5Y-66.0
X119.12Y-60.0
X119.12Y-66.0
T4
X58.47Y-43.25
X58.47Y-45.75
X60.97Y-43.25
X60.97Y-45.75
X63.47Y-43.25
X63.47Y-45.75
X69.96Y-79.91
X79.96Y-79.91
T5
X65.0Y-69.5
X139.59Y-55.5
X139.59Y-60.5
X139.59Y-65.5
T6
X75.0Y-56.0
X75.0Y-61.08
X75.0Y-66.16
X75.0Y-71.24
X100.4Y-63.62
X102.94Y-56.0
X102.94Y-61.08
X102.94Y-66.16
X102.94Y-71.24
T7
X123.79Y-73.23
X123.79Y-84.66
X130.14Y-73.23
X130.14Y-84.66
X136.49Y-73.23
X136.49Y-84.66
T8
X60.0Y-65.5
X60.0Y-69.5
X60.0Y-73.5
T9
X55.6Y-29.3
X55.6Y-91.0
X75.0Y-44.5
X88.0Y-44.303
X88.003Y-29.003
X88.003Y-91.003
X107.3Y-80.3
X129.0Y-29.0
X129.0Y-91.0
X134.25Y-44.25
T0
M30
