%TF.GenerationSoftware,KiCad,Pcbnew,7.0.9*%
%TF.CreationDate,2024-02-12T14:50:03+04:00*%
%TF.ProjectId,57TimesAudioRE-AMP,35375469-6d65-4734-9175-64696f52452d,rev?*%
%TF.SameCoordinates,Original*%
%TF.FileFunction,Copper,L1,Top*%
%TF.FilePolarity,Positive*%
%FSLAX46Y46*%
G04 Gerber Fmt 4.6, Leading zero omitted, Abs format (unit mm)*
G04 Created by KiCad (PCBNEW 7.0.9) date 2024-02-12 14:50:03*
%MOMM*%
%LPD*%
G01*
G04 APERTURE LIST*
%TA.AperFunction,ComponentPad*%
%ADD10C,1.800000*%
%TD*%
%TA.AperFunction,ComponentPad*%
%ADD11R,1.508000X1.508000*%
%TD*%
%TA.AperFunction,ComponentPad*%
%ADD12C,1.508000*%
%TD*%
%TA.AperFunction,ComponentPad*%
%ADD13C,1.950000*%
%TD*%
%TA.AperFunction,ComponentPad*%
%ADD14C,2.540000*%
%TD*%
%TA.AperFunction,ComponentPad*%
%ADD15C,2.000000*%
%TD*%
%TA.AperFunction,ComponentPad*%
%ADD16C,1.600000*%
%TD*%
%TA.AperFunction,ComponentPad*%
%ADD17R,2.700000X2.700000*%
%TD*%
%TA.AperFunction,ComponentPad*%
%ADD18C,2.700000*%
%TD*%
%TA.AperFunction,ComponentPad*%
%ADD19C,3.000000*%
%TD*%
%TA.AperFunction,ComponentPad*%
%ADD20C,2.800000*%
%TD*%
%TA.AperFunction,ViaPad*%
%ADD21C,0.800000*%
%TD*%
%TA.AperFunction,Conductor*%
%ADD22C,0.250000*%
%TD*%
G04 APERTURE END LIST*
D10*
%TO.P,VR1,3*%
%TO.N,Net-(R1-Pad1)*%
X131850000Y-65540000D03*
%TO.P,VR1,2*%
%TO.N,Net-(J2-PadT)*%
X131850000Y-60540000D03*
%TO.P,VR1,1*%
%TO.N,GND*%
X131850000Y-55540000D03*
%TD*%
D11*
%TO.P,S1,1*%
%TO.N,Net-(J3-Pad1)*%
X43200000Y-42250000D03*
D12*
%TO.P,S1,2*%
%TO.N,GND*%
X43200000Y-46750000D03*
D13*
%TO.P,S1,S1*%
%TO.N,N/C*%
X45700000Y-41000000D03*
%TO.P,S1,S2*%
X45700000Y-48000000D03*
%TD*%
D14*
%TO.P,T1,E,E*%
%TO.N,GND*%
X100400000Y-63620000D03*
%TO.P,T1,8,8*%
%TO.N,Net-(R1-Pad1)*%
X102940000Y-56000000D03*
%TO.P,T1,7,7*%
%TO.N,Net-(R1-Pad2)*%
X102940000Y-61080000D03*
%TO.P,T1,6,6*%
%TO.N,GND*%
X102940000Y-66160000D03*
%TO.P,T1,5,5*%
%TO.N,Net-(R1-Pad2)*%
X102940000Y-71240000D03*
%TO.P,T1,4,4*%
%TO.N,Net-(T1-Pad2)*%
X75000000Y-56000000D03*
%TO.P,T1,3,3*%
%TO.N,Net-(J3-Pad3)*%
X75000000Y-61080000D03*
%TO.P,T1,2,2*%
%TO.N,Net-(T1-Pad2)*%
X75000000Y-66160000D03*
%TO.P,T1,1,1*%
%TO.N,Net-(J3-Pad2)*%
X75000000Y-71240000D03*
%TD*%
D15*
%TO.P,R2,1*%
%TO.N,Net-(R1-Pad2)*%
X111500000Y-68000000D03*
%TO.P,R2,2*%
%TO.N,GND*%
X120500000Y-68000000D03*
%TD*%
%TO.P,R1,2*%
%TO.N,Net-(R1-Pad2)*%
X111500000Y-60000000D03*
%TO.P,R1,1*%
%TO.N,Net-(R1-Pad1)*%
X120500000Y-60000000D03*
%TD*%
D16*
%TO.P,C1,2*%
%TO.N,GND*%
X74960000Y-79910000D03*
%TO.P,C1,1*%
%TO.N,Net-(C1-Pad1)*%
X79960000Y-79910000D03*
%TD*%
D17*
%TO.P,J3,1*%
%TO.N,Net-(J3-Pad1)*%
X60000000Y-73500000D03*
D18*
%TO.P,J3,2*%
%TO.N,Net-(J3-Pad2)*%
X60000000Y-65500000D03*
%TO.P,J3,3*%
%TO.N,Net-(J3-Pad3)*%
X60000000Y-69500000D03*
D10*
%TO.P,J3,G*%
%TO.N,N/C*%
X65000000Y-69500000D03*
%TD*%
D19*
%TO.P,J2,R*%
%TO.N,GND*%
X126650000Y-73170000D03*
%TO.P,J2,RN*%
%TO.N,N/C*%
X126650000Y-84600000D03*
%TO.P,J2,S*%
%TO.N,GND*%
X133000000Y-73170000D03*
X133000000Y-84600000D03*
%TO.P,J2,T*%
%TO.N,Net-(J2-PadT)*%
X120300000Y-73170000D03*
%TO.P,J2,TN*%
%TO.N,N/C*%
X120300000Y-84600000D03*
%TD*%
D20*
%TO.P,R3,2*%
%TO.N,Net-(C1-Pad1)*%
X80000000Y-86000000D03*
%TO.P,R3,1*%
%TO.N,Net-(J3-Pad1)*%
X60000000Y-86000000D03*
%TD*%
D21*
%TO.N,GND*%
X100000000Y-85000000D03*
X120000000Y-65000000D03*
X115000000Y-75000000D03*
X115000000Y-85000000D03*
X115000000Y-80000000D03*
X125000000Y-90000000D03*
X115000000Y-90000000D03*
X60000000Y-90000000D03*
X80000000Y-90000000D03*
X85000000Y-90000000D03*
X85000000Y-80000000D03*
X85000000Y-85000000D03*
X95000000Y-80000000D03*
X105000000Y-90000000D03*
X95000000Y-90000000D03*
X105000000Y-85000000D03*
X80000000Y-70000000D03*
X95000000Y-70000000D03*
X85000000Y-70000000D03*
X95000000Y-55000000D03*
X95000000Y-60000000D03*
X70000000Y-55000000D03*
X65000000Y-55000000D03*
X105000000Y-75000000D03*
X100000000Y-75000000D03*
X95000000Y-75000000D03*
X85000000Y-75000000D03*
X75000000Y-90000000D03*
X65000000Y-90000000D03*
X65000000Y-75000000D03*
X65000000Y-80000000D03*
X125000000Y-50000000D03*
X125000000Y-45000000D03*
X125000000Y-40000000D03*
X125000000Y-35000000D03*
X125000000Y-30000000D03*
X115000000Y-50000000D03*
X115000000Y-45000000D03*
X115000000Y-40000000D03*
X115000000Y-35000000D03*
X115000000Y-30000000D03*
X105000000Y-50000000D03*
X105000000Y-45000000D03*
X105000000Y-40000000D03*
X105000000Y-35000000D03*
X105000000Y-30000000D03*
X95000000Y-50000000D03*
X95000000Y-45000000D03*
X95000000Y-40000000D03*
X95000000Y-35000000D03*
X95000000Y-30000000D03*
X75000000Y-35000000D03*
X85000000Y-50000000D03*
X85000000Y-45000000D03*
X85000000Y-40000000D03*
X85000000Y-35000000D03*
X85000000Y-30000000D03*
X75000000Y-50000000D03*
X75000000Y-45000000D03*
X75000000Y-40000000D03*
X75000000Y-30000000D03*
X65000000Y-50000000D03*
X65000000Y-45000000D03*
X65000000Y-40000000D03*
X65000000Y-35000000D03*
X65000000Y-30000000D03*
X50000000Y-35000000D03*
X55000000Y-30000000D03*
X50000000Y-40000000D03*
X70000000Y-90000000D03*
X105000000Y-80000000D03*
X70000000Y-80000000D03*
X70000000Y-75000000D03*
X80000000Y-75000000D03*
X90000000Y-60000000D03*
X90000000Y-55000000D03*
X120000000Y-90000000D03*
X130000000Y-90000000D03*
X135000000Y-80000000D03*
X130000000Y-80000000D03*
X125000000Y-80000000D03*
X120000000Y-80000000D03*
X110000000Y-80000000D03*
X110000000Y-75000000D03*
X110000000Y-85000000D03*
X110000000Y-90000000D03*
X100000000Y-80000000D03*
X100000000Y-90000000D03*
X60000000Y-55000000D03*
X55000000Y-55000000D03*
X55000000Y-50000000D03*
X55000000Y-45000000D03*
X55000000Y-40000000D03*
X55000000Y-35000000D03*
X50000000Y-30000000D03*
X90000000Y-90000000D03*
X90000000Y-85000000D03*
X90000000Y-80000000D03*
X90000000Y-75000000D03*
X90000000Y-70000000D03*
X90000000Y-65000000D03*
X130000000Y-50000000D03*
X130000000Y-45000000D03*
X130000000Y-40000000D03*
X130000000Y-35000000D03*
X130000000Y-30000000D03*
X120000000Y-50000000D03*
X120000000Y-45000000D03*
X120000000Y-40000000D03*
X120000000Y-35000000D03*
X120000000Y-30000000D03*
X110000000Y-50000000D03*
X110000000Y-45000000D03*
X110000000Y-40000000D03*
X110000000Y-35000000D03*
X110000000Y-30000000D03*
X100000000Y-50000000D03*
X90000000Y-50000000D03*
X90000000Y-45000000D03*
X90000000Y-40000000D03*
X90000000Y-35000000D03*
X90000000Y-30000000D03*
X80000000Y-50000000D03*
X80000000Y-45000000D03*
X80000000Y-40000000D03*
X80000000Y-35000000D03*
X80000000Y-30000000D03*
X60000000Y-30000000D03*
X60000000Y-40000000D03*
X60000000Y-50000000D03*
X70000000Y-50000000D03*
X55000000Y-80000000D03*
X55000000Y-85000000D03*
X55000000Y-90000000D03*
X50000000Y-75000000D03*
X50000000Y-80000000D03*
X50000000Y-85000000D03*
X50000000Y-90000000D03*
X45000000Y-75000000D03*
X45000000Y-55000000D03*
X45000000Y-60000000D03*
X45000000Y-65000000D03*
X45000000Y-70000000D03*
X45000000Y-80000000D03*
X45000000Y-85000000D03*
X45000000Y-90000000D03*
X60000000Y-45000000D03*
X60000000Y-35000000D03*
X45000000Y-35000000D03*
X45000000Y-30000000D03*
X100000000Y-35000000D03*
X100000000Y-40000000D03*
X70000000Y-40000000D03*
X70000000Y-30000000D03*
X70000000Y-35000000D03*
X70000000Y-45000000D03*
X100000000Y-30000000D03*
X100000000Y-45000000D03*
X95000000Y-65000000D03*
X95000000Y-85000000D03*
X130400000Y-56800000D03*
X129400000Y-56800000D03*
X128200000Y-56800000D03*
X127000000Y-56800000D03*
X126000000Y-56800000D03*
X124800000Y-56800000D03*
X123600000Y-56800000D03*
X122400000Y-57000000D03*
X121400000Y-57200000D03*
X120400000Y-57800000D03*
X119400000Y-57200000D03*
X118600000Y-56400000D03*
X117600000Y-55800000D03*
X116400000Y-55200000D03*
X115200000Y-54800000D03*
X114000000Y-54800000D03*
X112800000Y-54800000D03*
X111600000Y-54800000D03*
X110400000Y-54800000D03*
X109200000Y-54800000D03*
X108000000Y-54800000D03*
X106800000Y-54800000D03*
X105600000Y-54800000D03*
X104600000Y-54200000D03*
X103400000Y-53800000D03*
X102200000Y-53800000D03*
X101000000Y-54400000D03*
X100600000Y-55600000D03*
X100800000Y-56800000D03*
X101400000Y-57800000D03*
X131200000Y-62400000D03*
X127200000Y-60400000D03*
X126400000Y-61000000D03*
X125800000Y-61800000D03*
X125200000Y-62600000D03*
X124600000Y-63400000D03*
X124400000Y-64400000D03*
X124400000Y-65400000D03*
X124400000Y-66400000D03*
X124400000Y-67400000D03*
X124200000Y-68400000D03*
X123800000Y-69200000D03*
X123000000Y-69800000D03*
X122200000Y-70400000D03*
X121200000Y-70600000D03*
X120200000Y-70600000D03*
X119200000Y-71000000D03*
X118400000Y-71600000D03*
X117800000Y-72400000D03*
X117800000Y-73400000D03*
X118000000Y-74400000D03*
X118600000Y-75200000D03*
X119600000Y-75600000D03*
X120600000Y-75600000D03*
X121600000Y-75400000D03*
X122400000Y-74600000D03*
X122800000Y-73600000D03*
X123400000Y-72800000D03*
X124200000Y-72200000D03*
X125000000Y-71400000D03*
X125600000Y-70600000D03*
X126200000Y-69800000D03*
X126400000Y-68800000D03*
X126600000Y-67800000D03*
X126600000Y-66800000D03*
X126600000Y-65800000D03*
X126600000Y-64800000D03*
X127000000Y-63800000D03*
X127600000Y-62800000D03*
X128400000Y-62200000D03*
X129400000Y-61800000D03*
X130400000Y-61600000D03*
X133200000Y-62000000D03*
X132600000Y-62800000D03*
X132000000Y-63600000D03*
X131000000Y-63800000D03*
X130200000Y-64200000D03*
X130000000Y-65200000D03*
X130000000Y-66200000D03*
X130600000Y-67000000D03*
X131600000Y-67400000D03*
X132600000Y-67200000D03*
X133400000Y-66600000D03*
X133800000Y-65600000D03*
X134200000Y-64800000D03*
X134800000Y-64000000D03*
X135400000Y-63000000D03*
X135600000Y-61800000D03*
X135600000Y-60800000D03*
X135400000Y-59600000D03*
X135000000Y-58600000D03*
X134400000Y-57800000D03*
X133600000Y-57200000D03*
X129800000Y-59400000D03*
X128800000Y-59400000D03*
X127800000Y-59600000D03*
X126800000Y-59200000D03*
X125800000Y-59200000D03*
X124800000Y-59200000D03*
X123800000Y-59200000D03*
X122800000Y-59600000D03*
X122600000Y-60600000D03*
X121800000Y-61600000D03*
X120800000Y-62000000D03*
X119800000Y-62000000D03*
X119000000Y-61600000D03*
X118400000Y-60800000D03*
X118200000Y-59800000D03*
X117800000Y-58800000D03*
X117000000Y-58200000D03*
X116000000Y-57600000D03*
X115000000Y-57200000D03*
X114000000Y-57200000D03*
X113000000Y-57200000D03*
X111600000Y-57200000D03*
X110400000Y-57200000D03*
X109400000Y-57200000D03*
X108400000Y-57200000D03*
X107400000Y-57200000D03*
X106400000Y-57200000D03*
X105400000Y-57200000D03*
X104600000Y-57800000D03*
X102200000Y-69000000D03*
X101200000Y-69600000D03*
X100800000Y-70600000D03*
X100600000Y-71600000D03*
X101000000Y-72600000D03*
X101800000Y-73400000D03*
X102800000Y-73600000D03*
X103800000Y-73400000D03*
X104600000Y-72800000D03*
X105600000Y-72400000D03*
X106800000Y-72400000D03*
X107800000Y-72200000D03*
X108800000Y-72000000D03*
X109800000Y-71400000D03*
X110600000Y-70800000D03*
X111400000Y-70000000D03*
X112400000Y-69800000D03*
X113200000Y-69200000D03*
X113600000Y-68200000D03*
X113400000Y-67200000D03*
X112800000Y-66400000D03*
X112800000Y-65400000D03*
X112800000Y-64400000D03*
X112800000Y-63400000D03*
X112800000Y-62400000D03*
X113000000Y-61400000D03*
X113400000Y-60400000D03*
X113400000Y-59400000D03*
X113000000Y-58600000D03*
X112200000Y-58000000D03*
X111200000Y-58000000D03*
X110200000Y-58400000D03*
X109600000Y-59200000D03*
X109000000Y-60000000D03*
X108000000Y-60000000D03*
X107000000Y-60000000D03*
X106000000Y-60000000D03*
X105000000Y-59600000D03*
X104200000Y-59000000D03*
X103200000Y-58800000D03*
X102200000Y-58800000D03*
X101400000Y-59400000D03*
X100800000Y-60200000D03*
X100600000Y-61200000D03*
X102800000Y-63400000D03*
X103800000Y-63200000D03*
X104600000Y-62800000D03*
X105400000Y-62200000D03*
X106400000Y-62200000D03*
X107400000Y-62200000D03*
X108400000Y-62200000D03*
X109400000Y-62200000D03*
X110400000Y-62200000D03*
X110400000Y-63200000D03*
X110400000Y-64400000D03*
X110400000Y-65400000D03*
X110200000Y-66400000D03*
X109600000Y-67200000D03*
X109400000Y-68200000D03*
X108800000Y-69000000D03*
X108000000Y-69600000D03*
X107000000Y-69800000D03*
X106000000Y-70000000D03*
X105000000Y-70000000D03*
X104200000Y-69400000D03*
X103200000Y-69000000D03*
X78200000Y-80800000D03*
X78000000Y-79800000D03*
X78200000Y-78800000D03*
X79000000Y-78400000D03*
X80000000Y-78200000D03*
X81000000Y-78400000D03*
X81800000Y-78800000D03*
X81800000Y-79800000D03*
X81600000Y-80800000D03*
X82000000Y-84600000D03*
X82400000Y-85600000D03*
X82400000Y-86600000D03*
X82000000Y-87600000D03*
X81200000Y-88400000D03*
X80000000Y-88600000D03*
X78800000Y-88400000D03*
X78000000Y-87600000D03*
X77600000Y-86600000D03*
X77600000Y-85600000D03*
X78000000Y-84600000D03*
X81200000Y-83800000D03*
X81200000Y-82800000D03*
X81200000Y-81800000D03*
X78800000Y-81800000D03*
X78800000Y-82800000D03*
X78800000Y-83800000D03*
X62400000Y-72000000D03*
X62400000Y-73200000D03*
X62400000Y-74200000D03*
X62200000Y-75400000D03*
X61200000Y-76000000D03*
X61200000Y-77000000D03*
X60400000Y-77800000D03*
X60200000Y-79000000D03*
X60200000Y-80000000D03*
X60200000Y-81000000D03*
X60200000Y-82000000D03*
X60200000Y-83000000D03*
X61000000Y-83800000D03*
X61800000Y-84600000D03*
X62400000Y-85600000D03*
X62400000Y-86800000D03*
X62000000Y-87800000D03*
X61000000Y-88400000D03*
X60000000Y-88600000D03*
X59000000Y-88400000D03*
X58200000Y-87600000D03*
X57600000Y-86800000D03*
X57600000Y-85800000D03*
X57800000Y-84800000D03*
X57800000Y-83800000D03*
X57800000Y-82800000D03*
X57800000Y-81800000D03*
X57800000Y-80800000D03*
X57800000Y-79800000D03*
X57800000Y-78800000D03*
X57800000Y-77800000D03*
X57800000Y-76800000D03*
X57800000Y-75600000D03*
X52400000Y-68000000D03*
X52400000Y-67000000D03*
X52400000Y-66000000D03*
X52400000Y-65000000D03*
X52400000Y-64000000D03*
X52400000Y-63000000D03*
X52400000Y-62000000D03*
X52400000Y-61000000D03*
X52400000Y-60000000D03*
X52400000Y-59000000D03*
X52400000Y-58000000D03*
X52400000Y-57000000D03*
X52400000Y-56000000D03*
X52400000Y-55000000D03*
X52400000Y-54000000D03*
X52400000Y-53000000D03*
X52400000Y-52000000D03*
X52400000Y-51000000D03*
X52400000Y-50000000D03*
X52400000Y-49000000D03*
X52400000Y-48000000D03*
X52400000Y-47000000D03*
X52200000Y-46000000D03*
X51800000Y-45000000D03*
X51200000Y-44200000D03*
X50400000Y-43600000D03*
X49400000Y-43200000D03*
X48400000Y-42800000D03*
X47000000Y-42600000D03*
X47800000Y-41800000D03*
X47800000Y-40800000D03*
X47800000Y-39800000D03*
X47000000Y-39000000D03*
X45800000Y-38800000D03*
X44600000Y-39000000D03*
X43200000Y-39400000D03*
X44000000Y-40200000D03*
X42400000Y-40200000D03*
X42600000Y-44200000D03*
X43600000Y-44600000D03*
X44400000Y-45200000D03*
X45400000Y-45200000D03*
X46400000Y-45200000D03*
X47400000Y-45200000D03*
X48400000Y-45400000D03*
X49200000Y-46000000D03*
X49800000Y-47000000D03*
X49800000Y-48000000D03*
X49800000Y-49000000D03*
X49800000Y-50000000D03*
X49800000Y-51000000D03*
X49800000Y-52000000D03*
X49800000Y-53000000D03*
X49800000Y-54000000D03*
X49800000Y-55000000D03*
X49800000Y-56000000D03*
X49800000Y-57000000D03*
X49800000Y-58000000D03*
X49800000Y-59000000D03*
X49800000Y-60000000D03*
X49800000Y-61000000D03*
X49800000Y-62000000D03*
X49800000Y-63000000D03*
X49800000Y-64000000D03*
X49800000Y-65000000D03*
X49800000Y-66000000D03*
X49800000Y-67000000D03*
X49800000Y-68000000D03*
X49800000Y-69000000D03*
X49800000Y-70000000D03*
X50000000Y-71000000D03*
X50400000Y-72000000D03*
X51000000Y-72800000D03*
X51800000Y-73400000D03*
X52600000Y-74000000D03*
X53600000Y-74400000D03*
X54600000Y-74400000D03*
X55600000Y-74400000D03*
X56600000Y-74400000D03*
X57600000Y-74400000D03*
X43000000Y-27000000D03*
X42000000Y-28000000D03*
X41000000Y-30000000D03*
X41000000Y-32000000D03*
X41000000Y-34000000D03*
X41000000Y-36000000D03*
X41000000Y-38000000D03*
X41000000Y-40000000D03*
X41000000Y-42000000D03*
X41000000Y-44000000D03*
X41000000Y-46000000D03*
X41000000Y-48000000D03*
X41000000Y-50000000D03*
X41000000Y-52000000D03*
X41000000Y-54000000D03*
X41000000Y-56000000D03*
X41000000Y-58000000D03*
X41000000Y-60000000D03*
X41000000Y-62000000D03*
X41000000Y-64000000D03*
X41000000Y-66000000D03*
X41000000Y-68000000D03*
X41000000Y-70000000D03*
X41000000Y-72000000D03*
X41000000Y-74000000D03*
X41000000Y-76000000D03*
X41000000Y-78000000D03*
X41000000Y-82000000D03*
X41000000Y-80000000D03*
X41000000Y-80000000D03*
X41000000Y-84000000D03*
X41000000Y-86000000D03*
X41000000Y-88000000D03*
X41000000Y-90000000D03*
X42000000Y-92000000D03*
X43000000Y-93000000D03*
X45000000Y-94000000D03*
X47000000Y-94000000D03*
X49000000Y-94000000D03*
X51000000Y-94000000D03*
X53000000Y-94000000D03*
X55000000Y-94000000D03*
X57000000Y-94000000D03*
X59000000Y-94000000D03*
X61000000Y-94000000D03*
X63000000Y-94000000D03*
X65000000Y-94000000D03*
X67000000Y-94000000D03*
X69000000Y-94000000D03*
X71000000Y-94000000D03*
X73000000Y-94000000D03*
X75000000Y-94000000D03*
X77000000Y-94000000D03*
X79000000Y-94000000D03*
X81000000Y-94000000D03*
X83000000Y-94000000D03*
X85000000Y-94000000D03*
X87000000Y-94000000D03*
X89000000Y-94000000D03*
X91000000Y-94000000D03*
X93000000Y-94000000D03*
X95000000Y-94000000D03*
X97000000Y-94000000D03*
X99000000Y-94000000D03*
X101000000Y-94000000D03*
X103000000Y-94000000D03*
X105000000Y-94000000D03*
X107000000Y-94000000D03*
X109000000Y-94000000D03*
X111000000Y-94000000D03*
X113000000Y-94000000D03*
X115000000Y-94000000D03*
X117000000Y-94000000D03*
X119000000Y-94000000D03*
X121000000Y-94000000D03*
X123000000Y-94000000D03*
X125000000Y-94000000D03*
X127000000Y-94000000D03*
X129000000Y-94000000D03*
X131000000Y-94000000D03*
X133000000Y-94000000D03*
X135000000Y-93000000D03*
X136000000Y-92000000D03*
X137000000Y-90000000D03*
X137000000Y-88000000D03*
X137000000Y-86000000D03*
X137000000Y-84000000D03*
X137000000Y-82000000D03*
X137000000Y-80000000D03*
X137000000Y-78000000D03*
X137000000Y-76000000D03*
X137000000Y-74000000D03*
X137000000Y-72000000D03*
X137000000Y-70000000D03*
X137000000Y-68000000D03*
X137000000Y-66000000D03*
X137000000Y-64000000D03*
X137000000Y-62000000D03*
X137000000Y-60000000D03*
X137000000Y-58000000D03*
X137000000Y-56000000D03*
X137000000Y-54000000D03*
X137000000Y-52000000D03*
X137000000Y-50000000D03*
X137000000Y-48000000D03*
X137000000Y-46000000D03*
X137000000Y-44000000D03*
X137000000Y-42000000D03*
X137000000Y-40000000D03*
X137000000Y-38000000D03*
X137000000Y-36000000D03*
X137000000Y-34000000D03*
X137000000Y-32000000D03*
X137000000Y-30000000D03*
X136000000Y-28000000D03*
X135000000Y-27000000D03*
X133000000Y-26000000D03*
X131000000Y-26000000D03*
X129000000Y-26000000D03*
X127000000Y-26000000D03*
X125000000Y-26000000D03*
X123000000Y-26000000D03*
X121000000Y-26000000D03*
X119000000Y-26000000D03*
X117000000Y-26000000D03*
X115000000Y-26000000D03*
X113000000Y-26000000D03*
X111000000Y-26000000D03*
X109000000Y-26000000D03*
X107000000Y-26000000D03*
X105000000Y-26000000D03*
X103000000Y-26000000D03*
X101000000Y-26000000D03*
X99000000Y-26000000D03*
X97000000Y-26000000D03*
X95000000Y-26000000D03*
X93000000Y-26000000D03*
X91000000Y-26000000D03*
X89000000Y-26000000D03*
X87000000Y-26000000D03*
X85000000Y-26000000D03*
X83000000Y-26000000D03*
X81000000Y-26000000D03*
X79000000Y-26000000D03*
X77000000Y-26000000D03*
X75000000Y-26000000D03*
X73000000Y-26000000D03*
X71000000Y-26000000D03*
X69000000Y-26000000D03*
X67000000Y-26000000D03*
X65000000Y-26000000D03*
X63000000Y-26000000D03*
X61000000Y-26000000D03*
X59000000Y-26000000D03*
X57000000Y-26000000D03*
X55000000Y-26000000D03*
X53000000Y-26000000D03*
X51000000Y-26000000D03*
X49000000Y-26000000D03*
X47000000Y-26000000D03*
X45000000Y-26000000D03*
X77200000Y-65000000D03*
X59600000Y-59800000D03*
X77000000Y-59800000D03*
X67000000Y-62200000D03*
X65600000Y-59800000D03*
X73600000Y-69400000D03*
X77000000Y-63600000D03*
X72800000Y-55200000D03*
X70000000Y-68400000D03*
X82600000Y-66200000D03*
X68600000Y-64800000D03*
X71600000Y-72400000D03*
X81800000Y-60400000D03*
X69400000Y-65400000D03*
X78200000Y-65000000D03*
X84000000Y-57600000D03*
X73400000Y-73000000D03*
X64600000Y-64400000D03*
X69000000Y-62200000D03*
X71600000Y-59800000D03*
X71000000Y-62200000D03*
X60800000Y-63200000D03*
X61800000Y-71200000D03*
X76600000Y-62600000D03*
X73800000Y-63000000D03*
X57400000Y-64000000D03*
X76400000Y-73000000D03*
X62400000Y-70200000D03*
X77200000Y-60800000D03*
X63600000Y-64400000D03*
X57400000Y-63000000D03*
X77800000Y-67400000D03*
X68600000Y-59800000D03*
X70000000Y-66400000D03*
X58600000Y-59800000D03*
X64000000Y-62200000D03*
X68000000Y-62200000D03*
X56800000Y-71000000D03*
X73000000Y-67600000D03*
X69600000Y-59800000D03*
X76200000Y-54000000D03*
X84200000Y-60600000D03*
X73600000Y-58000000D03*
X57400000Y-65000000D03*
X74800000Y-63400000D03*
X55200000Y-65800000D03*
X76800000Y-67600000D03*
X67800000Y-69200000D03*
X84200000Y-58600000D03*
X76400000Y-69400000D03*
X70600000Y-72200000D03*
X83400000Y-56800000D03*
X62600000Y-64400000D03*
X58000000Y-62200000D03*
X61800000Y-63800000D03*
X63600000Y-59800000D03*
X62600000Y-59800000D03*
X66000000Y-62200000D03*
X79000000Y-54800000D03*
X80200000Y-64800000D03*
X74200000Y-53800000D03*
X75200000Y-53600000D03*
X83400000Y-65600000D03*
X72800000Y-64800000D03*
X73000000Y-70200000D03*
X65600000Y-64400000D03*
X64000000Y-66600000D03*
X70000000Y-67400000D03*
X72000000Y-70200000D03*
X80800000Y-57600000D03*
X73000000Y-62400000D03*
X81400000Y-58400000D03*
X73000000Y-57200000D03*
X66600000Y-64400000D03*
X81000000Y-55000000D03*
X55200000Y-62800000D03*
X79200000Y-65000000D03*
X63000000Y-62200000D03*
X72600000Y-56200000D03*
X75400000Y-73400000D03*
X76000000Y-68200000D03*
X62000000Y-62200000D03*
X73400000Y-64000000D03*
X77000000Y-72200000D03*
X65000000Y-62200000D03*
X83800000Y-64600000D03*
X81800000Y-59400000D03*
X67600000Y-59800000D03*
X80800000Y-67200000D03*
X81800000Y-61400000D03*
X62000000Y-66800000D03*
X76400000Y-64400000D03*
X81000000Y-64200000D03*
X63000000Y-66600000D03*
X53000000Y-68800000D03*
X72000000Y-62200000D03*
X72600000Y-65800000D03*
X58600000Y-63600000D03*
X56000000Y-71600000D03*
X74400000Y-73400000D03*
X77000000Y-70200000D03*
X66600000Y-59800000D03*
X72600000Y-66800000D03*
X55800000Y-60800000D03*
X62400000Y-69200000D03*
X81800000Y-62400000D03*
X74400000Y-69000000D03*
X57400000Y-67000000D03*
X60600000Y-59800000D03*
X57400000Y-66000000D03*
X61400000Y-67600000D03*
X84200000Y-61600000D03*
X82800000Y-56000000D03*
X70600000Y-59800000D03*
X66000000Y-66600000D03*
X67000000Y-66600000D03*
X84200000Y-59600000D03*
X76200000Y-59200000D03*
X77200000Y-71200000D03*
X80000000Y-54800000D03*
X67600000Y-64400000D03*
X68200000Y-70200000D03*
X55200000Y-63800000D03*
X77800000Y-57200000D03*
X82000000Y-55400000D03*
X58000000Y-71000000D03*
X57600000Y-59800000D03*
X72600000Y-59800000D03*
X57400000Y-72200000D03*
X69600000Y-71800000D03*
X53600000Y-68000000D03*
X59600000Y-63200000D03*
X61000000Y-62200000D03*
X76800000Y-57400000D03*
X72600000Y-72400000D03*
X73400000Y-54400000D03*
X56600000Y-60200000D03*
X74200000Y-58800000D03*
X78800000Y-57200000D03*
X58000000Y-68000000D03*
X60000000Y-62200000D03*
X67800000Y-67200000D03*
X68800000Y-71000000D03*
X55400000Y-61800000D03*
X70200000Y-69400000D03*
X75400000Y-69000000D03*
X52800000Y-69800000D03*
X59000000Y-62200000D03*
X84000000Y-63600000D03*
X71000000Y-70000000D03*
X57000000Y-70000000D03*
X73400000Y-59400000D03*
X76000000Y-58000000D03*
X81600000Y-63400000D03*
X75800000Y-63200000D03*
X65000000Y-66600000D03*
X53200000Y-70800000D03*
X55200000Y-64800000D03*
X67800000Y-68200000D03*
X79800000Y-67400000D03*
X75200000Y-58800000D03*
X84200000Y-62600000D03*
X61600000Y-59800000D03*
X77200000Y-61800000D03*
X62200000Y-68200000D03*
X54000000Y-71600000D03*
X81800000Y-66800000D03*
X79800000Y-57200000D03*
X55000000Y-71800000D03*
X78000000Y-54800000D03*
X54400000Y-67400000D03*
X73600000Y-68400000D03*
X64600000Y-59800000D03*
X70000000Y-62200000D03*
X78800000Y-67400000D03*
X55200000Y-66800000D03*
X77000000Y-54800000D03*
%TD*%
D22*
%TO.N,Net-(R1-Pad1)*%
X119500001Y-58999999D02*
G75*
G03*
X121499999Y-58999999I999999J1000001D01*
G01*
X133599991Y-58800009D02*
G75*
G03*
X131668629Y-58000000I-1931391J-1931391D01*
G01*
X123914213Y-58000006D02*
G75*
G03*
X121500000Y-59000000I-13J-3414194D01*
G01*
X134400012Y-60731370D02*
G75*
G03*
X133600000Y-58800000I-2731412J-30D01*
G01*
X133201456Y-64188547D02*
G75*
G03*
X134400000Y-61295000I-2893556J2893547D01*
G01*
%TO.N,Net-(J2-PadT)*%
X122435000Y-71599991D02*
G75*
G03*
X121470484Y-71999515I0J-1364009D01*
G01*
X127029993Y-61969993D02*
G75*
G03*
X125600000Y-65422325I3452307J-3452307D01*
G01*
X130155000Y-60540002D02*
G75*
G03*
X127261454Y-61738545I0J-4092098D01*
G01*
X122435000Y-71600008D02*
G75*
G03*
X123399515Y-71200484I0J1364008D01*
G01*
X124299993Y-70299993D02*
G75*
G03*
X125600000Y-67161522I-3138493J3138493D01*
G01*
X130155000Y-60540000D02*
X131850000Y-60540000D01*
X123399515Y-71200484D02*
X124300000Y-70300000D01*
X127029999Y-61969999D02*
X127261454Y-61738545D01*
X125600000Y-65422325D02*
X125600000Y-67161522D01*
X121470484Y-71999515D02*
X120300000Y-73170000D01*
%TO.N,Net-(R1-Pad1)*%
X134400000Y-60731370D02*
X134400000Y-61295000D01*
X131668629Y-58000000D02*
X123914213Y-58000000D01*
X133201454Y-64188545D02*
X131850000Y-65540000D01*
%TO.N,Net-(J3-Pad1)*%
X59000003Y-84292893D02*
G75*
G03*
X59500000Y-85500000I1707097J-7D01*
G01*
X59500002Y-77100002D02*
G75*
G03*
X60000000Y-75892893I-1207102J1207102D01*
G01*
X59499998Y-77099998D02*
G75*
G03*
X59000000Y-78307106I1207102J-1207102D01*
G01*
X59500000Y-85500000D02*
X60000000Y-86000000D01*
X59000000Y-78307106D02*
X59000000Y-84292893D01*
X60000000Y-75892893D02*
X60000000Y-73500000D01*
%TO.N,Net-(C1-Pad1)*%
X80000006Y-79978284D02*
G75*
G03*
X79980000Y-79930000I-68306J-16D01*
G01*
%TO.N,Net-(J3-Pad1)*%
X43270706Y-42320714D02*
G75*
G03*
X43100000Y-42250000I-170706J-170686D01*
G01*
X44074989Y-43125011D02*
G75*
G03*
X46187436Y-44000000I2112411J2112411D01*
G01*
X50999994Y-47414213D02*
G75*
G03*
X50000000Y-45000000I-3414194J13D01*
G01*
X52250010Y-72249990D02*
G75*
G03*
X55267766Y-73500000I3017790J3017790D01*
G01*
X50999987Y-69232233D02*
G75*
G03*
X52250000Y-72250000I4267813J33D01*
G01*
X50000004Y-44999996D02*
G75*
G03*
X47585786Y-44000000I-2414204J-2414204D01*
G01*
X55267766Y-73500000D02*
X60000000Y-73500000D01*
X46187436Y-44000000D02*
X47585786Y-44000000D01*
X44075000Y-43125000D02*
X43270710Y-42320710D01*
X51000000Y-69232233D02*
X51000000Y-47414213D01*
X43100000Y-42250000D02*
X43000000Y-42250000D01*
%TO.N,Net-(J3-Pad2)*%
X67277035Y-65500000D02*
X60000000Y-65500000D01*
X68950000Y-68611055D02*
X68950000Y-67172964D01*
X71578944Y-71240000D02*
X75000000Y-71240000D01*
X69719987Y-70470013D02*
G75*
G03*
X71578944Y-71240000I1858913J1858913D01*
G01*
X68950014Y-67172964D02*
G75*
G03*
X68460000Y-65990000I-1673014J-36D01*
G01*
X68459990Y-65990010D02*
G75*
G03*
X67277035Y-65500000I-1182990J-1182990D01*
G01*
X68950019Y-68611055D02*
G75*
G03*
X69720000Y-70470000I2628881J-45D01*
G01*
%TO.N,Net-(J3-Pad3)*%
X58402670Y-61080000D02*
X75000000Y-61080000D01*
X57333499Y-68803499D02*
X57175000Y-68645000D01*
X59015000Y-69500000D02*
X60000000Y-69500000D01*
X56320000Y-63162670D02*
X56320000Y-66580847D01*
X56319981Y-66580847D02*
G75*
G03*
X57175000Y-68645000I2919219J47D01*
G01*
X56930009Y-61690009D02*
G75*
G03*
X56320000Y-63162670I1472691J-1472691D01*
G01*
X57333499Y-68803499D02*
G75*
G03*
X59015000Y-69500000I1681501J1681499D01*
G01*
X58402670Y-61079988D02*
G75*
G03*
X56930000Y-61690000I30J-2082712D01*
G01*
%TO.N,Net-(R1-Pad1)*%
X114246036Y-56000000D02*
X102940000Y-56000000D01*
X118093792Y-57593792D02*
X119500000Y-59000000D01*
X118093784Y-57593800D02*
G75*
G03*
X114246036Y-56000000I-3847784J-3847800D01*
G01*
%TO.N,Net-(R1-Pad2)*%
X111500000Y-68000000D02*
X109853792Y-69646207D01*
X109656324Y-61080000D02*
X102940000Y-61080000D01*
X106006036Y-71240000D02*
X102940000Y-71240000D01*
X111500000Y-60763675D02*
X111500000Y-68000000D01*
X111500059Y-60763675D02*
G75*
G03*
X110960000Y-60540000I-316359J-25D01*
G01*
X106006036Y-71240010D02*
G75*
G03*
X109853792Y-69646207I-36J5441610D01*
G01*
X109656324Y-61080010D02*
G75*
G03*
X110960000Y-60540000I-24J1843710D01*
G01*
%TO.N,Net-(T1-Pad2)*%
X83000000Y-59414213D02*
X83000000Y-62472649D01*
X79585786Y-56000000D02*
X75000000Y-56000000D01*
X79312649Y-66160000D02*
X75000000Y-66160000D01*
X82999994Y-59414213D02*
G75*
G03*
X82000000Y-57000000I-3414194J13D01*
G01*
X82000004Y-56999996D02*
G75*
G03*
X79585786Y-56000000I-2414204J-2414204D01*
G01*
X81919986Y-65079986D02*
G75*
G03*
X83000000Y-62472649I-2607386J2607386D01*
G01*
X79312649Y-66160020D02*
G75*
G03*
X81920000Y-65080000I-49J3687420D01*
G01*
%TO.N,Net-(C1-Pad1)*%
X80000000Y-79978284D02*
X80000000Y-86000000D01*
X79980000Y-79930000D02*
X79960000Y-79910000D01*
%TD*%
%TA.AperFunction,Conductor*%
%TO.N,GND*%
G36*
X101835219Y-64701666D02*
G01*
X101835220Y-64701668D01*
X102704022Y-65570470D01*
X102631655Y-65599123D01*
X102501858Y-65693426D01*
X102399590Y-65817046D01*
X102349640Y-65923193D01*
X101504779Y-65078332D01*
X101504777Y-65078329D01*
X100635977Y-64209529D01*
X100708345Y-64180877D01*
X100838142Y-64086574D01*
X100940410Y-63962954D01*
X100990359Y-63856806D01*
X101835219Y-64701666D01*
G37*
%TD.AperFunction*%
%TA.AperFunction,Conductor*%
G36*
X133167426Y-25009493D02*
G01*
X133370173Y-25018345D01*
X133375108Y-25018759D01*
X133592338Y-25045837D01*
X133795760Y-25072618D01*
X133800351Y-25073401D01*
X134014323Y-25118266D01*
X134187715Y-25156706D01*
X134215149Y-25162789D01*
X134219404Y-25163892D01*
X134428881Y-25226256D01*
X134625363Y-25288207D01*
X134629169Y-25289547D01*
X134832887Y-25369039D01*
X135023395Y-25447950D01*
X135026881Y-25449523D01*
X135145735Y-25507627D01*
X135223320Y-25545556D01*
X135282570Y-25576399D01*
X135406428Y-25640875D01*
X135409525Y-25642603D01*
X135597453Y-25754583D01*
X135771689Y-25865584D01*
X135774404Y-25867416D01*
X135952532Y-25994597D01*
X136116586Y-26120480D01*
X136118870Y-26122323D01*
X136230174Y-26216592D01*
X136285985Y-26263862D01*
X136439533Y-26404562D01*
X136595436Y-26560465D01*
X136736135Y-26714011D01*
X136877661Y-26881110D01*
X136879526Y-26883423D01*
X136942970Y-26966103D01*
X137005402Y-27047467D01*
X137132582Y-27225594D01*
X137134414Y-27228309D01*
X137245416Y-27402546D01*
X137357395Y-27590473D01*
X137359129Y-27593582D01*
X137454443Y-27776679D01*
X137522827Y-27916560D01*
X137550471Y-27973107D01*
X137550472Y-27973108D01*
X137552052Y-27976613D01*
X137630967Y-28167128D01*
X137710438Y-28370796D01*
X137711803Y-28374670D01*
X137773753Y-28571151D01*
X137836101Y-28780577D01*
X137837209Y-28784849D01*
X137881745Y-28985729D01*
X137926595Y-29199637D01*
X137927384Y-29204269D01*
X137954161Y-29407652D01*
X137981237Y-29624874D01*
X137981654Y-29629840D01*
X137990508Y-29832618D01*
X137999500Y-30050001D01*
X137999500Y-89949999D01*
X137990508Y-90167381D01*
X137981654Y-90370158D01*
X137981237Y-90375124D01*
X137954161Y-90592347D01*
X137927384Y-90795729D01*
X137926595Y-90800361D01*
X137881745Y-91014270D01*
X137837209Y-91215149D01*
X137836101Y-91219421D01*
X137773753Y-91428848D01*
X137711803Y-91625328D01*
X137710431Y-91629223D01*
X137630967Y-91832871D01*
X137552054Y-92023380D01*
X137550474Y-92026884D01*
X137454449Y-92223310D01*
X137359124Y-92406424D01*
X137357391Y-92409532D01*
X137245419Y-92597448D01*
X137134407Y-92771699D01*
X137132576Y-92774413D01*
X137005399Y-92952537D01*
X136879542Y-93116553D01*
X136877666Y-93118880D01*
X136736132Y-93285992D01*
X136595439Y-93439531D01*
X136439524Y-93595446D01*
X136286003Y-93736123D01*
X136118867Y-93877678D01*
X136116540Y-93879555D01*
X135952542Y-94005395D01*
X135774396Y-94132588D01*
X135771681Y-94134420D01*
X135597469Y-94245406D01*
X135409531Y-94357394D01*
X135406422Y-94359127D01*
X135223340Y-94454434D01*
X135026878Y-94550477D01*
X135023374Y-94552057D01*
X134832866Y-94630969D01*
X134629226Y-94710429D01*
X134625332Y-94711801D01*
X134428880Y-94773743D01*
X134219401Y-94836107D01*
X134215129Y-94837215D01*
X134014262Y-94881747D01*
X133800372Y-94926594D01*
X133795739Y-94927384D01*
X133592258Y-94954172D01*
X133375123Y-94981237D01*
X133370157Y-94981654D01*
X133167380Y-94990508D01*
X132949998Y-94999500D01*
X45101862Y-94999500D01*
X45101014Y-94999251D01*
X45050251Y-94999251D01*
X45049751Y-94999251D01*
X44789970Y-94988506D01*
X44629692Y-94981421D01*
X44624760Y-94981005D01*
X44407491Y-94953923D01*
X44204009Y-94927135D01*
X44199376Y-94926345D01*
X43985488Y-94881498D01*
X43784619Y-94836966D01*
X43780347Y-94835858D01*
X43570869Y-94773494D01*
X43374416Y-94711552D01*
X43370528Y-94710182D01*
X43291619Y-94679392D01*
X43166893Y-94630724D01*
X42976369Y-94551807D01*
X42972864Y-94550226D01*
X42832435Y-94481575D01*
X42776401Y-94454181D01*
X42593343Y-94358886D01*
X42590235Y-94357153D01*
X42402287Y-94245162D01*
X42228058Y-94134166D01*
X42225343Y-94132333D01*
X42047213Y-94005150D01*
X41883209Y-93879306D01*
X41880881Y-93877429D01*
X41797728Y-93807002D01*
X41713750Y-93735877D01*
X41599446Y-93631137D01*
X41560225Y-93595197D01*
X41404307Y-93439279D01*
X41263626Y-93285754D01*
X41122065Y-93118612D01*
X41120188Y-93116284D01*
X40994354Y-92952293D01*
X40947905Y-92887238D01*
X40867136Y-92774114D01*
X40865350Y-92771467D01*
X40754348Y-92597230D01*
X40642345Y-92409266D01*
X40640632Y-92406194D01*
X40545317Y-92223096D01*
X40449271Y-92026630D01*
X40447691Y-92023126D01*
X40368774Y-91832603D01*
X40289304Y-91628941D01*
X40287958Y-91625116D01*
X40225996Y-91428598D01*
X40163721Y-91219421D01*
X40163638Y-91219141D01*
X40162534Y-91214883D01*
X40118059Y-91014270D01*
X40118021Y-91014103D01*
X40073146Y-90800085D01*
X40072369Y-90795528D01*
X40045597Y-90592177D01*
X40018508Y-90374859D01*
X40018094Y-90369926D01*
X40009232Y-90166934D01*
X40000251Y-89949799D01*
X40000251Y-46750000D01*
X41941210Y-46750000D01*
X41960333Y-46968582D01*
X41960335Y-46968592D01*
X42017121Y-47180524D01*
X42017124Y-47180533D01*
X42109855Y-47379393D01*
X42109856Y-47379395D01*
X42154002Y-47442442D01*
X42154003Y-47442443D01*
X42716922Y-46879523D01*
X42740507Y-46959844D01*
X42818239Y-47080798D01*
X42926900Y-47174952D01*
X43057685Y-47234680D01*
X43067466Y-47236086D01*
X42507555Y-47795996D01*
X42570604Y-47840143D01*
X42570606Y-47840144D01*
X42769466Y-47932875D01*
X42769475Y-47932878D01*
X42981407Y-47989664D01*
X42981417Y-47989666D01*
X43199999Y-48008790D01*
X43200001Y-48008790D01*
X43418582Y-47989666D01*
X43418592Y-47989664D01*
X43630524Y-47932878D01*
X43630533Y-47932874D01*
X43829392Y-47840145D01*
X43892443Y-47795996D01*
X43332534Y-47236086D01*
X43342315Y-47234680D01*
X43473100Y-47174952D01*
X43581761Y-47080798D01*
X43659493Y-46959844D01*
X43683076Y-46879523D01*
X44254521Y-47450968D01*
X44288006Y-47512291D01*
X44287046Y-47569089D01*
X44239636Y-47756304D01*
X44239634Y-47756316D01*
X44219443Y-47999994D01*
X44219443Y-48000005D01*
X44239634Y-48243683D01*
X44239636Y-48243695D01*
X44299663Y-48480734D01*
X44397888Y-48704666D01*
X44531632Y-48909378D01*
X44697242Y-49089277D01*
X44697246Y-49089281D01*
X44890212Y-49239473D01*
X45105267Y-49355855D01*
X45105270Y-49355856D01*
X45336541Y-49435251D01*
X45336543Y-49435251D01*
X45336545Y-49435252D01*
X45577737Y-49475500D01*
X45577738Y-49475500D01*
X45822262Y-49475500D01*
X45822263Y-49475500D01*
X46063455Y-49435252D01*
X46294733Y-49355855D01*
X46509788Y-49239473D01*
X46702754Y-49089281D01*
X46868368Y-48909377D01*
X47002111Y-48704667D01*
X47100336Y-48480736D01*
X47160364Y-48243692D01*
X47180557Y-48000000D01*
X47174995Y-47932878D01*
X47160365Y-47756316D01*
X47160363Y-47756304D01*
X47100336Y-47519265D01*
X47070378Y-47450968D01*
X47002111Y-47295333D01*
X46901195Y-47140869D01*
X46868367Y-47090621D01*
X46702757Y-46910722D01*
X46702747Y-46910713D01*
X46509791Y-46760529D01*
X46509787Y-46760526D01*
X46294734Y-46644145D01*
X46294729Y-46644143D01*
X46063458Y-46564748D01*
X45863654Y-46531407D01*
X45822263Y-46524500D01*
X45577737Y-46524500D01*
X45536346Y-46531407D01*
X45336541Y-46564748D01*
X45105270Y-46644143D01*
X45105265Y-46644145D01*
X44890212Y-46760526D01*
X44890208Y-46760529D01*
X44697252Y-46910713D01*
X44697247Y-46910718D01*
X44664683Y-46946091D01*
X44604796Y-46982080D01*
X44534957Y-46979979D01*
X44477342Y-46940453D01*
X44450242Y-46876053D01*
X44449927Y-46851298D01*
X44458790Y-46750000D01*
X44458790Y-46749999D01*
X44439666Y-46531417D01*
X44439664Y-46531407D01*
X44382878Y-46319475D01*
X44382875Y-46319466D01*
X44290144Y-46120606D01*
X44290143Y-46120604D01*
X44245996Y-46057556D01*
X44245996Y-46057555D01*
X43683076Y-46620475D01*
X43659493Y-46540156D01*
X43581761Y-46419202D01*
X43473100Y-46325048D01*
X43342315Y-46265320D01*
X43332533Y-46263913D01*
X43892443Y-45704003D01*
X43892442Y-45704002D01*
X43829395Y-45659856D01*
X43829393Y-45659855D01*
X43630533Y-45567124D01*
X43630524Y-45567121D01*
X43418592Y-45510335D01*
X43418582Y-45510333D01*
X43200001Y-45491210D01*
X43199999Y-45491210D01*
X42981417Y-45510333D01*
X42981407Y-45510335D01*
X42769475Y-45567121D01*
X42769466Y-45567124D01*
X42570602Y-45659857D01*
X42507555Y-45704001D01*
X43067467Y-46263913D01*
X43057685Y-46265320D01*
X42926900Y-46325048D01*
X42818239Y-46419202D01*
X42740507Y-46540156D01*
X42716922Y-46620476D01*
X42154001Y-46057555D01*
X42109857Y-46120602D01*
X42017124Y-46319466D01*
X42017121Y-46319475D01*
X41960335Y-46531407D01*
X41960333Y-46531417D01*
X41941210Y-46749999D01*
X41941210Y-46750000D01*
X40000251Y-46750000D01*
X40000251Y-43051870D01*
X41945500Y-43051870D01*
X41945501Y-43051876D01*
X41951908Y-43111483D01*
X42002202Y-43246328D01*
X42002206Y-43246335D01*
X42088452Y-43361544D01*
X42088455Y-43361547D01*
X42203664Y-43447793D01*
X42203671Y-43447797D01*
X42338517Y-43498091D01*
X42338516Y-43498091D01*
X42345444Y-43498835D01*
X42398127Y-43504500D01*
X43518524Y-43504499D01*
X43585563Y-43524184D01*
X43606205Y-43540817D01*
X43632694Y-43567305D01*
X43632694Y-43567306D01*
X43758201Y-43692812D01*
X44032609Y-43918013D01*
X44032616Y-43918018D01*
X44032626Y-43918025D01*
X44327754Y-44115222D01*
X44327761Y-44115226D01*
X44327770Y-44115232D01*
X44640841Y-44282570D01*
X44968806Y-44418415D01*
X45308507Y-44521460D01*
X45656673Y-44590711D01*
X46009950Y-44625502D01*
X46187444Y-44625500D01*
X47509839Y-44625500D01*
X47584260Y-44625500D01*
X47587302Y-44625575D01*
X47856088Y-44638778D01*
X47862136Y-44639372D01*
X48047568Y-44666878D01*
X48126825Y-44678635D01*
X48132787Y-44679820D01*
X48262869Y-44712403D01*
X48392358Y-44744839D01*
X48398177Y-44746604D01*
X48650120Y-44836750D01*
X48655730Y-44839074D01*
X48897629Y-44953483D01*
X48902987Y-44956346D01*
X49132497Y-45093909D01*
X49137559Y-45097291D01*
X49352487Y-45256693D01*
X49357193Y-45260555D01*
X49555392Y-45440191D01*
X49559697Y-45444496D01*
X49739439Y-45642809D01*
X49743301Y-45647515D01*
X49902706Y-45862447D01*
X49906080Y-45867497D01*
X50019997Y-46057556D01*
X50043637Y-46096997D01*
X50046507Y-46102367D01*
X50160919Y-46344271D01*
X50163249Y-46349896D01*
X50253387Y-46601816D01*
X50255154Y-46607642D01*
X50320171Y-46867204D01*
X50321358Y-46873175D01*
X50360619Y-47137851D01*
X50361215Y-47143910D01*
X50374425Y-47412818D01*
X50374500Y-47415860D01*
X50374500Y-69180862D01*
X50374486Y-69180909D01*
X50374489Y-69424498D01*
X50404659Y-69807817D01*
X50464814Y-70187603D01*
X50464814Y-70187602D01*
X50554579Y-70561491D01*
X50673402Y-70927185D01*
X50703360Y-70999509D01*
X50820550Y-71282430D01*
X50995120Y-71625039D01*
X50995120Y-71625038D01*
X51014037Y-71655908D01*
X51190702Y-71944198D01*
X51196026Y-71952885D01*
X51196026Y-71952886D01*
X51422039Y-72263965D01*
X51494607Y-72348930D01*
X51671757Y-72556345D01*
X51671757Y-72556346D01*
X51712651Y-72597241D01*
X51753997Y-72638587D01*
X51754000Y-72638591D01*
X51807705Y-72692295D01*
X51832041Y-72716631D01*
X51864066Y-72748657D01*
X51864234Y-72748805D01*
X51943660Y-72828231D01*
X52019188Y-72892738D01*
X52236049Y-73077955D01*
X52547121Y-73303963D01*
X52547122Y-73303963D01*
X52547123Y-73303964D01*
X52874968Y-73504869D01*
X52874967Y-73504869D01*
X52874973Y-73504872D01*
X53217576Y-73679438D01*
X53217581Y-73679440D01*
X53217580Y-73679440D01*
X53351802Y-73735037D01*
X53572819Y-73826586D01*
X53938511Y-73945409D01*
X54312399Y-74035173D01*
X54312398Y-74035173D01*
X54692184Y-74095328D01*
X55075502Y-74125498D01*
X55075505Y-74125498D01*
X55181142Y-74125498D01*
X55181152Y-74125500D01*
X55267761Y-74125500D01*
X55343710Y-74125501D01*
X55343714Y-74125500D01*
X58025501Y-74125500D01*
X58092540Y-74145185D01*
X58138295Y-74197989D01*
X58149501Y-74249500D01*
X58149501Y-74897876D01*
X58155908Y-74957483D01*
X58206202Y-75092328D01*
X58206206Y-75092335D01*
X58292452Y-75207544D01*
X58292455Y-75207547D01*
X58407664Y-75293793D01*
X58407671Y-75293797D01*
X58452618Y-75310561D01*
X58542517Y-75344091D01*
X58602127Y-75350500D01*
X59250500Y-75350499D01*
X59317539Y-75370183D01*
X59363294Y-75422987D01*
X59374500Y-75474499D01*
X59374500Y-75890455D01*
X59374309Y-75895321D01*
X59361949Y-76052370D01*
X59358905Y-76071588D01*
X59323842Y-76217639D01*
X59317829Y-76236145D01*
X59260346Y-76374920D01*
X59251513Y-76392256D01*
X59173033Y-76520325D01*
X59161595Y-76536068D01*
X59059327Y-76655808D01*
X59056021Y-76659384D01*
X58965065Y-76750341D01*
X58801727Y-76955161D01*
X58801726Y-76955163D01*
X58662332Y-77177007D01*
X58548666Y-77413038D01*
X58548663Y-77413046D01*
X58462134Y-77660329D01*
X58462130Y-77660341D01*
X58403833Y-77915762D01*
X58403830Y-77915780D01*
X58374500Y-78176105D01*
X58374500Y-84334199D01*
X58374503Y-84334292D01*
X58374503Y-84423893D01*
X58403833Y-84684218D01*
X58403836Y-84684236D01*
X58439457Y-84840304D01*
X58435183Y-84910043D01*
X58417835Y-84942203D01*
X58397117Y-84969880D01*
X58397109Y-84969892D01*
X58266830Y-85208480D01*
X58219733Y-85334752D01*
X58171825Y-85463199D01*
X58171824Y-85463202D01*
X58171823Y-85463206D01*
X58114040Y-85728832D01*
X58114039Y-85728839D01*
X58094645Y-85999998D01*
X58094645Y-86000001D01*
X58114039Y-86271160D01*
X58114040Y-86271167D01*
X58169121Y-86524371D01*
X58171825Y-86536801D01*
X58197303Y-86605109D01*
X58266830Y-86791519D01*
X58397109Y-87030107D01*
X58397110Y-87030108D01*
X58397113Y-87030113D01*
X58560029Y-87247742D01*
X58560033Y-87247746D01*
X58560038Y-87247752D01*
X58752247Y-87439961D01*
X58752253Y-87439966D01*
X58752258Y-87439971D01*
X58969887Y-87602887D01*
X58969891Y-87602889D01*
X58969892Y-87602890D01*
X59208481Y-87733169D01*
X59208480Y-87733169D01*
X59208484Y-87733170D01*
X59208487Y-87733172D01*
X59463199Y-87828175D01*
X59728840Y-87885961D01*
X59980605Y-87903967D01*
X59999999Y-87905355D01*
X60000000Y-87905355D01*
X60000001Y-87905355D01*
X60018100Y-87904060D01*
X60271160Y-87885961D01*
X60536801Y-87828175D01*
X60791513Y-87733172D01*
X60791517Y-87733169D01*
X60791519Y-87733169D01*
X60910813Y-87668029D01*
X61030113Y-87602887D01*
X61247742Y-87439971D01*
X61439971Y-87247742D01*
X61602887Y-87030113D01*
X61733172Y-86791513D01*
X61828175Y-86536801D01*
X61885961Y-86271160D01*
X61905355Y-86000001D01*
X78094645Y-86000001D01*
X78114039Y-86271160D01*
X78114040Y-86271167D01*
X78169121Y-86524371D01*
X78171825Y-86536801D01*
X78197303Y-86605109D01*
X78266830Y-86791519D01*
X78397109Y-87030107D01*
X78397110Y-87030108D01*
X78397113Y-87030113D01*
X78560029Y-87247742D01*
X78560033Y-87247746D01*
X78560038Y-87247752D01*
X78752247Y-87439961D01*
X78752253Y-87439966D01*
X78752258Y-87439971D01*
X78969887Y-87602887D01*
X78969891Y-87602889D01*
X78969892Y-87602890D01*
X79208481Y-87733169D01*
X79208480Y-87733169D01*
X79208484Y-87733170D01*
X79208487Y-87733172D01*
X79463199Y-87828175D01*
X79728840Y-87885961D01*
X79980605Y-87903967D01*
X79999999Y-87905355D01*
X80000000Y-87905355D01*
X80000001Y-87905355D01*
X80018100Y-87904060D01*
X80271160Y-87885961D01*
X80536801Y-87828175D01*
X80791513Y-87733172D01*
X80791517Y-87733169D01*
X80791519Y-87733169D01*
X80910813Y-87668029D01*
X81030113Y-87602887D01*
X81247742Y-87439971D01*
X81439971Y-87247742D01*
X81602887Y-87030113D01*
X81733172Y-86791513D01*
X81828175Y-86536801D01*
X81885961Y-86271160D01*
X81905355Y-86000000D01*
X81885961Y-85728840D01*
X81828175Y-85463199D01*
X81733172Y-85208487D01*
X81733170Y-85208484D01*
X81733169Y-85208480D01*
X81602890Y-84969892D01*
X81602889Y-84969891D01*
X81602887Y-84969887D01*
X81439971Y-84752258D01*
X81439966Y-84752253D01*
X81439961Y-84752247D01*
X81287715Y-84600001D01*
X118294390Y-84600001D01*
X118314804Y-84885433D01*
X118375628Y-85165037D01*
X118375630Y-85165043D01*
X118375631Y-85165046D01*
X118475557Y-85432958D01*
X118475635Y-85433166D01*
X118612770Y-85684309D01*
X118612775Y-85684317D01*
X118784254Y-85913387D01*
X118784270Y-85913405D01*
X118986594Y-86115729D01*
X118986612Y-86115745D01*
X119215682Y-86287224D01*
X119215690Y-86287229D01*
X119466833Y-86424364D01*
X119466832Y-86424364D01*
X119466836Y-86424365D01*
X119466839Y-86424367D01*
X119734954Y-86524369D01*
X119734960Y-86524370D01*
X119734962Y-86524371D01*
X120014566Y-86585195D01*
X120014568Y-86585195D01*
X120014572Y-86585196D01*
X120268220Y-86603337D01*
X120299999Y-86605610D01*
X120300000Y-86605610D01*
X120300001Y-86605610D01*
X120328595Y-86603564D01*
X120585428Y-86585196D01*
X120865046Y-86524369D01*
X121133161Y-86424367D01*
X121384315Y-86287226D01*
X121613395Y-86115739D01*
X121815739Y-85913395D01*
X121987226Y-85684315D01*
X122124367Y-85433161D01*
X122224369Y-85165046D01*
X122249196Y-85050918D01*
X122285195Y-84885433D01*
X122285195Y-84885432D01*
X122285196Y-84885428D01*
X122305610Y-84600001D01*
X124644390Y-84600001D01*
X124664804Y-84885433D01*
X124725628Y-85165037D01*
X124725630Y-85165043D01*
X124725631Y-85165046D01*
X124825557Y-85432958D01*
X124825635Y-85433166D01*
X124962770Y-85684309D01*
X124962775Y-85684317D01*
X125134254Y-85913387D01*
X125134270Y-85913405D01*
X125336594Y-86115729D01*
X125336612Y-86115745D01*
X125565682Y-86287224D01*
X125565690Y-86287229D01*
X125816833Y-86424364D01*
X125816832Y-86424364D01*
X125816836Y-86424365D01*
X125816839Y-86424367D01*
X126084954Y-86524369D01*
X126084960Y-86524370D01*
X126084962Y-86524371D01*
X126364566Y-86585195D01*
X126364568Y-86585195D01*
X126364572Y-86585196D01*
X126618220Y-86603337D01*
X126649999Y-86605610D01*
X126650000Y-86605610D01*
X126650001Y-86605610D01*
X126678595Y-86603564D01*
X126935428Y-86585196D01*
X127215046Y-86524369D01*
X127483161Y-86424367D01*
X127734315Y-86287226D01*
X127963395Y-86115739D01*
X128165739Y-85913395D01*
X128337226Y-85684315D01*
X128474367Y-85433161D01*
X128574369Y-85165046D01*
X128599196Y-85050918D01*
X128635195Y-84885433D01*
X128635195Y-84885432D01*
X128635196Y-84885428D01*
X128655610Y-84600001D01*
X130994891Y-84600001D01*
X131015300Y-84885362D01*
X131076109Y-85164895D01*
X131176091Y-85432958D01*
X131313191Y-85684038D01*
X131313196Y-85684046D01*
X131419882Y-85826561D01*
X131419883Y-85826562D01*
X132322803Y-84923641D01*
X132346059Y-84977553D01*
X132450756Y-85118185D01*
X132585062Y-85230882D01*
X132676665Y-85276886D01*
X131773436Y-86180115D01*
X131915960Y-86286807D01*
X131915961Y-86286808D01*
X132167042Y-86423908D01*
X132167041Y-86423908D01*
X132435104Y-86523890D01*
X132714637Y-86584699D01*
X132999999Y-86605109D01*
X133000001Y-86605109D01*
X133285362Y-86584699D01*
X133564895Y-86523890D01*
X133832958Y-86423908D01*
X134084047Y-86286803D01*
X134226561Y-86180116D01*
X134226562Y-86180115D01*
X133325946Y-85279498D01*
X133338891Y-85274787D01*
X133485373Y-85178445D01*
X133605688Y-85050918D01*
X133678447Y-84924894D01*
X134580115Y-85826562D01*
X134580116Y-85826561D01*
X134686803Y-85684047D01*
X134823908Y-85432958D01*
X134923890Y-85164895D01*
X134984699Y-84885362D01*
X135005109Y-84600001D01*
X135005109Y-84599998D01*
X134984699Y-84314637D01*
X134923890Y-84035104D01*
X134823908Y-83767041D01*
X134686808Y-83515961D01*
X134686807Y-83515960D01*
X134580115Y-83373436D01*
X133677195Y-84276356D01*
X133653941Y-84222447D01*
X133549244Y-84081815D01*
X133414938Y-83969118D01*
X133323333Y-83923112D01*
X134226562Y-83019883D01*
X134226561Y-83019882D01*
X134084046Y-82913196D01*
X134084038Y-82913191D01*
X133832957Y-82776091D01*
X133832958Y-82776091D01*
X133564895Y-82676109D01*
X133285362Y-82615300D01*
X133000001Y-82594891D01*
X132999999Y-82594891D01*
X132714637Y-82615300D01*
X132435104Y-82676109D01*
X132167041Y-82776091D01*
X131915961Y-82913191D01*
X131915953Y-82913196D01*
X131773437Y-83019882D01*
X131773436Y-83019883D01*
X132674054Y-83920501D01*
X132661109Y-83925213D01*
X132514627Y-84021555D01*
X132394312Y-84149082D01*
X132321552Y-84275105D01*
X131419883Y-83373436D01*
X131419882Y-83373437D01*
X131313196Y-83515953D01*
X131313191Y-83515961D01*
X131176091Y-83767041D01*
X131076109Y-84035104D01*
X131015300Y-84314637D01*
X130994891Y-84599998D01*
X130994891Y-84600001D01*
X128655610Y-84600001D01*
X128655610Y-84600000D01*
X128635196Y-84314572D01*
X128624810Y-84266830D01*
X128574371Y-84034962D01*
X128574370Y-84034960D01*
X128574369Y-84034954D01*
X128474367Y-83766839D01*
X128337372Y-83515953D01*
X128337229Y-83515690D01*
X128337224Y-83515682D01*
X128165745Y-83286612D01*
X128165729Y-83286594D01*
X127963405Y-83084270D01*
X127963387Y-83084254D01*
X127734317Y-82912775D01*
X127734309Y-82912770D01*
X127483166Y-82775635D01*
X127483167Y-82775635D01*
X127375915Y-82735632D01*
X127215046Y-82675631D01*
X127215043Y-82675630D01*
X127215037Y-82675628D01*
X126935433Y-82614804D01*
X126650001Y-82594390D01*
X126649999Y-82594390D01*
X126364566Y-82614804D01*
X126084962Y-82675628D01*
X125816833Y-82775635D01*
X125565690Y-82912770D01*
X125565682Y-82912775D01*
X125336612Y-83084254D01*
X125336594Y-83084270D01*
X125134270Y-83286594D01*
X125134254Y-83286612D01*
X124962775Y-83515682D01*
X124962770Y-83515690D01*
X124825635Y-83766833D01*
X124725628Y-84034962D01*
X124664804Y-84314566D01*
X124644390Y-84599998D01*
X124644390Y-84600001D01*
X122305610Y-84600001D01*
X122305610Y-84600000D01*
X122285196Y-84314572D01*
X122274810Y-84266830D01*
X122224371Y-84034962D01*
X122224370Y-84034960D01*
X122224369Y-84034954D01*
X122124367Y-83766839D01*
X121987372Y-83515953D01*
X121987229Y-83515690D01*
X121987224Y-83515682D01*
X121815745Y-83286612D01*
X121815729Y-83286594D01*
X121613405Y-83084270D01*
X121613387Y-83084254D01*
X121384317Y-82912775D01*
X121384309Y-82912770D01*
X121133166Y-82775635D01*
X121133167Y-82775635D01*
X121025915Y-82735632D01*
X120865046Y-82675631D01*
X120865043Y-82675630D01*
X120865037Y-82675628D01*
X120585433Y-82614804D01*
X120300001Y-82594390D01*
X120299999Y-82594390D01*
X120014566Y-82614804D01*
X119734962Y-82675628D01*
X119466833Y-82775635D01*
X119215690Y-82912770D01*
X119215682Y-82912775D01*
X118986612Y-83084254D01*
X118986594Y-83084270D01*
X118784270Y-83286594D01*
X118784254Y-83286612D01*
X118612775Y-83515682D01*
X118612770Y-83515690D01*
X118475635Y-83766833D01*
X118375628Y-84034962D01*
X118314804Y-84314566D01*
X118294390Y-84599998D01*
X118294390Y-84600001D01*
X81287715Y-84600001D01*
X81247752Y-84560038D01*
X81247746Y-84560033D01*
X81247742Y-84560029D01*
X81030113Y-84397113D01*
X81030108Y-84397110D01*
X81030107Y-84397109D01*
X80791518Y-84266830D01*
X80791506Y-84266825D01*
X80706166Y-84234994D01*
X80650232Y-84193123D01*
X80625816Y-84127658D01*
X80625500Y-84118813D01*
X80625500Y-81096179D01*
X80645185Y-81029140D01*
X80678375Y-80994605D01*
X80799139Y-80910047D01*
X80960047Y-80749139D01*
X81090568Y-80562734D01*
X81186739Y-80356496D01*
X81245635Y-80136692D01*
X81265468Y-79910000D01*
X81245635Y-79683308D01*
X81186739Y-79463504D01*
X81090568Y-79257266D01*
X80960047Y-79070861D01*
X80960045Y-79070858D01*
X80799141Y-78909954D01*
X80612734Y-78779432D01*
X80612732Y-78779431D01*
X80406497Y-78683261D01*
X80406488Y-78683258D01*
X80186697Y-78624366D01*
X80186693Y-78624365D01*
X80186692Y-78624365D01*
X80186691Y-78624364D01*
X80186686Y-78624364D01*
X79960002Y-78604532D01*
X79959998Y-78604532D01*
X79733313Y-78624364D01*
X79733302Y-78624366D01*
X79513511Y-78683258D01*
X79513502Y-78683261D01*
X79307267Y-78779431D01*
X79307265Y-78779432D01*
X79120858Y-78909954D01*
X78959954Y-79070858D01*
X78829432Y-79257265D01*
X78829431Y-79257267D01*
X78733261Y-79463502D01*
X78733258Y-79463511D01*
X78674366Y-79683302D01*
X78674364Y-79683313D01*
X78654532Y-79909998D01*
X78654532Y-79910001D01*
X78674364Y-80136686D01*
X78674366Y-80136697D01*
X78733258Y-80356488D01*
X78733261Y-80356497D01*
X78829431Y-80562732D01*
X78829432Y-80562734D01*
X78959954Y-80749141D01*
X79120858Y-80910045D01*
X79307265Y-81040568D01*
X79311957Y-81043277D01*
X79310718Y-81045421D01*
X79355330Y-81084685D01*
X79374500Y-81150917D01*
X79374500Y-84118813D01*
X79354815Y-84185852D01*
X79302011Y-84231607D01*
X79293834Y-84234994D01*
X79208493Y-84266825D01*
X79208481Y-84266830D01*
X78969892Y-84397109D01*
X78969891Y-84397110D01*
X78752259Y-84560028D01*
X78752247Y-84560038D01*
X78560038Y-84752247D01*
X78560028Y-84752259D01*
X78397110Y-84969891D01*
X78397109Y-84969892D01*
X78266830Y-85208480D01*
X78219733Y-85334752D01*
X78171825Y-85463199D01*
X78171824Y-85463202D01*
X78171823Y-85463206D01*
X78114040Y-85728832D01*
X78114039Y-85728839D01*
X78094645Y-85999998D01*
X78094645Y-86000001D01*
X61905355Y-86000001D01*
X61905355Y-86000000D01*
X61885961Y-85728840D01*
X61828175Y-85463199D01*
X61733172Y-85208487D01*
X61733170Y-85208484D01*
X61733169Y-85208480D01*
X61602890Y-84969892D01*
X61602889Y-84969891D01*
X61602887Y-84969887D01*
X61439971Y-84752258D01*
X61439966Y-84752253D01*
X61439961Y-84752247D01*
X61247752Y-84560038D01*
X61247746Y-84560033D01*
X61247742Y-84560029D01*
X61030113Y-84397113D01*
X61030108Y-84397110D01*
X61030107Y-84397109D01*
X60791518Y-84266830D01*
X60791519Y-84266830D01*
X60697082Y-84231607D01*
X60536801Y-84171825D01*
X60536794Y-84171823D01*
X60536793Y-84171823D01*
X60271167Y-84114040D01*
X60271160Y-84114039D01*
X60000001Y-84094645D01*
X59999999Y-84094645D01*
X59758346Y-84111928D01*
X59690073Y-84097076D01*
X59640668Y-84047671D01*
X59625500Y-83988244D01*
X59625500Y-79910002D01*
X73655034Y-79910002D01*
X73674858Y-80136599D01*
X73674860Y-80136610D01*
X73733730Y-80356317D01*
X73733734Y-80356326D01*
X73829865Y-80562481D01*
X73829866Y-80562483D01*
X73880973Y-80635471D01*
X73880974Y-80635472D01*
X74562046Y-79954399D01*
X74574835Y-80035148D01*
X74632359Y-80148045D01*
X74721955Y-80237641D01*
X74834852Y-80295165D01*
X74915599Y-80307953D01*
X74234526Y-80989025D01*
X74234526Y-80989026D01*
X74307512Y-81040131D01*
X74307516Y-81040133D01*
X74513673Y-81136265D01*
X74513682Y-81136269D01*
X74733389Y-81195139D01*
X74733400Y-81195141D01*
X74959998Y-81214966D01*
X74960002Y-81214966D01*
X75186599Y-81195141D01*
X75186610Y-81195139D01*
X75406317Y-81136269D01*
X75406331Y-81136264D01*
X75612478Y-81040136D01*
X75685472Y-80989025D01*
X75004401Y-80307953D01*
X75085148Y-80295165D01*
X75198045Y-80237641D01*
X75287641Y-80148045D01*
X75345165Y-80035148D01*
X75357953Y-79954400D01*
X76039025Y-80635472D01*
X76090136Y-80562478D01*
X76186264Y-80356331D01*
X76186269Y-80356317D01*
X76245139Y-80136610D01*
X76245141Y-80136599D01*
X76264966Y-79910002D01*
X76264966Y-79909997D01*
X76245141Y-79683400D01*
X76245139Y-79683389D01*
X76186269Y-79463682D01*
X76186265Y-79463673D01*
X76090133Y-79257516D01*
X76090131Y-79257512D01*
X76039026Y-79184526D01*
X76039025Y-79184526D01*
X75357953Y-79865598D01*
X75345165Y-79784852D01*
X75287641Y-79671955D01*
X75198045Y-79582359D01*
X75085148Y-79524835D01*
X75004400Y-79512046D01*
X75685472Y-78830974D01*
X75685471Y-78830973D01*
X75612483Y-78779866D01*
X75612481Y-78779865D01*
X75406326Y-78683734D01*
X75406317Y-78683730D01*
X75186610Y-78624860D01*
X75186599Y-78624858D01*
X74960002Y-78605034D01*
X74959998Y-78605034D01*
X74733400Y-78624858D01*
X74733389Y-78624860D01*
X74513682Y-78683730D01*
X74513673Y-78683734D01*
X74307513Y-78779868D01*
X74234527Y-78830972D01*
X74234526Y-78830973D01*
X74915600Y-79512046D01*
X74834852Y-79524835D01*
X74721955Y-79582359D01*
X74632359Y-79671955D01*
X74574835Y-79784852D01*
X74562046Y-79865599D01*
X73880973Y-79184526D01*
X73880972Y-79184527D01*
X73829868Y-79257513D01*
X73733734Y-79463673D01*
X73733730Y-79463682D01*
X73674860Y-79683389D01*
X73674858Y-79683400D01*
X73655034Y-79909997D01*
X73655034Y-79910002D01*
X59625500Y-79910002D01*
X59625500Y-78309544D01*
X59625691Y-78304678D01*
X59627600Y-78280416D01*
X59638050Y-78147625D01*
X59641092Y-78128419D01*
X59676161Y-77982347D01*
X59682167Y-77963862D01*
X59739654Y-77825075D01*
X59748487Y-77807742D01*
X59826967Y-77679674D01*
X59838403Y-77663933D01*
X59841481Y-77660329D01*
X59940669Y-77544192D01*
X59943942Y-77540651D01*
X60034926Y-77449668D01*
X60198276Y-77244834D01*
X60337664Y-77022997D01*
X60337667Y-77022991D01*
X60451333Y-76786960D01*
X60451334Y-76786957D01*
X60451338Y-76786949D01*
X60537869Y-76539658D01*
X60596167Y-76284233D01*
X60625500Y-76023887D01*
X60625500Y-75892890D01*
X60625500Y-75816941D01*
X60625500Y-75474499D01*
X60645185Y-75407460D01*
X60697989Y-75361705D01*
X60749500Y-75350499D01*
X61397871Y-75350499D01*
X61397872Y-75350499D01*
X61457483Y-75344091D01*
X61592331Y-75293796D01*
X61707546Y-75207546D01*
X61793796Y-75092331D01*
X61844091Y-74957483D01*
X61850500Y-74897873D01*
X61850499Y-73170001D01*
X118294390Y-73170001D01*
X118314804Y-73455433D01*
X118375628Y-73735037D01*
X118375630Y-73735043D01*
X118375631Y-73735046D01*
X118454093Y-73945409D01*
X118475635Y-74003166D01*
X118612770Y-74254309D01*
X118612775Y-74254317D01*
X118784254Y-74483387D01*
X118784270Y-74483405D01*
X118986594Y-74685729D01*
X118986612Y-74685745D01*
X119215682Y-74857224D01*
X119215690Y-74857229D01*
X119466833Y-74994364D01*
X119466832Y-74994364D01*
X119466836Y-74994365D01*
X119466839Y-74994367D01*
X119734954Y-75094369D01*
X119734960Y-75094370D01*
X119734962Y-75094371D01*
X120014566Y-75155195D01*
X120014568Y-75155195D01*
X120014572Y-75155196D01*
X120268220Y-75173337D01*
X120299999Y-75175610D01*
X120300000Y-75175610D01*
X120300001Y-75175610D01*
X120328595Y-75173564D01*
X120585428Y-75155196D01*
X120865046Y-75094369D01*
X121133161Y-74994367D01*
X121384315Y-74857226D01*
X121613395Y-74685739D01*
X121815739Y-74483395D01*
X121987226Y-74254315D01*
X122124367Y-74003161D01*
X122224369Y-73735046D01*
X122249196Y-73620918D01*
X122285195Y-73455433D01*
X122285195Y-73455432D01*
X122285196Y-73455428D01*
X122305610Y-73170001D01*
X124644891Y-73170001D01*
X124665300Y-73455362D01*
X124726109Y-73734895D01*
X124826091Y-74002958D01*
X124963191Y-74254038D01*
X124963196Y-74254046D01*
X125069882Y-74396561D01*
X125069883Y-74396562D01*
X125972803Y-73493641D01*
X125996059Y-73547553D01*
X126100756Y-73688185D01*
X126235062Y-73800882D01*
X126326665Y-73846886D01*
X125423436Y-74750115D01*
X125565960Y-74856807D01*
X125565961Y-74856808D01*
X125817042Y-74993908D01*
X125817041Y-74993908D01*
X126085104Y-75093890D01*
X126364637Y-75154699D01*
X126649999Y-75175109D01*
X126650001Y-75175109D01*
X126935362Y-75154699D01*
X127214895Y-75093890D01*
X127482958Y-74993908D01*
X127734047Y-74856803D01*
X127876561Y-74750116D01*
X127876562Y-74750115D01*
X126975946Y-73849498D01*
X126988891Y-73844787D01*
X127135373Y-73748445D01*
X127255688Y-73620918D01*
X127328447Y-73494894D01*
X128230115Y-74396562D01*
X128230116Y-74396561D01*
X128336803Y-74254047D01*
X128473908Y-74002958D01*
X128573890Y-73734895D01*
X128634699Y-73455362D01*
X128655109Y-73170001D01*
X130994891Y-73170001D01*
X131015300Y-73455362D01*
X131076109Y-73734895D01*
X131176091Y-74002958D01*
X131313191Y-74254038D01*
X131313196Y-74254046D01*
X131419882Y-74396561D01*
X131419883Y-74396562D01*
X132322803Y-73493641D01*
X132346059Y-73547553D01*
X132450756Y-73688185D01*
X132585062Y-73800882D01*
X132676665Y-73846886D01*
X131773436Y-74750115D01*
X131915960Y-74856807D01*
X131915961Y-74856808D01*
X132167042Y-74993908D01*
X132167041Y-74993908D01*
X132435104Y-75093890D01*
X132714637Y-75154699D01*
X132999999Y-75175109D01*
X133000001Y-75175109D01*
X133285362Y-75154699D01*
X133564895Y-75093890D01*
X133832958Y-74993908D01*
X134084047Y-74856803D01*
X134226561Y-74750116D01*
X134226562Y-74750115D01*
X133325946Y-73849498D01*
X133338891Y-73844787D01*
X133485373Y-73748445D01*
X133605688Y-73620918D01*
X133678447Y-73494894D01*
X134580115Y-74396562D01*
X134580116Y-74396561D01*
X134686803Y-74254047D01*
X134823908Y-74002958D01*
X134923890Y-73734895D01*
X134984699Y-73455362D01*
X135005109Y-73170001D01*
X135005109Y-73169998D01*
X134984699Y-72884637D01*
X134923890Y-72605104D01*
X134823908Y-72337041D01*
X134686808Y-72085961D01*
X134686807Y-72085960D01*
X134580115Y-71943436D01*
X133677195Y-72846356D01*
X133653941Y-72792447D01*
X133549244Y-72651815D01*
X133414938Y-72539118D01*
X133323333Y-72493112D01*
X134226562Y-71589883D01*
X134226561Y-71589882D01*
X134084046Y-71483196D01*
X134084038Y-71483191D01*
X133832957Y-71346091D01*
X133832958Y-71346091D01*
X133564895Y-71246109D01*
X133285362Y-71185300D01*
X133000001Y-71164891D01*
X132999999Y-71164891D01*
X132714637Y-71185300D01*
X132435104Y-71246109D01*
X132167041Y-71346091D01*
X131915961Y-71483191D01*
X131915953Y-71483196D01*
X131773437Y-71589882D01*
X131773436Y-71589883D01*
X132674054Y-72490501D01*
X132661109Y-72495213D01*
X132514627Y-72591555D01*
X132394312Y-72719082D01*
X132321552Y-72845105D01*
X131419883Y-71943436D01*
X131419882Y-71943437D01*
X131313196Y-72085953D01*
X131313191Y-72085961D01*
X131176091Y-72337041D01*
X131076109Y-72605104D01*
X131015300Y-72884637D01*
X130994891Y-73169998D01*
X130994891Y-73170001D01*
X128655109Y-73170001D01*
X128655109Y-73169998D01*
X128634699Y-72884637D01*
X128573890Y-72605104D01*
X128473908Y-72337041D01*
X128336808Y-72085961D01*
X128336807Y-72085960D01*
X128230115Y-71943436D01*
X127327195Y-72846356D01*
X127303941Y-72792447D01*
X127199244Y-72651815D01*
X127064938Y-72539118D01*
X126973333Y-72493112D01*
X127876562Y-71589883D01*
X127876561Y-71589882D01*
X127734046Y-71483196D01*
X127734038Y-71483191D01*
X127482957Y-71346091D01*
X127482958Y-71346091D01*
X127214895Y-71246109D01*
X126935362Y-71185300D01*
X126650001Y-71164891D01*
X126649999Y-71164891D01*
X126364637Y-71185300D01*
X126085104Y-71246109D01*
X125817041Y-71346091D01*
X125565961Y-71483191D01*
X125565953Y-71483196D01*
X125423437Y-71589882D01*
X125423436Y-71589883D01*
X126324054Y-72490501D01*
X126311109Y-72495213D01*
X126164627Y-72591555D01*
X126044312Y-72719082D01*
X125971552Y-72845105D01*
X125069883Y-71943436D01*
X125069882Y-71943437D01*
X124963196Y-72085953D01*
X124963191Y-72085961D01*
X124826091Y-72337041D01*
X124726109Y-72605104D01*
X124665300Y-72884637D01*
X124644891Y-73169998D01*
X124644891Y-73170001D01*
X122305610Y-73170001D01*
X122305610Y-73170000D01*
X122285196Y-72884572D01*
X122280567Y-72863294D01*
X122231009Y-72635479D01*
X122224369Y-72604954D01*
X122154869Y-72418620D01*
X122149886Y-72348930D01*
X122183371Y-72287607D01*
X122235054Y-72256629D01*
X122279238Y-72243225D01*
X122303072Y-72238485D01*
X122328868Y-72235944D01*
X122431796Y-72225807D01*
X122437877Y-72225508D01*
X122546734Y-72225508D01*
X122546734Y-72225507D01*
X122768787Y-72200488D01*
X122986645Y-72150762D01*
X123197566Y-72076956D01*
X123398897Y-71979998D01*
X123588106Y-71861107D01*
X123762813Y-71721779D01*
X123841817Y-71642772D01*
X123867168Y-71617421D01*
X124678379Y-70806209D01*
X124678389Y-70806202D01*
X124699364Y-70785227D01*
X124742295Y-70742295D01*
X124742294Y-70742294D01*
X124763152Y-70721437D01*
X124770119Y-70714471D01*
X124770121Y-70714467D01*
X124778560Y-70706029D01*
X124778614Y-70705963D01*
X124820054Y-70664523D01*
X124882977Y-70601600D01*
X124882980Y-70601597D01*
X125141409Y-70299017D01*
X125235982Y-70168848D01*
X125375307Y-69977083D01*
X125583221Y-69637800D01*
X125583221Y-69637801D01*
X125634405Y-69537347D01*
X125763880Y-69283239D01*
X125766888Y-69275979D01*
X125844276Y-69089147D01*
X125916162Y-68915602D01*
X126039129Y-68537151D01*
X126132025Y-68150218D01*
X126194276Y-67757190D01*
X126194664Y-67752270D01*
X126225499Y-67360492D01*
X126225500Y-67161525D01*
X126225500Y-65422322D01*
X126236893Y-65161364D01*
X126241579Y-65054016D01*
X126242051Y-65048626D01*
X126243567Y-65037112D01*
X126289815Y-64685801D01*
X126290752Y-64680492D01*
X126293707Y-64667161D01*
X126369959Y-64323202D01*
X126371349Y-64318015D01*
X126481401Y-63968970D01*
X126483237Y-63963924D01*
X126623294Y-63625795D01*
X126625566Y-63620922D01*
X126794559Y-63296286D01*
X126797246Y-63291633D01*
X126993887Y-62982970D01*
X126996966Y-62978572D01*
X127219756Y-62688225D01*
X127223226Y-62684091D01*
X127244422Y-62660960D01*
X127472152Y-62412435D01*
X127472294Y-62412294D01*
X127497653Y-62386936D01*
X127702689Y-62181900D01*
X127704845Y-62179847D01*
X127953566Y-61954420D01*
X127958245Y-61950579D01*
X128226629Y-61751533D01*
X128231670Y-61748165D01*
X128518261Y-61576389D01*
X128523595Y-61573538D01*
X128825645Y-61430679D01*
X128831253Y-61428356D01*
X129145837Y-61315796D01*
X129151660Y-61314031D01*
X129475770Y-61232845D01*
X129481709Y-61231664D01*
X129812210Y-61182640D01*
X129818255Y-61182046D01*
X130153514Y-61165575D01*
X130156557Y-61165500D01*
X130230949Y-61165500D01*
X130518649Y-61165500D01*
X130585688Y-61185185D01*
X130622458Y-61221679D01*
X130741016Y-61403147D01*
X130741019Y-61403151D01*
X130741021Y-61403153D01*
X130898216Y-61573913D01*
X130898219Y-61573915D01*
X130898222Y-61573918D01*
X131081365Y-61716464D01*
X131081371Y-61716468D01*
X131081374Y-61716470D01*
X131285497Y-61826936D01*
X131380359Y-61859502D01*
X131505015Y-61902297D01*
X131505017Y-61902297D01*
X131505019Y-61902298D01*
X131733951Y-61940500D01*
X131733952Y-61940500D01*
X131966048Y-61940500D01*
X131966049Y-61940500D01*
X132194981Y-61902298D01*
X132414503Y-61826936D01*
X132618626Y-61716470D01*
X132632550Y-61705633D01*
X132763986Y-61603332D01*
X132801784Y-61573913D01*
X132958979Y-61403153D01*
X133085924Y-61208849D01*
X133179157Y-60996300D01*
X133236134Y-60771305D01*
X133239444Y-60731363D01*
X133255300Y-60540006D01*
X133255300Y-60539993D01*
X133236135Y-60308702D01*
X133236133Y-60308691D01*
X133179157Y-60083699D01*
X133085924Y-59871151D01*
X132958983Y-59676852D01*
X132958980Y-59676849D01*
X132958979Y-59676847D01*
X132801784Y-59506087D01*
X132801779Y-59506083D01*
X132801777Y-59506081D01*
X132618634Y-59363535D01*
X132618628Y-59363531D01*
X132414504Y-59253064D01*
X132414495Y-59253061D01*
X132194984Y-59177702D01*
X132023282Y-59149050D01*
X131966049Y-59139500D01*
X131733951Y-59139500D01*
X131688164Y-59147140D01*
X131505015Y-59177702D01*
X131285504Y-59253061D01*
X131285495Y-59253064D01*
X131081371Y-59363531D01*
X131081365Y-59363535D01*
X130898222Y-59506081D01*
X130898219Y-59506084D01*
X130898216Y-59506086D01*
X130898216Y-59506087D01*
X130864790Y-59542398D01*
X130741016Y-59676852D01*
X130622458Y-59858321D01*
X130569311Y-59903678D01*
X130518649Y-59914500D01*
X130113761Y-59914500D01*
X130113697Y-59914502D01*
X129969643Y-59914502D01*
X129600086Y-59943586D01*
X129600085Y-59943586D01*
X129600079Y-59943587D01*
X129233934Y-60001579D01*
X128873468Y-60088119D01*
X128873460Y-60088121D01*
X128873458Y-60088122D01*
X128520907Y-60202672D01*
X128520902Y-60202673D01*
X128520902Y-60202674D01*
X128178411Y-60344538D01*
X127848107Y-60512836D01*
X127848103Y-60512838D01*
X127848096Y-60512842D01*
X127613337Y-60656703D01*
X127532025Y-60706531D01*
X127393305Y-60807317D01*
X127232112Y-60924430D01*
X127201573Y-60950513D01*
X126950225Y-61165184D01*
X126921411Y-61193998D01*
X126836601Y-61278807D01*
X126819159Y-61296249D01*
X126793836Y-61321572D01*
X126641409Y-61473998D01*
X126641408Y-61473999D01*
X126635462Y-61479945D01*
X126635459Y-61479948D01*
X126624028Y-61491378D01*
X126624001Y-61491392D01*
X126565143Y-61550251D01*
X126434677Y-61680717D01*
X126351599Y-61777989D01*
X126153593Y-62009824D01*
X126153591Y-62009827D01*
X125899194Y-62359975D01*
X125831091Y-62471109D01*
X125698037Y-62688236D01*
X125673054Y-62729004D01*
X125548997Y-62972480D01*
X125476564Y-63114638D01*
X125310935Y-63514504D01*
X125177197Y-63926113D01*
X125177197Y-63926114D01*
X125177194Y-63926124D01*
X125091015Y-64285092D01*
X125076156Y-64346983D01*
X125042856Y-64557239D01*
X125008861Y-64771886D01*
X125008453Y-64774460D01*
X124974499Y-65205922D01*
X124974499Y-65205923D01*
X124974500Y-65343306D01*
X124974500Y-67161519D01*
X124960107Y-67491137D01*
X124959635Y-67496527D01*
X124916923Y-67820944D01*
X124915983Y-67826273D01*
X124845157Y-68145746D01*
X124843756Y-68150974D01*
X124745357Y-68463051D01*
X124743506Y-68468136D01*
X124618283Y-68770452D01*
X124615996Y-68775356D01*
X124464901Y-69065605D01*
X124462195Y-69070292D01*
X124286382Y-69346261D01*
X124283278Y-69350694D01*
X124168708Y-69500006D01*
X124122939Y-69559654D01*
X124084073Y-69610305D01*
X124080601Y-69614442D01*
X124059198Y-69637800D01*
X123857535Y-69857874D01*
X123811070Y-69904339D01*
X123811062Y-69904345D01*
X123010918Y-70704489D01*
X123010916Y-70704489D01*
X123010917Y-70704490D01*
X122993971Y-70721437D01*
X122959367Y-70756040D01*
X122954857Y-70760129D01*
X122854742Y-70842292D01*
X122834531Y-70855797D01*
X122728389Y-70912533D01*
X122705933Y-70921835D01*
X122642471Y-70941086D01*
X122590767Y-70956771D01*
X122566928Y-70961513D01*
X122438206Y-70974192D01*
X122432124Y-70974491D01*
X122323264Y-70974491D01*
X122101225Y-70999509D01*
X122101213Y-70999511D01*
X121883361Y-71049235D01*
X121883352Y-71049237D01*
X121672439Y-71123040D01*
X121471098Y-71220003D01*
X121281895Y-71338890D01*
X121281885Y-71338898D01*
X121280828Y-71339741D01*
X121280520Y-71339866D01*
X121279057Y-71340905D01*
X121278814Y-71340562D01*
X121216135Y-71366136D01*
X121147443Y-71353366D01*
X121144108Y-71351610D01*
X121133166Y-71345635D01*
X121133167Y-71345635D01*
X121025915Y-71305632D01*
X120865046Y-71245631D01*
X120865043Y-71245630D01*
X120865037Y-71245628D01*
X120585433Y-71184804D01*
X120300001Y-71164390D01*
X120299999Y-71164390D01*
X120014566Y-71184804D01*
X119734962Y-71245628D01*
X119466833Y-71345635D01*
X119215690Y-71482770D01*
X119215682Y-71482775D01*
X118986612Y-71654254D01*
X118986594Y-71654270D01*
X118784270Y-71856594D01*
X118784254Y-71856612D01*
X118612775Y-72085682D01*
X118612770Y-72085690D01*
X118475635Y-72336833D01*
X118375628Y-72604962D01*
X118314804Y-72884566D01*
X118294390Y-73169998D01*
X118294390Y-73170001D01*
X61850499Y-73170001D01*
X61850499Y-72102128D01*
X61845299Y-72053757D01*
X61844091Y-72042516D01*
X61793797Y-71907671D01*
X61793793Y-71907664D01*
X61707547Y-71792455D01*
X61707544Y-71792452D01*
X61592335Y-71706206D01*
X61592328Y-71706202D01*
X61457482Y-71655908D01*
X61457483Y-71655908D01*
X61397883Y-71649501D01*
X61397881Y-71649500D01*
X61397873Y-71649500D01*
X61397864Y-71649500D01*
X58602129Y-71649500D01*
X58602123Y-71649501D01*
X58542516Y-71655908D01*
X58407671Y-71706202D01*
X58407664Y-71706206D01*
X58292455Y-71792452D01*
X58292452Y-71792455D01*
X58206206Y-71907664D01*
X58206202Y-71907671D01*
X58155908Y-72042517D01*
X58151267Y-72085690D01*
X58149501Y-72102123D01*
X58149500Y-72102135D01*
X58149500Y-72750500D01*
X58129815Y-72817539D01*
X58077011Y-72863294D01*
X58025500Y-72874500D01*
X55269301Y-72874500D01*
X55266258Y-72874425D01*
X54913808Y-72857107D01*
X54907750Y-72856510D01*
X54560216Y-72804957D01*
X54554245Y-72803769D01*
X54213430Y-72718398D01*
X54207617Y-72716634D01*
X53876801Y-72598265D01*
X53871188Y-72595940D01*
X53553572Y-72445717D01*
X53548203Y-72442847D01*
X53246859Y-72262227D01*
X53241797Y-72258845D01*
X52959590Y-72049545D01*
X52954884Y-72045683D01*
X52694467Y-71809654D01*
X52690162Y-71805349D01*
X52454302Y-71545118D01*
X52450440Y-71540412D01*
X52241143Y-71258210D01*
X52237761Y-71253148D01*
X52233542Y-71246109D01*
X52057132Y-70951788D01*
X52054275Y-70946442D01*
X51904039Y-70628799D01*
X51901728Y-70623219D01*
X51783348Y-70292373D01*
X51781592Y-70286582D01*
X51696216Y-69945751D01*
X51695031Y-69939796D01*
X51658877Y-69696073D01*
X51643476Y-69592250D01*
X51642879Y-69586191D01*
X51635713Y-69440346D01*
X53595702Y-69440346D01*
X53605819Y-69678528D01*
X53605819Y-69678532D01*
X53656045Y-69911580D01*
X53727093Y-70088386D01*
X53744936Y-70132790D01*
X53852467Y-70307432D01*
X53869932Y-70335796D01*
X53998529Y-70481911D01*
X54027436Y-70514755D01*
X54212920Y-70664523D01*
X54421046Y-70780790D01*
X54617048Y-70850042D01*
X54645829Y-70860211D01*
X54880790Y-70900499D01*
X54880798Y-70900499D01*
X54880800Y-70900500D01*
X54880801Y-70900500D01*
X55059502Y-70900500D01*
X55237536Y-70885347D01*
X55237539Y-70885346D01*
X55237541Y-70885346D01*
X55468249Y-70825275D01*
X55612367Y-70760129D01*
X55685480Y-70727080D01*
X55685481Y-70727078D01*
X55685486Y-70727077D01*
X55852320Y-70614317D01*
X55882993Y-70593586D01*
X55882994Y-70593584D01*
X55883003Y-70593579D01*
X56055118Y-70428621D01*
X56196879Y-70236947D01*
X56304207Y-70024074D01*
X56374016Y-69796123D01*
X56404298Y-69559654D01*
X56403350Y-69537347D01*
X56396597Y-69378364D01*
X56394180Y-69321468D01*
X56384376Y-69275979D01*
X56343954Y-69088419D01*
X56331276Y-69056870D01*
X56291973Y-68959062D01*
X56285243Y-68889519D01*
X56317179Y-68827375D01*
X56377642Y-68792362D01*
X56447437Y-68795597D01*
X56502885Y-68834164D01*
X56609575Y-68964166D01*
X56732705Y-69087295D01*
X56803845Y-69158436D01*
X56803851Y-69158441D01*
X56920444Y-69275035D01*
X56920457Y-69275047D01*
X56995539Y-69350129D01*
X57223658Y-69537342D01*
X57469029Y-69701294D01*
X57469038Y-69701299D01*
X57469040Y-69701300D01*
X57729281Y-69840402D01*
X57729283Y-69840402D01*
X57729289Y-69840406D01*
X57881495Y-69903452D01*
X58001924Y-69953336D01*
X58001928Y-69953337D01*
X58001930Y-69953338D01*
X58159837Y-70001238D01*
X58218274Y-70039535D01*
X58240021Y-70076563D01*
X58260992Y-70132788D01*
X58312426Y-70270690D01*
X58312428Y-70270694D01*
X58439280Y-70503005D01*
X58439285Y-70503013D01*
X58597906Y-70714907D01*
X58597922Y-70714925D01*
X58785074Y-70902077D01*
X58785092Y-70902093D01*
X58996986Y-71060714D01*
X58996994Y-71060719D01*
X59229305Y-71187571D01*
X59229309Y-71187573D01*
X59229311Y-71187574D01*
X59477322Y-71280077D01*
X59477325Y-71280077D01*
X59477326Y-71280078D01*
X59672552Y-71322546D01*
X59735974Y-71336343D01*
X59979660Y-71353772D01*
X59999999Y-71355227D01*
X60000000Y-71355227D01*
X60000001Y-71355227D01*
X60018885Y-71353876D01*
X60264026Y-71336343D01*
X60522678Y-71280077D01*
X60770689Y-71187574D01*
X61003011Y-71060716D01*
X61214915Y-70902087D01*
X61402087Y-70714915D01*
X61560716Y-70503011D01*
X61687574Y-70270689D01*
X61780077Y-70022678D01*
X61836343Y-69764026D01*
X61855227Y-69500006D01*
X63594700Y-69500006D01*
X63613864Y-69731297D01*
X63613866Y-69731308D01*
X63670842Y-69956300D01*
X63764075Y-70168848D01*
X63891016Y-70363147D01*
X63891019Y-70363151D01*
X63891021Y-70363153D01*
X64048216Y-70533913D01*
X64048219Y-70533915D01*
X64048222Y-70533918D01*
X64231365Y-70676464D01*
X64231371Y-70676468D01*
X64231374Y-70676470D01*
X64324893Y-70727080D01*
X64432344Y-70785230D01*
X64435497Y-70786936D01*
X64547175Y-70825275D01*
X64655015Y-70862297D01*
X64655017Y-70862297D01*
X64655019Y-70862298D01*
X64883951Y-70900500D01*
X64883952Y-70900500D01*
X65116048Y-70900500D01*
X65116049Y-70900500D01*
X65344981Y-70862298D01*
X65564503Y-70786936D01*
X65768626Y-70676470D01*
X65951784Y-70533913D01*
X66108979Y-70363153D01*
X66235924Y-70168849D01*
X66329157Y-69956300D01*
X66386134Y-69731305D01*
X66388529Y-69702402D01*
X66405300Y-69500006D01*
X66405300Y-69499993D01*
X66386135Y-69268702D01*
X66386133Y-69268691D01*
X66329157Y-69043699D01*
X66235924Y-68831151D01*
X66108983Y-68636852D01*
X66108980Y-68636849D01*
X66108979Y-68636847D01*
X65951784Y-68466087D01*
X65951779Y-68466083D01*
X65951777Y-68466081D01*
X65768634Y-68323535D01*
X65768628Y-68323531D01*
X65564504Y-68213064D01*
X65564495Y-68213061D01*
X65344984Y-68137702D01*
X65173282Y-68109050D01*
X65116049Y-68099500D01*
X64883951Y-68099500D01*
X64838164Y-68107140D01*
X64655015Y-68137702D01*
X64435504Y-68213061D01*
X64435495Y-68213064D01*
X64231371Y-68323531D01*
X64231365Y-68323535D01*
X64048222Y-68466081D01*
X64048219Y-68466084D01*
X64048216Y-68466086D01*
X64048216Y-68466087D01*
X64008096Y-68509669D01*
X63891016Y-68636852D01*
X63764075Y-68831151D01*
X63670842Y-69043699D01*
X63613866Y-69268691D01*
X63613864Y-69268702D01*
X63594700Y-69499993D01*
X63594700Y-69500006D01*
X61855227Y-69500006D01*
X61855227Y-69500000D01*
X61855226Y-69499993D01*
X61849827Y-69424498D01*
X61836343Y-69235974D01*
X61780077Y-68977322D01*
X61687574Y-68729311D01*
X61680504Y-68716364D01*
X61560719Y-68496994D01*
X61560714Y-68496986D01*
X61402093Y-68285092D01*
X61402077Y-68285074D01*
X61214925Y-68097922D01*
X61214907Y-68097906D01*
X61003013Y-67939285D01*
X61003005Y-67939280D01*
X60770694Y-67812428D01*
X60770690Y-67812426D01*
X60522673Y-67719921D01*
X60264034Y-67663658D01*
X60264027Y-67663657D01*
X60000001Y-67644773D01*
X59999999Y-67644773D01*
X59735972Y-67663657D01*
X59735965Y-67663658D01*
X59477326Y-67719921D01*
X59229309Y-67812426D01*
X59229305Y-67812428D01*
X58996994Y-67939280D01*
X58996986Y-67939285D01*
X58785092Y-68097906D01*
X58785074Y-68097922D01*
X58597922Y-68285074D01*
X58597906Y-68285092D01*
X58439285Y-68496986D01*
X58439284Y-68496988D01*
X58371128Y-68621805D01*
X58321722Y-68671210D01*
X58253449Y-68686061D01*
X58207452Y-68673589D01*
X58142398Y-68641508D01*
X58135367Y-68637449D01*
X58036486Y-68571379D01*
X57951524Y-68514609D01*
X57945092Y-68509673D01*
X57777312Y-68362535D01*
X57774356Y-68359765D01*
X57699665Y-68285074D01*
X57618515Y-68203924D01*
X57616144Y-68201415D01*
X57570391Y-68150218D01*
X57448213Y-68013501D01*
X57443892Y-68008082D01*
X57299072Y-67803979D01*
X57295377Y-67798099D01*
X57174321Y-67579069D01*
X57171304Y-67572803D01*
X57075536Y-67341602D01*
X57073238Y-67335035D01*
X57003956Y-67094561D01*
X57002412Y-67087795D01*
X56987429Y-66999620D01*
X56960489Y-66841072D01*
X56959712Y-66834176D01*
X56951238Y-66683327D01*
X56945598Y-66582908D01*
X56945500Y-66579431D01*
X56945500Y-65500001D01*
X58144773Y-65500001D01*
X58163657Y-65764027D01*
X58163658Y-65764034D01*
X58219921Y-66022673D01*
X58312426Y-66270690D01*
X58312428Y-66270694D01*
X58439280Y-66503005D01*
X58439285Y-66503013D01*
X58597906Y-66714907D01*
X58597922Y-66714925D01*
X58785074Y-66902077D01*
X58785092Y-66902093D01*
X58996986Y-67060714D01*
X58996994Y-67060719D01*
X59229305Y-67187571D01*
X59229309Y-67187573D01*
X59229311Y-67187574D01*
X59477322Y-67280077D01*
X59477325Y-67280077D01*
X59477326Y-67280078D01*
X59493664Y-67283632D01*
X59735974Y-67336343D01*
X59979660Y-67353772D01*
X59999999Y-67355227D01*
X60000000Y-67355227D01*
X60000001Y-67355227D01*
X60018885Y-67353876D01*
X60264026Y-67336343D01*
X60522678Y-67280077D01*
X60770689Y-67187574D01*
X61003011Y-67060716D01*
X61214915Y-66902087D01*
X61402087Y-66714915D01*
X61560716Y-66503011D01*
X61687574Y-66270689D01*
X61700535Y-66235939D01*
X61711641Y-66206165D01*
X61753512Y-66150232D01*
X61818977Y-66125816D01*
X61827822Y-66125500D01*
X67274579Y-66125500D01*
X67279447Y-66125691D01*
X67304499Y-66127662D01*
X67431164Y-66137634D01*
X67450358Y-66140674D01*
X67591239Y-66174498D01*
X67609712Y-66180501D01*
X67743555Y-66235943D01*
X67760878Y-66244770D01*
X67884391Y-66320460D01*
X67900129Y-66331894D01*
X68010344Y-66426029D01*
X68024101Y-66439786D01*
X68100704Y-66529476D01*
X68118117Y-66549863D01*
X68129552Y-66565603D01*
X68163888Y-66621632D01*
X68205237Y-66689107D01*
X68214071Y-66706443D01*
X68269508Y-66840277D01*
X68275520Y-66858782D01*
X68309335Y-66999620D01*
X68312380Y-67018838D01*
X68324309Y-67170374D01*
X68324500Y-67175241D01*
X68324500Y-68652146D01*
X68324517Y-68652722D01*
X68324516Y-68763050D01*
X68324516Y-68770925D01*
X68326627Y-68792362D01*
X68355853Y-69089142D01*
X68355853Y-69089147D01*
X68418233Y-69402772D01*
X68418233Y-69402774D01*
X68482443Y-69614451D01*
X68511051Y-69708761D01*
X68572744Y-69857705D01*
X68633416Y-70004184D01*
X68784150Y-70286191D01*
X68784158Y-70286204D01*
X68961795Y-70552059D01*
X68961798Y-70552062D01*
X69154554Y-70786938D01*
X69164657Y-70799248D01*
X69221652Y-70856242D01*
X69221661Y-70856252D01*
X69223999Y-70858590D01*
X69224000Y-70858591D01*
X69241371Y-70875962D01*
X69241401Y-70876016D01*
X69277692Y-70912307D01*
X69277692Y-70912308D01*
X69390745Y-71025362D01*
X69637926Y-71228217D01*
X69637932Y-71228221D01*
X69903785Y-71405857D01*
X69903798Y-71405865D01*
X69903801Y-71405867D01*
X70185808Y-71556601D01*
X70481232Y-71678967D01*
X70787228Y-71771786D01*
X71100848Y-71834165D01*
X71419073Y-71865503D01*
X71578954Y-71865500D01*
X73258972Y-71865500D01*
X73326011Y-71885185D01*
X73371766Y-71937989D01*
X73374400Y-71944198D01*
X73400361Y-72010345D01*
X73400360Y-72010345D01*
X73453356Y-72102135D01*
X73533042Y-72240155D01*
X73698492Y-72447623D01*
X73893016Y-72628114D01*
X74112268Y-72777598D01*
X74112273Y-72777600D01*
X74112274Y-72777601D01*
X74112276Y-72777602D01*
X74195206Y-72817539D01*
X74351350Y-72892734D01*
X74604922Y-72970950D01*
X74604923Y-72970950D01*
X74604926Y-72970951D01*
X74867311Y-73010499D01*
X74867316Y-73010499D01*
X74867319Y-73010500D01*
X74867320Y-73010500D01*
X75132680Y-73010500D01*
X75132681Y-73010500D01*
X75132688Y-73010499D01*
X75395073Y-72970951D01*
X75395074Y-72970950D01*
X75395078Y-72970950D01*
X75648650Y-72892734D01*
X75887733Y-72777598D01*
X76106984Y-72628114D01*
X76301508Y-72447623D01*
X76466958Y-72240155D01*
X76599639Y-72010345D01*
X76696586Y-71763327D01*
X76755635Y-71504619D01*
X76755636Y-71504609D01*
X76775465Y-71240004D01*
X76775465Y-71239995D01*
X76755636Y-70975390D01*
X76755635Y-70975385D01*
X76755635Y-70975381D01*
X76696586Y-70716673D01*
X76599639Y-70469655D01*
X76466958Y-70239845D01*
X76301508Y-70032377D01*
X76106984Y-69851886D01*
X76090143Y-69840404D01*
X75887736Y-69702404D01*
X75887725Y-69702397D01*
X75648655Y-69587268D01*
X75648636Y-69587261D01*
X75395083Y-69509051D01*
X75395073Y-69509048D01*
X75132688Y-69469500D01*
X75132681Y-69469500D01*
X74867319Y-69469500D01*
X74867311Y-69469500D01*
X74604926Y-69509048D01*
X74604916Y-69509051D01*
X74351363Y-69587261D01*
X74351344Y-69587268D01*
X74112276Y-69702397D01*
X74112274Y-69702398D01*
X73893015Y-69851886D01*
X73698494Y-70032375D01*
X73698492Y-70032377D01*
X73533042Y-70239845D01*
X73400361Y-70469654D01*
X73374400Y-70535802D01*
X73331584Y-70591016D01*
X73265714Y-70614317D01*
X73258972Y-70614500D01*
X71658638Y-70614500D01*
X71658622Y-70614499D01*
X71580672Y-70614499D01*
X71577196Y-70614402D01*
X71358096Y-70602101D01*
X71351182Y-70601322D01*
X71136556Y-70564859D01*
X71129777Y-70563311D01*
X70920583Y-70503046D01*
X70914016Y-70500748D01*
X70868538Y-70481911D01*
X70712892Y-70417441D01*
X70706624Y-70414423D01*
X70516084Y-70309117D01*
X70510193Y-70305415D01*
X70332646Y-70179439D01*
X70327205Y-70175101D01*
X70165008Y-70030154D01*
X70160088Y-70025233D01*
X70053532Y-69905997D01*
X70014906Y-69862774D01*
X70010580Y-69857350D01*
X69956327Y-69780886D01*
X69884598Y-69679792D01*
X69880896Y-69673900D01*
X69775595Y-69483370D01*
X69772576Y-69477101D01*
X69769428Y-69469500D01*
X69689264Y-69275963D01*
X69686972Y-69269411D01*
X69684397Y-69260474D01*
X69649979Y-69141000D01*
X69626706Y-69060215D01*
X69625159Y-69053443D01*
X69588694Y-68838799D01*
X69587918Y-68831912D01*
X69575596Y-68612442D01*
X69575500Y-68608992D01*
X69575500Y-68579069D01*
X69575501Y-68535116D01*
X69575500Y-68535111D01*
X69575500Y-67252661D01*
X69575501Y-67252630D01*
X69575501Y-67248904D01*
X69575502Y-67248900D01*
X69575501Y-67224327D01*
X69575514Y-67224281D01*
X69575513Y-67172951D01*
X69575514Y-67172951D01*
X69575512Y-67043872D01*
X69546603Y-66787340D01*
X69489154Y-66535656D01*
X69403887Y-66291988D01*
X69340325Y-66160004D01*
X73224535Y-66160004D01*
X73244363Y-66424609D01*
X73244364Y-66424614D01*
X73303410Y-66683313D01*
X73303412Y-66683322D01*
X73303414Y-66683327D01*
X73400361Y-66930345D01*
X73533042Y-67160155D01*
X73698492Y-67367623D01*
X73893016Y-67548114D01*
X74112268Y-67697598D01*
X74351350Y-67812734D01*
X74604922Y-67890950D01*
X74604923Y-67890950D01*
X74604926Y-67890951D01*
X74867311Y-67930499D01*
X74867316Y-67930499D01*
X74867319Y-67930500D01*
X74867320Y-67930500D01*
X75132680Y-67930500D01*
X75132681Y-67930500D01*
X75132688Y-67930499D01*
X75395073Y-67890951D01*
X75395074Y-67890950D01*
X75395078Y-67890950D01*
X75648650Y-67812734D01*
X75887733Y-67697598D01*
X76106984Y-67548114D01*
X76301508Y-67367623D01*
X76466958Y-67160155D01*
X76599639Y-66930345D01*
X76625600Y-66864198D01*
X76668416Y-66808984D01*
X76734286Y-66785683D01*
X76741028Y-66785500D01*
X79236704Y-66785500D01*
X79236708Y-66785501D01*
X79261272Y-66785500D01*
X79261341Y-66785520D01*
X79312657Y-66785519D01*
X79312657Y-66785520D01*
X79500956Y-66785518D01*
X79500961Y-66785518D01*
X79564719Y-66779939D01*
X79876133Y-66752690D01*
X80247017Y-66687289D01*
X80610789Y-66589813D01*
X80654460Y-66573918D01*
X80849287Y-66503005D01*
X80964682Y-66461004D01*
X81186032Y-66357785D01*
X81306005Y-66301840D01*
X81306004Y-66301840D01*
X81632151Y-66113537D01*
X81632150Y-66113538D01*
X81940642Y-65897529D01*
X81940642Y-65897528D01*
X81940648Y-65897524D01*
X82114911Y-65751298D01*
X82229147Y-65655444D01*
X82298377Y-65586212D01*
X82298386Y-65586204D01*
X82308589Y-65576000D01*
X82308591Y-65576000D01*
X82362295Y-65522295D01*
X82416000Y-65468591D01*
X82416001Y-65468588D01*
X82418523Y-65466067D01*
X82418740Y-65465821D01*
X82428759Y-65455802D01*
X82495431Y-65389131D01*
X82495435Y-65389126D01*
X82495435Y-65389127D01*
X82737508Y-65100637D01*
X82737507Y-65100637D01*
X82737508Y-65100636D01*
X82920364Y-64839493D01*
X82953521Y-64792140D01*
X82953520Y-64792141D01*
X83141823Y-64465993D01*
X83300985Y-64124674D01*
X83429794Y-63770783D01*
X83470197Y-63620004D01*
X98625037Y-63620004D01*
X98644860Y-63884535D01*
X98644861Y-63884540D01*
X98703890Y-64143166D01*
X98703896Y-64143185D01*
X98800814Y-64390128D01*
X98800813Y-64390128D01*
X98933457Y-64619871D01*
X98983642Y-64682803D01*
X98983643Y-64682803D01*
X99809356Y-63857090D01*
X99820868Y-63892519D01*
X99906835Y-64027981D01*
X100023790Y-64137809D01*
X100160555Y-64212996D01*
X99336438Y-65037112D01*
X99512525Y-65157166D01*
X99512526Y-65157167D01*
X99751530Y-65272264D01*
X99751528Y-65272264D01*
X100005025Y-65350458D01*
X100005031Y-65350459D01*
X100267351Y-65389999D01*
X100267358Y-65390000D01*
X100532642Y-65390000D01*
X100532648Y-65389999D01*
X100794968Y-65350459D01*
X100794974Y-65350458D01*
X101048467Y-65272265D01*
X101185261Y-65206389D01*
X101254203Y-65195037D01*
X101318337Y-65222759D01*
X101357303Y-65280754D01*
X101358728Y-65350610D01*
X101346452Y-65380106D01*
X101340813Y-65389872D01*
X101243896Y-65636814D01*
X101243890Y-65636833D01*
X101184861Y-65895459D01*
X101184860Y-65895464D01*
X101165037Y-66159995D01*
X101165037Y-66160004D01*
X101184860Y-66424535D01*
X101184861Y-66424540D01*
X101243890Y-66683166D01*
X101243896Y-66683185D01*
X101340814Y-66930128D01*
X101340813Y-66930128D01*
X101473457Y-67159871D01*
X101523642Y-67222803D01*
X101523643Y-67222803D01*
X102349356Y-66397090D01*
X102360868Y-66432519D01*
X102446835Y-66567981D01*
X102563790Y-66677809D01*
X102700555Y-66752996D01*
X101876438Y-67577112D01*
X102052525Y-67697166D01*
X102052526Y-67697167D01*
X102291530Y-67812264D01*
X102291528Y-67812264D01*
X102545025Y-67890458D01*
X102545031Y-67890459D01*
X102807351Y-67929999D01*
X102807358Y-67930000D01*
X103072642Y-67930000D01*
X103072648Y-67929999D01*
X103334968Y-67890459D01*
X103334974Y-67890458D01*
X103588470Y-67812264D01*
X103827479Y-67697164D01*
X104003560Y-67577112D01*
X103175977Y-66749529D01*
X103248345Y-66720877D01*
X103378142Y-66626574D01*
X103480410Y-66502954D01*
X103530359Y-66396806D01*
X104356355Y-67222803D01*
X104356356Y-67222802D01*
X104406545Y-67159869D01*
X104539185Y-66930128D01*
X104636103Y-66683185D01*
X104636109Y-66683166D01*
X104695138Y-66424540D01*
X104695139Y-66424535D01*
X104714963Y-66160004D01*
X104714963Y-66159995D01*
X104695139Y-65895464D01*
X104695138Y-65895459D01*
X104636109Y-65636833D01*
X104636103Y-65636814D01*
X104539185Y-65389871D01*
X104539186Y-65389871D01*
X104406543Y-65160129D01*
X104406536Y-65160118D01*
X104356356Y-65097196D01*
X104356355Y-65097195D01*
X103530643Y-65922908D01*
X103519132Y-65887481D01*
X103433165Y-65752019D01*
X103316210Y-65642191D01*
X103179444Y-65567003D01*
X104003560Y-64742886D01*
X103827484Y-64622839D01*
X103827474Y-64622832D01*
X103588469Y-64507735D01*
X103588471Y-64507735D01*
X103334974Y-64429541D01*
X103334968Y-64429540D01*
X103072648Y-64390000D01*
X102807351Y-64390000D01*
X102545031Y-64429540D01*
X102545025Y-64429541D01*
X102291535Y-64507733D01*
X102154737Y-64573611D01*
X102085795Y-64584962D01*
X102021661Y-64557239D01*
X101982696Y-64499244D01*
X101981271Y-64429388D01*
X101993553Y-64399883D01*
X101999186Y-64390126D01*
X102096103Y-64143185D01*
X102096109Y-64143166D01*
X102155138Y-63884540D01*
X102155139Y-63884535D01*
X102174963Y-63620004D01*
X102174963Y-63619995D01*
X102155139Y-63355464D01*
X102155138Y-63355459D01*
X102096109Y-63096833D01*
X102096103Y-63096814D01*
X101999187Y-62849874D01*
X101993994Y-62840880D01*
X101977521Y-62772980D01*
X102000373Y-62706953D01*
X102055294Y-62663762D01*
X102124847Y-62657120D01*
X102155180Y-62667158D01*
X102291350Y-62732734D01*
X102544922Y-62810950D01*
X102544923Y-62810950D01*
X102544926Y-62810951D01*
X102807311Y-62850499D01*
X102807316Y-62850499D01*
X102807319Y-62850500D01*
X102807320Y-62850500D01*
X103072680Y-62850500D01*
X103072681Y-62850500D01*
X103072688Y-62850499D01*
X103335073Y-62810951D01*
X103335074Y-62810950D01*
X103335078Y-62810950D01*
X103588650Y-62732734D01*
X103780071Y-62640550D01*
X103827725Y-62617602D01*
X103827725Y-62617601D01*
X103827733Y-62617598D01*
X104046984Y-62468114D01*
X104241508Y-62287623D01*
X104406958Y-62080155D01*
X104539639Y-61850345D01*
X104565600Y-61784198D01*
X104608416Y-61728984D01*
X104674286Y-61705683D01*
X104681028Y-61705500D01*
X109580379Y-61705500D01*
X109580383Y-61705501D01*
X109604958Y-61705500D01*
X109604990Y-61705509D01*
X109656332Y-61705509D01*
X109656332Y-61705510D01*
X109794998Y-61705509D01*
X109795001Y-61705509D01*
X109956285Y-61687334D01*
X110070585Y-61674454D01*
X110340962Y-61612740D01*
X110602730Y-61521141D01*
X110696700Y-61475886D01*
X110765639Y-61464535D01*
X110829773Y-61492256D01*
X110868739Y-61550251D01*
X110874500Y-61587607D01*
X110874500Y-66558479D01*
X110854815Y-66625518D01*
X110809519Y-66667533D01*
X110676496Y-66739522D01*
X110676494Y-66739523D01*
X110480257Y-66892261D01*
X110311833Y-67075217D01*
X110175826Y-67283393D01*
X110075936Y-67511118D01*
X110014892Y-67752175D01*
X110014890Y-67752187D01*
X109994357Y-67999994D01*
X109994357Y-68000005D01*
X110014890Y-68247812D01*
X110014892Y-68247824D01*
X110068863Y-68460948D01*
X110066238Y-68530768D01*
X110036338Y-68579069D01*
X109411497Y-69203911D01*
X109135600Y-69458946D01*
X109131897Y-69462109D01*
X108838745Y-69693211D01*
X108834805Y-69696073D01*
X108524440Y-69903452D01*
X108520288Y-69905997D01*
X108194610Y-70088386D01*
X108190270Y-70090597D01*
X107851270Y-70246879D01*
X107846770Y-70248743D01*
X107496550Y-70377947D01*
X107491919Y-70379452D01*
X107132665Y-70480774D01*
X107127929Y-70481911D01*
X106761815Y-70554737D01*
X106757007Y-70555498D01*
X106386304Y-70599375D01*
X106381467Y-70599756D01*
X106006286Y-70614500D01*
X104681028Y-70614500D01*
X104613989Y-70594815D01*
X104568234Y-70542011D01*
X104565600Y-70535802D01*
X104552728Y-70503005D01*
X104539639Y-70469655D01*
X104539638Y-70469654D01*
X104539639Y-70469654D01*
X104478150Y-70363153D01*
X104406958Y-70239845D01*
X104241508Y-70032377D01*
X104046984Y-69851886D01*
X104030143Y-69840404D01*
X103827736Y-69702404D01*
X103827725Y-69702397D01*
X103588655Y-69587268D01*
X103588636Y-69587261D01*
X103335083Y-69509051D01*
X103335073Y-69509048D01*
X103072688Y-69469500D01*
X103072681Y-69469500D01*
X102807319Y-69469500D01*
X102807311Y-69469500D01*
X102544926Y-69509048D01*
X102544916Y-69509051D01*
X102291363Y-69587261D01*
X102291344Y-69587268D01*
X102052276Y-69702397D01*
X102052274Y-69702398D01*
X101833015Y-69851886D01*
X101638494Y-70032375D01*
X101638492Y-70032377D01*
X101473042Y-70239845D01*
X101340361Y-70469654D01*
X101243416Y-70716667D01*
X101243410Y-70716686D01*
X101184364Y-70975385D01*
X101184363Y-70975390D01*
X101164535Y-71239995D01*
X101164535Y-71240004D01*
X101184363Y-71504609D01*
X101184364Y-71504614D01*
X101243410Y-71763313D01*
X101243412Y-71763322D01*
X101243414Y-71763327D01*
X101340361Y-72010345D01*
X101473042Y-72240155D01*
X101638492Y-72447623D01*
X101833016Y-72628114D01*
X102052268Y-72777598D01*
X102052273Y-72777600D01*
X102052274Y-72777601D01*
X102052276Y-72777602D01*
X102135206Y-72817539D01*
X102291350Y-72892734D01*
X102544922Y-72970950D01*
X102544923Y-72970950D01*
X102544926Y-72970951D01*
X102807311Y-73010499D01*
X102807316Y-73010499D01*
X102807319Y-73010500D01*
X102807320Y-73010500D01*
X103072680Y-73010500D01*
X103072681Y-73010500D01*
X103072688Y-73010499D01*
X103335073Y-72970951D01*
X103335074Y-72970950D01*
X103335078Y-72970950D01*
X103588650Y-72892734D01*
X103827733Y-72777598D01*
X104046984Y-72628114D01*
X104241508Y-72447623D01*
X104406958Y-72240155D01*
X104539639Y-72010345D01*
X104565600Y-71944198D01*
X104608416Y-71888984D01*
X104674286Y-71865683D01*
X104681028Y-71865500D01*
X105930091Y-71865500D01*
X105954668Y-71865500D01*
X105954702Y-71865509D01*
X106006040Y-71865508D01*
X106006040Y-71865510D01*
X106222724Y-71865508D01*
X106222726Y-71865508D01*
X106654995Y-71834590D01*
X107083951Y-71772912D01*
X107507412Y-71680792D01*
X107507411Y-71680792D01*
X107507412Y-71680791D01*
X107507415Y-71680791D01*
X107923230Y-71558695D01*
X107928845Y-71556601D01*
X108068226Y-71504614D01*
X108329276Y-71407247D01*
X108419296Y-71366136D01*
X108723480Y-71227220D01*
X109049429Y-71049237D01*
X109103842Y-71019525D01*
X109327146Y-70876016D01*
X109468412Y-70785230D01*
X109468411Y-70785231D01*
X109815352Y-70525516D01*
X109815352Y-70525515D01*
X110065088Y-70309117D01*
X110142866Y-70241722D01*
X110296086Y-70088503D01*
X110349791Y-70034799D01*
X110349791Y-70034797D01*
X110359996Y-70024593D01*
X110359999Y-70024588D01*
X110922771Y-69461817D01*
X110984092Y-69428334D01*
X111050712Y-69432218D01*
X111074386Y-69440346D01*
X111130385Y-69459571D01*
X111375665Y-69500500D01*
X111624335Y-69500500D01*
X111869614Y-69459571D01*
X112104810Y-69378828D01*
X112323509Y-69260474D01*
X112519744Y-69107738D01*
X112688164Y-68924785D01*
X112824173Y-68716607D01*
X112924063Y-68488881D01*
X112985108Y-68247821D01*
X112987988Y-68213064D01*
X113005643Y-68000005D01*
X118994859Y-68000005D01*
X119015385Y-68247729D01*
X119015387Y-68247738D01*
X119076412Y-68488717D01*
X119176266Y-68716364D01*
X119276564Y-68869882D01*
X120016923Y-68129523D01*
X120040507Y-68209844D01*
X120118239Y-68330798D01*
X120226900Y-68424952D01*
X120357685Y-68484680D01*
X120367466Y-68486086D01*
X119629942Y-69223609D01*
X119676768Y-69260055D01*
X119676770Y-69260056D01*
X119895385Y-69378364D01*
X119895396Y-69378369D01*
X120130506Y-69459083D01*
X120375707Y-69500000D01*
X120624293Y-69500000D01*
X120869493Y-69459083D01*
X121104603Y-69378369D01*
X121104614Y-69378364D01*
X121323228Y-69260057D01*
X121323231Y-69260055D01*
X121370056Y-69223609D01*
X120632533Y-68486086D01*
X120642315Y-68484680D01*
X120773100Y-68424952D01*
X120881761Y-68330798D01*
X120959493Y-68209844D01*
X120983076Y-68129524D01*
X121723434Y-68869882D01*
X121823731Y-68716369D01*
X121923587Y-68488717D01*
X121984612Y-68247738D01*
X121984614Y-68247729D01*
X122005141Y-68000005D01*
X122005141Y-67999994D01*
X121984614Y-67752270D01*
X121984612Y-67752261D01*
X121923587Y-67511282D01*
X121823731Y-67283630D01*
X121723434Y-67130116D01*
X120983076Y-67870475D01*
X120959493Y-67790156D01*
X120881761Y-67669202D01*
X120773100Y-67575048D01*
X120642315Y-67515320D01*
X120632534Y-67513913D01*
X121370057Y-66776390D01*
X121370056Y-66776389D01*
X121323229Y-66739943D01*
X121104614Y-66621635D01*
X121104603Y-66621630D01*
X120869493Y-66540916D01*
X120624293Y-66500000D01*
X120375707Y-66500000D01*
X120130506Y-66540916D01*
X119895396Y-66621630D01*
X119895390Y-66621632D01*
X119676761Y-66739949D01*
X119629942Y-66776388D01*
X119629942Y-66776390D01*
X120367466Y-67513913D01*
X120357685Y-67515320D01*
X120226900Y-67575048D01*
X120118239Y-67669202D01*
X120040507Y-67790156D01*
X120016923Y-67870475D01*
X119276564Y-67130116D01*
X119176267Y-67283632D01*
X119076412Y-67511282D01*
X119015387Y-67752261D01*
X119015385Y-67752270D01*
X118994859Y-67999994D01*
X118994859Y-68000005D01*
X113005643Y-68000005D01*
X113005643Y-67999994D01*
X112985109Y-67752187D01*
X112985107Y-67752175D01*
X112924063Y-67511118D01*
X112824173Y-67283393D01*
X112688166Y-67075217D01*
X112636265Y-67018838D01*
X112519744Y-66892262D01*
X112323509Y-66739526D01*
X112323508Y-66739525D01*
X112323505Y-66739523D01*
X112323503Y-66739522D01*
X112190481Y-66667533D01*
X112140891Y-66618313D01*
X112125500Y-66558479D01*
X112125500Y-61441519D01*
X112145185Y-61374480D01*
X112190483Y-61332464D01*
X112191369Y-61331984D01*
X112323509Y-61260474D01*
X112519744Y-61107738D01*
X112688164Y-60924785D01*
X112824173Y-60716607D01*
X112924063Y-60488881D01*
X112985108Y-60247821D01*
X112985904Y-60238215D01*
X113005643Y-60000005D01*
X113005643Y-59999994D01*
X112985109Y-59752187D01*
X112985107Y-59752178D01*
X112949352Y-59610982D01*
X112924063Y-59511118D01*
X112824173Y-59283393D01*
X112688166Y-59075217D01*
X112666557Y-59051744D01*
X112519744Y-58892262D01*
X112323509Y-58739526D01*
X112323507Y-58739525D01*
X112323506Y-58739524D01*
X112104811Y-58621172D01*
X112104802Y-58621169D01*
X111869616Y-58540429D01*
X111624335Y-58499500D01*
X111375665Y-58499500D01*
X111130383Y-58540429D01*
X110895197Y-58621169D01*
X110895188Y-58621172D01*
X110676493Y-58739524D01*
X110480257Y-58892261D01*
X110311833Y-59075217D01*
X110175826Y-59283393D01*
X110075936Y-59511118D01*
X110014892Y-59752175D01*
X110014890Y-59752187D01*
X109994357Y-59999994D01*
X109994357Y-60000005D01*
X110014890Y-60247812D01*
X110014894Y-60247835D01*
X110020202Y-60268796D01*
X110017576Y-60338616D01*
X109977618Y-60395932D01*
X109928945Y-60419806D01*
X109856373Y-60437230D01*
X109837155Y-60440275D01*
X109658869Y-60454309D01*
X109654002Y-60454500D01*
X104681028Y-60454500D01*
X104613989Y-60434815D01*
X104568234Y-60382011D01*
X104565600Y-60375802D01*
X104551005Y-60338616D01*
X104539639Y-60309655D01*
X104539638Y-60309654D01*
X104539639Y-60309654D01*
X104477872Y-60202672D01*
X104406958Y-60079845D01*
X104241508Y-59872377D01*
X104046984Y-59691886D01*
X104024933Y-59676852D01*
X103827736Y-59542404D01*
X103827725Y-59542397D01*
X103588655Y-59427268D01*
X103588636Y-59427261D01*
X103335083Y-59349051D01*
X103335073Y-59349048D01*
X103072688Y-59309500D01*
X103072681Y-59309500D01*
X102807319Y-59309500D01*
X102807311Y-59309500D01*
X102544926Y-59349048D01*
X102544916Y-59349051D01*
X102291363Y-59427261D01*
X102291344Y-59427268D01*
X102052276Y-59542397D01*
X102052274Y-59542398D01*
X101833015Y-59691886D01*
X101638494Y-59872375D01*
X101638492Y-59872377D01*
X101473042Y-60079845D01*
X101340361Y-60309654D01*
X101243416Y-60556667D01*
X101243410Y-60556686D01*
X101184364Y-60815385D01*
X101184363Y-60815390D01*
X101164535Y-61079995D01*
X101164535Y-61080004D01*
X101184363Y-61344609D01*
X101184364Y-61344614D01*
X101184364Y-61344618D01*
X101184365Y-61344619D01*
X101186793Y-61355255D01*
X101243410Y-61603313D01*
X101243416Y-61603332D01*
X101340360Y-61850344D01*
X101345648Y-61859502D01*
X101362122Y-61927402D01*
X101339270Y-61993430D01*
X101284350Y-62036621D01*
X101214797Y-62043263D01*
X101184461Y-62033225D01*
X101048464Y-61967733D01*
X100794974Y-61889541D01*
X100794968Y-61889540D01*
X100532648Y-61850000D01*
X100267351Y-61850000D01*
X100005031Y-61889540D01*
X100005025Y-61889541D01*
X99751529Y-61967735D01*
X99512526Y-62082832D01*
X99512518Y-62082837D01*
X99336438Y-62202886D01*
X100164022Y-63030470D01*
X100091655Y-63059123D01*
X99961858Y-63153426D01*
X99859590Y-63277046D01*
X99809640Y-63383193D01*
X98983643Y-62557196D01*
X98933456Y-62620128D01*
X98800814Y-62849871D01*
X98703896Y-63096814D01*
X98703890Y-63096833D01*
X98644861Y-63355459D01*
X98644860Y-63355464D01*
X98625037Y-63619995D01*
X98625037Y-63620004D01*
X83470197Y-63620004D01*
X83527270Y-63407012D01*
X83592670Y-63036130D01*
X83623474Y-62684091D01*
X83625498Y-62660960D01*
X83625498Y-62608896D01*
X83625498Y-62561664D01*
X83625500Y-62561657D01*
X83625500Y-62434094D01*
X83625501Y-62396708D01*
X83625500Y-62396703D01*
X83625500Y-59374863D01*
X83625500Y-59372930D01*
X83625494Y-59372745D01*
X83625495Y-59237838D01*
X83616748Y-59137851D01*
X83594752Y-58886424D01*
X83533497Y-58539028D01*
X83501196Y-58418478D01*
X83442201Y-58198300D01*
X83442200Y-58198299D01*
X83442199Y-58198297D01*
X83442198Y-58198292D01*
X83383164Y-58036096D01*
X83321552Y-57866813D01*
X83321552Y-57866814D01*
X83172470Y-57547107D01*
X83170640Y-57543938D01*
X82996092Y-57241610D01*
X82996091Y-57241609D01*
X82996089Y-57241605D01*
X82827023Y-57000154D01*
X82793760Y-56952649D01*
X82793759Y-56952648D01*
X82793760Y-56952648D01*
X82585284Y-56704198D01*
X82567013Y-56682423D01*
X82503073Y-56618483D01*
X82503061Y-56618469D01*
X82478618Y-56594026D01*
X82478611Y-56594014D01*
X82442298Y-56557701D01*
X82442299Y-56557701D01*
X82317581Y-56432982D01*
X82274102Y-56396498D01*
X82047355Y-56206235D01*
X82047355Y-56206236D01*
X82047354Y-56206235D01*
X81844362Y-56064099D01*
X81758398Y-56003906D01*
X81751640Y-56000004D01*
X101164535Y-56000004D01*
X101184363Y-56264609D01*
X101184364Y-56264614D01*
X101243410Y-56523313D01*
X101243412Y-56523322D01*
X101243414Y-56523327D01*
X101340361Y-56770345D01*
X101473042Y-57000155D01*
X101638492Y-57207623D01*
X101833016Y-57388114D01*
X102052268Y-57537598D01*
X102052273Y-57537600D01*
X102052274Y-57537601D01*
X102052276Y-57537602D01*
X102094216Y-57557799D01*
X102291350Y-57652734D01*
X102544922Y-57730950D01*
X102544923Y-57730950D01*
X102544926Y-57730951D01*
X102807311Y-57770499D01*
X102807316Y-57770499D01*
X102807319Y-57770500D01*
X102807320Y-57770500D01*
X103072680Y-57770500D01*
X103072681Y-57770500D01*
X103072688Y-57770499D01*
X103335073Y-57730951D01*
X103335074Y-57730950D01*
X103335078Y-57730950D01*
X103588650Y-57652734D01*
X103807987Y-57547107D01*
X103827725Y-57537602D01*
X103827725Y-57537601D01*
X103827733Y-57537598D01*
X104046984Y-57388114D01*
X104241508Y-57207623D01*
X104406958Y-57000155D01*
X104539639Y-56770345D01*
X104561561Y-56714489D01*
X104565600Y-56704198D01*
X104608416Y-56648984D01*
X104674286Y-56625683D01*
X104681028Y-56625500D01*
X114246032Y-56625500D01*
X114621492Y-56640254D01*
X114626277Y-56640631D01*
X114997030Y-56684514D01*
X115001797Y-56685269D01*
X115367945Y-56758102D01*
X115372645Y-56759231D01*
X115731935Y-56860562D01*
X115736547Y-56862061D01*
X116086767Y-56991265D01*
X116091266Y-56993129D01*
X116430255Y-57149406D01*
X116434595Y-57151617D01*
X116760286Y-57334013D01*
X116764438Y-57336558D01*
X117074804Y-57543938D01*
X117078742Y-57546798D01*
X117371900Y-57777906D01*
X117375584Y-57781052D01*
X117463637Y-57862447D01*
X117651715Y-58036305D01*
X119036338Y-59420930D01*
X119069823Y-59482253D01*
X119068863Y-59539051D01*
X119014892Y-59752175D01*
X119014890Y-59752187D01*
X118994357Y-59999994D01*
X118994357Y-60000005D01*
X119014890Y-60247812D01*
X119014892Y-60247824D01*
X119075936Y-60488881D01*
X119175826Y-60716606D01*
X119311833Y-60924782D01*
X119311836Y-60924785D01*
X119480256Y-61107738D01*
X119676491Y-61260474D01*
X119742597Y-61296249D01*
X119887155Y-61374480D01*
X119895190Y-61378828D01*
X120130386Y-61459571D01*
X120375665Y-61500500D01*
X120624335Y-61500500D01*
X120869614Y-61459571D01*
X121104810Y-61378828D01*
X121323509Y-61260474D01*
X121519744Y-61107738D01*
X121688164Y-60924785D01*
X121824173Y-60716607D01*
X121924063Y-60488881D01*
X121985108Y-60247821D01*
X121985904Y-60238215D01*
X122005643Y-60000005D01*
X122005643Y-59999994D01*
X121985109Y-59752187D01*
X121985108Y-59752184D01*
X121985108Y-59752179D01*
X121936346Y-59559623D01*
X121938971Y-59489805D01*
X121948497Y-59476139D01*
X121961980Y-59430223D01*
X121983017Y-59405387D01*
X122142821Y-59260549D01*
X122147515Y-59256698D01*
X122172945Y-59237838D01*
X122362455Y-59097287D01*
X122367483Y-59093927D01*
X122597017Y-58956350D01*
X122602367Y-58953492D01*
X122844271Y-58839080D01*
X122849874Y-58836759D01*
X123101828Y-58746608D01*
X123107642Y-58744845D01*
X123169833Y-58729267D01*
X123367217Y-58679825D01*
X123373175Y-58678641D01*
X123400288Y-58674619D01*
X123637864Y-58639378D01*
X123643910Y-58638784D01*
X123912819Y-58625575D01*
X123915861Y-58625500D01*
X123990160Y-58625500D01*
X131666880Y-58625500D01*
X131670357Y-58625598D01*
X131787486Y-58632176D01*
X131900934Y-58638549D01*
X131907830Y-58639326D01*
X132076239Y-58667941D01*
X132133784Y-58677719D01*
X132140568Y-58679267D01*
X132360797Y-58742715D01*
X132367360Y-58745010D01*
X132427483Y-58769915D01*
X132579106Y-58832722D01*
X132585374Y-58835741D01*
X132785967Y-58946604D01*
X132791845Y-58950297D01*
X132978775Y-59082932D01*
X132984198Y-59087256D01*
X133047594Y-59143910D01*
X133155181Y-59240056D01*
X133160099Y-59244974D01*
X133303449Y-59405384D01*
X133312749Y-59415790D01*
X133317078Y-59421219D01*
X133449709Y-59608144D01*
X133453406Y-59614028D01*
X133564270Y-59814617D01*
X133567289Y-59820886D01*
X133654998Y-60032632D01*
X133657296Y-60039200D01*
X133720743Y-60259421D01*
X133722291Y-60266204D01*
X133760684Y-60492158D01*
X133761463Y-60499072D01*
X133774402Y-60729427D01*
X133774500Y-60732905D01*
X133774500Y-61293469D01*
X133774425Y-61296512D01*
X133757955Y-61631746D01*
X133757359Y-61637804D01*
X133708338Y-61968281D01*
X133707151Y-61974253D01*
X133625970Y-62298340D01*
X133624203Y-62304166D01*
X133511648Y-62618738D01*
X133509318Y-62624363D01*
X133366470Y-62926391D01*
X133363600Y-62931760D01*
X133191844Y-63218317D01*
X133188462Y-63223379D01*
X132989432Y-63491740D01*
X132985570Y-63496446D01*
X132760226Y-63745075D01*
X132758127Y-63747279D01*
X132348519Y-64156888D01*
X132287196Y-64190373D01*
X132220575Y-64186488D01*
X132194983Y-64177702D01*
X132042359Y-64152234D01*
X131966049Y-64139500D01*
X131733951Y-64139500D01*
X131688164Y-64147140D01*
X131505015Y-64177702D01*
X131285504Y-64253061D01*
X131285495Y-64253064D01*
X131081371Y-64363531D01*
X131081365Y-64363535D01*
X130898222Y-64506081D01*
X130898219Y-64506084D01*
X130898216Y-64506086D01*
X130898216Y-64506087D01*
X130839267Y-64570122D01*
X130741016Y-64676852D01*
X130614075Y-64871151D01*
X130520842Y-65083699D01*
X130463866Y-65308691D01*
X130463864Y-65308702D01*
X130444700Y-65539993D01*
X130444700Y-65540006D01*
X130463864Y-65771297D01*
X130463866Y-65771308D01*
X130520842Y-65996300D01*
X130614075Y-66208848D01*
X130741016Y-66403147D01*
X130741019Y-66403151D01*
X130741021Y-66403153D01*
X130898216Y-66573913D01*
X130898219Y-66573915D01*
X130898222Y-66573918D01*
X131081365Y-66716464D01*
X131081371Y-66716468D01*
X131081374Y-66716470D01*
X131285497Y-66826936D01*
X131399487Y-66866068D01*
X131505015Y-66902297D01*
X131505017Y-66902297D01*
X131505019Y-66902298D01*
X131733951Y-66940500D01*
X131733952Y-66940500D01*
X131966048Y-66940500D01*
X131966049Y-66940500D01*
X132194981Y-66902298D01*
X132414503Y-66826936D01*
X132618626Y-66716470D01*
X132643088Y-66697431D01*
X132681501Y-66667533D01*
X132801784Y-66573913D01*
X132958979Y-66403153D01*
X133085924Y-66208849D01*
X133179157Y-65996300D01*
X133236134Y-65771305D01*
X133236135Y-65771297D01*
X133255300Y-65540006D01*
X133255300Y-65539993D01*
X133236135Y-65308702D01*
X133236132Y-65308686D01*
X133217718Y-65235974D01*
X133198823Y-65161361D01*
X133201447Y-65091544D01*
X133231345Y-65043243D01*
X133607429Y-64667161D01*
X133607437Y-64667156D01*
X133643751Y-64630841D01*
X133643752Y-64630842D01*
X133774818Y-64499776D01*
X133958181Y-64285085D01*
X134015572Y-64217889D01*
X134083296Y-64124674D01*
X134233471Y-63917976D01*
X134427165Y-63601894D01*
X134595464Y-63271589D01*
X134737328Y-62929099D01*
X134762867Y-62850500D01*
X134851880Y-62576543D01*
X134851880Y-62576540D01*
X134851883Y-62576533D01*
X134938423Y-62216066D01*
X134971172Y-62009300D01*
X134996416Y-61849915D01*
X134996416Y-61849914D01*
X135025500Y-61480357D01*
X135025500Y-60807317D01*
X135025501Y-60807313D01*
X135025500Y-60782737D01*
X135025512Y-60782695D01*
X135025511Y-60716607D01*
X135025510Y-60566451D01*
X134993178Y-60238215D01*
X134928830Y-59914729D01*
X134915982Y-59872377D01*
X134833086Y-59599111D01*
X134833085Y-59599107D01*
X134706865Y-59294390D01*
X134551386Y-59003511D01*
X134464297Y-58873175D01*
X134368150Y-58729281D01*
X134368139Y-58729267D01*
X134293882Y-58638784D01*
X134158906Y-58474316D01*
X134158905Y-58474315D01*
X134158901Y-58474310D01*
X134103073Y-58418483D01*
X134103069Y-58418478D01*
X134096000Y-58411409D01*
X134042295Y-58357705D01*
X133988591Y-58304000D01*
X133988590Y-58303999D01*
X133985976Y-58301385D01*
X133985822Y-58301249D01*
X133925675Y-58241102D01*
X133670725Y-58031869D01*
X133670724Y-58031868D01*
X133670720Y-58031865D01*
X133396482Y-57848624D01*
X133105605Y-57693146D01*
X133070121Y-57678448D01*
X132800883Y-57566924D01*
X132485271Y-57471181D01*
X132161788Y-57406834D01*
X132161793Y-57406834D01*
X132086494Y-57399417D01*
X131833547Y-57374502D01*
X131833544Y-57374501D01*
X131833550Y-57374501D01*
X131747651Y-57374500D01*
X131747648Y-57374500D01*
X131668636Y-57374500D01*
X131592686Y-57374499D01*
X131592685Y-57374499D01*
X131588946Y-57374499D01*
X131588931Y-57374500D01*
X123873282Y-57374500D01*
X123873097Y-57374505D01*
X123737838Y-57374505D01*
X123386424Y-57405248D01*
X123039028Y-57466503D01*
X122919276Y-57498589D01*
X122698300Y-57557799D01*
X122698298Y-57557800D01*
X122698292Y-57557802D01*
X122573579Y-57603193D01*
X122366813Y-57678448D01*
X122366814Y-57678448D01*
X122366810Y-57678450D01*
X122047105Y-57827531D01*
X121979065Y-57866814D01*
X121741605Y-58003911D01*
X121560821Y-58130496D01*
X121452649Y-58206240D01*
X121452648Y-58206241D01*
X121452648Y-58206240D01*
X121281447Y-58349896D01*
X121182423Y-58432987D01*
X121146915Y-58468494D01*
X121111409Y-58504000D01*
X121077228Y-58538181D01*
X121015904Y-58571665D01*
X120949286Y-58567780D01*
X120869611Y-58540428D01*
X120624335Y-58499500D01*
X120375665Y-58499500D01*
X120130386Y-58540428D01*
X120050712Y-58567780D01*
X119980914Y-58570929D01*
X119922770Y-58538179D01*
X118506970Y-57122379D01*
X118506703Y-57122129D01*
X118444775Y-57060201D01*
X118382863Y-56998288D01*
X118055338Y-56714487D01*
X117708405Y-56454776D01*
X117708406Y-56454777D01*
X117343835Y-56220482D01*
X117317745Y-56206236D01*
X117168160Y-56124556D01*
X116963475Y-56012789D01*
X116569274Y-55832763D01*
X116569275Y-55832763D01*
X116569272Y-55832762D01*
X116163227Y-55681314D01*
X115747412Y-55559218D01*
X115747409Y-55559217D01*
X115659095Y-55540005D01*
X130445202Y-55540005D01*
X130464361Y-55771218D01*
X130521317Y-55996135D01*
X130614516Y-56208609D01*
X130698811Y-56337633D01*
X131287226Y-55749219D01*
X131325901Y-55842588D01*
X131422075Y-55967925D01*
X131547412Y-56064099D01*
X131640779Y-56102772D01*
X131051199Y-56692351D01*
X131081650Y-56716050D01*
X131285697Y-56826476D01*
X131285706Y-56826479D01*
X131505139Y-56901811D01*
X131733993Y-56940000D01*
X131966007Y-56940000D01*
X132194860Y-56901811D01*
X132414293Y-56826479D01*
X132414302Y-56826476D01*
X132618350Y-56716050D01*
X132648798Y-56692351D01*
X132059220Y-56102773D01*
X132152588Y-56064099D01*
X132277925Y-55967925D01*
X132374099Y-55842589D01*
X132412773Y-55749220D01*
X133001186Y-56337634D01*
X133085484Y-56208606D01*
X133178682Y-55996135D01*
X133235638Y-55771218D01*
X133254798Y-55540005D01*
X133254798Y-55539994D01*
X133235638Y-55308781D01*
X133178682Y-55083864D01*
X133085483Y-54871390D01*
X133001186Y-54742364D01*
X132412772Y-55330778D01*
X132374099Y-55237412D01*
X132277925Y-55112075D01*
X132152588Y-55015901D01*
X132059220Y-54977227D01*
X132648799Y-54387648D01*
X132648799Y-54387647D01*
X132618349Y-54363949D01*
X132414302Y-54253523D01*
X132414293Y-54253520D01*
X132194860Y-54178188D01*
X131966007Y-54140000D01*
X131733993Y-54140000D01*
X131505139Y-54178188D01*
X131285706Y-54253520D01*
X131285698Y-54253523D01*
X131081644Y-54363952D01*
X131051200Y-54387646D01*
X131051200Y-54387647D01*
X131640779Y-54977226D01*
X131547412Y-55015901D01*
X131422075Y-55112075D01*
X131325901Y-55237411D01*
X131287226Y-55330779D01*
X130698812Y-54742365D01*
X130614516Y-54871391D01*
X130614514Y-54871395D01*
X130521317Y-55083864D01*
X130464361Y-55308781D01*
X130445202Y-55539994D01*
X130445202Y-55540005D01*
X115659095Y-55540005D01*
X115323949Y-55467097D01*
X114894994Y-55405420D01*
X114462726Y-55374502D01*
X114325057Y-55374500D01*
X114325055Y-55374500D01*
X104681028Y-55374500D01*
X104613989Y-55354815D01*
X104568234Y-55302011D01*
X104565600Y-55295802D01*
X104542683Y-55237412D01*
X104539639Y-55229655D01*
X104539638Y-55229654D01*
X104539639Y-55229654D01*
X104455466Y-55083864D01*
X104406958Y-54999845D01*
X104241508Y-54792377D01*
X104046984Y-54611886D01*
X103827733Y-54462402D01*
X103827732Y-54462401D01*
X103827725Y-54462397D01*
X103588655Y-54347268D01*
X103588636Y-54347261D01*
X103335083Y-54269051D01*
X103335073Y-54269048D01*
X103072688Y-54229500D01*
X103072681Y-54229500D01*
X102807319Y-54229500D01*
X102807311Y-54229500D01*
X102544926Y-54269048D01*
X102544916Y-54269051D01*
X102291363Y-54347261D01*
X102291344Y-54347268D01*
X102052276Y-54462397D01*
X102052274Y-54462398D01*
X101833015Y-54611886D01*
X101638494Y-54792375D01*
X101638492Y-54792377D01*
X101473042Y-54999845D01*
X101340361Y-55229654D01*
X101243416Y-55476667D01*
X101243410Y-55476686D01*
X101184364Y-55735385D01*
X101184363Y-55735390D01*
X101164535Y-55999995D01*
X101164535Y-56000004D01*
X81751640Y-56000004D01*
X81567261Y-55893553D01*
X81452897Y-55827525D01*
X81255301Y-55735385D01*
X81133188Y-55678443D01*
X81133189Y-55678443D01*
X80926424Y-55603188D01*
X80801709Y-55557796D01*
X80460972Y-55466497D01*
X80113575Y-55405242D01*
X79762161Y-55374499D01*
X79585783Y-55374500D01*
X76741028Y-55374500D01*
X76673989Y-55354815D01*
X76628234Y-55302011D01*
X76625600Y-55295802D01*
X76602683Y-55237412D01*
X76599639Y-55229655D01*
X76599638Y-55229654D01*
X76599639Y-55229654D01*
X76515466Y-55083864D01*
X76466958Y-54999845D01*
X76301508Y-54792377D01*
X76106984Y-54611886D01*
X75887733Y-54462402D01*
X75887732Y-54462401D01*
X75887725Y-54462397D01*
X75648655Y-54347268D01*
X75648636Y-54347261D01*
X75395083Y-54269051D01*
X75395073Y-54269048D01*
X75132688Y-54229500D01*
X75132681Y-54229500D01*
X74867319Y-54229500D01*
X74867311Y-54229500D01*
X74604926Y-54269048D01*
X74604916Y-54269051D01*
X74351363Y-54347261D01*
X74351344Y-54347268D01*
X74112276Y-54462397D01*
X74112274Y-54462398D01*
X73893015Y-54611886D01*
X73698494Y-54792375D01*
X73698492Y-54792377D01*
X73533042Y-54999845D01*
X73400361Y-55229654D01*
X73303416Y-55476667D01*
X73303410Y-55476686D01*
X73244364Y-55735385D01*
X73244363Y-55735390D01*
X73224535Y-55999995D01*
X73224535Y-56000004D01*
X73244363Y-56264609D01*
X73244364Y-56264614D01*
X73303410Y-56523313D01*
X73303412Y-56523322D01*
X73303414Y-56523327D01*
X73400361Y-56770345D01*
X73533042Y-57000155D01*
X73698492Y-57207623D01*
X73893016Y-57388114D01*
X74112268Y-57537598D01*
X74112273Y-57537600D01*
X74112274Y-57537601D01*
X74112276Y-57537602D01*
X74154216Y-57557799D01*
X74351350Y-57652734D01*
X74604922Y-57730950D01*
X74604923Y-57730950D01*
X74604926Y-57730951D01*
X74867311Y-57770499D01*
X74867316Y-57770499D01*
X74867319Y-57770500D01*
X74867320Y-57770500D01*
X75132680Y-57770500D01*
X75132681Y-57770500D01*
X75132688Y-57770499D01*
X75395073Y-57730951D01*
X75395074Y-57730950D01*
X75395078Y-57730950D01*
X75648650Y-57652734D01*
X75867987Y-57547107D01*
X75887725Y-57537602D01*
X75887725Y-57537601D01*
X75887733Y-57537598D01*
X76106984Y-57388114D01*
X76301508Y-57207623D01*
X76466958Y-57000155D01*
X76599639Y-56770345D01*
X76621561Y-56714489D01*
X76625600Y-56704198D01*
X76668416Y-56648984D01*
X76734286Y-56625683D01*
X76741028Y-56625500D01*
X79509839Y-56625500D01*
X79584260Y-56625500D01*
X79587302Y-56625575D01*
X79856088Y-56638778D01*
X79862136Y-56639372D01*
X80047568Y-56666878D01*
X80126825Y-56678635D01*
X80132787Y-56679820D01*
X80230110Y-56704198D01*
X80392358Y-56744839D01*
X80398177Y-56746604D01*
X80650120Y-56836750D01*
X80655730Y-56839074D01*
X80897629Y-56953483D01*
X80902987Y-56956346D01*
X81132497Y-57093909D01*
X81137559Y-57097291D01*
X81352487Y-57256693D01*
X81357193Y-57260555D01*
X81555392Y-57440191D01*
X81559697Y-57444496D01*
X81739439Y-57642809D01*
X81743301Y-57647515D01*
X81902706Y-57862447D01*
X81906080Y-57867497D01*
X82043637Y-58096997D01*
X82046507Y-58102367D01*
X82160919Y-58344271D01*
X82163247Y-58349891D01*
X82185259Y-58411411D01*
X82253387Y-58601816D01*
X82255154Y-58607642D01*
X82320171Y-58867204D01*
X82321358Y-58873175D01*
X82360619Y-59137851D01*
X82361215Y-59143910D01*
X82374425Y-59412818D01*
X82374500Y-59415860D01*
X82374500Y-62471109D01*
X82374425Y-62474153D01*
X82359901Y-62769710D01*
X82359304Y-62775769D01*
X82316107Y-63066960D01*
X82314919Y-63072931D01*
X82243386Y-63358497D01*
X82241619Y-63364321D01*
X82164515Y-63579811D01*
X82142445Y-63641490D01*
X82140118Y-63647107D01*
X82059393Y-63817785D01*
X82014253Y-63913224D01*
X82011383Y-63918593D01*
X81860040Y-64171090D01*
X81856658Y-64176152D01*
X81681288Y-64412609D01*
X81677426Y-64417315D01*
X81479597Y-64635585D01*
X81475292Y-64639890D01*
X81257321Y-64837448D01*
X81252615Y-64841310D01*
X81016170Y-65016671D01*
X81011108Y-65020053D01*
X80758603Y-65171400D01*
X80753235Y-65174269D01*
X80487115Y-65300136D01*
X80481500Y-65302461D01*
X80387278Y-65336175D01*
X80204328Y-65401638D01*
X80198503Y-65403405D01*
X79912935Y-65474939D01*
X79906964Y-65476127D01*
X79615771Y-65519324D01*
X79609712Y-65519921D01*
X79314560Y-65534425D01*
X79311516Y-65534500D01*
X76741028Y-65534500D01*
X76673989Y-65514815D01*
X76628234Y-65462011D01*
X76625600Y-65455802D01*
X76599638Y-65389653D01*
X76572879Y-65343306D01*
X76466958Y-65159845D01*
X76301508Y-64952377D01*
X76106984Y-64771886D01*
X76044538Y-64729311D01*
X75887736Y-64622404D01*
X75887725Y-64622397D01*
X75648655Y-64507268D01*
X75648636Y-64507261D01*
X75395083Y-64429051D01*
X75395073Y-64429048D01*
X75132688Y-64389500D01*
X75132681Y-64389500D01*
X74867319Y-64389500D01*
X74867311Y-64389500D01*
X74604926Y-64429048D01*
X74604916Y-64429051D01*
X74351363Y-64507261D01*
X74351344Y-64507268D01*
X74112276Y-64622397D01*
X74112274Y-64622398D01*
X73893015Y-64771886D01*
X73698494Y-64952375D01*
X73698492Y-64952377D01*
X73533042Y-65159845D01*
X73400362Y-65389653D01*
X73400361Y-65389653D01*
X73303416Y-65636667D01*
X73303410Y-65636686D01*
X73244364Y-65895385D01*
X73244363Y-65895390D01*
X73224535Y-66159995D01*
X73224535Y-66160004D01*
X69340325Y-66160004D01*
X69291875Y-66059398D01*
X69154526Y-65840811D01*
X69154522Y-65840806D01*
X69154521Y-65840804D01*
X68993567Y-65638977D01*
X68963073Y-65608483D01*
X68963069Y-65608478D01*
X68953714Y-65599123D01*
X68902295Y-65547705D01*
X68848591Y-65494000D01*
X68848590Y-65493999D01*
X68846086Y-65491495D01*
X68845904Y-65491333D01*
X68811013Y-65456442D01*
X68669145Y-65343306D01*
X68609180Y-65295485D01*
X68390595Y-65158137D01*
X68158006Y-65046126D01*
X68158002Y-65046124D01*
X67914345Y-64960862D01*
X67914344Y-64960861D01*
X67914339Y-64960860D01*
X67662657Y-64903411D01*
X67639064Y-64900752D01*
X67406127Y-64874501D01*
X67360234Y-64874501D01*
X67360216Y-64874500D01*
X67356054Y-64874500D01*
X67277048Y-64874500D01*
X67201099Y-64874499D01*
X67201098Y-64874499D01*
X67197359Y-64874499D01*
X67197344Y-64874500D01*
X61827822Y-64874500D01*
X61760783Y-64854815D01*
X61715028Y-64802011D01*
X61711641Y-64793835D01*
X61687574Y-64729312D01*
X61687571Y-64729305D01*
X61560719Y-64496994D01*
X61560714Y-64496986D01*
X61402093Y-64285092D01*
X61402077Y-64285074D01*
X61214925Y-64097922D01*
X61214907Y-64097906D01*
X61003013Y-63939285D01*
X61003005Y-63939280D01*
X60770694Y-63812428D01*
X60770690Y-63812426D01*
X60522673Y-63719921D01*
X60264034Y-63663658D01*
X60264027Y-63663657D01*
X60000001Y-63644773D01*
X59999999Y-63644773D01*
X59735972Y-63663657D01*
X59735965Y-63663658D01*
X59477326Y-63719921D01*
X59229309Y-63812426D01*
X59229305Y-63812428D01*
X58996994Y-63939280D01*
X58996986Y-63939285D01*
X58785092Y-64097906D01*
X58785074Y-64097922D01*
X58597922Y-64285074D01*
X58597906Y-64285092D01*
X58439285Y-64496986D01*
X58439280Y-64496994D01*
X58312428Y-64729305D01*
X58312426Y-64729309D01*
X58219921Y-64977326D01*
X58163658Y-65235965D01*
X58163657Y-65235972D01*
X58144773Y-65499998D01*
X58144773Y-65500001D01*
X56945500Y-65500001D01*
X56945500Y-63164703D01*
X56945633Y-63160647D01*
X56957703Y-62976531D01*
X56958762Y-62968493D01*
X56966590Y-62929141D01*
X56994365Y-62789513D01*
X56996459Y-62781699D01*
X57055121Y-62608890D01*
X57058223Y-62601401D01*
X57138940Y-62437725D01*
X57142984Y-62430720D01*
X57244376Y-62278980D01*
X57249305Y-62272557D01*
X57369687Y-62135287D01*
X57375420Y-62129556D01*
X57380997Y-62124665D01*
X57512557Y-62009288D01*
X57518965Y-62004371D01*
X57670721Y-61902970D01*
X57677712Y-61898933D01*
X57841389Y-61818215D01*
X57848889Y-61815109D01*
X57939947Y-61784198D01*
X58021684Y-61756450D01*
X58029523Y-61754351D01*
X58208492Y-61718749D01*
X58216529Y-61717691D01*
X58400470Y-61705632D01*
X58404520Y-61705500D01*
X73258972Y-61705500D01*
X73326011Y-61725185D01*
X73371766Y-61777989D01*
X73374400Y-61784198D01*
X73400361Y-61850345D01*
X73400360Y-61850345D01*
X73460455Y-61954431D01*
X73533042Y-62080155D01*
X73698492Y-62287623D01*
X73893016Y-62468114D01*
X74112268Y-62617598D01*
X74112273Y-62617600D01*
X74112274Y-62617601D01*
X74112276Y-62617602D01*
X74194336Y-62657120D01*
X74351350Y-62732734D01*
X74604922Y-62810950D01*
X74604923Y-62810950D01*
X74604926Y-62810951D01*
X74867311Y-62850499D01*
X74867316Y-62850499D01*
X74867319Y-62850500D01*
X74867320Y-62850500D01*
X75132680Y-62850500D01*
X75132681Y-62850500D01*
X75132688Y-62850499D01*
X75395073Y-62810951D01*
X75395074Y-62810950D01*
X75395078Y-62810950D01*
X75648650Y-62732734D01*
X75840071Y-62640550D01*
X75887725Y-62617602D01*
X75887725Y-62617601D01*
X75887733Y-62617598D01*
X76106984Y-62468114D01*
X76301508Y-62287623D01*
X76466958Y-62080155D01*
X76599639Y-61850345D01*
X76696586Y-61603327D01*
X76755635Y-61344619D01*
X76757927Y-61314031D01*
X76775465Y-61080004D01*
X76775465Y-61079995D01*
X76755636Y-60815390D01*
X76755635Y-60815385D01*
X76755635Y-60815381D01*
X76696586Y-60556673D01*
X76599639Y-60309655D01*
X76466958Y-60079845D01*
X76301508Y-59872377D01*
X76106984Y-59691886D01*
X76084933Y-59676852D01*
X75887736Y-59542404D01*
X75887725Y-59542397D01*
X75648655Y-59427268D01*
X75648636Y-59427261D01*
X75395083Y-59349051D01*
X75395073Y-59349048D01*
X75132688Y-59309500D01*
X75132681Y-59309500D01*
X74867319Y-59309500D01*
X74867311Y-59309500D01*
X74604926Y-59349048D01*
X74604916Y-59349051D01*
X74351363Y-59427261D01*
X74351344Y-59427268D01*
X74112276Y-59542397D01*
X74112274Y-59542398D01*
X73893015Y-59691886D01*
X73698494Y-59872375D01*
X73698492Y-59872377D01*
X73533042Y-60079845D01*
X73400361Y-60309654D01*
X73374400Y-60375802D01*
X73331584Y-60431016D01*
X73265714Y-60454317D01*
X73258972Y-60454500D01*
X58482365Y-60454500D01*
X58482349Y-60454499D01*
X58454034Y-60454499D01*
X58453993Y-60454487D01*
X58250570Y-60454489D01*
X57948323Y-60488549D01*
X57948316Y-60488550D01*
X57651768Y-60556238D01*
X57364662Y-60656703D01*
X57364660Y-60656704D01*
X57090604Y-60788684D01*
X56833060Y-60950511D01*
X56595242Y-61140166D01*
X56541411Y-61193998D01*
X56541409Y-61194000D01*
X56504627Y-61230783D01*
X56431342Y-61304066D01*
X56431206Y-61304219D01*
X56380175Y-61355250D01*
X56190520Y-61593069D01*
X56028697Y-61850606D01*
X56028694Y-61850610D01*
X55896715Y-62124665D01*
X55896714Y-62124667D01*
X55796249Y-62411772D01*
X55728563Y-62708314D01*
X55728561Y-62708325D01*
X55694501Y-63010571D01*
X55694501Y-63080328D01*
X55694500Y-63080350D01*
X55694500Y-63162661D01*
X55694499Y-63242349D01*
X55694500Y-63242365D01*
X55694500Y-66501585D01*
X55694499Y-66501607D01*
X55694499Y-66529476D01*
X55694480Y-66529540D01*
X55694483Y-66754988D01*
X55728625Y-67101594D01*
X55728626Y-67101600D01*
X55796574Y-67443172D01*
X55796576Y-67443183D01*
X55897673Y-67776440D01*
X55897677Y-67776450D01*
X55944901Y-67890458D01*
X56030958Y-68098213D01*
X56071855Y-68174725D01*
X56151375Y-68323495D01*
X56165617Y-68391898D01*
X56140617Y-68457142D01*
X56084312Y-68498513D01*
X56014579Y-68502875D01*
X55964118Y-68478425D01*
X55787081Y-68335478D01*
X55787080Y-68335477D01*
X55675097Y-68272919D01*
X55578955Y-68219210D01*
X55354170Y-68139788D01*
X55119209Y-68099500D01*
X55119200Y-68099500D01*
X54940503Y-68099500D01*
X54940498Y-68099500D01*
X54762463Y-68114652D01*
X54531751Y-68174724D01*
X54314519Y-68272919D01*
X54314511Y-68272924D01*
X54117006Y-68406413D01*
X54116997Y-68406421D01*
X53944881Y-68571379D01*
X53803123Y-68763050D01*
X53803120Y-68763054D01*
X53695796Y-68975920D01*
X53695793Y-68975926D01*
X53625983Y-69203878D01*
X53595702Y-69440346D01*
X51635713Y-69440346D01*
X51625575Y-69234004D01*
X51625500Y-69230961D01*
X51625500Y-47372930D01*
X51625494Y-47372745D01*
X51625495Y-47237838D01*
X51612616Y-47090621D01*
X51594752Y-46886424D01*
X51533497Y-46539028D01*
X51474669Y-46319475D01*
X51442201Y-46198300D01*
X51442200Y-46198299D01*
X51442199Y-46198297D01*
X51442198Y-46198292D01*
X51390975Y-46057555D01*
X51321552Y-45866813D01*
X51321552Y-45866814D01*
X51172470Y-45547107D01*
X50996089Y-45241605D01*
X50869503Y-45060821D01*
X50793760Y-44952649D01*
X50793759Y-44952648D01*
X50793760Y-44952648D01*
X50567012Y-44682422D01*
X50503073Y-44618483D01*
X50503061Y-44618469D01*
X50478618Y-44594026D01*
X50478611Y-44594014D01*
X50442298Y-44557701D01*
X50442299Y-44557701D01*
X50317581Y-44432982D01*
X50138327Y-44282570D01*
X50047355Y-44206235D01*
X50047355Y-44206236D01*
X50047354Y-44206235D01*
X49917374Y-44115222D01*
X49758398Y-44003906D01*
X49452895Y-43827524D01*
X49133188Y-43678443D01*
X49133189Y-43678443D01*
X48926424Y-43603188D01*
X48801709Y-43557796D01*
X48460972Y-43466497D01*
X48113575Y-43405242D01*
X47762161Y-43374499D01*
X47585783Y-43374500D01*
X46267133Y-43374500D01*
X46267117Y-43374499D01*
X46189166Y-43374499D01*
X46185690Y-43374401D01*
X45926453Y-43359847D01*
X45919538Y-43359068D01*
X45665285Y-43315870D01*
X45658501Y-43314322D01*
X45410673Y-43242926D01*
X45404111Y-43240630D01*
X45165843Y-43141938D01*
X45159574Y-43138920D01*
X44933850Y-43014167D01*
X44927958Y-43010465D01*
X44717621Y-42861222D01*
X44712181Y-42856884D01*
X44518789Y-42684061D01*
X44516277Y-42681687D01*
X44502420Y-42667830D01*
X44502416Y-42667826D01*
X44490814Y-42656222D01*
X44457332Y-42594898D01*
X44454499Y-42568545D01*
X44454499Y-42143372D01*
X44474184Y-42076333D01*
X44526988Y-42030578D01*
X44596146Y-42020634D01*
X44659702Y-42049659D01*
X44669722Y-42059383D01*
X44697242Y-42089277D01*
X44697248Y-42089283D01*
X44697252Y-42089286D01*
X44890212Y-42239473D01*
X45105267Y-42355855D01*
X45105270Y-42355856D01*
X45336541Y-42435251D01*
X45336543Y-42435251D01*
X45336545Y-42435252D01*
X45577737Y-42475500D01*
X45577738Y-42475500D01*
X45822262Y-42475500D01*
X45822263Y-42475500D01*
X46063455Y-42435252D01*
X46294733Y-42355855D01*
X46509788Y-42239473D01*
X46702754Y-42089281D01*
X46868368Y-41909377D01*
X47002111Y-41704667D01*
X47100336Y-41480736D01*
X47160364Y-41243692D01*
X47160365Y-41243683D01*
X47180557Y-41000005D01*
X47180557Y-40999994D01*
X47160365Y-40756316D01*
X47160363Y-40756304D01*
X47100336Y-40519265D01*
X47002111Y-40295333D01*
X46868367Y-40090621D01*
X46702757Y-39910722D01*
X46702747Y-39910713D01*
X46509791Y-39760529D01*
X46509787Y-39760526D01*
X46294734Y-39644145D01*
X46294729Y-39644143D01*
X46063458Y-39564748D01*
X45882561Y-39534562D01*
X45822263Y-39524500D01*
X45577737Y-39524500D01*
X45529498Y-39532549D01*
X45336541Y-39564748D01*
X45105270Y-39644143D01*
X45105265Y-39644145D01*
X44890212Y-39760526D01*
X44890208Y-39760529D01*
X44697252Y-39910713D01*
X44697242Y-39910722D01*
X44531632Y-40090621D01*
X44397888Y-40295333D01*
X44299663Y-40519265D01*
X44239636Y-40756304D01*
X44239634Y-40756315D01*
X44228072Y-40895848D01*
X44202919Y-40961032D01*
X44146516Y-41002270D01*
X44076773Y-41006468D01*
X44061854Y-41001996D01*
X44061483Y-41001908D01*
X44001883Y-40995501D01*
X44001881Y-40995500D01*
X44001873Y-40995500D01*
X44001864Y-40995500D01*
X42398129Y-40995500D01*
X42398123Y-40995501D01*
X42338516Y-41001908D01*
X42203671Y-41052202D01*
X42203664Y-41052206D01*
X42088455Y-41138452D01*
X42088452Y-41138455D01*
X42002206Y-41253664D01*
X42002202Y-41253671D01*
X41951908Y-41388517D01*
X41945501Y-41448116D01*
X41945500Y-41448135D01*
X41945500Y-43051870D01*
X40000251Y-43051870D01*
X40000251Y-30050000D01*
X40010699Y-29797389D01*
X40018084Y-29629916D01*
X40018500Y-29624976D01*
X40018513Y-29624874D01*
X40045594Y-29407612D01*
X40072370Y-29204234D01*
X40073150Y-29199657D01*
X40118021Y-28985657D01*
X40162542Y-28784841D01*
X40163639Y-28780609D01*
X40226007Y-28571120D01*
X40287964Y-28374617D01*
X40289291Y-28370849D01*
X40368802Y-28167079D01*
X40447716Y-27976568D01*
X40449256Y-27973154D01*
X40545311Y-27776669D01*
X40640661Y-27593505D01*
X40642316Y-27590536D01*
X40754351Y-27402519D01*
X40865351Y-27228284D01*
X40867132Y-27225645D01*
X40994357Y-27047454D01*
X41120247Y-26883392D01*
X41122040Y-26881169D01*
X41263631Y-26713992D01*
X41404302Y-26560477D01*
X41560228Y-26404551D01*
X41713743Y-26263880D01*
X41880870Y-26122331D01*
X41883188Y-26120463D01*
X41909374Y-26100369D01*
X42047225Y-25994591D01*
X42225385Y-25867388D01*
X42228010Y-25865616D01*
X42402265Y-25754602D01*
X42590253Y-25642586D01*
X42593296Y-25640889D01*
X42776364Y-25545589D01*
X42972892Y-25449512D01*
X42976346Y-25447954D01*
X43166857Y-25369041D01*
X43370581Y-25289548D01*
X43374388Y-25288208D01*
X43570822Y-25226271D01*
X43780388Y-25163881D01*
X43784594Y-25162790D01*
X43985445Y-25118262D01*
X44199385Y-25073404D01*
X44203984Y-25072620D01*
X44407400Y-25045839D01*
X44624644Y-25018760D01*
X44629573Y-25018346D01*
X44832125Y-25009502D01*
X45049751Y-25000501D01*
X45049751Y-25000500D01*
X45049765Y-25000500D01*
X45050251Y-25000500D01*
X132949500Y-25000500D01*
X132950000Y-25000500D01*
X133167426Y-25009493D01*
G37*
%TD.AperFunction*%
%TD*%
M02*
