%TF.GenerationSoftware,KiCad,Pcbnew,7.0.9*%
%TF.CreationDate,2024-02-12T14:50:03+04:00*%
%TF.ProjectId,57TimesAudioRE-AMP,35375469-6d65-4734-9175-64696f52452d,rev?*%
%TF.SameCoordinates,Original*%
%TF.FileFunction,Copper,L2,Bot*%
%TF.FilePolarity,Positive*%
%FSLAX46Y46*%
G04 Gerber Fmt 4.6, Leading zero omitted, Abs format (unit mm)*
G04 Created by KiCad (PCBNEW 7.0.9) date 2024-02-12 14:50:03*
%MOMM*%
%LPD*%
G01*
G04 APERTURE LIST*
%TA.AperFunction,ComponentPad*%
%ADD10C,1.800000*%
%TD*%
%TA.AperFunction,ComponentPad*%
%ADD11R,1.508000X1.508000*%
%TD*%
%TA.AperFunction,ComponentPad*%
%ADD12C,1.508000*%
%TD*%
%TA.AperFunction,ComponentPad*%
%ADD13C,1.950000*%
%TD*%
%TA.AperFunction,ComponentPad*%
%ADD14C,2.540000*%
%TD*%
%TA.AperFunction,ComponentPad*%
%ADD15C,2.000000*%
%TD*%
%TA.AperFunction,ComponentPad*%
%ADD16C,1.600000*%
%TD*%
%TA.AperFunction,ComponentPad*%
%ADD17R,2.700000X2.700000*%
%TD*%
%TA.AperFunction,ComponentPad*%
%ADD18C,2.700000*%
%TD*%
%TA.AperFunction,ComponentPad*%
%ADD19C,3.000000*%
%TD*%
%TA.AperFunction,ComponentPad*%
%ADD20C,2.800000*%
%TD*%
%TA.AperFunction,ViaPad*%
%ADD21C,0.800000*%
%TD*%
G04 APERTURE END LIST*
D10*
%TO.P,VR1,3*%
%TO.N,Net-(R1-Pad1)*%
X131850000Y-65540000D03*
%TO.P,VR1,2*%
%TO.N,Net-(J2-PadT)*%
X131850000Y-60540000D03*
%TO.P,VR1,1*%
%TO.N,GND*%
X131850000Y-55540000D03*
%TD*%
D11*
%TO.P,S1,1*%
%TO.N,Net-(J3-Pad1)*%
X43200000Y-42250000D03*
D12*
%TO.P,S1,2*%
%TO.N,GND*%
X43200000Y-46750000D03*
D13*
%TO.P,S1,S1*%
%TO.N,N/C*%
X45700000Y-41000000D03*
%TO.P,S1,S2*%
X45700000Y-48000000D03*
%TD*%
D14*
%TO.P,T1,E,E*%
%TO.N,GND*%
X100400000Y-63620000D03*
%TO.P,T1,8,8*%
%TO.N,Net-(R1-Pad1)*%
X102940000Y-56000000D03*
%TO.P,T1,7,7*%
%TO.N,Net-(R1-Pad2)*%
X102940000Y-61080000D03*
%TO.P,T1,6,6*%
%TO.N,GND*%
X102940000Y-66160000D03*
%TO.P,T1,5,5*%
%TO.N,Net-(R1-Pad2)*%
X102940000Y-71240000D03*
%TO.P,T1,4,4*%
%TO.N,Net-(T1-Pad2)*%
X75000000Y-56000000D03*
%TO.P,T1,3,3*%
%TO.N,Net-(J3-Pad3)*%
X75000000Y-61080000D03*
%TO.P,T1,2,2*%
%TO.N,Net-(T1-Pad2)*%
X75000000Y-66160000D03*
%TO.P,T1,1,1*%
%TO.N,Net-(J3-Pad2)*%
X75000000Y-71240000D03*
%TD*%
D15*
%TO.P,R2,1*%
%TO.N,Net-(R1-Pad2)*%
X111500000Y-68000000D03*
%TO.P,R2,2*%
%TO.N,GND*%
X120500000Y-68000000D03*
%TD*%
%TO.P,R1,2*%
%TO.N,Net-(R1-Pad2)*%
X111500000Y-60000000D03*
%TO.P,R1,1*%
%TO.N,Net-(R1-Pad1)*%
X120500000Y-60000000D03*
%TD*%
D16*
%TO.P,C1,2*%
%TO.N,GND*%
X74960000Y-79910000D03*
%TO.P,C1,1*%
%TO.N,Net-(C1-Pad1)*%
X79960000Y-79910000D03*
%TD*%
D17*
%TO.P,J3,1*%
%TO.N,Net-(J3-Pad1)*%
X60000000Y-73500000D03*
D18*
%TO.P,J3,2*%
%TO.N,Net-(J3-Pad2)*%
X60000000Y-65500000D03*
%TO.P,J3,3*%
%TO.N,Net-(J3-Pad3)*%
X60000000Y-69500000D03*
D10*
%TO.P,J3,G*%
%TO.N,N/C*%
X65000000Y-69500000D03*
%TD*%
D19*
%TO.P,J2,R*%
%TO.N,GND*%
X126650000Y-73170000D03*
%TO.P,J2,RN*%
%TO.N,N/C*%
X126650000Y-84600000D03*
%TO.P,J2,S*%
%TO.N,GND*%
X133000000Y-73170000D03*
X133000000Y-84600000D03*
%TO.P,J2,T*%
%TO.N,Net-(J2-PadT)*%
X120300000Y-73170000D03*
%TO.P,J2,TN*%
%TO.N,N/C*%
X120300000Y-84600000D03*
%TD*%
D20*
%TO.P,R3,2*%
%TO.N,Net-(C1-Pad1)*%
X80000000Y-86000000D03*
%TO.P,R3,1*%
%TO.N,Net-(J3-Pad1)*%
X60000000Y-86000000D03*
%TD*%
D21*
%TO.N,GND*%
X100000000Y-85000000D03*
X120000000Y-65000000D03*
X115000000Y-75000000D03*
X115000000Y-85000000D03*
X115000000Y-80000000D03*
X125000000Y-90000000D03*
X115000000Y-90000000D03*
X60000000Y-90000000D03*
X80000000Y-90000000D03*
X85000000Y-90000000D03*
X85000000Y-80000000D03*
X85000000Y-85000000D03*
X95000000Y-80000000D03*
X105000000Y-90000000D03*
X95000000Y-90000000D03*
X105000000Y-85000000D03*
X80000000Y-70000000D03*
X95000000Y-70000000D03*
X85000000Y-70000000D03*
X95000000Y-55000000D03*
X95000000Y-60000000D03*
X70000000Y-55000000D03*
X65000000Y-55000000D03*
X105000000Y-75000000D03*
X100000000Y-75000000D03*
X95000000Y-75000000D03*
X85000000Y-75000000D03*
X75000000Y-90000000D03*
X65000000Y-90000000D03*
X65000000Y-75000000D03*
X65000000Y-80000000D03*
X125000000Y-50000000D03*
X125000000Y-45000000D03*
X125000000Y-40000000D03*
X125000000Y-35000000D03*
X125000000Y-30000000D03*
X115000000Y-50000000D03*
X115000000Y-45000000D03*
X115000000Y-40000000D03*
X115000000Y-35000000D03*
X115000000Y-30000000D03*
X105000000Y-50000000D03*
X105000000Y-45000000D03*
X105000000Y-40000000D03*
X105000000Y-35000000D03*
X105000000Y-30000000D03*
X95000000Y-50000000D03*
X95000000Y-45000000D03*
X95000000Y-40000000D03*
X95000000Y-35000000D03*
X95000000Y-30000000D03*
X75000000Y-35000000D03*
X85000000Y-50000000D03*
X85000000Y-45000000D03*
X85000000Y-40000000D03*
X85000000Y-35000000D03*
X85000000Y-30000000D03*
X75000000Y-50000000D03*
X75000000Y-45000000D03*
X75000000Y-40000000D03*
X75000000Y-30000000D03*
X65000000Y-50000000D03*
X65000000Y-45000000D03*
X65000000Y-40000000D03*
X65000000Y-35000000D03*
X65000000Y-30000000D03*
X50000000Y-35000000D03*
X55000000Y-30000000D03*
X50000000Y-40000000D03*
X70000000Y-90000000D03*
X105000000Y-80000000D03*
X70000000Y-80000000D03*
X70000000Y-75000000D03*
X80000000Y-75000000D03*
X90000000Y-60000000D03*
X90000000Y-55000000D03*
X120000000Y-90000000D03*
X130000000Y-90000000D03*
X135000000Y-80000000D03*
X130000000Y-80000000D03*
X125000000Y-80000000D03*
X120000000Y-80000000D03*
X110000000Y-80000000D03*
X110000000Y-75000000D03*
X110000000Y-85000000D03*
X110000000Y-90000000D03*
X100000000Y-80000000D03*
X100000000Y-90000000D03*
X60000000Y-55000000D03*
X55000000Y-55000000D03*
X55000000Y-50000000D03*
X55000000Y-45000000D03*
X55000000Y-40000000D03*
X55000000Y-35000000D03*
X50000000Y-30000000D03*
X90000000Y-90000000D03*
X90000000Y-85000000D03*
X90000000Y-80000000D03*
X90000000Y-75000000D03*
X90000000Y-70000000D03*
X90000000Y-65000000D03*
X130000000Y-50000000D03*
X130000000Y-45000000D03*
X130000000Y-40000000D03*
X130000000Y-35000000D03*
X130000000Y-30000000D03*
X120000000Y-50000000D03*
X120000000Y-45000000D03*
X120000000Y-40000000D03*
X120000000Y-35000000D03*
X120000000Y-30000000D03*
X110000000Y-50000000D03*
X110000000Y-45000000D03*
X110000000Y-40000000D03*
X110000000Y-35000000D03*
X110000000Y-30000000D03*
X100000000Y-50000000D03*
X90000000Y-50000000D03*
X90000000Y-45000000D03*
X90000000Y-40000000D03*
X90000000Y-35000000D03*
X90000000Y-30000000D03*
X80000000Y-50000000D03*
X80000000Y-45000000D03*
X80000000Y-40000000D03*
X80000000Y-35000000D03*
X80000000Y-30000000D03*
X60000000Y-30000000D03*
X60000000Y-40000000D03*
X60000000Y-50000000D03*
X70000000Y-50000000D03*
X55000000Y-80000000D03*
X55000000Y-85000000D03*
X55000000Y-90000000D03*
X50000000Y-75000000D03*
X50000000Y-80000000D03*
X50000000Y-85000000D03*
X50000000Y-90000000D03*
X45000000Y-75000000D03*
X45000000Y-55000000D03*
X45000000Y-60000000D03*
X45000000Y-65000000D03*
X45000000Y-70000000D03*
X45000000Y-80000000D03*
X45000000Y-85000000D03*
X45000000Y-90000000D03*
X60000000Y-45000000D03*
X60000000Y-35000000D03*
X45000000Y-35000000D03*
X45000000Y-30000000D03*
X100000000Y-35000000D03*
X100000000Y-40000000D03*
X70000000Y-40000000D03*
X70000000Y-30000000D03*
X70000000Y-35000000D03*
X70000000Y-45000000D03*
X100000000Y-30000000D03*
X100000000Y-45000000D03*
X95000000Y-65000000D03*
X95000000Y-85000000D03*
X130400000Y-56800000D03*
X129400000Y-56800000D03*
X128200000Y-56800000D03*
X127000000Y-56800000D03*
X126000000Y-56800000D03*
X124800000Y-56800000D03*
X123600000Y-56800000D03*
X122400000Y-57000000D03*
X121400000Y-57200000D03*
X120400000Y-57800000D03*
X119400000Y-57200000D03*
X118600000Y-56400000D03*
X117600000Y-55800000D03*
X116400000Y-55200000D03*
X115200000Y-54800000D03*
X114000000Y-54800000D03*
X112800000Y-54800000D03*
X111600000Y-54800000D03*
X110400000Y-54800000D03*
X109200000Y-54800000D03*
X108000000Y-54800000D03*
X106800000Y-54800000D03*
X105600000Y-54800000D03*
X104600000Y-54200000D03*
X103400000Y-53800000D03*
X102200000Y-53800000D03*
X101000000Y-54400000D03*
X100600000Y-55600000D03*
X100800000Y-56800000D03*
X101400000Y-57800000D03*
X131200000Y-62400000D03*
X127200000Y-60400000D03*
X126400000Y-61000000D03*
X125800000Y-61800000D03*
X125200000Y-62600000D03*
X124600000Y-63400000D03*
X124400000Y-64400000D03*
X124400000Y-65400000D03*
X124400000Y-66400000D03*
X124400000Y-67400000D03*
X124200000Y-68400000D03*
X123800000Y-69200000D03*
X123000000Y-69800000D03*
X122200000Y-70400000D03*
X121200000Y-70600000D03*
X120200000Y-70600000D03*
X119200000Y-71000000D03*
X118400000Y-71600000D03*
X117800000Y-72400000D03*
X117800000Y-73400000D03*
X118000000Y-74400000D03*
X118600000Y-75200000D03*
X119600000Y-75600000D03*
X120600000Y-75600000D03*
X121600000Y-75400000D03*
X122400000Y-74600000D03*
X122800000Y-73600000D03*
X123400000Y-72800000D03*
X124200000Y-72200000D03*
X125000000Y-71400000D03*
X125600000Y-70600000D03*
X126200000Y-69800000D03*
X126400000Y-68800000D03*
X126600000Y-67800000D03*
X126600000Y-66800000D03*
X126600000Y-65800000D03*
X126600000Y-64800000D03*
X127000000Y-63800000D03*
X127600000Y-62800000D03*
X128400000Y-62200000D03*
X129400000Y-61800000D03*
X130400000Y-61600000D03*
X133200000Y-62000000D03*
X132600000Y-62800000D03*
X132000000Y-63600000D03*
X131000000Y-63800000D03*
X130200000Y-64200000D03*
X130000000Y-65200000D03*
X130000000Y-66200000D03*
X130600000Y-67000000D03*
X131600000Y-67400000D03*
X132600000Y-67200000D03*
X133400000Y-66600000D03*
X133800000Y-65600000D03*
X134200000Y-64800000D03*
X134800000Y-64000000D03*
X135400000Y-63000000D03*
X135600000Y-61800000D03*
X135600000Y-60800000D03*
X135400000Y-59600000D03*
X135000000Y-58600000D03*
X134400000Y-57800000D03*
X133600000Y-57200000D03*
X129800000Y-59400000D03*
X128800000Y-59400000D03*
X127800000Y-59600000D03*
X126800000Y-59200000D03*
X125800000Y-59200000D03*
X124800000Y-59200000D03*
X123800000Y-59200000D03*
X122800000Y-59600000D03*
X122600000Y-60600000D03*
X121800000Y-61600000D03*
X120800000Y-62000000D03*
X119800000Y-62000000D03*
X119000000Y-61600000D03*
X118400000Y-60800000D03*
X118200000Y-59800000D03*
X117800000Y-58800000D03*
X117000000Y-58200000D03*
X116000000Y-57600000D03*
X115000000Y-57200000D03*
X114000000Y-57200000D03*
X113000000Y-57200000D03*
X111600000Y-57200000D03*
X110400000Y-57200000D03*
X109400000Y-57200000D03*
X108400000Y-57200000D03*
X107400000Y-57200000D03*
X106400000Y-57200000D03*
X105400000Y-57200000D03*
X104600000Y-57800000D03*
X102200000Y-69000000D03*
X101200000Y-69600000D03*
X100800000Y-70600000D03*
X100600000Y-71600000D03*
X101000000Y-72600000D03*
X101800000Y-73400000D03*
X102800000Y-73600000D03*
X103800000Y-73400000D03*
X104600000Y-72800000D03*
X105600000Y-72400000D03*
X106800000Y-72400000D03*
X107800000Y-72200000D03*
X108800000Y-72000000D03*
X109800000Y-71400000D03*
X110600000Y-70800000D03*
X111400000Y-70000000D03*
X112400000Y-69800000D03*
X113200000Y-69200000D03*
X113600000Y-68200000D03*
X113400000Y-67200000D03*
X112800000Y-66400000D03*
X112800000Y-65400000D03*
X112800000Y-64400000D03*
X112800000Y-63400000D03*
X112800000Y-62400000D03*
X113000000Y-61400000D03*
X113400000Y-60400000D03*
X113400000Y-59400000D03*
X113000000Y-58600000D03*
X112200000Y-58000000D03*
X111200000Y-58000000D03*
X110200000Y-58400000D03*
X109600000Y-59200000D03*
X109000000Y-60000000D03*
X108000000Y-60000000D03*
X107000000Y-60000000D03*
X106000000Y-60000000D03*
X105000000Y-59600000D03*
X104200000Y-59000000D03*
X103200000Y-58800000D03*
X102200000Y-58800000D03*
X101400000Y-59400000D03*
X100800000Y-60200000D03*
X100600000Y-61200000D03*
X102800000Y-63400000D03*
X103800000Y-63200000D03*
X104600000Y-62800000D03*
X105400000Y-62200000D03*
X106400000Y-62200000D03*
X107400000Y-62200000D03*
X108400000Y-62200000D03*
X109400000Y-62200000D03*
X110400000Y-62200000D03*
X110400000Y-63200000D03*
X110400000Y-64400000D03*
X110400000Y-65400000D03*
X110200000Y-66400000D03*
X109600000Y-67200000D03*
X109400000Y-68200000D03*
X108800000Y-69000000D03*
X108000000Y-69600000D03*
X107000000Y-69800000D03*
X106000000Y-70000000D03*
X105000000Y-70000000D03*
X104200000Y-69400000D03*
X103200000Y-69000000D03*
X78200000Y-80800000D03*
X78000000Y-79800000D03*
X78200000Y-78800000D03*
X79000000Y-78400000D03*
X80000000Y-78200000D03*
X81000000Y-78400000D03*
X81800000Y-78800000D03*
X81800000Y-79800000D03*
X81600000Y-80800000D03*
X82000000Y-84600000D03*
X82400000Y-85600000D03*
X82400000Y-86600000D03*
X82000000Y-87600000D03*
X81200000Y-88400000D03*
X80000000Y-88600000D03*
X78800000Y-88400000D03*
X78000000Y-87600000D03*
X77600000Y-86600000D03*
X77600000Y-85600000D03*
X78000000Y-84600000D03*
X81200000Y-83800000D03*
X81200000Y-82800000D03*
X81200000Y-81800000D03*
X78800000Y-81800000D03*
X78800000Y-82800000D03*
X78800000Y-83800000D03*
X62400000Y-72000000D03*
X62400000Y-73200000D03*
X62400000Y-74200000D03*
X62200000Y-75400000D03*
X61200000Y-76000000D03*
X61200000Y-77000000D03*
X60400000Y-77800000D03*
X60200000Y-79000000D03*
X60200000Y-80000000D03*
X60200000Y-81000000D03*
X60200000Y-82000000D03*
X60200000Y-83000000D03*
X61000000Y-83800000D03*
X61800000Y-84600000D03*
X62400000Y-85600000D03*
X62400000Y-86800000D03*
X62000000Y-87800000D03*
X61000000Y-88400000D03*
X60000000Y-88600000D03*
X59000000Y-88400000D03*
X58200000Y-87600000D03*
X57600000Y-86800000D03*
X57600000Y-85800000D03*
X57800000Y-84800000D03*
X57800000Y-83800000D03*
X57800000Y-82800000D03*
X57800000Y-81800000D03*
X57800000Y-80800000D03*
X57800000Y-79800000D03*
X57800000Y-78800000D03*
X57800000Y-77800000D03*
X57800000Y-76800000D03*
X57800000Y-75600000D03*
X52400000Y-68000000D03*
X52400000Y-67000000D03*
X52400000Y-66000000D03*
X52400000Y-65000000D03*
X52400000Y-64000000D03*
X52400000Y-63000000D03*
X52400000Y-62000000D03*
X52400000Y-61000000D03*
X52400000Y-60000000D03*
X52400000Y-59000000D03*
X52400000Y-58000000D03*
X52400000Y-57000000D03*
X52400000Y-56000000D03*
X52400000Y-55000000D03*
X52400000Y-54000000D03*
X52400000Y-53000000D03*
X52400000Y-52000000D03*
X52400000Y-51000000D03*
X52400000Y-50000000D03*
X52400000Y-49000000D03*
X52400000Y-48000000D03*
X52400000Y-47000000D03*
X52200000Y-46000000D03*
X51800000Y-45000000D03*
X51200000Y-44200000D03*
X50400000Y-43600000D03*
X49400000Y-43200000D03*
X48400000Y-42800000D03*
X47000000Y-42600000D03*
X47800000Y-41800000D03*
X47800000Y-40800000D03*
X47800000Y-39800000D03*
X47000000Y-39000000D03*
X45800000Y-38800000D03*
X44600000Y-39000000D03*
X43200000Y-39400000D03*
X44000000Y-40200000D03*
X42400000Y-40200000D03*
X42600000Y-44200000D03*
X43600000Y-44600000D03*
X44400000Y-45200000D03*
X45400000Y-45200000D03*
X46400000Y-45200000D03*
X47400000Y-45200000D03*
X48400000Y-45400000D03*
X49200000Y-46000000D03*
X49800000Y-47000000D03*
X49800000Y-48000000D03*
X49800000Y-49000000D03*
X49800000Y-50000000D03*
X49800000Y-51000000D03*
X49800000Y-52000000D03*
X49800000Y-53000000D03*
X49800000Y-54000000D03*
X49800000Y-55000000D03*
X49800000Y-56000000D03*
X49800000Y-57000000D03*
X49800000Y-58000000D03*
X49800000Y-59000000D03*
X49800000Y-60000000D03*
X49800000Y-61000000D03*
X49800000Y-62000000D03*
X49800000Y-63000000D03*
X49800000Y-64000000D03*
X49800000Y-65000000D03*
X49800000Y-66000000D03*
X49800000Y-67000000D03*
X49800000Y-68000000D03*
X49800000Y-69000000D03*
X49800000Y-70000000D03*
X50000000Y-71000000D03*
X50400000Y-72000000D03*
X51000000Y-72800000D03*
X51800000Y-73400000D03*
X52600000Y-74000000D03*
X53600000Y-74400000D03*
X54600000Y-74400000D03*
X55600000Y-74400000D03*
X56600000Y-74400000D03*
X57600000Y-74400000D03*
X43000000Y-27000000D03*
X42000000Y-28000000D03*
X41000000Y-30000000D03*
X41000000Y-32000000D03*
X41000000Y-34000000D03*
X41000000Y-36000000D03*
X41000000Y-38000000D03*
X41000000Y-40000000D03*
X41000000Y-42000000D03*
X41000000Y-44000000D03*
X41000000Y-46000000D03*
X41000000Y-48000000D03*
X41000000Y-50000000D03*
X41000000Y-52000000D03*
X41000000Y-54000000D03*
X41000000Y-56000000D03*
X41000000Y-58000000D03*
X41000000Y-60000000D03*
X41000000Y-62000000D03*
X41000000Y-64000000D03*
X41000000Y-66000000D03*
X41000000Y-68000000D03*
X41000000Y-70000000D03*
X41000000Y-72000000D03*
X41000000Y-74000000D03*
X41000000Y-76000000D03*
X41000000Y-78000000D03*
X41000000Y-82000000D03*
X41000000Y-80000000D03*
X41000000Y-80000000D03*
X41000000Y-84000000D03*
X41000000Y-86000000D03*
X41000000Y-88000000D03*
X41000000Y-90000000D03*
X42000000Y-92000000D03*
X43000000Y-93000000D03*
X45000000Y-94000000D03*
X47000000Y-94000000D03*
X49000000Y-94000000D03*
X51000000Y-94000000D03*
X53000000Y-94000000D03*
X55000000Y-94000000D03*
X57000000Y-94000000D03*
X59000000Y-94000000D03*
X61000000Y-94000000D03*
X63000000Y-94000000D03*
X65000000Y-94000000D03*
X67000000Y-94000000D03*
X69000000Y-94000000D03*
X71000000Y-94000000D03*
X73000000Y-94000000D03*
X75000000Y-94000000D03*
X77000000Y-94000000D03*
X79000000Y-94000000D03*
X81000000Y-94000000D03*
X83000000Y-94000000D03*
X85000000Y-94000000D03*
X87000000Y-94000000D03*
X89000000Y-94000000D03*
X91000000Y-94000000D03*
X93000000Y-94000000D03*
X95000000Y-94000000D03*
X97000000Y-94000000D03*
X99000000Y-94000000D03*
X101000000Y-94000000D03*
X103000000Y-94000000D03*
X105000000Y-94000000D03*
X107000000Y-94000000D03*
X109000000Y-94000000D03*
X111000000Y-94000000D03*
X113000000Y-94000000D03*
X115000000Y-94000000D03*
X117000000Y-94000000D03*
X119000000Y-94000000D03*
X121000000Y-94000000D03*
X123000000Y-94000000D03*
X125000000Y-94000000D03*
X127000000Y-94000000D03*
X129000000Y-94000000D03*
X131000000Y-94000000D03*
X133000000Y-94000000D03*
X135000000Y-93000000D03*
X136000000Y-92000000D03*
X137000000Y-90000000D03*
X137000000Y-88000000D03*
X137000000Y-86000000D03*
X137000000Y-84000000D03*
X137000000Y-82000000D03*
X137000000Y-80000000D03*
X137000000Y-78000000D03*
X137000000Y-76000000D03*
X137000000Y-74000000D03*
X137000000Y-72000000D03*
X137000000Y-70000000D03*
X137000000Y-68000000D03*
X137000000Y-66000000D03*
X137000000Y-64000000D03*
X137000000Y-62000000D03*
X137000000Y-60000000D03*
X137000000Y-58000000D03*
X137000000Y-56000000D03*
X137000000Y-54000000D03*
X137000000Y-52000000D03*
X137000000Y-50000000D03*
X137000000Y-48000000D03*
X137000000Y-46000000D03*
X137000000Y-44000000D03*
X137000000Y-42000000D03*
X137000000Y-40000000D03*
X137000000Y-38000000D03*
X137000000Y-36000000D03*
X137000000Y-34000000D03*
X137000000Y-32000000D03*
X137000000Y-30000000D03*
X136000000Y-28000000D03*
X135000000Y-27000000D03*
X133000000Y-26000000D03*
X131000000Y-26000000D03*
X129000000Y-26000000D03*
X127000000Y-26000000D03*
X125000000Y-26000000D03*
X123000000Y-26000000D03*
X121000000Y-26000000D03*
X119000000Y-26000000D03*
X117000000Y-26000000D03*
X115000000Y-26000000D03*
X113000000Y-26000000D03*
X111000000Y-26000000D03*
X109000000Y-26000000D03*
X107000000Y-26000000D03*
X105000000Y-26000000D03*
X103000000Y-26000000D03*
X101000000Y-26000000D03*
X99000000Y-26000000D03*
X97000000Y-26000000D03*
X95000000Y-26000000D03*
X93000000Y-26000000D03*
X91000000Y-26000000D03*
X89000000Y-26000000D03*
X87000000Y-26000000D03*
X85000000Y-26000000D03*
X83000000Y-26000000D03*
X81000000Y-26000000D03*
X79000000Y-26000000D03*
X77000000Y-26000000D03*
X75000000Y-26000000D03*
X73000000Y-26000000D03*
X71000000Y-26000000D03*
X69000000Y-26000000D03*
X67000000Y-26000000D03*
X65000000Y-26000000D03*
X63000000Y-26000000D03*
X61000000Y-26000000D03*
X59000000Y-26000000D03*
X57000000Y-26000000D03*
X55000000Y-26000000D03*
X53000000Y-26000000D03*
X51000000Y-26000000D03*
X49000000Y-26000000D03*
X47000000Y-26000000D03*
X45000000Y-26000000D03*
X77200000Y-65000000D03*
X59600000Y-59800000D03*
X77000000Y-59800000D03*
X67000000Y-62200000D03*
X65600000Y-59800000D03*
X73600000Y-69400000D03*
X77000000Y-63600000D03*
X72800000Y-55200000D03*
X70000000Y-68400000D03*
X82600000Y-66200000D03*
X68600000Y-64800000D03*
X71600000Y-72400000D03*
X81800000Y-60400000D03*
X69400000Y-65400000D03*
X78200000Y-65000000D03*
X84000000Y-57600000D03*
X73400000Y-73000000D03*
X64600000Y-64400000D03*
X69000000Y-62200000D03*
X71600000Y-59800000D03*
X71000000Y-62200000D03*
X60800000Y-63200000D03*
X61800000Y-71200000D03*
X76600000Y-62600000D03*
X73800000Y-63000000D03*
X57400000Y-64000000D03*
X76400000Y-73000000D03*
X62400000Y-70200000D03*
X77200000Y-60800000D03*
X63600000Y-64400000D03*
X57400000Y-63000000D03*
X77800000Y-67400000D03*
X68600000Y-59800000D03*
X70000000Y-66400000D03*
X58600000Y-59800000D03*
X64000000Y-62200000D03*
X68000000Y-62200000D03*
X56800000Y-71000000D03*
X73000000Y-67600000D03*
X69600000Y-59800000D03*
X76200000Y-54000000D03*
X84200000Y-60600000D03*
X73600000Y-58000000D03*
X57400000Y-65000000D03*
X74800000Y-63400000D03*
X55200000Y-65800000D03*
X76800000Y-67600000D03*
X67800000Y-69200000D03*
X84200000Y-58600000D03*
X76400000Y-69400000D03*
X70600000Y-72200000D03*
X83400000Y-56800000D03*
X62600000Y-64400000D03*
X58000000Y-62200000D03*
X61800000Y-63800000D03*
X63600000Y-59800000D03*
X62600000Y-59800000D03*
X66000000Y-62200000D03*
X79000000Y-54800000D03*
X80200000Y-64800000D03*
X74200000Y-53800000D03*
X75200000Y-53600000D03*
X83400000Y-65600000D03*
X72800000Y-64800000D03*
X73000000Y-70200000D03*
X65600000Y-64400000D03*
X64000000Y-66600000D03*
X70000000Y-67400000D03*
X72000000Y-70200000D03*
X80800000Y-57600000D03*
X73000000Y-62400000D03*
X81400000Y-58400000D03*
X73000000Y-57200000D03*
X66600000Y-64400000D03*
X81000000Y-55000000D03*
X55200000Y-62800000D03*
X79200000Y-65000000D03*
X63000000Y-62200000D03*
X72600000Y-56200000D03*
X75400000Y-73400000D03*
X76000000Y-68200000D03*
X62000000Y-62200000D03*
X73400000Y-64000000D03*
X77000000Y-72200000D03*
X65000000Y-62200000D03*
X83800000Y-64600000D03*
X81800000Y-59400000D03*
X67600000Y-59800000D03*
X80800000Y-67200000D03*
X81800000Y-61400000D03*
X62000000Y-66800000D03*
X76400000Y-64400000D03*
X81000000Y-64200000D03*
X63000000Y-66600000D03*
X53000000Y-68800000D03*
X72000000Y-62200000D03*
X72600000Y-65800000D03*
X58600000Y-63600000D03*
X56000000Y-71600000D03*
X74400000Y-73400000D03*
X77000000Y-70200000D03*
X66600000Y-59800000D03*
X72600000Y-66800000D03*
X55800000Y-60800000D03*
X62400000Y-69200000D03*
X81800000Y-62400000D03*
X74400000Y-69000000D03*
X57400000Y-67000000D03*
X60600000Y-59800000D03*
X57400000Y-66000000D03*
X61400000Y-67600000D03*
X84200000Y-61600000D03*
X82800000Y-56000000D03*
X70600000Y-59800000D03*
X66000000Y-66600000D03*
X67000000Y-66600000D03*
X84200000Y-59600000D03*
X76200000Y-59200000D03*
X77200000Y-71200000D03*
X80000000Y-54800000D03*
X67600000Y-64400000D03*
X68200000Y-70200000D03*
X55200000Y-63800000D03*
X77800000Y-57200000D03*
X82000000Y-55400000D03*
X58000000Y-71000000D03*
X57600000Y-59800000D03*
X72600000Y-59800000D03*
X57400000Y-72200000D03*
X69600000Y-71800000D03*
X53600000Y-68000000D03*
X59600000Y-63200000D03*
X61000000Y-62200000D03*
X76800000Y-57400000D03*
X72600000Y-72400000D03*
X73400000Y-54400000D03*
X56600000Y-60200000D03*
X74200000Y-58800000D03*
X78800000Y-57200000D03*
X58000000Y-68000000D03*
X60000000Y-62200000D03*
X67800000Y-67200000D03*
X68800000Y-71000000D03*
X55400000Y-61800000D03*
X70200000Y-69400000D03*
X75400000Y-69000000D03*
X52800000Y-69800000D03*
X59000000Y-62200000D03*
X84000000Y-63600000D03*
X71000000Y-70000000D03*
X57000000Y-70000000D03*
X73400000Y-59400000D03*
X76000000Y-58000000D03*
X81600000Y-63400000D03*
X75800000Y-63200000D03*
X65000000Y-66600000D03*
X53200000Y-70800000D03*
X55200000Y-64800000D03*
X67800000Y-68200000D03*
X79800000Y-67400000D03*
X75200000Y-58800000D03*
X84200000Y-62600000D03*
X61600000Y-59800000D03*
X77200000Y-61800000D03*
X62200000Y-68200000D03*
X54000000Y-71600000D03*
X81800000Y-66800000D03*
X79800000Y-57200000D03*
X55000000Y-71800000D03*
X78000000Y-54800000D03*
X54400000Y-67400000D03*
X73600000Y-68400000D03*
X64600000Y-59800000D03*
X70000000Y-62200000D03*
X78800000Y-67400000D03*
X55200000Y-66800000D03*
X77000000Y-54800000D03*
%TD*%
%TA.AperFunction,Conductor*%
%TO.N,GND*%
G36*
X101835219Y-64701666D02*
G01*
X101835220Y-64701668D01*
X102704022Y-65570470D01*
X102631655Y-65599123D01*
X102501858Y-65693426D01*
X102399590Y-65817046D01*
X102349640Y-65923193D01*
X101504779Y-65078332D01*
X101504777Y-65078329D01*
X100635977Y-64209529D01*
X100708345Y-64180877D01*
X100838142Y-64086574D01*
X100940410Y-63962954D01*
X100990359Y-63856806D01*
X101835219Y-64701666D01*
G37*
%TD.AperFunction*%
%TA.AperFunction,Conductor*%
G36*
X133167426Y-25009493D02*
G01*
X133370173Y-25018345D01*
X133375108Y-25018759D01*
X133592338Y-25045837D01*
X133795760Y-25072618D01*
X133800351Y-25073401D01*
X134014323Y-25118266D01*
X134187715Y-25156706D01*
X134215149Y-25162789D01*
X134219404Y-25163892D01*
X134428881Y-25226256D01*
X134625363Y-25288207D01*
X134629169Y-25289547D01*
X134832887Y-25369039D01*
X135023395Y-25447950D01*
X135026881Y-25449523D01*
X135145735Y-25507627D01*
X135223320Y-25545556D01*
X135282570Y-25576399D01*
X135406428Y-25640875D01*
X135409525Y-25642603D01*
X135597453Y-25754583D01*
X135771689Y-25865584D01*
X135774404Y-25867416D01*
X135952532Y-25994597D01*
X136116586Y-26120480D01*
X136118870Y-26122323D01*
X136230174Y-26216592D01*
X136285985Y-26263862D01*
X136439533Y-26404562D01*
X136595436Y-26560465D01*
X136736135Y-26714011D01*
X136877661Y-26881110D01*
X136879526Y-26883423D01*
X136942970Y-26966103D01*
X137005402Y-27047467D01*
X137132582Y-27225594D01*
X137134414Y-27228309D01*
X137245416Y-27402546D01*
X137357395Y-27590473D01*
X137359129Y-27593582D01*
X137454443Y-27776679D01*
X137522827Y-27916560D01*
X137550471Y-27973107D01*
X137550472Y-27973108D01*
X137552052Y-27976613D01*
X137630967Y-28167128D01*
X137710438Y-28370796D01*
X137711803Y-28374670D01*
X137773753Y-28571151D01*
X137836101Y-28780577D01*
X137837209Y-28784849D01*
X137881745Y-28985729D01*
X137926595Y-29199637D01*
X137927384Y-29204269D01*
X137954161Y-29407652D01*
X137981237Y-29624874D01*
X137981654Y-29629840D01*
X137990508Y-29832618D01*
X137999500Y-30050001D01*
X137999500Y-89949999D01*
X137990508Y-90167381D01*
X137981654Y-90370158D01*
X137981237Y-90375124D01*
X137954161Y-90592347D01*
X137927384Y-90795729D01*
X137926595Y-90800361D01*
X137881745Y-91014270D01*
X137837209Y-91215149D01*
X137836101Y-91219421D01*
X137773753Y-91428848D01*
X137711803Y-91625328D01*
X137710431Y-91629223D01*
X137630967Y-91832871D01*
X137552054Y-92023380D01*
X137550474Y-92026884D01*
X137454449Y-92223310D01*
X137359124Y-92406424D01*
X137357391Y-92409532D01*
X137245419Y-92597448D01*
X137134407Y-92771699D01*
X137132576Y-92774413D01*
X137005399Y-92952537D01*
X136879542Y-93116553D01*
X136877666Y-93118880D01*
X136736132Y-93285992D01*
X136595439Y-93439531D01*
X136439524Y-93595446D01*
X136286003Y-93736123D01*
X136118867Y-93877678D01*
X136116540Y-93879555D01*
X135952542Y-94005395D01*
X135774396Y-94132588D01*
X135771681Y-94134420D01*
X135597469Y-94245406D01*
X135409531Y-94357394D01*
X135406422Y-94359127D01*
X135223340Y-94454434D01*
X135026878Y-94550477D01*
X135023374Y-94552057D01*
X134832866Y-94630969D01*
X134629226Y-94710429D01*
X134625332Y-94711801D01*
X134428880Y-94773743D01*
X134219401Y-94836107D01*
X134215129Y-94837215D01*
X134014262Y-94881747D01*
X133800372Y-94926594D01*
X133795739Y-94927384D01*
X133592258Y-94954172D01*
X133375123Y-94981237D01*
X133370157Y-94981654D01*
X133167380Y-94990508D01*
X132949998Y-94999500D01*
X45101862Y-94999500D01*
X45101014Y-94999251D01*
X45050251Y-94999251D01*
X45049751Y-94999251D01*
X44789970Y-94988506D01*
X44629692Y-94981421D01*
X44624760Y-94981005D01*
X44407491Y-94953923D01*
X44204009Y-94927135D01*
X44199376Y-94926345D01*
X43985488Y-94881498D01*
X43784619Y-94836966D01*
X43780347Y-94835858D01*
X43570869Y-94773494D01*
X43374416Y-94711552D01*
X43370528Y-94710182D01*
X43291619Y-94679392D01*
X43166893Y-94630724D01*
X42976369Y-94551807D01*
X42972864Y-94550226D01*
X42832435Y-94481575D01*
X42776401Y-94454181D01*
X42593343Y-94358886D01*
X42590235Y-94357153D01*
X42402287Y-94245162D01*
X42228058Y-94134166D01*
X42225343Y-94132333D01*
X42047213Y-94005150D01*
X41883209Y-93879306D01*
X41880881Y-93877429D01*
X41797728Y-93807002D01*
X41713750Y-93735877D01*
X41599446Y-93631137D01*
X41560225Y-93595197D01*
X41404307Y-93439279D01*
X41263626Y-93285754D01*
X41122065Y-93118612D01*
X41120188Y-93116284D01*
X40994354Y-92952293D01*
X40947905Y-92887238D01*
X40867136Y-92774114D01*
X40865350Y-92771467D01*
X40754348Y-92597230D01*
X40642345Y-92409266D01*
X40640632Y-92406194D01*
X40545317Y-92223096D01*
X40449271Y-92026630D01*
X40447691Y-92023126D01*
X40368774Y-91832603D01*
X40289304Y-91628941D01*
X40287958Y-91625116D01*
X40225996Y-91428598D01*
X40163721Y-91219421D01*
X40163638Y-91219141D01*
X40162534Y-91214883D01*
X40118059Y-91014270D01*
X40118021Y-91014103D01*
X40073146Y-90800085D01*
X40072369Y-90795528D01*
X40045597Y-90592177D01*
X40018508Y-90374859D01*
X40018094Y-90369926D01*
X40009232Y-90166934D01*
X40000251Y-89949799D01*
X40000251Y-86000001D01*
X58094645Y-86000001D01*
X58114039Y-86271160D01*
X58114040Y-86271167D01*
X58169121Y-86524371D01*
X58171825Y-86536801D01*
X58197303Y-86605109D01*
X58266830Y-86791519D01*
X58397109Y-87030107D01*
X58397110Y-87030108D01*
X58397113Y-87030113D01*
X58560029Y-87247742D01*
X58560033Y-87247746D01*
X58560038Y-87247752D01*
X58752247Y-87439961D01*
X58752253Y-87439966D01*
X58752258Y-87439971D01*
X58969887Y-87602887D01*
X58969891Y-87602889D01*
X58969892Y-87602890D01*
X59208481Y-87733169D01*
X59208480Y-87733169D01*
X59208484Y-87733170D01*
X59208487Y-87733172D01*
X59463199Y-87828175D01*
X59728840Y-87885961D01*
X59980605Y-87903967D01*
X59999999Y-87905355D01*
X60000000Y-87905355D01*
X60000001Y-87905355D01*
X60018100Y-87904060D01*
X60271160Y-87885961D01*
X60536801Y-87828175D01*
X60791513Y-87733172D01*
X60791517Y-87733169D01*
X60791519Y-87733169D01*
X60910813Y-87668029D01*
X61030113Y-87602887D01*
X61247742Y-87439971D01*
X61439971Y-87247742D01*
X61602887Y-87030113D01*
X61733172Y-86791513D01*
X61828175Y-86536801D01*
X61885961Y-86271160D01*
X61905355Y-86000001D01*
X78094645Y-86000001D01*
X78114039Y-86271160D01*
X78114040Y-86271167D01*
X78169121Y-86524371D01*
X78171825Y-86536801D01*
X78197303Y-86605109D01*
X78266830Y-86791519D01*
X78397109Y-87030107D01*
X78397110Y-87030108D01*
X78397113Y-87030113D01*
X78560029Y-87247742D01*
X78560033Y-87247746D01*
X78560038Y-87247752D01*
X78752247Y-87439961D01*
X78752253Y-87439966D01*
X78752258Y-87439971D01*
X78969887Y-87602887D01*
X78969891Y-87602889D01*
X78969892Y-87602890D01*
X79208481Y-87733169D01*
X79208480Y-87733169D01*
X79208484Y-87733170D01*
X79208487Y-87733172D01*
X79463199Y-87828175D01*
X79728840Y-87885961D01*
X79980605Y-87903967D01*
X79999999Y-87905355D01*
X80000000Y-87905355D01*
X80000001Y-87905355D01*
X80018100Y-87904060D01*
X80271160Y-87885961D01*
X80536801Y-87828175D01*
X80791513Y-87733172D01*
X80791517Y-87733169D01*
X80791519Y-87733169D01*
X80910813Y-87668029D01*
X81030113Y-87602887D01*
X81247742Y-87439971D01*
X81439971Y-87247742D01*
X81602887Y-87030113D01*
X81733172Y-86791513D01*
X81828175Y-86536801D01*
X81885961Y-86271160D01*
X81905355Y-86000000D01*
X81885961Y-85728840D01*
X81828175Y-85463199D01*
X81733172Y-85208487D01*
X81733170Y-85208484D01*
X81733169Y-85208480D01*
X81602890Y-84969892D01*
X81602889Y-84969891D01*
X81602887Y-84969887D01*
X81439971Y-84752258D01*
X81439966Y-84752253D01*
X81439961Y-84752247D01*
X81287715Y-84600001D01*
X118294390Y-84600001D01*
X118314804Y-84885433D01*
X118375628Y-85165037D01*
X118375630Y-85165043D01*
X118375631Y-85165046D01*
X118475557Y-85432958D01*
X118475635Y-85433166D01*
X118612770Y-85684309D01*
X118612775Y-85684317D01*
X118784254Y-85913387D01*
X118784270Y-85913405D01*
X118986594Y-86115729D01*
X118986612Y-86115745D01*
X119215682Y-86287224D01*
X119215690Y-86287229D01*
X119466833Y-86424364D01*
X119466832Y-86424364D01*
X119466836Y-86424365D01*
X119466839Y-86424367D01*
X119734954Y-86524369D01*
X119734960Y-86524370D01*
X119734962Y-86524371D01*
X120014566Y-86585195D01*
X120014568Y-86585195D01*
X120014572Y-86585196D01*
X120268220Y-86603337D01*
X120299999Y-86605610D01*
X120300000Y-86605610D01*
X120300001Y-86605610D01*
X120328595Y-86603564D01*
X120585428Y-86585196D01*
X120865046Y-86524369D01*
X121133161Y-86424367D01*
X121384315Y-86287226D01*
X121613395Y-86115739D01*
X121815739Y-85913395D01*
X121987226Y-85684315D01*
X122124367Y-85433161D01*
X122224369Y-85165046D01*
X122249196Y-85050918D01*
X122285195Y-84885433D01*
X122285195Y-84885432D01*
X122285196Y-84885428D01*
X122305610Y-84600001D01*
X124644390Y-84600001D01*
X124664804Y-84885433D01*
X124725628Y-85165037D01*
X124725630Y-85165043D01*
X124725631Y-85165046D01*
X124825557Y-85432958D01*
X124825635Y-85433166D01*
X124962770Y-85684309D01*
X124962775Y-85684317D01*
X125134254Y-85913387D01*
X125134270Y-85913405D01*
X125336594Y-86115729D01*
X125336612Y-86115745D01*
X125565682Y-86287224D01*
X125565690Y-86287229D01*
X125816833Y-86424364D01*
X125816832Y-86424364D01*
X125816836Y-86424365D01*
X125816839Y-86424367D01*
X126084954Y-86524369D01*
X126084960Y-86524370D01*
X126084962Y-86524371D01*
X126364566Y-86585195D01*
X126364568Y-86585195D01*
X126364572Y-86585196D01*
X126618220Y-86603337D01*
X126649999Y-86605610D01*
X126650000Y-86605610D01*
X126650001Y-86605610D01*
X126678595Y-86603564D01*
X126935428Y-86585196D01*
X127215046Y-86524369D01*
X127483161Y-86424367D01*
X127734315Y-86287226D01*
X127963395Y-86115739D01*
X128165739Y-85913395D01*
X128337226Y-85684315D01*
X128474367Y-85433161D01*
X128574369Y-85165046D01*
X128599196Y-85050918D01*
X128635195Y-84885433D01*
X128635195Y-84885432D01*
X128635196Y-84885428D01*
X128655610Y-84600001D01*
X130994891Y-84600001D01*
X131015300Y-84885362D01*
X131076109Y-85164895D01*
X131176091Y-85432958D01*
X131313191Y-85684038D01*
X131313196Y-85684046D01*
X131419882Y-85826561D01*
X131419883Y-85826562D01*
X132322803Y-84923641D01*
X132346059Y-84977553D01*
X132450756Y-85118185D01*
X132585062Y-85230882D01*
X132676665Y-85276886D01*
X131773436Y-86180115D01*
X131915960Y-86286807D01*
X131915961Y-86286808D01*
X132167042Y-86423908D01*
X132167041Y-86423908D01*
X132435104Y-86523890D01*
X132714637Y-86584699D01*
X132999999Y-86605109D01*
X133000001Y-86605109D01*
X133285362Y-86584699D01*
X133564895Y-86523890D01*
X133832958Y-86423908D01*
X134084047Y-86286803D01*
X134226561Y-86180116D01*
X134226562Y-86180115D01*
X133325946Y-85279498D01*
X133338891Y-85274787D01*
X133485373Y-85178445D01*
X133605688Y-85050918D01*
X133678447Y-84924894D01*
X134580115Y-85826562D01*
X134580116Y-85826561D01*
X134686803Y-85684047D01*
X134823908Y-85432958D01*
X134923890Y-85164895D01*
X134984699Y-84885362D01*
X135005109Y-84600001D01*
X135005109Y-84599998D01*
X134984699Y-84314637D01*
X134923890Y-84035104D01*
X134823908Y-83767041D01*
X134686808Y-83515961D01*
X134686807Y-83515960D01*
X134580115Y-83373436D01*
X133677195Y-84276356D01*
X133653941Y-84222447D01*
X133549244Y-84081815D01*
X133414938Y-83969118D01*
X133323333Y-83923112D01*
X134226562Y-83019883D01*
X134226561Y-83019882D01*
X134084046Y-82913196D01*
X134084038Y-82913191D01*
X133832957Y-82776091D01*
X133832958Y-82776091D01*
X133564895Y-82676109D01*
X133285362Y-82615300D01*
X133000001Y-82594891D01*
X132999999Y-82594891D01*
X132714637Y-82615300D01*
X132435104Y-82676109D01*
X132167041Y-82776091D01*
X131915961Y-82913191D01*
X131915953Y-82913196D01*
X131773437Y-83019882D01*
X131773436Y-83019883D01*
X132674054Y-83920501D01*
X132661109Y-83925213D01*
X132514627Y-84021555D01*
X132394312Y-84149082D01*
X132321552Y-84275105D01*
X131419883Y-83373436D01*
X131419882Y-83373437D01*
X131313196Y-83515953D01*
X131313191Y-83515961D01*
X131176091Y-83767041D01*
X131076109Y-84035104D01*
X131015300Y-84314637D01*
X130994891Y-84599998D01*
X130994891Y-84600001D01*
X128655610Y-84600001D01*
X128655610Y-84600000D01*
X128635196Y-84314572D01*
X128624810Y-84266830D01*
X128574371Y-84034962D01*
X128574370Y-84034960D01*
X128574369Y-84034954D01*
X128474367Y-83766839D01*
X128337372Y-83515953D01*
X128337229Y-83515690D01*
X128337224Y-83515682D01*
X128165745Y-83286612D01*
X128165729Y-83286594D01*
X127963405Y-83084270D01*
X127963387Y-83084254D01*
X127734317Y-82912775D01*
X127734309Y-82912770D01*
X127483166Y-82775635D01*
X127483167Y-82775635D01*
X127375915Y-82735632D01*
X127215046Y-82675631D01*
X127215043Y-82675630D01*
X127215037Y-82675628D01*
X126935433Y-82614804D01*
X126650001Y-82594390D01*
X126649999Y-82594390D01*
X126364566Y-82614804D01*
X126084962Y-82675628D01*
X125816833Y-82775635D01*
X125565690Y-82912770D01*
X125565682Y-82912775D01*
X125336612Y-83084254D01*
X125336594Y-83084270D01*
X125134270Y-83286594D01*
X125134254Y-83286612D01*
X124962775Y-83515682D01*
X124962770Y-83515690D01*
X124825635Y-83766833D01*
X124725628Y-84034962D01*
X124664804Y-84314566D01*
X124644390Y-84599998D01*
X124644390Y-84600001D01*
X122305610Y-84600001D01*
X122305610Y-84600000D01*
X122285196Y-84314572D01*
X122274810Y-84266830D01*
X122224371Y-84034962D01*
X122224370Y-84034960D01*
X122224369Y-84034954D01*
X122124367Y-83766839D01*
X121987372Y-83515953D01*
X121987229Y-83515690D01*
X121987224Y-83515682D01*
X121815745Y-83286612D01*
X121815729Y-83286594D01*
X121613405Y-83084270D01*
X121613387Y-83084254D01*
X121384317Y-82912775D01*
X121384309Y-82912770D01*
X121133166Y-82775635D01*
X121133167Y-82775635D01*
X121025915Y-82735632D01*
X120865046Y-82675631D01*
X120865043Y-82675630D01*
X120865037Y-82675628D01*
X120585433Y-82614804D01*
X120300001Y-82594390D01*
X120299999Y-82594390D01*
X120014566Y-82614804D01*
X119734962Y-82675628D01*
X119466833Y-82775635D01*
X119215690Y-82912770D01*
X119215682Y-82912775D01*
X118986612Y-83084254D01*
X118986594Y-83084270D01*
X118784270Y-83286594D01*
X118784254Y-83286612D01*
X118612775Y-83515682D01*
X118612770Y-83515690D01*
X118475635Y-83766833D01*
X118375628Y-84034962D01*
X118314804Y-84314566D01*
X118294390Y-84599998D01*
X118294390Y-84600001D01*
X81287715Y-84600001D01*
X81247752Y-84560038D01*
X81247746Y-84560033D01*
X81247742Y-84560029D01*
X81030113Y-84397113D01*
X81030108Y-84397110D01*
X81030107Y-84397109D01*
X80791518Y-84266830D01*
X80791519Y-84266830D01*
X80736867Y-84246446D01*
X80536801Y-84171825D01*
X80536794Y-84171823D01*
X80536793Y-84171823D01*
X80271167Y-84114040D01*
X80271160Y-84114039D01*
X80000001Y-84094645D01*
X79999999Y-84094645D01*
X79728839Y-84114039D01*
X79728832Y-84114040D01*
X79463206Y-84171823D01*
X79463202Y-84171824D01*
X79463199Y-84171825D01*
X79335843Y-84219326D01*
X79208480Y-84266830D01*
X78969892Y-84397109D01*
X78969891Y-84397110D01*
X78752259Y-84560028D01*
X78752247Y-84560038D01*
X78560038Y-84752247D01*
X78560028Y-84752259D01*
X78397110Y-84969891D01*
X78397109Y-84969892D01*
X78266830Y-85208480D01*
X78219733Y-85334752D01*
X78171825Y-85463199D01*
X78171824Y-85463202D01*
X78171823Y-85463206D01*
X78114040Y-85728832D01*
X78114039Y-85728839D01*
X78094645Y-85999998D01*
X78094645Y-86000001D01*
X61905355Y-86000001D01*
X61905355Y-86000000D01*
X61885961Y-85728840D01*
X61828175Y-85463199D01*
X61733172Y-85208487D01*
X61733170Y-85208484D01*
X61733169Y-85208480D01*
X61602890Y-84969892D01*
X61602889Y-84969891D01*
X61602887Y-84969887D01*
X61439971Y-84752258D01*
X61439966Y-84752253D01*
X61439961Y-84752247D01*
X61247752Y-84560038D01*
X61247746Y-84560033D01*
X61247742Y-84560029D01*
X61030113Y-84397113D01*
X61030108Y-84397110D01*
X61030107Y-84397109D01*
X60791518Y-84266830D01*
X60791519Y-84266830D01*
X60736867Y-84246446D01*
X60536801Y-84171825D01*
X60536794Y-84171823D01*
X60536793Y-84171823D01*
X60271167Y-84114040D01*
X60271160Y-84114039D01*
X60000001Y-84094645D01*
X59999999Y-84094645D01*
X59728839Y-84114039D01*
X59728832Y-84114040D01*
X59463206Y-84171823D01*
X59463202Y-84171824D01*
X59463199Y-84171825D01*
X59335843Y-84219326D01*
X59208480Y-84266830D01*
X58969892Y-84397109D01*
X58969891Y-84397110D01*
X58752259Y-84560028D01*
X58752247Y-84560038D01*
X58560038Y-84752247D01*
X58560028Y-84752259D01*
X58397110Y-84969891D01*
X58397109Y-84969892D01*
X58266830Y-85208480D01*
X58219733Y-85334752D01*
X58171825Y-85463199D01*
X58171824Y-85463202D01*
X58171823Y-85463206D01*
X58114040Y-85728832D01*
X58114039Y-85728839D01*
X58094645Y-85999998D01*
X58094645Y-86000001D01*
X40000251Y-86000001D01*
X40000251Y-79910002D01*
X73655034Y-79910002D01*
X73674858Y-80136599D01*
X73674860Y-80136610D01*
X73733730Y-80356317D01*
X73733734Y-80356326D01*
X73829865Y-80562481D01*
X73829866Y-80562483D01*
X73880973Y-80635471D01*
X73880974Y-80635472D01*
X74562046Y-79954399D01*
X74574835Y-80035148D01*
X74632359Y-80148045D01*
X74721955Y-80237641D01*
X74834852Y-80295165D01*
X74915599Y-80307953D01*
X74234526Y-80989025D01*
X74234526Y-80989026D01*
X74307512Y-81040131D01*
X74307516Y-81040133D01*
X74513673Y-81136265D01*
X74513682Y-81136269D01*
X74733389Y-81195139D01*
X74733400Y-81195141D01*
X74959998Y-81214966D01*
X74960002Y-81214966D01*
X75186599Y-81195141D01*
X75186610Y-81195139D01*
X75406317Y-81136269D01*
X75406331Y-81136264D01*
X75612478Y-81040136D01*
X75685472Y-80989025D01*
X75004401Y-80307953D01*
X75085148Y-80295165D01*
X75198045Y-80237641D01*
X75287641Y-80148045D01*
X75345165Y-80035148D01*
X75357953Y-79954400D01*
X76039025Y-80635472D01*
X76090136Y-80562478D01*
X76186264Y-80356331D01*
X76186269Y-80356317D01*
X76245139Y-80136610D01*
X76245141Y-80136599D01*
X76264966Y-79910002D01*
X76264966Y-79910001D01*
X78654532Y-79910001D01*
X78674364Y-80136686D01*
X78674366Y-80136697D01*
X78733258Y-80356488D01*
X78733261Y-80356497D01*
X78829431Y-80562732D01*
X78829432Y-80562734D01*
X78959954Y-80749141D01*
X79120858Y-80910045D01*
X79120861Y-80910047D01*
X79307266Y-81040568D01*
X79513504Y-81136739D01*
X79733308Y-81195635D01*
X79895230Y-81209801D01*
X79959998Y-81215468D01*
X79960000Y-81215468D01*
X79960002Y-81215468D01*
X80016673Y-81210509D01*
X80186692Y-81195635D01*
X80406496Y-81136739D01*
X80612734Y-81040568D01*
X80799139Y-80910047D01*
X80960047Y-80749139D01*
X81090568Y-80562734D01*
X81186739Y-80356496D01*
X81245635Y-80136692D01*
X81265468Y-79910000D01*
X81245635Y-79683308D01*
X81186739Y-79463504D01*
X81090568Y-79257266D01*
X80960047Y-79070861D01*
X80960045Y-79070858D01*
X80799141Y-78909954D01*
X80612734Y-78779432D01*
X80612732Y-78779431D01*
X80406497Y-78683261D01*
X80406488Y-78683258D01*
X80186697Y-78624366D01*
X80186693Y-78624365D01*
X80186692Y-78624365D01*
X80186691Y-78624364D01*
X80186686Y-78624364D01*
X79960002Y-78604532D01*
X79959998Y-78604532D01*
X79733313Y-78624364D01*
X79733302Y-78624366D01*
X79513511Y-78683258D01*
X79513502Y-78683261D01*
X79307267Y-78779431D01*
X79307265Y-78779432D01*
X79120858Y-78909954D01*
X78959954Y-79070858D01*
X78829432Y-79257265D01*
X78829431Y-79257267D01*
X78733261Y-79463502D01*
X78733258Y-79463511D01*
X78674366Y-79683302D01*
X78674364Y-79683313D01*
X78654532Y-79909998D01*
X78654532Y-79910001D01*
X76264966Y-79910001D01*
X76264966Y-79909997D01*
X76245141Y-79683400D01*
X76245139Y-79683389D01*
X76186269Y-79463682D01*
X76186265Y-79463673D01*
X76090133Y-79257516D01*
X76090131Y-79257512D01*
X76039026Y-79184526D01*
X76039025Y-79184526D01*
X75357953Y-79865598D01*
X75345165Y-79784852D01*
X75287641Y-79671955D01*
X75198045Y-79582359D01*
X75085148Y-79524835D01*
X75004400Y-79512046D01*
X75685472Y-78830974D01*
X75685471Y-78830973D01*
X75612483Y-78779866D01*
X75612481Y-78779865D01*
X75406326Y-78683734D01*
X75406317Y-78683730D01*
X75186610Y-78624860D01*
X75186599Y-78624858D01*
X74960002Y-78605034D01*
X74959998Y-78605034D01*
X74733400Y-78624858D01*
X74733389Y-78624860D01*
X74513682Y-78683730D01*
X74513673Y-78683734D01*
X74307513Y-78779868D01*
X74234527Y-78830972D01*
X74234526Y-78830973D01*
X74915600Y-79512046D01*
X74834852Y-79524835D01*
X74721955Y-79582359D01*
X74632359Y-79671955D01*
X74574835Y-79784852D01*
X74562046Y-79865599D01*
X73880973Y-79184526D01*
X73880972Y-79184527D01*
X73829868Y-79257513D01*
X73733734Y-79463673D01*
X73733730Y-79463682D01*
X73674860Y-79683389D01*
X73674858Y-79683400D01*
X73655034Y-79909997D01*
X73655034Y-79910002D01*
X40000251Y-79910002D01*
X40000251Y-74897870D01*
X58149500Y-74897870D01*
X58149501Y-74897876D01*
X58155908Y-74957483D01*
X58206202Y-75092328D01*
X58206206Y-75092335D01*
X58292452Y-75207544D01*
X58292455Y-75207547D01*
X58407664Y-75293793D01*
X58407671Y-75293797D01*
X58542517Y-75344091D01*
X58542516Y-75344091D01*
X58549444Y-75344835D01*
X58602127Y-75350500D01*
X61397872Y-75350499D01*
X61457483Y-75344091D01*
X61592331Y-75293796D01*
X61707546Y-75207546D01*
X61793796Y-75092331D01*
X61844091Y-74957483D01*
X61850500Y-74897873D01*
X61850499Y-73170001D01*
X118294390Y-73170001D01*
X118314804Y-73455433D01*
X118375628Y-73735037D01*
X118375630Y-73735043D01*
X118375631Y-73735046D01*
X118475557Y-74002958D01*
X118475635Y-74003166D01*
X118612770Y-74254309D01*
X118612775Y-74254317D01*
X118784254Y-74483387D01*
X118784270Y-74483405D01*
X118986594Y-74685729D01*
X118986612Y-74685745D01*
X119215682Y-74857224D01*
X119215690Y-74857229D01*
X119466833Y-74994364D01*
X119466832Y-74994364D01*
X119466836Y-74994365D01*
X119466839Y-74994367D01*
X119734954Y-75094369D01*
X119734960Y-75094370D01*
X119734962Y-75094371D01*
X120014566Y-75155195D01*
X120014568Y-75155195D01*
X120014572Y-75155196D01*
X120268220Y-75173337D01*
X120299999Y-75175610D01*
X120300000Y-75175610D01*
X120300001Y-75175610D01*
X120328595Y-75173564D01*
X120585428Y-75155196D01*
X120865046Y-75094369D01*
X121133161Y-74994367D01*
X121384315Y-74857226D01*
X121613395Y-74685739D01*
X121815739Y-74483395D01*
X121987226Y-74254315D01*
X122124367Y-74003161D01*
X122224369Y-73735046D01*
X122249196Y-73620918D01*
X122285195Y-73455433D01*
X122285195Y-73455432D01*
X122285196Y-73455428D01*
X122305610Y-73170001D01*
X124644891Y-73170001D01*
X124665300Y-73455362D01*
X124726109Y-73734895D01*
X124826091Y-74002958D01*
X124963191Y-74254038D01*
X124963196Y-74254046D01*
X125069882Y-74396561D01*
X125069883Y-74396562D01*
X125972803Y-73493641D01*
X125996059Y-73547553D01*
X126100756Y-73688185D01*
X126235062Y-73800882D01*
X126326665Y-73846886D01*
X125423436Y-74750115D01*
X125565960Y-74856807D01*
X125565961Y-74856808D01*
X125817042Y-74993908D01*
X125817041Y-74993908D01*
X126085104Y-75093890D01*
X126364637Y-75154699D01*
X126649999Y-75175109D01*
X126650001Y-75175109D01*
X126935362Y-75154699D01*
X127214895Y-75093890D01*
X127482958Y-74993908D01*
X127734047Y-74856803D01*
X127876561Y-74750116D01*
X127876562Y-74750115D01*
X126975946Y-73849498D01*
X126988891Y-73844787D01*
X127135373Y-73748445D01*
X127255688Y-73620918D01*
X127328447Y-73494894D01*
X128230115Y-74396562D01*
X128230116Y-74396561D01*
X128336803Y-74254047D01*
X128473908Y-74002958D01*
X128573890Y-73734895D01*
X128634699Y-73455362D01*
X128655109Y-73170001D01*
X130994891Y-73170001D01*
X131015300Y-73455362D01*
X131076109Y-73734895D01*
X131176091Y-74002958D01*
X131313191Y-74254038D01*
X131313196Y-74254046D01*
X131419882Y-74396561D01*
X131419883Y-74396562D01*
X132322803Y-73493641D01*
X132346059Y-73547553D01*
X132450756Y-73688185D01*
X132585062Y-73800882D01*
X132676665Y-73846886D01*
X131773436Y-74750115D01*
X131915960Y-74856807D01*
X131915961Y-74856808D01*
X132167042Y-74993908D01*
X132167041Y-74993908D01*
X132435104Y-75093890D01*
X132714637Y-75154699D01*
X132999999Y-75175109D01*
X133000001Y-75175109D01*
X133285362Y-75154699D01*
X133564895Y-75093890D01*
X133832958Y-74993908D01*
X134084047Y-74856803D01*
X134226561Y-74750116D01*
X134226562Y-74750115D01*
X133325946Y-73849498D01*
X133338891Y-73844787D01*
X133485373Y-73748445D01*
X133605688Y-73620918D01*
X133678447Y-73494894D01*
X134580115Y-74396562D01*
X134580116Y-74396561D01*
X134686803Y-74254047D01*
X134823908Y-74002958D01*
X134923890Y-73734895D01*
X134984699Y-73455362D01*
X135005109Y-73170001D01*
X135005109Y-73169998D01*
X134984699Y-72884637D01*
X134923890Y-72605104D01*
X134823908Y-72337041D01*
X134686808Y-72085961D01*
X134686807Y-72085960D01*
X134580115Y-71943436D01*
X133677195Y-72846356D01*
X133653941Y-72792447D01*
X133549244Y-72651815D01*
X133414938Y-72539118D01*
X133323333Y-72493112D01*
X134226562Y-71589883D01*
X134226561Y-71589882D01*
X134084046Y-71483196D01*
X134084038Y-71483191D01*
X133832957Y-71346091D01*
X133832958Y-71346091D01*
X133564895Y-71246109D01*
X133285362Y-71185300D01*
X133000001Y-71164891D01*
X132999999Y-71164891D01*
X132714637Y-71185300D01*
X132435104Y-71246109D01*
X132167041Y-71346091D01*
X131915961Y-71483191D01*
X131915953Y-71483196D01*
X131773437Y-71589882D01*
X131773436Y-71589883D01*
X132674054Y-72490501D01*
X132661109Y-72495213D01*
X132514627Y-72591555D01*
X132394312Y-72719082D01*
X132321552Y-72845105D01*
X131419883Y-71943436D01*
X131419882Y-71943437D01*
X131313196Y-72085953D01*
X131313191Y-72085961D01*
X131176091Y-72337041D01*
X131076109Y-72605104D01*
X131015300Y-72884637D01*
X130994891Y-73169998D01*
X130994891Y-73170001D01*
X128655109Y-73170001D01*
X128655109Y-73169998D01*
X128634699Y-72884637D01*
X128573890Y-72605104D01*
X128473908Y-72337041D01*
X128336808Y-72085961D01*
X128336807Y-72085960D01*
X128230115Y-71943436D01*
X127327195Y-72846356D01*
X127303941Y-72792447D01*
X127199244Y-72651815D01*
X127064938Y-72539118D01*
X126973333Y-72493112D01*
X127876562Y-71589883D01*
X127876561Y-71589882D01*
X127734046Y-71483196D01*
X127734038Y-71483191D01*
X127482957Y-71346091D01*
X127482958Y-71346091D01*
X127214895Y-71246109D01*
X126935362Y-71185300D01*
X126650001Y-71164891D01*
X126649999Y-71164891D01*
X126364637Y-71185300D01*
X126085104Y-71246109D01*
X125817041Y-71346091D01*
X125565961Y-71483191D01*
X125565953Y-71483196D01*
X125423437Y-71589882D01*
X125423436Y-71589883D01*
X126324054Y-72490501D01*
X126311109Y-72495213D01*
X126164627Y-72591555D01*
X126044312Y-72719082D01*
X125971552Y-72845105D01*
X125069883Y-71943436D01*
X125069882Y-71943437D01*
X124963196Y-72085953D01*
X124963191Y-72085961D01*
X124826091Y-72337041D01*
X124726109Y-72605104D01*
X124665300Y-72884637D01*
X124644891Y-73169998D01*
X124644891Y-73170001D01*
X122305610Y-73170001D01*
X122305610Y-73170000D01*
X122285196Y-72884572D01*
X122265155Y-72792447D01*
X122224371Y-72604962D01*
X122224370Y-72604960D01*
X122224369Y-72604954D01*
X122124367Y-72336839D01*
X122071573Y-72240155D01*
X121987229Y-72085690D01*
X121987224Y-72085682D01*
X121815745Y-71856612D01*
X121815729Y-71856594D01*
X121613405Y-71654270D01*
X121613387Y-71654254D01*
X121384317Y-71482775D01*
X121384309Y-71482770D01*
X121133166Y-71345635D01*
X121133167Y-71345635D01*
X121025915Y-71305632D01*
X120865046Y-71245631D01*
X120865043Y-71245630D01*
X120865037Y-71245628D01*
X120585433Y-71184804D01*
X120300001Y-71164390D01*
X120299999Y-71164390D01*
X120014566Y-71184804D01*
X119734962Y-71245628D01*
X119466833Y-71345635D01*
X119215690Y-71482770D01*
X119215682Y-71482775D01*
X118986612Y-71654254D01*
X118986594Y-71654270D01*
X118784270Y-71856594D01*
X118784254Y-71856612D01*
X118612775Y-72085682D01*
X118612770Y-72085690D01*
X118475635Y-72336833D01*
X118375628Y-72604962D01*
X118314804Y-72884566D01*
X118294390Y-73169998D01*
X118294390Y-73170001D01*
X61850499Y-73170001D01*
X61850499Y-72102128D01*
X61844091Y-72042517D01*
X61807136Y-71943436D01*
X61793797Y-71907671D01*
X61793793Y-71907664D01*
X61707547Y-71792455D01*
X61707544Y-71792452D01*
X61592335Y-71706206D01*
X61592328Y-71706202D01*
X61457482Y-71655908D01*
X61457483Y-71655908D01*
X61397883Y-71649501D01*
X61397881Y-71649500D01*
X61397873Y-71649500D01*
X61397864Y-71649500D01*
X58602129Y-71649500D01*
X58602123Y-71649501D01*
X58542516Y-71655908D01*
X58407671Y-71706202D01*
X58407664Y-71706206D01*
X58292455Y-71792452D01*
X58292452Y-71792455D01*
X58206206Y-71907664D01*
X58206202Y-71907671D01*
X58155908Y-72042517D01*
X58151267Y-72085690D01*
X58149501Y-72102123D01*
X58149500Y-72102135D01*
X58149500Y-74897870D01*
X40000251Y-74897870D01*
X40000251Y-69440346D01*
X53595702Y-69440346D01*
X53605819Y-69678528D01*
X53605819Y-69678532D01*
X53656045Y-69911580D01*
X53704586Y-70032377D01*
X53744936Y-70132790D01*
X53869931Y-70335795D01*
X54027436Y-70514755D01*
X54212920Y-70664523D01*
X54421046Y-70780790D01*
X54438447Y-70786938D01*
X54645829Y-70860211D01*
X54880790Y-70900499D01*
X54880798Y-70900499D01*
X54880800Y-70900500D01*
X54880801Y-70900500D01*
X55059502Y-70900500D01*
X55237536Y-70885347D01*
X55237539Y-70885346D01*
X55237541Y-70885346D01*
X55468249Y-70825275D01*
X55600973Y-70765279D01*
X55685480Y-70727080D01*
X55685481Y-70727078D01*
X55685486Y-70727077D01*
X55883003Y-70593579D01*
X56055118Y-70428621D01*
X56196879Y-70236947D01*
X56304207Y-70024074D01*
X56374016Y-69796123D01*
X56404298Y-69559654D01*
X56402148Y-69509051D01*
X56401764Y-69500000D01*
X58144773Y-69500000D01*
X58163657Y-69764027D01*
X58163658Y-69764034D01*
X58219921Y-70022673D01*
X58312426Y-70270690D01*
X58312428Y-70270694D01*
X58439280Y-70503005D01*
X58439285Y-70503013D01*
X58597906Y-70714907D01*
X58597922Y-70714925D01*
X58785074Y-70902077D01*
X58785092Y-70902093D01*
X58996986Y-71060714D01*
X58996994Y-71060719D01*
X59229305Y-71187571D01*
X59229309Y-71187573D01*
X59229311Y-71187574D01*
X59477322Y-71280077D01*
X59477325Y-71280077D01*
X59477326Y-71280078D01*
X59672552Y-71322546D01*
X59735974Y-71336343D01*
X59979660Y-71353772D01*
X59999999Y-71355227D01*
X60000000Y-71355227D01*
X60000001Y-71355227D01*
X60018885Y-71353876D01*
X60264026Y-71336343D01*
X60522678Y-71280077D01*
X60630118Y-71240004D01*
X73224535Y-71240004D01*
X73244363Y-71504609D01*
X73244364Y-71504614D01*
X73303410Y-71763313D01*
X73303412Y-71763322D01*
X73303414Y-71763327D01*
X73400361Y-72010345D01*
X73533042Y-72240155D01*
X73698492Y-72447623D01*
X73893016Y-72628114D01*
X74112268Y-72777598D01*
X74112273Y-72777600D01*
X74112274Y-72777601D01*
X74112276Y-72777602D01*
X74248886Y-72843390D01*
X74351350Y-72892734D01*
X74604922Y-72970950D01*
X74604923Y-72970950D01*
X74604926Y-72970951D01*
X74867311Y-73010499D01*
X74867316Y-73010499D01*
X74867319Y-73010500D01*
X74867320Y-73010500D01*
X75132680Y-73010500D01*
X75132681Y-73010500D01*
X75132688Y-73010499D01*
X75395073Y-72970951D01*
X75395074Y-72970950D01*
X75395078Y-72970950D01*
X75648650Y-72892734D01*
X75887733Y-72777598D01*
X76106984Y-72628114D01*
X76301508Y-72447623D01*
X76466958Y-72240155D01*
X76599639Y-72010345D01*
X76696586Y-71763327D01*
X76755635Y-71504619D01*
X76755636Y-71504609D01*
X76775465Y-71240004D01*
X101164535Y-71240004D01*
X101184363Y-71504609D01*
X101184364Y-71504614D01*
X101243410Y-71763313D01*
X101243412Y-71763322D01*
X101243414Y-71763327D01*
X101340361Y-72010345D01*
X101473042Y-72240155D01*
X101638492Y-72447623D01*
X101833016Y-72628114D01*
X102052268Y-72777598D01*
X102052273Y-72777600D01*
X102052274Y-72777601D01*
X102052276Y-72777602D01*
X102188886Y-72843390D01*
X102291350Y-72892734D01*
X102544922Y-72970950D01*
X102544923Y-72970950D01*
X102544926Y-72970951D01*
X102807311Y-73010499D01*
X102807316Y-73010499D01*
X102807319Y-73010500D01*
X102807320Y-73010500D01*
X103072680Y-73010500D01*
X103072681Y-73010500D01*
X103072688Y-73010499D01*
X103335073Y-72970951D01*
X103335074Y-72970950D01*
X103335078Y-72970950D01*
X103588650Y-72892734D01*
X103827733Y-72777598D01*
X104046984Y-72628114D01*
X104241508Y-72447623D01*
X104406958Y-72240155D01*
X104539639Y-72010345D01*
X104636586Y-71763327D01*
X104695635Y-71504619D01*
X104695636Y-71504609D01*
X104715465Y-71240004D01*
X104715465Y-71239995D01*
X104695636Y-70975390D01*
X104695635Y-70975385D01*
X104695635Y-70975381D01*
X104636586Y-70716673D01*
X104539639Y-70469655D01*
X104406958Y-70239845D01*
X104241508Y-70032377D01*
X104046984Y-69851886D01*
X103965195Y-69796123D01*
X103827736Y-69702404D01*
X103827725Y-69702397D01*
X103588655Y-69587268D01*
X103588636Y-69587261D01*
X103335083Y-69509051D01*
X103335073Y-69509048D01*
X103072688Y-69469500D01*
X103072681Y-69469500D01*
X102807319Y-69469500D01*
X102807311Y-69469500D01*
X102544926Y-69509048D01*
X102544916Y-69509051D01*
X102291363Y-69587261D01*
X102291344Y-69587268D01*
X102052276Y-69702397D01*
X102052274Y-69702398D01*
X101833015Y-69851886D01*
X101638494Y-70032375D01*
X101638492Y-70032377D01*
X101473042Y-70239845D01*
X101340361Y-70469654D01*
X101243416Y-70716667D01*
X101243410Y-70716686D01*
X101184364Y-70975385D01*
X101184363Y-70975390D01*
X101164535Y-71239995D01*
X101164535Y-71240004D01*
X76775465Y-71240004D01*
X76775465Y-71239995D01*
X76755636Y-70975390D01*
X76755635Y-70975385D01*
X76755635Y-70975381D01*
X76696586Y-70716673D01*
X76599639Y-70469655D01*
X76466958Y-70239845D01*
X76301508Y-70032377D01*
X76106984Y-69851886D01*
X76025195Y-69796123D01*
X75887736Y-69702404D01*
X75887725Y-69702397D01*
X75648655Y-69587268D01*
X75648636Y-69587261D01*
X75395083Y-69509051D01*
X75395073Y-69509048D01*
X75132688Y-69469500D01*
X75132681Y-69469500D01*
X74867319Y-69469500D01*
X74867311Y-69469500D01*
X74604926Y-69509048D01*
X74604916Y-69509051D01*
X74351363Y-69587261D01*
X74351344Y-69587268D01*
X74112276Y-69702397D01*
X74112274Y-69702398D01*
X73893015Y-69851886D01*
X73698494Y-70032375D01*
X73698492Y-70032377D01*
X73533042Y-70239845D01*
X73400361Y-70469654D01*
X73303416Y-70716667D01*
X73303410Y-70716686D01*
X73244364Y-70975385D01*
X73244363Y-70975390D01*
X73224535Y-71239995D01*
X73224535Y-71240004D01*
X60630118Y-71240004D01*
X60770689Y-71187574D01*
X61003011Y-71060716D01*
X61214915Y-70902087D01*
X61402087Y-70714915D01*
X61560716Y-70503011D01*
X61687574Y-70270689D01*
X61780077Y-70022678D01*
X61836343Y-69764026D01*
X61855227Y-69500006D01*
X63594700Y-69500006D01*
X63613864Y-69731297D01*
X63613866Y-69731308D01*
X63670842Y-69956300D01*
X63764075Y-70168848D01*
X63891016Y-70363147D01*
X63891019Y-70363151D01*
X63891021Y-70363153D01*
X64048216Y-70533913D01*
X64048219Y-70533915D01*
X64048222Y-70533918D01*
X64231365Y-70676464D01*
X64231371Y-70676468D01*
X64231374Y-70676470D01*
X64435497Y-70786936D01*
X64547175Y-70825275D01*
X64655015Y-70862297D01*
X64655017Y-70862297D01*
X64655019Y-70862298D01*
X64883951Y-70900500D01*
X64883952Y-70900500D01*
X65116048Y-70900500D01*
X65116049Y-70900500D01*
X65344981Y-70862298D01*
X65564503Y-70786936D01*
X65768626Y-70676470D01*
X65951784Y-70533913D01*
X66108979Y-70363153D01*
X66235924Y-70168849D01*
X66329157Y-69956300D01*
X66386134Y-69731305D01*
X66388529Y-69702402D01*
X66405300Y-69500006D01*
X66405300Y-69499993D01*
X66386135Y-69268702D01*
X66386133Y-69268691D01*
X66329157Y-69043699D01*
X66235924Y-68831151D01*
X66108983Y-68636852D01*
X66108980Y-68636849D01*
X66108979Y-68636847D01*
X65951784Y-68466087D01*
X65951779Y-68466083D01*
X65951777Y-68466081D01*
X65768634Y-68323535D01*
X65768628Y-68323531D01*
X65564504Y-68213064D01*
X65564495Y-68213061D01*
X65344984Y-68137702D01*
X65173282Y-68109050D01*
X65116049Y-68099500D01*
X64883951Y-68099500D01*
X64838164Y-68107140D01*
X64655015Y-68137702D01*
X64435504Y-68213061D01*
X64435495Y-68213064D01*
X64231371Y-68323531D01*
X64231365Y-68323535D01*
X64048222Y-68466081D01*
X64048219Y-68466084D01*
X63891016Y-68636852D01*
X63764075Y-68831151D01*
X63670842Y-69043699D01*
X63613866Y-69268691D01*
X63613864Y-69268702D01*
X63594700Y-69499993D01*
X63594700Y-69500006D01*
X61855227Y-69500006D01*
X61855227Y-69500000D01*
X61855226Y-69499993D01*
X61850960Y-69440346D01*
X61836343Y-69235974D01*
X61780077Y-68977322D01*
X61687574Y-68729311D01*
X61680504Y-68716364D01*
X61560719Y-68496994D01*
X61560714Y-68496986D01*
X61402093Y-68285092D01*
X61402077Y-68285074D01*
X61214925Y-68097922D01*
X61214907Y-68097906D01*
X61084126Y-68000005D01*
X109994357Y-68000005D01*
X110014890Y-68247812D01*
X110014892Y-68247824D01*
X110075936Y-68488881D01*
X110175826Y-68716606D01*
X110311833Y-68924782D01*
X110311836Y-68924785D01*
X110480256Y-69107738D01*
X110676491Y-69260474D01*
X110676493Y-69260475D01*
X110894332Y-69378364D01*
X110895190Y-69378828D01*
X111074386Y-69440346D01*
X111128964Y-69459083D01*
X111130386Y-69459571D01*
X111375665Y-69500500D01*
X111624335Y-69500500D01*
X111869614Y-69459571D01*
X112104810Y-69378828D01*
X112323509Y-69260474D01*
X112519744Y-69107738D01*
X112688164Y-68924785D01*
X112824173Y-68716607D01*
X112924063Y-68488881D01*
X112985108Y-68247821D01*
X112987988Y-68213064D01*
X113005643Y-68000005D01*
X118994859Y-68000005D01*
X119015385Y-68247729D01*
X119015387Y-68247738D01*
X119076412Y-68488717D01*
X119176266Y-68716364D01*
X119276564Y-68869882D01*
X120016923Y-68129523D01*
X120040507Y-68209844D01*
X120118239Y-68330798D01*
X120226900Y-68424952D01*
X120357685Y-68484680D01*
X120367466Y-68486086D01*
X119629942Y-69223609D01*
X119676768Y-69260055D01*
X119676770Y-69260056D01*
X119895385Y-69378364D01*
X119895396Y-69378369D01*
X120130506Y-69459083D01*
X120375707Y-69500000D01*
X120624293Y-69500000D01*
X120869493Y-69459083D01*
X121104603Y-69378369D01*
X121104614Y-69378364D01*
X121323228Y-69260057D01*
X121323231Y-69260055D01*
X121370056Y-69223609D01*
X120632533Y-68486086D01*
X120642315Y-68484680D01*
X120773100Y-68424952D01*
X120881761Y-68330798D01*
X120959493Y-68209844D01*
X120983076Y-68129524D01*
X121723434Y-68869882D01*
X121823731Y-68716369D01*
X121923587Y-68488717D01*
X121984612Y-68247738D01*
X121984614Y-68247729D01*
X122005141Y-68000005D01*
X122005141Y-67999994D01*
X121984614Y-67752270D01*
X121984612Y-67752261D01*
X121923587Y-67511282D01*
X121823731Y-67283630D01*
X121723434Y-67130116D01*
X120983076Y-67870475D01*
X120959493Y-67790156D01*
X120881761Y-67669202D01*
X120773100Y-67575048D01*
X120642315Y-67515320D01*
X120632534Y-67513913D01*
X121370057Y-66776390D01*
X121370056Y-66776389D01*
X121323229Y-66739943D01*
X121104614Y-66621635D01*
X121104603Y-66621630D01*
X120869493Y-66540916D01*
X120624293Y-66500000D01*
X120375707Y-66500000D01*
X120130506Y-66540916D01*
X119895396Y-66621630D01*
X119895390Y-66621632D01*
X119676761Y-66739949D01*
X119629942Y-66776388D01*
X119629942Y-66776390D01*
X120367466Y-67513913D01*
X120357685Y-67515320D01*
X120226900Y-67575048D01*
X120118239Y-67669202D01*
X120040507Y-67790156D01*
X120016923Y-67870475D01*
X119276564Y-67130116D01*
X119176267Y-67283632D01*
X119076412Y-67511282D01*
X119015387Y-67752261D01*
X119015385Y-67752270D01*
X118994859Y-67999994D01*
X118994859Y-68000005D01*
X113005643Y-68000005D01*
X113005643Y-67999994D01*
X112985109Y-67752187D01*
X112985107Y-67752175D01*
X112924063Y-67511118D01*
X112824173Y-67283393D01*
X112688166Y-67075217D01*
X112666557Y-67051744D01*
X112519744Y-66892262D01*
X112323509Y-66739526D01*
X112323507Y-66739525D01*
X112323506Y-66739524D01*
X112104811Y-66621172D01*
X112104802Y-66621169D01*
X111869616Y-66540429D01*
X111624335Y-66499500D01*
X111375665Y-66499500D01*
X111130383Y-66540429D01*
X110895197Y-66621169D01*
X110895188Y-66621172D01*
X110676493Y-66739524D01*
X110480257Y-66892261D01*
X110311833Y-67075217D01*
X110175826Y-67283393D01*
X110075936Y-67511118D01*
X110014892Y-67752175D01*
X110014890Y-67752187D01*
X109994357Y-67999994D01*
X109994357Y-68000005D01*
X61084126Y-68000005D01*
X61003013Y-67939285D01*
X61003005Y-67939280D01*
X60770694Y-67812428D01*
X60770690Y-67812426D01*
X60522673Y-67719921D01*
X60264034Y-67663658D01*
X60264027Y-67663657D01*
X60000001Y-67644773D01*
X59999999Y-67644773D01*
X59735972Y-67663657D01*
X59735965Y-67663658D01*
X59477326Y-67719921D01*
X59229309Y-67812426D01*
X59229305Y-67812428D01*
X58996994Y-67939280D01*
X58996986Y-67939285D01*
X58785092Y-68097906D01*
X58785074Y-68097922D01*
X58597922Y-68285074D01*
X58597906Y-68285092D01*
X58439285Y-68496986D01*
X58439280Y-68496994D01*
X58312428Y-68729305D01*
X58312426Y-68729309D01*
X58219921Y-68977326D01*
X58163658Y-69235965D01*
X58163657Y-69235972D01*
X58144773Y-69499998D01*
X58144773Y-69500000D01*
X56401764Y-69500000D01*
X56394180Y-69321471D01*
X56394180Y-69321467D01*
X56343954Y-69088419D01*
X56298748Y-68975920D01*
X56255064Y-68867210D01*
X56130069Y-68664205D01*
X55972564Y-68485245D01*
X55787080Y-68335477D01*
X55673130Y-68271820D01*
X55578955Y-68219210D01*
X55354170Y-68139788D01*
X55119209Y-68099500D01*
X55119200Y-68099500D01*
X54940503Y-68099500D01*
X54940498Y-68099500D01*
X54762463Y-68114652D01*
X54531751Y-68174724D01*
X54314519Y-68272919D01*
X54314511Y-68272924D01*
X54117006Y-68406413D01*
X54116997Y-68406421D01*
X53944881Y-68571379D01*
X53803123Y-68763050D01*
X53803120Y-68763054D01*
X53695796Y-68975920D01*
X53695793Y-68975926D01*
X53625983Y-69203878D01*
X53595702Y-69440346D01*
X40000251Y-69440346D01*
X40000251Y-65500001D01*
X58144773Y-65500001D01*
X58163657Y-65764027D01*
X58163658Y-65764034D01*
X58219921Y-66022673D01*
X58312426Y-66270690D01*
X58312428Y-66270694D01*
X58439280Y-66503005D01*
X58439285Y-66503013D01*
X58597906Y-66714907D01*
X58597922Y-66714925D01*
X58785074Y-66902077D01*
X58785092Y-66902093D01*
X58996986Y-67060714D01*
X58996994Y-67060719D01*
X59229305Y-67187571D01*
X59229309Y-67187573D01*
X59229311Y-67187574D01*
X59477322Y-67280077D01*
X59477325Y-67280077D01*
X59477326Y-67280078D01*
X59493664Y-67283632D01*
X59735974Y-67336343D01*
X59979660Y-67353772D01*
X59999999Y-67355227D01*
X60000000Y-67355227D01*
X60000001Y-67355227D01*
X60018885Y-67353876D01*
X60264026Y-67336343D01*
X60522678Y-67280077D01*
X60770689Y-67187574D01*
X61003011Y-67060716D01*
X61214915Y-66902087D01*
X61402087Y-66714915D01*
X61560716Y-66503011D01*
X61687574Y-66270689D01*
X61728857Y-66160004D01*
X73224535Y-66160004D01*
X73244363Y-66424609D01*
X73244364Y-66424614D01*
X73303410Y-66683313D01*
X73303412Y-66683322D01*
X73303414Y-66683327D01*
X73400361Y-66930345D01*
X73533042Y-67160155D01*
X73698492Y-67367623D01*
X73893016Y-67548114D01*
X74112268Y-67697598D01*
X74351350Y-67812734D01*
X74604922Y-67890950D01*
X74604923Y-67890950D01*
X74604926Y-67890951D01*
X74867311Y-67930499D01*
X74867316Y-67930499D01*
X74867319Y-67930500D01*
X74867320Y-67930500D01*
X75132680Y-67930500D01*
X75132681Y-67930500D01*
X75132688Y-67930499D01*
X75395073Y-67890951D01*
X75395074Y-67890950D01*
X75395078Y-67890950D01*
X75648650Y-67812734D01*
X75887733Y-67697598D01*
X76106984Y-67548114D01*
X76301508Y-67367623D01*
X76466958Y-67160155D01*
X76599639Y-66930345D01*
X76696586Y-66683327D01*
X76755635Y-66424619D01*
X76755641Y-66424540D01*
X76775465Y-66160004D01*
X76775465Y-66159995D01*
X76755636Y-65895390D01*
X76755635Y-65895385D01*
X76755635Y-65895381D01*
X76696586Y-65636673D01*
X76599639Y-65389655D01*
X76466958Y-65159845D01*
X76301508Y-64952377D01*
X76106984Y-64771886D01*
X76044538Y-64729311D01*
X75887736Y-64622404D01*
X75887725Y-64622397D01*
X75648655Y-64507268D01*
X75648636Y-64507261D01*
X75395083Y-64429051D01*
X75395073Y-64429048D01*
X75132688Y-64389500D01*
X75132681Y-64389500D01*
X74867319Y-64389500D01*
X74867311Y-64389500D01*
X74604926Y-64429048D01*
X74604916Y-64429051D01*
X74351363Y-64507261D01*
X74351344Y-64507268D01*
X74112276Y-64622397D01*
X74112274Y-64622398D01*
X73893015Y-64771886D01*
X73698494Y-64952375D01*
X73698492Y-64952377D01*
X73533042Y-65159845D01*
X73400362Y-65389653D01*
X73400361Y-65389653D01*
X73303416Y-65636667D01*
X73303410Y-65636686D01*
X73244364Y-65895385D01*
X73244363Y-65895390D01*
X73224535Y-66159995D01*
X73224535Y-66160004D01*
X61728857Y-66160004D01*
X61780077Y-66022678D01*
X61836343Y-65764026D01*
X61855227Y-65500000D01*
X61836343Y-65235974D01*
X61802050Y-65078329D01*
X61780078Y-64977326D01*
X61703453Y-64771886D01*
X61687574Y-64729311D01*
X61658926Y-64676847D01*
X61560719Y-64496994D01*
X61560714Y-64496986D01*
X61402093Y-64285092D01*
X61402077Y-64285074D01*
X61214925Y-64097922D01*
X61214907Y-64097906D01*
X61003013Y-63939285D01*
X61003005Y-63939280D01*
X60770694Y-63812428D01*
X60770690Y-63812426D01*
X60522673Y-63719921D01*
X60264034Y-63663658D01*
X60264027Y-63663657D01*
X60000001Y-63644773D01*
X59999999Y-63644773D01*
X59735972Y-63663657D01*
X59735965Y-63663658D01*
X59477326Y-63719921D01*
X59229309Y-63812426D01*
X59229305Y-63812428D01*
X58996994Y-63939280D01*
X58996986Y-63939285D01*
X58785092Y-64097906D01*
X58785074Y-64097922D01*
X58597922Y-64285074D01*
X58597906Y-64285092D01*
X58439285Y-64496986D01*
X58439280Y-64496994D01*
X58312428Y-64729305D01*
X58312426Y-64729309D01*
X58219921Y-64977326D01*
X58163658Y-65235965D01*
X58163657Y-65235972D01*
X58144773Y-65499998D01*
X58144773Y-65500001D01*
X40000251Y-65500001D01*
X40000251Y-63620004D01*
X98625037Y-63620004D01*
X98644860Y-63884535D01*
X98644861Y-63884540D01*
X98703890Y-64143166D01*
X98703896Y-64143185D01*
X98800814Y-64390128D01*
X98800813Y-64390128D01*
X98933457Y-64619871D01*
X98983642Y-64682803D01*
X98983643Y-64682803D01*
X99809356Y-63857090D01*
X99820868Y-63892519D01*
X99906835Y-64027981D01*
X100023790Y-64137809D01*
X100160555Y-64212996D01*
X99336438Y-65037112D01*
X99512525Y-65157166D01*
X99512526Y-65157167D01*
X99751530Y-65272264D01*
X99751528Y-65272264D01*
X100005025Y-65350458D01*
X100005031Y-65350459D01*
X100267351Y-65389999D01*
X100267358Y-65390000D01*
X100532642Y-65390000D01*
X100532648Y-65389999D01*
X100794968Y-65350459D01*
X100794974Y-65350458D01*
X101048467Y-65272265D01*
X101185261Y-65206389D01*
X101254203Y-65195037D01*
X101318337Y-65222759D01*
X101357303Y-65280754D01*
X101358728Y-65350610D01*
X101346452Y-65380106D01*
X101340813Y-65389872D01*
X101243896Y-65636814D01*
X101243890Y-65636833D01*
X101184861Y-65895459D01*
X101184860Y-65895464D01*
X101165037Y-66159995D01*
X101165037Y-66160004D01*
X101184860Y-66424535D01*
X101184861Y-66424540D01*
X101243890Y-66683166D01*
X101243896Y-66683185D01*
X101340814Y-66930128D01*
X101340813Y-66930128D01*
X101473457Y-67159871D01*
X101523642Y-67222803D01*
X101523643Y-67222803D01*
X102349356Y-66397090D01*
X102360868Y-66432519D01*
X102446835Y-66567981D01*
X102563790Y-66677809D01*
X102700555Y-66752996D01*
X101876438Y-67577112D01*
X102052525Y-67697166D01*
X102052526Y-67697167D01*
X102291530Y-67812264D01*
X102291528Y-67812264D01*
X102545025Y-67890458D01*
X102545031Y-67890459D01*
X102807351Y-67929999D01*
X102807358Y-67930000D01*
X103072642Y-67930000D01*
X103072648Y-67929999D01*
X103334968Y-67890459D01*
X103334974Y-67890458D01*
X103588470Y-67812264D01*
X103827479Y-67697164D01*
X104003560Y-67577112D01*
X103175977Y-66749529D01*
X103248345Y-66720877D01*
X103378142Y-66626574D01*
X103480410Y-66502954D01*
X103530359Y-66396806D01*
X104356355Y-67222803D01*
X104356356Y-67222802D01*
X104406545Y-67159869D01*
X104539185Y-66930128D01*
X104636103Y-66683185D01*
X104636109Y-66683166D01*
X104695138Y-66424540D01*
X104695139Y-66424535D01*
X104714963Y-66160004D01*
X104714963Y-66159995D01*
X104695139Y-65895464D01*
X104695138Y-65895459D01*
X104636109Y-65636833D01*
X104636103Y-65636814D01*
X104598109Y-65540006D01*
X130444700Y-65540006D01*
X130463864Y-65771297D01*
X130463866Y-65771308D01*
X130520842Y-65996300D01*
X130614075Y-66208848D01*
X130741016Y-66403147D01*
X130741019Y-66403151D01*
X130741021Y-66403153D01*
X130898216Y-66573913D01*
X130898219Y-66573915D01*
X130898222Y-66573918D01*
X131081365Y-66716464D01*
X131081371Y-66716468D01*
X131081374Y-66716470D01*
X131285497Y-66826936D01*
X131399487Y-66866068D01*
X131505015Y-66902297D01*
X131505017Y-66902297D01*
X131505019Y-66902298D01*
X131733951Y-66940500D01*
X131733952Y-66940500D01*
X131966048Y-66940500D01*
X131966049Y-66940500D01*
X132194981Y-66902298D01*
X132414503Y-66826936D01*
X132618626Y-66716470D01*
X132801784Y-66573913D01*
X132958979Y-66403153D01*
X133085924Y-66208849D01*
X133179157Y-65996300D01*
X133236134Y-65771305D01*
X133236135Y-65771297D01*
X133255300Y-65540006D01*
X133255300Y-65539993D01*
X133236135Y-65308702D01*
X133236133Y-65308691D01*
X133179157Y-65083699D01*
X133085924Y-64871151D01*
X132958983Y-64676852D01*
X132958980Y-64676849D01*
X132958979Y-64676847D01*
X132801784Y-64506087D01*
X132801779Y-64506083D01*
X132801777Y-64506081D01*
X132618634Y-64363535D01*
X132618628Y-64363531D01*
X132414504Y-64253064D01*
X132414495Y-64253061D01*
X132194984Y-64177702D01*
X132023282Y-64149050D01*
X131966049Y-64139500D01*
X131733951Y-64139500D01*
X131688164Y-64147140D01*
X131505015Y-64177702D01*
X131285504Y-64253061D01*
X131285495Y-64253064D01*
X131081371Y-64363531D01*
X131081365Y-64363535D01*
X130898222Y-64506081D01*
X130898219Y-64506084D01*
X130898216Y-64506086D01*
X130898216Y-64506087D01*
X130839267Y-64570122D01*
X130741016Y-64676852D01*
X130614075Y-64871151D01*
X130520842Y-65083699D01*
X130463866Y-65308691D01*
X130463864Y-65308702D01*
X130444700Y-65539993D01*
X130444700Y-65540006D01*
X104598109Y-65540006D01*
X104539185Y-65389871D01*
X104539186Y-65389871D01*
X104406543Y-65160129D01*
X104406536Y-65160118D01*
X104356356Y-65097196D01*
X104356355Y-65097195D01*
X103530643Y-65922908D01*
X103519132Y-65887481D01*
X103433165Y-65752019D01*
X103316210Y-65642191D01*
X103179444Y-65567003D01*
X104003560Y-64742886D01*
X103827484Y-64622839D01*
X103827474Y-64622832D01*
X103588469Y-64507735D01*
X103588471Y-64507735D01*
X103334974Y-64429541D01*
X103334968Y-64429540D01*
X103072648Y-64390000D01*
X102807351Y-64390000D01*
X102545031Y-64429540D01*
X102545025Y-64429541D01*
X102291535Y-64507733D01*
X102154737Y-64573611D01*
X102085795Y-64584962D01*
X102021661Y-64557239D01*
X101982696Y-64499244D01*
X101981271Y-64429388D01*
X101993553Y-64399883D01*
X101999186Y-64390126D01*
X102096103Y-64143185D01*
X102096109Y-64143166D01*
X102155138Y-63884540D01*
X102155139Y-63884535D01*
X102174963Y-63620004D01*
X102174963Y-63619995D01*
X102155139Y-63355464D01*
X102155138Y-63355459D01*
X102096109Y-63096833D01*
X102096103Y-63096814D01*
X101999187Y-62849874D01*
X101993994Y-62840880D01*
X101977521Y-62772980D01*
X102000373Y-62706953D01*
X102055294Y-62663762D01*
X102124847Y-62657120D01*
X102155180Y-62667158D01*
X102291350Y-62732734D01*
X102544922Y-62810950D01*
X102544923Y-62810950D01*
X102544926Y-62810951D01*
X102807311Y-62850499D01*
X102807316Y-62850499D01*
X102807319Y-62850500D01*
X102807320Y-62850500D01*
X103072680Y-62850500D01*
X103072681Y-62850500D01*
X103072688Y-62850499D01*
X103335073Y-62810951D01*
X103335074Y-62810950D01*
X103335078Y-62810950D01*
X103588650Y-62732734D01*
X103780071Y-62640550D01*
X103827725Y-62617602D01*
X103827725Y-62617601D01*
X103827733Y-62617598D01*
X104046984Y-62468114D01*
X104241508Y-62287623D01*
X104406958Y-62080155D01*
X104539639Y-61850345D01*
X104636586Y-61603327D01*
X104695635Y-61344619D01*
X104701941Y-61260474D01*
X104715465Y-61080004D01*
X104715465Y-61079995D01*
X104695636Y-60815390D01*
X104695635Y-60815385D01*
X104695635Y-60815381D01*
X104636586Y-60556673D01*
X104539639Y-60309655D01*
X104406958Y-60079845D01*
X104343288Y-60000005D01*
X109994357Y-60000005D01*
X110014890Y-60247812D01*
X110014892Y-60247824D01*
X110075936Y-60488881D01*
X110175826Y-60716606D01*
X110311833Y-60924782D01*
X110311836Y-60924785D01*
X110480256Y-61107738D01*
X110676491Y-61260474D01*
X110895190Y-61378828D01*
X111130386Y-61459571D01*
X111375665Y-61500500D01*
X111624335Y-61500500D01*
X111869614Y-61459571D01*
X112104810Y-61378828D01*
X112323509Y-61260474D01*
X112519744Y-61107738D01*
X112688164Y-60924785D01*
X112824173Y-60716607D01*
X112924063Y-60488881D01*
X112985108Y-60247821D01*
X112985109Y-60247812D01*
X113005643Y-60000005D01*
X118994357Y-60000005D01*
X119014890Y-60247812D01*
X119014892Y-60247824D01*
X119075936Y-60488881D01*
X119175826Y-60716606D01*
X119311833Y-60924782D01*
X119311836Y-60924785D01*
X119480256Y-61107738D01*
X119676491Y-61260474D01*
X119895190Y-61378828D01*
X120130386Y-61459571D01*
X120375665Y-61500500D01*
X120624335Y-61500500D01*
X120869614Y-61459571D01*
X121104810Y-61378828D01*
X121323509Y-61260474D01*
X121519744Y-61107738D01*
X121688164Y-60924785D01*
X121824173Y-60716607D01*
X121901637Y-60540006D01*
X130444700Y-60540006D01*
X130463864Y-60771297D01*
X130463866Y-60771308D01*
X130520842Y-60996300D01*
X130614075Y-61208848D01*
X130741016Y-61403147D01*
X130741019Y-61403151D01*
X130741021Y-61403153D01*
X130898216Y-61573913D01*
X130898219Y-61573915D01*
X130898222Y-61573918D01*
X131081365Y-61716464D01*
X131081371Y-61716468D01*
X131081374Y-61716470D01*
X131285497Y-61826936D01*
X131380359Y-61859502D01*
X131505015Y-61902297D01*
X131505017Y-61902297D01*
X131505019Y-61902298D01*
X131733951Y-61940500D01*
X131733952Y-61940500D01*
X131966048Y-61940500D01*
X131966049Y-61940500D01*
X132194981Y-61902298D01*
X132414503Y-61826936D01*
X132618626Y-61716470D01*
X132801784Y-61573913D01*
X132958979Y-61403153D01*
X133085924Y-61208849D01*
X133179157Y-60996300D01*
X133236134Y-60771305D01*
X133236135Y-60771297D01*
X133255300Y-60540006D01*
X133255300Y-60539993D01*
X133236135Y-60308702D01*
X133236133Y-60308691D01*
X133179157Y-60083699D01*
X133085924Y-59871151D01*
X132958983Y-59676852D01*
X132958980Y-59676849D01*
X132958979Y-59676847D01*
X132801784Y-59506087D01*
X132801779Y-59506083D01*
X132801777Y-59506081D01*
X132618634Y-59363535D01*
X132618628Y-59363531D01*
X132414504Y-59253064D01*
X132414495Y-59253061D01*
X132194984Y-59177702D01*
X132023282Y-59149050D01*
X131966049Y-59139500D01*
X131733951Y-59139500D01*
X131688164Y-59147140D01*
X131505015Y-59177702D01*
X131285504Y-59253061D01*
X131285495Y-59253064D01*
X131081371Y-59363531D01*
X131081365Y-59363535D01*
X130898222Y-59506081D01*
X130898219Y-59506084D01*
X130898216Y-59506086D01*
X130898216Y-59506087D01*
X130864790Y-59542398D01*
X130741016Y-59676852D01*
X130614075Y-59871151D01*
X130520842Y-60083699D01*
X130463866Y-60308691D01*
X130463864Y-60308702D01*
X130444700Y-60539993D01*
X130444700Y-60540006D01*
X121901637Y-60540006D01*
X121924063Y-60488881D01*
X121985108Y-60247821D01*
X121985109Y-60247812D01*
X122005643Y-60000005D01*
X122005643Y-59999994D01*
X121985109Y-59752187D01*
X121985107Y-59752175D01*
X121924063Y-59511118D01*
X121824173Y-59283393D01*
X121688166Y-59075217D01*
X121666557Y-59051744D01*
X121519744Y-58892262D01*
X121323509Y-58739526D01*
X121323507Y-58739525D01*
X121323506Y-58739524D01*
X121104811Y-58621172D01*
X121104802Y-58621169D01*
X120869616Y-58540429D01*
X120624335Y-58499500D01*
X120375665Y-58499500D01*
X120130383Y-58540429D01*
X119895197Y-58621169D01*
X119895188Y-58621172D01*
X119676493Y-58739524D01*
X119480257Y-58892261D01*
X119311833Y-59075217D01*
X119175826Y-59283393D01*
X119075936Y-59511118D01*
X119014892Y-59752175D01*
X119014890Y-59752187D01*
X118994357Y-59999994D01*
X118994357Y-60000005D01*
X113005643Y-60000005D01*
X113005643Y-59999994D01*
X112985109Y-59752187D01*
X112985107Y-59752175D01*
X112924063Y-59511118D01*
X112824173Y-59283393D01*
X112688166Y-59075217D01*
X112666557Y-59051744D01*
X112519744Y-58892262D01*
X112323509Y-58739526D01*
X112323507Y-58739525D01*
X112323506Y-58739524D01*
X112104811Y-58621172D01*
X112104802Y-58621169D01*
X111869616Y-58540429D01*
X111624335Y-58499500D01*
X111375665Y-58499500D01*
X111130383Y-58540429D01*
X110895197Y-58621169D01*
X110895188Y-58621172D01*
X110676493Y-58739524D01*
X110480257Y-58892261D01*
X110311833Y-59075217D01*
X110175826Y-59283393D01*
X110075936Y-59511118D01*
X110014892Y-59752175D01*
X110014890Y-59752187D01*
X109994357Y-59999994D01*
X109994357Y-60000005D01*
X104343288Y-60000005D01*
X104241508Y-59872377D01*
X104046984Y-59691886D01*
X104024933Y-59676852D01*
X103827736Y-59542404D01*
X103827725Y-59542397D01*
X103588655Y-59427268D01*
X103588636Y-59427261D01*
X103335083Y-59349051D01*
X103335073Y-59349048D01*
X103072688Y-59309500D01*
X103072681Y-59309500D01*
X102807319Y-59309500D01*
X102807311Y-59309500D01*
X102544926Y-59349048D01*
X102544916Y-59349051D01*
X102291363Y-59427261D01*
X102291344Y-59427268D01*
X102052276Y-59542397D01*
X102052274Y-59542398D01*
X101833015Y-59691886D01*
X101638494Y-59872375D01*
X101638492Y-59872377D01*
X101473042Y-60079845D01*
X101340361Y-60309654D01*
X101243416Y-60556667D01*
X101243410Y-60556686D01*
X101184364Y-60815385D01*
X101184363Y-60815390D01*
X101164535Y-61079995D01*
X101164535Y-61080004D01*
X101184363Y-61344609D01*
X101184364Y-61344614D01*
X101243410Y-61603313D01*
X101243416Y-61603332D01*
X101340360Y-61850344D01*
X101345648Y-61859502D01*
X101362122Y-61927402D01*
X101339270Y-61993430D01*
X101284350Y-62036621D01*
X101214797Y-62043263D01*
X101184461Y-62033225D01*
X101048464Y-61967733D01*
X100794974Y-61889541D01*
X100794968Y-61889540D01*
X100532648Y-61850000D01*
X100267351Y-61850000D01*
X100005031Y-61889540D01*
X100005025Y-61889541D01*
X99751529Y-61967735D01*
X99512526Y-62082832D01*
X99512518Y-62082837D01*
X99336438Y-62202886D01*
X100164022Y-63030470D01*
X100091655Y-63059123D01*
X99961858Y-63153426D01*
X99859590Y-63277046D01*
X99809640Y-63383193D01*
X98983643Y-62557196D01*
X98933456Y-62620128D01*
X98800814Y-62849871D01*
X98703896Y-63096814D01*
X98703890Y-63096833D01*
X98644861Y-63355459D01*
X98644860Y-63355464D01*
X98625037Y-63619995D01*
X98625037Y-63620004D01*
X40000251Y-63620004D01*
X40000251Y-61080004D01*
X73224535Y-61080004D01*
X73244363Y-61344609D01*
X73244364Y-61344614D01*
X73303410Y-61603313D01*
X73303412Y-61603322D01*
X73303414Y-61603327D01*
X73400361Y-61850345D01*
X73533042Y-62080155D01*
X73698492Y-62287623D01*
X73893016Y-62468114D01*
X74112268Y-62617598D01*
X74112273Y-62617600D01*
X74112274Y-62617601D01*
X74112276Y-62617602D01*
X74194336Y-62657120D01*
X74351350Y-62732734D01*
X74604922Y-62810950D01*
X74604923Y-62810950D01*
X74604926Y-62810951D01*
X74867311Y-62850499D01*
X74867316Y-62850499D01*
X74867319Y-62850500D01*
X74867320Y-62850500D01*
X75132680Y-62850500D01*
X75132681Y-62850500D01*
X75132688Y-62850499D01*
X75395073Y-62810951D01*
X75395074Y-62810950D01*
X75395078Y-62810950D01*
X75648650Y-62732734D01*
X75840071Y-62640550D01*
X75887725Y-62617602D01*
X75887725Y-62617601D01*
X75887733Y-62617598D01*
X76106984Y-62468114D01*
X76301508Y-62287623D01*
X76466958Y-62080155D01*
X76599639Y-61850345D01*
X76696586Y-61603327D01*
X76755635Y-61344619D01*
X76761941Y-61260474D01*
X76775465Y-61080004D01*
X76775465Y-61079995D01*
X76755636Y-60815390D01*
X76755635Y-60815385D01*
X76755635Y-60815381D01*
X76696586Y-60556673D01*
X76599639Y-60309655D01*
X76466958Y-60079845D01*
X76301508Y-59872377D01*
X76106984Y-59691886D01*
X76084933Y-59676852D01*
X75887736Y-59542404D01*
X75887725Y-59542397D01*
X75648655Y-59427268D01*
X75648636Y-59427261D01*
X75395083Y-59349051D01*
X75395073Y-59349048D01*
X75132688Y-59309500D01*
X75132681Y-59309500D01*
X74867319Y-59309500D01*
X74867311Y-59309500D01*
X74604926Y-59349048D01*
X74604916Y-59349051D01*
X74351363Y-59427261D01*
X74351344Y-59427268D01*
X74112276Y-59542397D01*
X74112274Y-59542398D01*
X73893015Y-59691886D01*
X73698494Y-59872375D01*
X73698492Y-59872377D01*
X73533042Y-60079845D01*
X73400361Y-60309654D01*
X73303416Y-60556667D01*
X73303410Y-60556686D01*
X73244364Y-60815385D01*
X73244363Y-60815390D01*
X73224535Y-61079995D01*
X73224535Y-61080004D01*
X40000251Y-61080004D01*
X40000251Y-56000004D01*
X73224535Y-56000004D01*
X73244363Y-56264609D01*
X73244364Y-56264614D01*
X73303410Y-56523313D01*
X73303412Y-56523322D01*
X73303414Y-56523327D01*
X73400361Y-56770345D01*
X73533042Y-57000155D01*
X73698492Y-57207623D01*
X73893016Y-57388114D01*
X74112268Y-57537598D01*
X74351350Y-57652734D01*
X74604922Y-57730950D01*
X74604923Y-57730950D01*
X74604926Y-57730951D01*
X74867311Y-57770499D01*
X74867316Y-57770499D01*
X74867319Y-57770500D01*
X74867320Y-57770500D01*
X75132680Y-57770500D01*
X75132681Y-57770500D01*
X75132688Y-57770499D01*
X75395073Y-57730951D01*
X75395074Y-57730950D01*
X75395078Y-57730950D01*
X75648650Y-57652734D01*
X75887733Y-57537598D01*
X76106984Y-57388114D01*
X76301508Y-57207623D01*
X76466958Y-57000155D01*
X76599639Y-56770345D01*
X76696586Y-56523327D01*
X76755635Y-56264619D01*
X76755636Y-56264609D01*
X76775465Y-56000004D01*
X101164535Y-56000004D01*
X101184363Y-56264609D01*
X101184364Y-56264614D01*
X101243410Y-56523313D01*
X101243412Y-56523322D01*
X101243414Y-56523327D01*
X101340361Y-56770345D01*
X101473042Y-57000155D01*
X101638492Y-57207623D01*
X101833016Y-57388114D01*
X102052268Y-57537598D01*
X102291350Y-57652734D01*
X102544922Y-57730950D01*
X102544923Y-57730950D01*
X102544926Y-57730951D01*
X102807311Y-57770499D01*
X102807316Y-57770499D01*
X102807319Y-57770500D01*
X102807320Y-57770500D01*
X103072680Y-57770500D01*
X103072681Y-57770500D01*
X103072688Y-57770499D01*
X103335073Y-57730951D01*
X103335074Y-57730950D01*
X103335078Y-57730950D01*
X103588650Y-57652734D01*
X103827733Y-57537598D01*
X104046984Y-57388114D01*
X104241508Y-57207623D01*
X104406958Y-57000155D01*
X104539639Y-56770345D01*
X104636586Y-56523327D01*
X104695635Y-56264619D01*
X104695636Y-56264609D01*
X104715465Y-56000004D01*
X104715465Y-55999995D01*
X104695636Y-55735390D01*
X104695635Y-55735385D01*
X104695635Y-55735381D01*
X104651041Y-55540005D01*
X130445202Y-55540005D01*
X130464361Y-55771218D01*
X130521317Y-55996135D01*
X130614516Y-56208609D01*
X130698811Y-56337633D01*
X131287226Y-55749219D01*
X131325901Y-55842588D01*
X131422075Y-55967925D01*
X131547412Y-56064099D01*
X131640779Y-56102772D01*
X131051199Y-56692351D01*
X131081650Y-56716050D01*
X131285697Y-56826476D01*
X131285706Y-56826479D01*
X131505139Y-56901811D01*
X131733993Y-56940000D01*
X131966007Y-56940000D01*
X132194860Y-56901811D01*
X132414293Y-56826479D01*
X132414302Y-56826476D01*
X132618350Y-56716050D01*
X132648798Y-56692351D01*
X132059220Y-56102773D01*
X132152588Y-56064099D01*
X132277925Y-55967925D01*
X132374099Y-55842589D01*
X132412773Y-55749220D01*
X133001186Y-56337634D01*
X133085484Y-56208606D01*
X133178682Y-55996135D01*
X133235638Y-55771218D01*
X133254798Y-55540005D01*
X133254798Y-55539994D01*
X133235638Y-55308781D01*
X133178682Y-55083864D01*
X133085483Y-54871390D01*
X133001186Y-54742364D01*
X132412772Y-55330778D01*
X132374099Y-55237412D01*
X132277925Y-55112075D01*
X132152588Y-55015901D01*
X132059220Y-54977227D01*
X132648799Y-54387648D01*
X132648799Y-54387647D01*
X132618349Y-54363949D01*
X132414302Y-54253523D01*
X132414293Y-54253520D01*
X132194860Y-54178188D01*
X131966007Y-54140000D01*
X131733993Y-54140000D01*
X131505139Y-54178188D01*
X131285706Y-54253520D01*
X131285698Y-54253523D01*
X131081644Y-54363952D01*
X131051200Y-54387646D01*
X131051200Y-54387647D01*
X131640779Y-54977226D01*
X131547412Y-55015901D01*
X131422075Y-55112075D01*
X131325901Y-55237411D01*
X131287226Y-55330779D01*
X130698812Y-54742365D01*
X130614516Y-54871391D01*
X130614514Y-54871395D01*
X130521317Y-55083864D01*
X130464361Y-55308781D01*
X130445202Y-55539994D01*
X130445202Y-55540005D01*
X104651041Y-55540005D01*
X104636586Y-55476673D01*
X104539639Y-55229655D01*
X104406958Y-54999845D01*
X104241508Y-54792377D01*
X104046984Y-54611886D01*
X103827733Y-54462402D01*
X103827732Y-54462401D01*
X103827725Y-54462397D01*
X103588655Y-54347268D01*
X103588636Y-54347261D01*
X103335083Y-54269051D01*
X103335073Y-54269048D01*
X103072688Y-54229500D01*
X103072681Y-54229500D01*
X102807319Y-54229500D01*
X102807311Y-54229500D01*
X102544926Y-54269048D01*
X102544916Y-54269051D01*
X102291363Y-54347261D01*
X102291344Y-54347268D01*
X102052276Y-54462397D01*
X102052274Y-54462398D01*
X101833015Y-54611886D01*
X101638494Y-54792375D01*
X101638492Y-54792377D01*
X101473042Y-54999845D01*
X101340361Y-55229654D01*
X101243416Y-55476667D01*
X101243410Y-55476686D01*
X101184364Y-55735385D01*
X101184363Y-55735390D01*
X101164535Y-55999995D01*
X101164535Y-56000004D01*
X76775465Y-56000004D01*
X76775465Y-55999995D01*
X76755636Y-55735390D01*
X76755635Y-55735385D01*
X76755635Y-55735381D01*
X76696586Y-55476673D01*
X76599639Y-55229655D01*
X76466958Y-54999845D01*
X76301508Y-54792377D01*
X76106984Y-54611886D01*
X75887733Y-54462402D01*
X75887732Y-54462401D01*
X75887725Y-54462397D01*
X75648655Y-54347268D01*
X75648636Y-54347261D01*
X75395083Y-54269051D01*
X75395073Y-54269048D01*
X75132688Y-54229500D01*
X75132681Y-54229500D01*
X74867319Y-54229500D01*
X74867311Y-54229500D01*
X74604926Y-54269048D01*
X74604916Y-54269051D01*
X74351363Y-54347261D01*
X74351344Y-54347268D01*
X74112276Y-54462397D01*
X74112274Y-54462398D01*
X73893015Y-54611886D01*
X73698494Y-54792375D01*
X73698492Y-54792377D01*
X73533042Y-54999845D01*
X73400361Y-55229654D01*
X73303416Y-55476667D01*
X73303410Y-55476686D01*
X73244364Y-55735385D01*
X73244363Y-55735390D01*
X73224535Y-55999995D01*
X73224535Y-56000004D01*
X40000251Y-56000004D01*
X40000251Y-46750000D01*
X41941210Y-46750000D01*
X41960333Y-46968582D01*
X41960335Y-46968592D01*
X42017121Y-47180524D01*
X42017124Y-47180533D01*
X42109855Y-47379393D01*
X42109856Y-47379395D01*
X42154002Y-47442442D01*
X42154003Y-47442443D01*
X42716922Y-46879523D01*
X42740507Y-46959844D01*
X42818239Y-47080798D01*
X42926900Y-47174952D01*
X43057685Y-47234680D01*
X43067466Y-47236086D01*
X42507555Y-47795996D01*
X42570604Y-47840143D01*
X42570606Y-47840144D01*
X42769466Y-47932875D01*
X42769475Y-47932878D01*
X42981407Y-47989664D01*
X42981417Y-47989666D01*
X43199999Y-48008790D01*
X43200001Y-48008790D01*
X43418582Y-47989666D01*
X43418592Y-47989664D01*
X43630524Y-47932878D01*
X43630533Y-47932874D01*
X43829392Y-47840145D01*
X43892443Y-47795996D01*
X43332534Y-47236086D01*
X43342315Y-47234680D01*
X43473100Y-47174952D01*
X43581761Y-47080798D01*
X43659493Y-46959844D01*
X43683076Y-46879523D01*
X44254521Y-47450968D01*
X44288006Y-47512291D01*
X44287046Y-47569089D01*
X44239636Y-47756304D01*
X44239634Y-47756316D01*
X44219443Y-47999994D01*
X44219443Y-48000005D01*
X44239634Y-48243683D01*
X44239636Y-48243695D01*
X44299663Y-48480734D01*
X44397888Y-48704666D01*
X44531632Y-48909378D01*
X44697242Y-49089277D01*
X44697246Y-49089281D01*
X44890212Y-49239473D01*
X45105267Y-49355855D01*
X45105270Y-49355856D01*
X45336541Y-49435251D01*
X45336543Y-49435251D01*
X45336545Y-49435252D01*
X45577737Y-49475500D01*
X45577738Y-49475500D01*
X45822262Y-49475500D01*
X45822263Y-49475500D01*
X46063455Y-49435252D01*
X46294733Y-49355855D01*
X46509788Y-49239473D01*
X46702754Y-49089281D01*
X46868368Y-48909377D01*
X47002111Y-48704667D01*
X47100336Y-48480736D01*
X47160364Y-48243692D01*
X47180557Y-48000000D01*
X47174995Y-47932878D01*
X47160365Y-47756316D01*
X47160363Y-47756304D01*
X47100336Y-47519265D01*
X47070378Y-47450968D01*
X47002111Y-47295333D01*
X46868368Y-47090623D01*
X46868367Y-47090621D01*
X46702757Y-46910722D01*
X46702747Y-46910713D01*
X46509791Y-46760529D01*
X46509787Y-46760526D01*
X46294734Y-46644145D01*
X46294729Y-46644143D01*
X46063458Y-46564748D01*
X45863654Y-46531407D01*
X45822263Y-46524500D01*
X45577737Y-46524500D01*
X45536346Y-46531407D01*
X45336541Y-46564748D01*
X45105270Y-46644143D01*
X45105265Y-46644145D01*
X44890212Y-46760526D01*
X44890208Y-46760529D01*
X44697252Y-46910713D01*
X44697247Y-46910718D01*
X44664683Y-46946091D01*
X44604796Y-46982080D01*
X44534957Y-46979979D01*
X44477342Y-46940453D01*
X44450242Y-46876053D01*
X44449927Y-46851298D01*
X44458790Y-46750000D01*
X44458790Y-46749999D01*
X44439666Y-46531417D01*
X44439664Y-46531407D01*
X44382878Y-46319475D01*
X44382875Y-46319466D01*
X44290144Y-46120606D01*
X44290143Y-46120604D01*
X44245996Y-46057556D01*
X44245996Y-46057555D01*
X43683076Y-46620475D01*
X43659493Y-46540156D01*
X43581761Y-46419202D01*
X43473100Y-46325048D01*
X43342315Y-46265320D01*
X43332533Y-46263913D01*
X43892443Y-45704003D01*
X43892442Y-45704002D01*
X43829395Y-45659856D01*
X43829393Y-45659855D01*
X43630533Y-45567124D01*
X43630524Y-45567121D01*
X43418592Y-45510335D01*
X43418582Y-45510333D01*
X43200001Y-45491210D01*
X43199999Y-45491210D01*
X42981417Y-45510333D01*
X42981407Y-45510335D01*
X42769475Y-45567121D01*
X42769466Y-45567124D01*
X42570602Y-45659857D01*
X42507555Y-45704001D01*
X43067467Y-46263913D01*
X43057685Y-46265320D01*
X42926900Y-46325048D01*
X42818239Y-46419202D01*
X42740507Y-46540156D01*
X42716922Y-46620476D01*
X42154001Y-46057555D01*
X42109857Y-46120602D01*
X42017124Y-46319466D01*
X42017121Y-46319475D01*
X41960335Y-46531407D01*
X41960333Y-46531417D01*
X41941210Y-46749999D01*
X41941210Y-46750000D01*
X40000251Y-46750000D01*
X40000251Y-43051870D01*
X41945500Y-43051870D01*
X41945501Y-43051876D01*
X41951908Y-43111483D01*
X42002202Y-43246328D01*
X42002206Y-43246335D01*
X42088452Y-43361544D01*
X42088455Y-43361547D01*
X42203664Y-43447793D01*
X42203671Y-43447797D01*
X42338517Y-43498091D01*
X42338516Y-43498091D01*
X42345444Y-43498835D01*
X42398127Y-43504500D01*
X44001872Y-43504499D01*
X44061483Y-43498091D01*
X44196331Y-43447796D01*
X44311546Y-43361546D01*
X44397796Y-43246331D01*
X44448091Y-43111483D01*
X44454500Y-43051873D01*
X44454499Y-42143371D01*
X44474183Y-42076333D01*
X44526987Y-42030578D01*
X44596146Y-42020634D01*
X44659702Y-42049659D01*
X44669722Y-42059383D01*
X44697242Y-42089277D01*
X44697248Y-42089283D01*
X44697252Y-42089286D01*
X44890212Y-42239473D01*
X45105267Y-42355855D01*
X45105270Y-42355856D01*
X45336541Y-42435251D01*
X45336543Y-42435251D01*
X45336545Y-42435252D01*
X45577737Y-42475500D01*
X45577738Y-42475500D01*
X45822262Y-42475500D01*
X45822263Y-42475500D01*
X46063455Y-42435252D01*
X46294733Y-42355855D01*
X46509788Y-42239473D01*
X46702754Y-42089281D01*
X46868368Y-41909377D01*
X47002111Y-41704667D01*
X47100336Y-41480736D01*
X47160364Y-41243692D01*
X47160365Y-41243683D01*
X47180557Y-41000005D01*
X47180557Y-40999994D01*
X47160365Y-40756316D01*
X47160363Y-40756304D01*
X47100336Y-40519265D01*
X47002111Y-40295333D01*
X46868367Y-40090621D01*
X46702757Y-39910722D01*
X46702747Y-39910713D01*
X46509791Y-39760529D01*
X46509787Y-39760526D01*
X46294734Y-39644145D01*
X46294729Y-39644143D01*
X46063458Y-39564748D01*
X45882561Y-39534562D01*
X45822263Y-39524500D01*
X45577737Y-39524500D01*
X45529498Y-39532549D01*
X45336541Y-39564748D01*
X45105270Y-39644143D01*
X45105265Y-39644145D01*
X44890212Y-39760526D01*
X44890208Y-39760529D01*
X44697252Y-39910713D01*
X44697242Y-39910722D01*
X44531632Y-40090621D01*
X44397888Y-40295333D01*
X44299663Y-40519265D01*
X44239636Y-40756304D01*
X44239634Y-40756315D01*
X44228072Y-40895848D01*
X44202919Y-40961032D01*
X44146516Y-41002270D01*
X44076773Y-41006468D01*
X44061854Y-41001996D01*
X44061483Y-41001908D01*
X44001883Y-40995501D01*
X44001881Y-40995500D01*
X44001873Y-40995500D01*
X44001864Y-40995500D01*
X42398129Y-40995500D01*
X42398123Y-40995501D01*
X42338516Y-41001908D01*
X42203671Y-41052202D01*
X42203664Y-41052206D01*
X42088455Y-41138452D01*
X42088452Y-41138455D01*
X42002206Y-41253664D01*
X42002202Y-41253671D01*
X41951908Y-41388517D01*
X41945501Y-41448116D01*
X41945500Y-41448135D01*
X41945500Y-43051870D01*
X40000251Y-43051870D01*
X40000251Y-30050000D01*
X40010699Y-29797389D01*
X40018084Y-29629916D01*
X40018500Y-29624976D01*
X40018513Y-29624874D01*
X40045594Y-29407612D01*
X40072370Y-29204234D01*
X40073150Y-29199657D01*
X40118021Y-28985657D01*
X40162542Y-28784841D01*
X40163639Y-28780609D01*
X40226007Y-28571120D01*
X40287964Y-28374617D01*
X40289291Y-28370849D01*
X40368802Y-28167079D01*
X40447716Y-27976568D01*
X40449256Y-27973154D01*
X40545311Y-27776669D01*
X40640661Y-27593505D01*
X40642316Y-27590536D01*
X40754351Y-27402519D01*
X40865351Y-27228284D01*
X40867132Y-27225645D01*
X40994357Y-27047454D01*
X41120247Y-26883392D01*
X41122040Y-26881169D01*
X41263631Y-26713992D01*
X41404302Y-26560477D01*
X41560228Y-26404551D01*
X41713743Y-26263880D01*
X41880870Y-26122331D01*
X41883188Y-26120463D01*
X41909374Y-26100369D01*
X42047225Y-25994591D01*
X42225385Y-25867388D01*
X42228010Y-25865616D01*
X42402265Y-25754602D01*
X42590253Y-25642586D01*
X42593296Y-25640889D01*
X42776364Y-25545589D01*
X42972892Y-25449512D01*
X42976346Y-25447954D01*
X43166857Y-25369041D01*
X43370581Y-25289548D01*
X43374388Y-25288208D01*
X43570822Y-25226271D01*
X43780388Y-25163881D01*
X43784594Y-25162790D01*
X43985445Y-25118262D01*
X44199385Y-25073404D01*
X44203984Y-25072620D01*
X44407400Y-25045839D01*
X44624644Y-25018760D01*
X44629573Y-25018346D01*
X44832125Y-25009502D01*
X45049751Y-25000501D01*
X45049751Y-25000500D01*
X45049765Y-25000500D01*
X45050251Y-25000500D01*
X132949500Y-25000500D01*
X132950000Y-25000500D01*
X133167426Y-25009493D01*
G37*
%TD.AperFunction*%
%TD*%
M02*
