%TF.GenerationSoftware,KiCad,Pcbnew,7.0.9*%
%TF.CreationDate,2024-06-06T01:46:17+04:00*%
%TF.ProjectId,57TimesAudioRE-AMP,35375469-6d65-4734-9175-64696f52452d,rev?*%
%TF.SameCoordinates,Original*%
%TF.FileFunction,Drillmap*%
%TF.FilePolarity,Positive*%
%FSLAX45Y45*%
G04 Gerber Fmt 4.5, Leading zero omitted, Abs format (unit mm)*
G04 Created by KiCad (PCBNEW 7.0.9) date 2024-06-06 01:46:17*
%MOMM*%
%LPD*%
G01*
G04 APERTURE LIST*
%ADD10C,0.100000*%
%ADD11C,0.200000*%
%ADD12C,0.230000*%
G04 APERTURE END LIST*
D10*
X4655000Y-2500000D02*
G75*
G03*
X4150000Y-3005000I0J-505000D01*
G01*
X14250000Y-8995000D02*
X14250000Y-3005000D01*
X13295000Y-2500000D02*
X4655000Y-2500000D01*
X4150000Y-8995000D02*
G75*
G03*
X4655000Y-9500000I505000J0D01*
G01*
X14250000Y-3005000D02*
G75*
G03*
X13745000Y-2500000I-505000J0D01*
G01*
X13745000Y-2500000D02*
X13295000Y-2500000D01*
X13295000Y-9500000D02*
X4655000Y-9500000D01*
X13745000Y-9500000D02*
G75*
G03*
X14250000Y-8995000I0J505000D01*
G01*
X13745000Y-9500000D02*
X13295000Y-9500000D01*
X4150000Y-8995000D02*
X4150000Y-3005000D01*
D11*
D12*
X5385000Y-6835000D02*
X5615000Y-7065000D01*
X5615000Y-6835000D02*
X5385000Y-7065000D01*
D11*
X4405777Y-9816484D02*
X4405777Y-9616484D01*
X4405777Y-9616484D02*
X4453396Y-9616484D01*
X4453396Y-9616484D02*
X4481967Y-9626008D01*
X4481967Y-9626008D02*
X4501015Y-9645055D01*
X4501015Y-9645055D02*
X4510539Y-9664103D01*
X4510539Y-9664103D02*
X4520063Y-9702198D01*
X4520063Y-9702198D02*
X4520063Y-9730770D01*
X4520063Y-9730770D02*
X4510539Y-9768865D01*
X4510539Y-9768865D02*
X4501015Y-9787912D01*
X4501015Y-9787912D02*
X4481967Y-9806960D01*
X4481967Y-9806960D02*
X4453396Y-9816484D01*
X4453396Y-9816484D02*
X4405777Y-9816484D01*
X4605777Y-9816484D02*
X4605777Y-9683150D01*
X4605777Y-9721246D02*
X4615301Y-9702198D01*
X4615301Y-9702198D02*
X4624824Y-9692674D01*
X4624824Y-9692674D02*
X4643872Y-9683150D01*
X4643872Y-9683150D02*
X4662920Y-9683150D01*
X4729586Y-9816484D02*
X4729586Y-9683150D01*
X4729586Y-9616484D02*
X4720063Y-9626008D01*
X4720063Y-9626008D02*
X4729586Y-9635531D01*
X4729586Y-9635531D02*
X4739110Y-9626008D01*
X4739110Y-9626008D02*
X4729586Y-9616484D01*
X4729586Y-9616484D02*
X4729586Y-9635531D01*
X4853396Y-9816484D02*
X4834348Y-9806960D01*
X4834348Y-9806960D02*
X4824824Y-9787912D01*
X4824824Y-9787912D02*
X4824824Y-9616484D01*
X4958158Y-9816484D02*
X4939110Y-9806960D01*
X4939110Y-9806960D02*
X4929586Y-9787912D01*
X4929586Y-9787912D02*
X4929586Y-9616484D01*
X5186729Y-9816484D02*
X5186729Y-9616484D01*
X5186729Y-9616484D02*
X5253396Y-9759341D01*
X5253396Y-9759341D02*
X5320063Y-9616484D01*
X5320063Y-9616484D02*
X5320063Y-9816484D01*
X5501015Y-9816484D02*
X5501015Y-9711722D01*
X5501015Y-9711722D02*
X5491491Y-9692674D01*
X5491491Y-9692674D02*
X5472444Y-9683150D01*
X5472444Y-9683150D02*
X5434348Y-9683150D01*
X5434348Y-9683150D02*
X5415301Y-9692674D01*
X5501015Y-9806960D02*
X5481967Y-9816484D01*
X5481967Y-9816484D02*
X5434348Y-9816484D01*
X5434348Y-9816484D02*
X5415301Y-9806960D01*
X5415301Y-9806960D02*
X5405777Y-9787912D01*
X5405777Y-9787912D02*
X5405777Y-9768865D01*
X5405777Y-9768865D02*
X5415301Y-9749817D01*
X5415301Y-9749817D02*
X5434348Y-9740293D01*
X5434348Y-9740293D02*
X5481967Y-9740293D01*
X5481967Y-9740293D02*
X5501015Y-9730770D01*
X5596253Y-9683150D02*
X5596253Y-9883150D01*
X5596253Y-9692674D02*
X5615301Y-9683150D01*
X5615301Y-9683150D02*
X5653396Y-9683150D01*
X5653396Y-9683150D02*
X5672443Y-9692674D01*
X5672443Y-9692674D02*
X5681967Y-9702198D01*
X5681967Y-9702198D02*
X5691491Y-9721246D01*
X5691491Y-9721246D02*
X5691491Y-9778389D01*
X5691491Y-9778389D02*
X5681967Y-9797436D01*
X5681967Y-9797436D02*
X5672443Y-9806960D01*
X5672443Y-9806960D02*
X5653396Y-9816484D01*
X5653396Y-9816484D02*
X5615301Y-9816484D01*
X5615301Y-9816484D02*
X5596253Y-9806960D01*
X5777205Y-9797436D02*
X5786729Y-9806960D01*
X5786729Y-9806960D02*
X5777205Y-9816484D01*
X5777205Y-9816484D02*
X5767682Y-9806960D01*
X5767682Y-9806960D02*
X5777205Y-9797436D01*
X5777205Y-9797436D02*
X5777205Y-9816484D01*
X5777205Y-9692674D02*
X5786729Y-9702198D01*
X5786729Y-9702198D02*
X5777205Y-9711722D01*
X5777205Y-9711722D02*
X5767682Y-9702198D01*
X5767682Y-9702198D02*
X5777205Y-9692674D01*
X5777205Y-9692674D02*
X5777205Y-9711722D01*
X3945000Y-10045000D02*
X4145000Y-10245000D01*
X4145000Y-10045000D02*
X3945000Y-10245000D01*
X4396253Y-10055531D02*
X4405777Y-10046008D01*
X4405777Y-10046008D02*
X4424824Y-10036484D01*
X4424824Y-10036484D02*
X4472444Y-10036484D01*
X4472444Y-10036484D02*
X4491491Y-10046008D01*
X4491491Y-10046008D02*
X4501015Y-10055531D01*
X4501015Y-10055531D02*
X4510539Y-10074579D01*
X4510539Y-10074579D02*
X4510539Y-10093627D01*
X4510539Y-10093627D02*
X4501015Y-10122198D01*
X4501015Y-10122198D02*
X4386729Y-10236484D01*
X4386729Y-10236484D02*
X4510539Y-10236484D01*
X4596253Y-10217436D02*
X4605777Y-10226960D01*
X4605777Y-10226960D02*
X4596253Y-10236484D01*
X4596253Y-10236484D02*
X4586729Y-10226960D01*
X4586729Y-10226960D02*
X4596253Y-10217436D01*
X4596253Y-10217436D02*
X4596253Y-10236484D01*
X4672444Y-10036484D02*
X4796253Y-10036484D01*
X4796253Y-10036484D02*
X4729586Y-10112674D01*
X4729586Y-10112674D02*
X4758158Y-10112674D01*
X4758158Y-10112674D02*
X4777205Y-10122198D01*
X4777205Y-10122198D02*
X4786729Y-10131722D01*
X4786729Y-10131722D02*
X4796253Y-10150770D01*
X4796253Y-10150770D02*
X4796253Y-10198389D01*
X4796253Y-10198389D02*
X4786729Y-10217436D01*
X4786729Y-10217436D02*
X4777205Y-10226960D01*
X4777205Y-10226960D02*
X4758158Y-10236484D01*
X4758158Y-10236484D02*
X4701015Y-10236484D01*
X4701015Y-10236484D02*
X4681967Y-10226960D01*
X4681967Y-10226960D02*
X4672444Y-10217436D01*
X4920063Y-10036484D02*
X4939110Y-10036484D01*
X4939110Y-10036484D02*
X4958158Y-10046008D01*
X4958158Y-10046008D02*
X4967682Y-10055531D01*
X4967682Y-10055531D02*
X4977205Y-10074579D01*
X4977205Y-10074579D02*
X4986729Y-10112674D01*
X4986729Y-10112674D02*
X4986729Y-10160293D01*
X4986729Y-10160293D02*
X4977205Y-10198389D01*
X4977205Y-10198389D02*
X4967682Y-10217436D01*
X4967682Y-10217436D02*
X4958158Y-10226960D01*
X4958158Y-10226960D02*
X4939110Y-10236484D01*
X4939110Y-10236484D02*
X4920063Y-10236484D01*
X4920063Y-10236484D02*
X4901015Y-10226960D01*
X4901015Y-10226960D02*
X4891491Y-10217436D01*
X4891491Y-10217436D02*
X4881967Y-10198389D01*
X4881967Y-10198389D02*
X4872444Y-10160293D01*
X4872444Y-10160293D02*
X4872444Y-10112674D01*
X4872444Y-10112674D02*
X4881967Y-10074579D01*
X4881967Y-10074579D02*
X4891491Y-10055531D01*
X4891491Y-10055531D02*
X4901015Y-10046008D01*
X4901015Y-10046008D02*
X4920063Y-10036484D01*
X5110539Y-10036484D02*
X5129586Y-10036484D01*
X5129586Y-10036484D02*
X5148634Y-10046008D01*
X5148634Y-10046008D02*
X5158158Y-10055531D01*
X5158158Y-10055531D02*
X5167682Y-10074579D01*
X5167682Y-10074579D02*
X5177205Y-10112674D01*
X5177205Y-10112674D02*
X5177205Y-10160293D01*
X5177205Y-10160293D02*
X5167682Y-10198389D01*
X5167682Y-10198389D02*
X5158158Y-10217436D01*
X5158158Y-10217436D02*
X5148634Y-10226960D01*
X5148634Y-10226960D02*
X5129586Y-10236484D01*
X5129586Y-10236484D02*
X5110539Y-10236484D01*
X5110539Y-10236484D02*
X5091491Y-10226960D01*
X5091491Y-10226960D02*
X5081967Y-10217436D01*
X5081967Y-10217436D02*
X5072444Y-10198389D01*
X5072444Y-10198389D02*
X5062920Y-10160293D01*
X5062920Y-10160293D02*
X5062920Y-10112674D01*
X5062920Y-10112674D02*
X5072444Y-10074579D01*
X5072444Y-10074579D02*
X5081967Y-10055531D01*
X5081967Y-10055531D02*
X5091491Y-10046008D01*
X5091491Y-10046008D02*
X5110539Y-10036484D01*
X5262920Y-10236484D02*
X5262920Y-10103150D01*
X5262920Y-10122198D02*
X5272444Y-10112674D01*
X5272444Y-10112674D02*
X5291491Y-10103150D01*
X5291491Y-10103150D02*
X5320063Y-10103150D01*
X5320063Y-10103150D02*
X5339110Y-10112674D01*
X5339110Y-10112674D02*
X5348634Y-10131722D01*
X5348634Y-10131722D02*
X5348634Y-10236484D01*
X5348634Y-10131722D02*
X5358158Y-10112674D01*
X5358158Y-10112674D02*
X5377205Y-10103150D01*
X5377205Y-10103150D02*
X5405777Y-10103150D01*
X5405777Y-10103150D02*
X5424825Y-10112674D01*
X5424825Y-10112674D02*
X5434348Y-10131722D01*
X5434348Y-10131722D02*
X5434348Y-10236484D01*
X5529586Y-10236484D02*
X5529586Y-10103150D01*
X5529586Y-10122198D02*
X5539110Y-10112674D01*
X5539110Y-10112674D02*
X5558158Y-10103150D01*
X5558158Y-10103150D02*
X5586729Y-10103150D01*
X5586729Y-10103150D02*
X5605777Y-10112674D01*
X5605777Y-10112674D02*
X5615301Y-10131722D01*
X5615301Y-10131722D02*
X5615301Y-10236484D01*
X5615301Y-10131722D02*
X5624824Y-10112674D01*
X5624824Y-10112674D02*
X5643872Y-10103150D01*
X5643872Y-10103150D02*
X5672443Y-10103150D01*
X5672443Y-10103150D02*
X5691491Y-10112674D01*
X5691491Y-10112674D02*
X5701015Y-10131722D01*
X5701015Y-10131722D02*
X5701015Y-10236484D01*
X6091491Y-10026960D02*
X5920063Y-10284103D01*
X6348634Y-10036484D02*
X6367682Y-10036484D01*
X6367682Y-10036484D02*
X6386729Y-10046008D01*
X6386729Y-10046008D02*
X6396253Y-10055531D01*
X6396253Y-10055531D02*
X6405777Y-10074579D01*
X6405777Y-10074579D02*
X6415301Y-10112674D01*
X6415301Y-10112674D02*
X6415301Y-10160293D01*
X6415301Y-10160293D02*
X6405777Y-10198389D01*
X6405777Y-10198389D02*
X6396253Y-10217436D01*
X6396253Y-10217436D02*
X6386729Y-10226960D01*
X6386729Y-10226960D02*
X6367682Y-10236484D01*
X6367682Y-10236484D02*
X6348634Y-10236484D01*
X6348634Y-10236484D02*
X6329586Y-10226960D01*
X6329586Y-10226960D02*
X6320063Y-10217436D01*
X6320063Y-10217436D02*
X6310539Y-10198389D01*
X6310539Y-10198389D02*
X6301015Y-10160293D01*
X6301015Y-10160293D02*
X6301015Y-10112674D01*
X6301015Y-10112674D02*
X6310539Y-10074579D01*
X6310539Y-10074579D02*
X6320063Y-10055531D01*
X6320063Y-10055531D02*
X6329586Y-10046008D01*
X6329586Y-10046008D02*
X6348634Y-10036484D01*
X6501015Y-10217436D02*
X6510539Y-10226960D01*
X6510539Y-10226960D02*
X6501015Y-10236484D01*
X6501015Y-10236484D02*
X6491491Y-10226960D01*
X6491491Y-10226960D02*
X6501015Y-10217436D01*
X6501015Y-10217436D02*
X6501015Y-10236484D01*
X6634348Y-10036484D02*
X6653396Y-10036484D01*
X6653396Y-10036484D02*
X6672444Y-10046008D01*
X6672444Y-10046008D02*
X6681967Y-10055531D01*
X6681967Y-10055531D02*
X6691491Y-10074579D01*
X6691491Y-10074579D02*
X6701015Y-10112674D01*
X6701015Y-10112674D02*
X6701015Y-10160293D01*
X6701015Y-10160293D02*
X6691491Y-10198389D01*
X6691491Y-10198389D02*
X6681967Y-10217436D01*
X6681967Y-10217436D02*
X6672444Y-10226960D01*
X6672444Y-10226960D02*
X6653396Y-10236484D01*
X6653396Y-10236484D02*
X6634348Y-10236484D01*
X6634348Y-10236484D02*
X6615301Y-10226960D01*
X6615301Y-10226960D02*
X6605777Y-10217436D01*
X6605777Y-10217436D02*
X6596253Y-10198389D01*
X6596253Y-10198389D02*
X6586729Y-10160293D01*
X6586729Y-10160293D02*
X6586729Y-10112674D01*
X6586729Y-10112674D02*
X6596253Y-10074579D01*
X6596253Y-10074579D02*
X6605777Y-10055531D01*
X6605777Y-10055531D02*
X6615301Y-10046008D01*
X6615301Y-10046008D02*
X6634348Y-10036484D01*
X6796253Y-10236484D02*
X6834348Y-10236484D01*
X6834348Y-10236484D02*
X6853396Y-10226960D01*
X6853396Y-10226960D02*
X6862920Y-10217436D01*
X6862920Y-10217436D02*
X6881967Y-10188865D01*
X6881967Y-10188865D02*
X6891491Y-10150770D01*
X6891491Y-10150770D02*
X6891491Y-10074579D01*
X6891491Y-10074579D02*
X6881967Y-10055531D01*
X6881967Y-10055531D02*
X6872444Y-10046008D01*
X6872444Y-10046008D02*
X6853396Y-10036484D01*
X6853396Y-10036484D02*
X6815301Y-10036484D01*
X6815301Y-10036484D02*
X6796253Y-10046008D01*
X6796253Y-10046008D02*
X6786729Y-10055531D01*
X6786729Y-10055531D02*
X6777206Y-10074579D01*
X6777206Y-10074579D02*
X6777206Y-10122198D01*
X6777206Y-10122198D02*
X6786729Y-10141246D01*
X6786729Y-10141246D02*
X6796253Y-10150770D01*
X6796253Y-10150770D02*
X6815301Y-10160293D01*
X6815301Y-10160293D02*
X6853396Y-10160293D01*
X6853396Y-10160293D02*
X6872444Y-10150770D01*
X6872444Y-10150770D02*
X6881967Y-10141246D01*
X6881967Y-10141246D02*
X6891491Y-10122198D01*
X7015301Y-10036484D02*
X7034348Y-10036484D01*
X7034348Y-10036484D02*
X7053396Y-10046008D01*
X7053396Y-10046008D02*
X7062920Y-10055531D01*
X7062920Y-10055531D02*
X7072444Y-10074579D01*
X7072444Y-10074579D02*
X7081967Y-10112674D01*
X7081967Y-10112674D02*
X7081967Y-10160293D01*
X7081967Y-10160293D02*
X7072444Y-10198389D01*
X7072444Y-10198389D02*
X7062920Y-10217436D01*
X7062920Y-10217436D02*
X7053396Y-10226960D01*
X7053396Y-10226960D02*
X7034348Y-10236484D01*
X7034348Y-10236484D02*
X7015301Y-10236484D01*
X7015301Y-10236484D02*
X6996253Y-10226960D01*
X6996253Y-10226960D02*
X6986729Y-10217436D01*
X6986729Y-10217436D02*
X6977206Y-10198389D01*
X6977206Y-10198389D02*
X6967682Y-10160293D01*
X6967682Y-10160293D02*
X6967682Y-10112674D01*
X6967682Y-10112674D02*
X6977206Y-10074579D01*
X6977206Y-10074579D02*
X6986729Y-10055531D01*
X6986729Y-10055531D02*
X6996253Y-10046008D01*
X6996253Y-10046008D02*
X7015301Y-10036484D01*
X7253396Y-10036484D02*
X7215301Y-10036484D01*
X7215301Y-10036484D02*
X7196253Y-10046008D01*
X7196253Y-10046008D02*
X7186729Y-10055531D01*
X7186729Y-10055531D02*
X7167682Y-10084103D01*
X7167682Y-10084103D02*
X7158158Y-10122198D01*
X7158158Y-10122198D02*
X7158158Y-10198389D01*
X7158158Y-10198389D02*
X7167682Y-10217436D01*
X7167682Y-10217436D02*
X7177206Y-10226960D01*
X7177206Y-10226960D02*
X7196253Y-10236484D01*
X7196253Y-10236484D02*
X7234348Y-10236484D01*
X7234348Y-10236484D02*
X7253396Y-10226960D01*
X7253396Y-10226960D02*
X7262920Y-10217436D01*
X7262920Y-10217436D02*
X7272444Y-10198389D01*
X7272444Y-10198389D02*
X7272444Y-10150770D01*
X7272444Y-10150770D02*
X7262920Y-10131722D01*
X7262920Y-10131722D02*
X7253396Y-10122198D01*
X7253396Y-10122198D02*
X7234348Y-10112674D01*
X7234348Y-10112674D02*
X7196253Y-10112674D01*
X7196253Y-10112674D02*
X7177206Y-10122198D01*
X7177206Y-10122198D02*
X7167682Y-10131722D01*
X7167682Y-10131722D02*
X7158158Y-10150770D01*
X7348634Y-10036484D02*
X7348634Y-10074579D01*
X7424825Y-10036484D02*
X7424825Y-10074579D01*
X7720063Y-10312674D02*
X7710539Y-10303150D01*
X7710539Y-10303150D02*
X7691491Y-10274579D01*
X7691491Y-10274579D02*
X7681968Y-10255531D01*
X7681968Y-10255531D02*
X7672444Y-10226960D01*
X7672444Y-10226960D02*
X7662920Y-10179341D01*
X7662920Y-10179341D02*
X7662920Y-10141246D01*
X7662920Y-10141246D02*
X7672444Y-10093627D01*
X7672444Y-10093627D02*
X7681968Y-10065055D01*
X7681968Y-10065055D02*
X7691491Y-10046008D01*
X7691491Y-10046008D02*
X7710539Y-10017436D01*
X7710539Y-10017436D02*
X7720063Y-10007912D01*
X7901015Y-10236484D02*
X7786729Y-10236484D01*
X7843872Y-10236484D02*
X7843872Y-10036484D01*
X7843872Y-10036484D02*
X7824825Y-10065055D01*
X7824825Y-10065055D02*
X7805777Y-10084103D01*
X7805777Y-10084103D02*
X7786729Y-10093627D01*
X8139110Y-10236484D02*
X8139110Y-10036484D01*
X8224825Y-10236484D02*
X8224825Y-10131722D01*
X8224825Y-10131722D02*
X8215301Y-10112674D01*
X8215301Y-10112674D02*
X8196253Y-10103150D01*
X8196253Y-10103150D02*
X8167682Y-10103150D01*
X8167682Y-10103150D02*
X8148634Y-10112674D01*
X8148634Y-10112674D02*
X8139110Y-10122198D01*
X8348634Y-10236484D02*
X8329587Y-10226960D01*
X8329587Y-10226960D02*
X8320063Y-10217436D01*
X8320063Y-10217436D02*
X8310539Y-10198389D01*
X8310539Y-10198389D02*
X8310539Y-10141246D01*
X8310539Y-10141246D02*
X8320063Y-10122198D01*
X8320063Y-10122198D02*
X8329587Y-10112674D01*
X8329587Y-10112674D02*
X8348634Y-10103150D01*
X8348634Y-10103150D02*
X8377206Y-10103150D01*
X8377206Y-10103150D02*
X8396253Y-10112674D01*
X8396253Y-10112674D02*
X8405777Y-10122198D01*
X8405777Y-10122198D02*
X8415301Y-10141246D01*
X8415301Y-10141246D02*
X8415301Y-10198389D01*
X8415301Y-10198389D02*
X8405777Y-10217436D01*
X8405777Y-10217436D02*
X8396253Y-10226960D01*
X8396253Y-10226960D02*
X8377206Y-10236484D01*
X8377206Y-10236484D02*
X8348634Y-10236484D01*
X8529587Y-10236484D02*
X8510539Y-10226960D01*
X8510539Y-10226960D02*
X8501015Y-10207912D01*
X8501015Y-10207912D02*
X8501015Y-10036484D01*
X8681968Y-10226960D02*
X8662920Y-10236484D01*
X8662920Y-10236484D02*
X8624825Y-10236484D01*
X8624825Y-10236484D02*
X8605777Y-10226960D01*
X8605777Y-10226960D02*
X8596253Y-10207912D01*
X8596253Y-10207912D02*
X8596253Y-10131722D01*
X8596253Y-10131722D02*
X8605777Y-10112674D01*
X8605777Y-10112674D02*
X8624825Y-10103150D01*
X8624825Y-10103150D02*
X8662920Y-10103150D01*
X8662920Y-10103150D02*
X8681968Y-10112674D01*
X8681968Y-10112674D02*
X8691492Y-10131722D01*
X8691492Y-10131722D02*
X8691492Y-10150770D01*
X8691492Y-10150770D02*
X8596253Y-10169817D01*
X8758158Y-10312674D02*
X8767682Y-10303150D01*
X8767682Y-10303150D02*
X8786730Y-10274579D01*
X8786730Y-10274579D02*
X8796253Y-10255531D01*
X8796253Y-10255531D02*
X8805777Y-10226960D01*
X8805777Y-10226960D02*
X8815301Y-10179341D01*
X8815301Y-10179341D02*
X8815301Y-10141246D01*
X8815301Y-10141246D02*
X8805777Y-10093627D01*
X8805777Y-10093627D02*
X8796253Y-10065055D01*
X8796253Y-10065055D02*
X8786730Y-10046008D01*
X8786730Y-10046008D02*
X8767682Y-10017436D01*
X8767682Y-10017436D02*
X8758158Y-10007912D01*
X9120063Y-10312674D02*
X9110539Y-10303150D01*
X9110539Y-10303150D02*
X9091492Y-10274579D01*
X9091492Y-10274579D02*
X9081968Y-10255531D01*
X9081968Y-10255531D02*
X9072444Y-10226960D01*
X9072444Y-10226960D02*
X9062920Y-10179341D01*
X9062920Y-10179341D02*
X9062920Y-10141246D01*
X9062920Y-10141246D02*
X9072444Y-10093627D01*
X9072444Y-10093627D02*
X9081968Y-10065055D01*
X9081968Y-10065055D02*
X9091492Y-10046008D01*
X9091492Y-10046008D02*
X9110539Y-10017436D01*
X9110539Y-10017436D02*
X9120063Y-10007912D01*
X9196253Y-10103150D02*
X9196253Y-10236484D01*
X9196253Y-10122198D02*
X9205777Y-10112674D01*
X9205777Y-10112674D02*
X9224825Y-10103150D01*
X9224825Y-10103150D02*
X9253396Y-10103150D01*
X9253396Y-10103150D02*
X9272444Y-10112674D01*
X9272444Y-10112674D02*
X9281968Y-10131722D01*
X9281968Y-10131722D02*
X9281968Y-10236484D01*
X9405777Y-10236484D02*
X9386730Y-10226960D01*
X9386730Y-10226960D02*
X9377206Y-10217436D01*
X9377206Y-10217436D02*
X9367682Y-10198389D01*
X9367682Y-10198389D02*
X9367682Y-10141246D01*
X9367682Y-10141246D02*
X9377206Y-10122198D01*
X9377206Y-10122198D02*
X9386730Y-10112674D01*
X9386730Y-10112674D02*
X9405777Y-10103150D01*
X9405777Y-10103150D02*
X9434349Y-10103150D01*
X9434349Y-10103150D02*
X9453396Y-10112674D01*
X9453396Y-10112674D02*
X9462920Y-10122198D01*
X9462920Y-10122198D02*
X9472444Y-10141246D01*
X9472444Y-10141246D02*
X9472444Y-10198389D01*
X9472444Y-10198389D02*
X9462920Y-10217436D01*
X9462920Y-10217436D02*
X9453396Y-10226960D01*
X9453396Y-10226960D02*
X9434349Y-10236484D01*
X9434349Y-10236484D02*
X9405777Y-10236484D01*
X9529587Y-10103150D02*
X9605777Y-10103150D01*
X9558158Y-10036484D02*
X9558158Y-10207912D01*
X9558158Y-10207912D02*
X9567682Y-10226960D01*
X9567682Y-10226960D02*
X9586730Y-10236484D01*
X9586730Y-10236484D02*
X9605777Y-10236484D01*
X9824825Y-10103150D02*
X9824825Y-10303150D01*
X9824825Y-10112674D02*
X9843873Y-10103150D01*
X9843873Y-10103150D02*
X9881968Y-10103150D01*
X9881968Y-10103150D02*
X9901015Y-10112674D01*
X9901015Y-10112674D02*
X9910539Y-10122198D01*
X9910539Y-10122198D02*
X9920063Y-10141246D01*
X9920063Y-10141246D02*
X9920063Y-10198389D01*
X9920063Y-10198389D02*
X9910539Y-10217436D01*
X9910539Y-10217436D02*
X9901015Y-10226960D01*
X9901015Y-10226960D02*
X9881968Y-10236484D01*
X9881968Y-10236484D02*
X9843873Y-10236484D01*
X9843873Y-10236484D02*
X9824825Y-10226960D01*
X10034349Y-10236484D02*
X10015301Y-10226960D01*
X10015301Y-10226960D02*
X10005777Y-10207912D01*
X10005777Y-10207912D02*
X10005777Y-10036484D01*
X10196254Y-10236484D02*
X10196254Y-10131722D01*
X10196254Y-10131722D02*
X10186730Y-10112674D01*
X10186730Y-10112674D02*
X10167682Y-10103150D01*
X10167682Y-10103150D02*
X10129587Y-10103150D01*
X10129587Y-10103150D02*
X10110539Y-10112674D01*
X10196254Y-10226960D02*
X10177206Y-10236484D01*
X10177206Y-10236484D02*
X10129587Y-10236484D01*
X10129587Y-10236484D02*
X10110539Y-10226960D01*
X10110539Y-10226960D02*
X10101015Y-10207912D01*
X10101015Y-10207912D02*
X10101015Y-10188865D01*
X10101015Y-10188865D02*
X10110539Y-10169817D01*
X10110539Y-10169817D02*
X10129587Y-10160293D01*
X10129587Y-10160293D02*
X10177206Y-10160293D01*
X10177206Y-10160293D02*
X10196254Y-10150770D01*
X10262920Y-10103150D02*
X10339111Y-10103150D01*
X10291492Y-10036484D02*
X10291492Y-10207912D01*
X10291492Y-10207912D02*
X10301015Y-10226960D01*
X10301015Y-10226960D02*
X10320063Y-10236484D01*
X10320063Y-10236484D02*
X10339111Y-10236484D01*
X10481968Y-10226960D02*
X10462920Y-10236484D01*
X10462920Y-10236484D02*
X10424825Y-10236484D01*
X10424825Y-10236484D02*
X10405777Y-10226960D01*
X10405777Y-10226960D02*
X10396254Y-10207912D01*
X10396254Y-10207912D02*
X10396254Y-10131722D01*
X10396254Y-10131722D02*
X10405777Y-10112674D01*
X10405777Y-10112674D02*
X10424825Y-10103150D01*
X10424825Y-10103150D02*
X10462920Y-10103150D01*
X10462920Y-10103150D02*
X10481968Y-10112674D01*
X10481968Y-10112674D02*
X10491492Y-10131722D01*
X10491492Y-10131722D02*
X10491492Y-10150770D01*
X10491492Y-10150770D02*
X10396254Y-10169817D01*
X10662920Y-10236484D02*
X10662920Y-10036484D01*
X10662920Y-10226960D02*
X10643873Y-10236484D01*
X10643873Y-10236484D02*
X10605777Y-10236484D01*
X10605777Y-10236484D02*
X10586730Y-10226960D01*
X10586730Y-10226960D02*
X10577206Y-10217436D01*
X10577206Y-10217436D02*
X10567682Y-10198389D01*
X10567682Y-10198389D02*
X10567682Y-10141246D01*
X10567682Y-10141246D02*
X10577206Y-10122198D01*
X10577206Y-10122198D02*
X10586730Y-10112674D01*
X10586730Y-10112674D02*
X10605777Y-10103150D01*
X10605777Y-10103150D02*
X10643873Y-10103150D01*
X10643873Y-10103150D02*
X10662920Y-10112674D01*
X10739111Y-10312674D02*
X10748635Y-10303150D01*
X10748635Y-10303150D02*
X10767682Y-10274579D01*
X10767682Y-10274579D02*
X10777206Y-10255531D01*
X10777206Y-10255531D02*
X10786730Y-10226960D01*
X10786730Y-10226960D02*
X10796254Y-10179341D01*
X10796254Y-10179341D02*
X10796254Y-10141246D01*
X10796254Y-10141246D02*
X10786730Y-10093627D01*
X10786730Y-10093627D02*
X10777206Y-10065055D01*
X10777206Y-10065055D02*
X10767682Y-10046008D01*
X10767682Y-10046008D02*
X10748635Y-10017436D01*
X10748635Y-10017436D02*
X10739111Y-10007912D01*
M02*
