G04 #@! TF.GenerationSoftware,KiCad,Pcbnew,7.0.9*
G04 #@! TF.CreationDate,2024-06-06T01:46:12+04:00*
G04 #@! TF.ProjectId,57TimesAudioRE-AMP,35375469-6d65-4734-9175-64696f52452d,rev?*
G04 #@! TF.SameCoordinates,Original*
G04 #@! TF.FileFunction,Copper,L2,Bot*
G04 #@! TF.FilePolarity,Positive*
%FSLAX46Y46*%
G04 Gerber Fmt 4.6, Leading zero omitted, Abs format (unit mm)*
G04 Created by KiCad (PCBNEW 7.0.9) date 2024-06-06 01:46:12*
%MOMM*%
%LPD*%
G01*
G04 APERTURE LIST*
G04 #@! TA.AperFunction,ComponentPad*
%ADD10C,1.800000*%
G04 #@! TD*
G04 #@! TA.AperFunction,ComponentPad*
%ADD11R,1.508000X1.508000*%
G04 #@! TD*
G04 #@! TA.AperFunction,ComponentPad*
%ADD12C,1.508000*%
G04 #@! TD*
G04 #@! TA.AperFunction,ComponentPad*
%ADD13C,2.540000*%
G04 #@! TD*
G04 #@! TA.AperFunction,ComponentPad*
%ADD14C,1.600000*%
G04 #@! TD*
G04 #@! TA.AperFunction,ComponentPad*
%ADD15O,1.600000X1.600000*%
G04 #@! TD*
G04 #@! TA.AperFunction,ComponentPad*
%ADD16C,0.800000*%
G04 #@! TD*
G04 #@! TA.AperFunction,ComponentPad*
%ADD17C,6.400000*%
G04 #@! TD*
G04 #@! TA.AperFunction,ComponentPad*
%ADD18C,2.000000*%
G04 #@! TD*
G04 #@! TA.AperFunction,ComponentPad*
%ADD19R,2.700000X2.700000*%
G04 #@! TD*
G04 #@! TA.AperFunction,ComponentPad*
%ADD20C,2.700000*%
G04 #@! TD*
G04 #@! TA.AperFunction,ComponentPad*
%ADD21C,3.000000*%
G04 #@! TD*
G04 #@! TA.AperFunction,ViaPad*
%ADD22C,0.800000*%
G04 #@! TD*
G04 #@! TA.AperFunction,Conductor*
%ADD23C,0.250000*%
G04 #@! TD*
G04 APERTURE END LIST*
D10*
X139590000Y-65500000D03*
X139590000Y-60500000D03*
X139590000Y-55500000D03*
D11*
X58470000Y-43250000D03*
D12*
X60970000Y-43250000D03*
X63470000Y-43250000D03*
X58470000Y-45750000D03*
X60970000Y-45750000D03*
X63470000Y-45750000D03*
D13*
X75000000Y-71240000D03*
X75000000Y-66160000D03*
X75000000Y-61080000D03*
X75000000Y-56000000D03*
X102940000Y-71240000D03*
X102940000Y-66160000D03*
X102940000Y-61080000D03*
X102940000Y-56000000D03*
X100400000Y-63620000D03*
D14*
X111500000Y-66000000D03*
D15*
X119120000Y-66000000D03*
D16*
X126600000Y-91000000D03*
X127302944Y-89302944D03*
X127302944Y-92697056D03*
X129000000Y-88600000D03*
D17*
X129000000Y-91000000D03*
D16*
X129000000Y-93400000D03*
X130697056Y-89302944D03*
X130697056Y-92697056D03*
X131400000Y-91000000D03*
D14*
X119120000Y-60000000D03*
D15*
X111500000Y-60000000D03*
D16*
X126600000Y-29000000D03*
X127302944Y-27302944D03*
X127302944Y-30697056D03*
X129000000Y-26600000D03*
D17*
X129000000Y-29000000D03*
D16*
X129000000Y-31400000D03*
X130697056Y-27302944D03*
X130697056Y-30697056D03*
X131400000Y-29000000D03*
X85602944Y-91002944D03*
X86305888Y-89305888D03*
X86305888Y-92700000D03*
X88002944Y-88602944D03*
D17*
X88002944Y-91002944D03*
D16*
X88002944Y-93402944D03*
X89700000Y-89305888D03*
X89700000Y-92700000D03*
X90402944Y-91002944D03*
D18*
X79960000Y-79910000D03*
X69960000Y-79910000D03*
D19*
X60000000Y-73500000D03*
D20*
X60000000Y-65500000D03*
X60000000Y-69500000D03*
D10*
X65000000Y-69500000D03*
D21*
X130140000Y-73230000D03*
X130140000Y-84660000D03*
X136490000Y-73230000D03*
X136490000Y-84660000D03*
X123790000Y-73230000D03*
X123790000Y-84660000D03*
D14*
X69840000Y-86000000D03*
D15*
X80000000Y-86000000D03*
D16*
X53200000Y-91000000D03*
X53902944Y-89302944D03*
X53902944Y-92697056D03*
X55600000Y-88600000D03*
D17*
X55600000Y-91000000D03*
D16*
X55600000Y-93400000D03*
X57297056Y-89302944D03*
X57297056Y-92697056D03*
X58000000Y-91000000D03*
X85602944Y-29002944D03*
X86305888Y-27305888D03*
X86305888Y-30700000D03*
X88002944Y-26602944D03*
D17*
X88002944Y-29002944D03*
D16*
X88002944Y-31402944D03*
X89700000Y-27305888D03*
X89700000Y-30700000D03*
X90402944Y-29002944D03*
X131850000Y-44250000D03*
X132552944Y-42552944D03*
X132552944Y-45947056D03*
X134250000Y-41850000D03*
D17*
X134250000Y-44250000D03*
D16*
X134250000Y-46650000D03*
X135947056Y-42552944D03*
X135947056Y-45947056D03*
X136650000Y-44250000D03*
X85600000Y-44302944D03*
X86302944Y-42605888D03*
X86302944Y-46000000D03*
X88000000Y-41902944D03*
D17*
X88000000Y-44302944D03*
D16*
X88000000Y-46702944D03*
X89697056Y-42605888D03*
X89697056Y-46000000D03*
X90400000Y-44302944D03*
X104900000Y-80300000D03*
X105602944Y-78602944D03*
X105602944Y-81997056D03*
X107300000Y-77900000D03*
D17*
X107300000Y-80300000D03*
D16*
X107300000Y-82700000D03*
X108997056Y-78602944D03*
X108997056Y-81997056D03*
X109700000Y-80300000D03*
X72600000Y-44500000D03*
X73302944Y-42802944D03*
X73302944Y-46197056D03*
X75000000Y-42100000D03*
D17*
X75000000Y-44500000D03*
D16*
X75000000Y-46900000D03*
X76697056Y-42802944D03*
X76697056Y-46197056D03*
X77400000Y-44500000D03*
X53200000Y-29300000D03*
X53902944Y-27602944D03*
X53902944Y-30997056D03*
X55600000Y-26900000D03*
D17*
X55600000Y-29300000D03*
D16*
X55600000Y-31700000D03*
X57297056Y-27602944D03*
X57297056Y-30997056D03*
X58000000Y-29300000D03*
D22*
X77200000Y-65000000D03*
X65000000Y-75000000D03*
X100000000Y-35000000D03*
X141500000Y-80000000D03*
X59600000Y-59800000D03*
X127100000Y-60300000D03*
X61800000Y-47400000D03*
X60000000Y-30000000D03*
X117000000Y-26000000D03*
X77000000Y-59800000D03*
X119800000Y-57800000D03*
X67000000Y-62200000D03*
X65600000Y-59800000D03*
X73600000Y-69400000D03*
X77000000Y-26000000D03*
X77000000Y-63600000D03*
X53400000Y-49400000D03*
X60750000Y-83000000D03*
X42500249Y-32000249D03*
X72800000Y-55200000D03*
X112800000Y-63400000D03*
X70000000Y-68400000D03*
X49800000Y-70000000D03*
X138200000Y-59400000D03*
X141500000Y-72000000D03*
X82600000Y-66200000D03*
X45000000Y-35000249D03*
X140400000Y-53900000D03*
X60400000Y-77800000D03*
X121910000Y-71390000D03*
X68600000Y-64800000D03*
X121200000Y-60700000D03*
X52400000Y-68000000D03*
X123000000Y-26000000D03*
X63500000Y-87000000D03*
X53000000Y-94000000D03*
X125700000Y-71700000D03*
X90000000Y-40000000D03*
X110400000Y-63200000D03*
X52400000Y-56000000D03*
X102200000Y-58800000D03*
X95000000Y-90000000D03*
X105000000Y-26000000D03*
X55400000Y-49000000D03*
X52400000Y-55000000D03*
X49800000Y-59000000D03*
X109000000Y-60000000D03*
X65500000Y-87000000D03*
X50400000Y-72000000D03*
X101200000Y-72600000D03*
X120000000Y-45000000D03*
X71600000Y-72400000D03*
X120000000Y-40000000D03*
X112800000Y-62400000D03*
X55000000Y-80000000D03*
X81800000Y-60400000D03*
X50400000Y-49000000D03*
X99000000Y-26000000D03*
X126700000Y-64800000D03*
X47000000Y-94000000D03*
X135000000Y-26000000D03*
X52400000Y-62000000D03*
X69400000Y-65400000D03*
X78200000Y-65000000D03*
X65000000Y-50000000D03*
X127500000Y-56800000D03*
X81000000Y-78300000D03*
X64500000Y-87000000D03*
X49000000Y-26000000D03*
X57750000Y-83750000D03*
X101400000Y-59400000D03*
X105000000Y-40000000D03*
X84000000Y-57600000D03*
X112200000Y-58000000D03*
X108400000Y-62200000D03*
X52400000Y-65000000D03*
X73400000Y-73000000D03*
X64600000Y-64400000D03*
X125600000Y-70600000D03*
X105000000Y-75000000D03*
X69000000Y-62200000D03*
X70000000Y-50000000D03*
X138500000Y-45000000D03*
X71600000Y-59800000D03*
X50000000Y-50000000D03*
X139400000Y-62500000D03*
X71000000Y-62200000D03*
X111700000Y-69300000D03*
X135000000Y-94000000D03*
X105000000Y-59600000D03*
X125000000Y-26000000D03*
X141400000Y-60000000D03*
X136700000Y-61600000D03*
X42500249Y-38000249D03*
X110000000Y-35000000D03*
X105600000Y-54800000D03*
X111600000Y-54800000D03*
X60800000Y-63200000D03*
X60500000Y-84750000D03*
X115000000Y-80000000D03*
X49800000Y-58000000D03*
X107000000Y-94000000D03*
X61800000Y-71200000D03*
X141400000Y-60900000D03*
X133700000Y-61600000D03*
X91000000Y-94000000D03*
X49800000Y-51000000D03*
X78700000Y-84800000D03*
X76600000Y-62600000D03*
X105000000Y-30000000D03*
X54600000Y-74400000D03*
X73800000Y-63000000D03*
X109200000Y-54800000D03*
X80000000Y-78000000D03*
X105400000Y-57200000D03*
X137800000Y-55000000D03*
X138500000Y-50000000D03*
X83000000Y-26000000D03*
X51000000Y-72800000D03*
X42500249Y-68000249D03*
X52400000Y-52000000D03*
X85000000Y-55000000D03*
X50000000Y-71000000D03*
X138800000Y-58500000D03*
X100800000Y-70600000D03*
X100800000Y-56800000D03*
X103800000Y-73400000D03*
X110200000Y-58400000D03*
X85000000Y-75000000D03*
X70000000Y-90000000D03*
X116000000Y-57600000D03*
X49800000Y-60000000D03*
X52400000Y-63000000D03*
X75000000Y-50000000D03*
X119200000Y-57000000D03*
X119000000Y-26000000D03*
X129500000Y-56800000D03*
X57400000Y-64000000D03*
X52400000Y-67000000D03*
X57600000Y-74400000D03*
X108900000Y-69000000D03*
X45000000Y-30000000D03*
X129700000Y-61600000D03*
X125800000Y-74700000D03*
X67500000Y-87000000D03*
X90000000Y-50000000D03*
X90000000Y-75000000D03*
X100000000Y-85000000D03*
X115000000Y-26000000D03*
X52400000Y-64000000D03*
X133500000Y-59400000D03*
X115000000Y-45000000D03*
X49800000Y-63000000D03*
X138500000Y-35000000D03*
X42500249Y-66000249D03*
X139400000Y-53700000D03*
X76400000Y-73000000D03*
X44500000Y-93000000D03*
X115000000Y-94000000D03*
X70200000Y-84200000D03*
X110000000Y-50000000D03*
X52400000Y-59000000D03*
X118400000Y-61600000D03*
X100600000Y-61200000D03*
X101400000Y-69700000D03*
X63000000Y-26000000D03*
X102200000Y-69100000D03*
X123600000Y-58900000D03*
X60200000Y-80000000D03*
X49800000Y-55000000D03*
X62400000Y-70200000D03*
X127600000Y-58900000D03*
X132500000Y-58900000D03*
X67500000Y-84900000D03*
X95000000Y-50000000D03*
X50000000Y-75000000D03*
X42500249Y-74000249D03*
X65000000Y-94000000D03*
X49800000Y-52000000D03*
X130500000Y-56800000D03*
X77200000Y-60800000D03*
X60000000Y-40000000D03*
X129500000Y-59400000D03*
X63600000Y-64400000D03*
X135400000Y-59400000D03*
X57400000Y-63000000D03*
X70000000Y-35000000D03*
X130000000Y-40000000D03*
X141500000Y-84000000D03*
X57800000Y-75600000D03*
X73000000Y-94000000D03*
X61000000Y-94000000D03*
X107700000Y-72200000D03*
X109800000Y-65000000D03*
X134400000Y-58900000D03*
X61200000Y-48200000D03*
X77800000Y-67400000D03*
X68600000Y-59800000D03*
X100000000Y-30000000D03*
X59400000Y-49000000D03*
X90000000Y-55000000D03*
X95000000Y-26000000D03*
X141500000Y-52000000D03*
X101800000Y-73400000D03*
X70000000Y-66400000D03*
X117800000Y-58800000D03*
X124500000Y-64400000D03*
X106400000Y-57200000D03*
X125000000Y-80000000D03*
X58600000Y-59800000D03*
X103400000Y-53800000D03*
X108000000Y-69600000D03*
X117000000Y-58200000D03*
X57800000Y-78800000D03*
X64000000Y-62200000D03*
X69000000Y-26000000D03*
X68000000Y-62200000D03*
X90000000Y-65000000D03*
X128100000Y-62400000D03*
X56800000Y-71000000D03*
X73000000Y-67600000D03*
X127500000Y-63100000D03*
X141500000Y-68000000D03*
X100000000Y-90000000D03*
X132700000Y-61600000D03*
X42500249Y-62000249D03*
X113200000Y-66900000D03*
X69600000Y-59800000D03*
X76200000Y-54000000D03*
X70200000Y-87800000D03*
X84200000Y-60600000D03*
X73600000Y-58000000D03*
X57400000Y-65000000D03*
X74800000Y-63400000D03*
X124100000Y-75700000D03*
X81800000Y-78800000D03*
X55200000Y-65800000D03*
X62200000Y-75400000D03*
X58750000Y-76000000D03*
X138500000Y-62200000D03*
X54600000Y-46800000D03*
X130000000Y-35000000D03*
X141000000Y-59100000D03*
X76800000Y-67600000D03*
X113000000Y-94000000D03*
X126200000Y-73700000D03*
X57750000Y-84750000D03*
X42500249Y-30000249D03*
X110400000Y-57200000D03*
X125200000Y-62500000D03*
X81500000Y-86800000D03*
X85000000Y-40000000D03*
X73000000Y-26000000D03*
X115200000Y-54800000D03*
X67800000Y-69200000D03*
X42500249Y-72000249D03*
X80000000Y-90000000D03*
X134600000Y-56800000D03*
X110000000Y-40000000D03*
X54400000Y-49000000D03*
X133000000Y-94000000D03*
X61500000Y-84900000D03*
X84200000Y-58600000D03*
X57800000Y-81800000D03*
X105400000Y-62200000D03*
X70000000Y-45000000D03*
X61200000Y-77000000D03*
X45000000Y-60000000D03*
X76400000Y-69400000D03*
X126100000Y-72600000D03*
X131700000Y-61600000D03*
X130000000Y-55000000D03*
X105000000Y-85000000D03*
X100000000Y-45000000D03*
X51000000Y-26000000D03*
X70600000Y-72200000D03*
X141500000Y-86000000D03*
X126400000Y-68800000D03*
X42500249Y-46000249D03*
X95000000Y-85000000D03*
X113400000Y-58200000D03*
X141500000Y-50000000D03*
X83400000Y-56800000D03*
X62600000Y-64400000D03*
X81900000Y-79800000D03*
X141000000Y-61700000D03*
X141500000Y-30000000D03*
X58000000Y-62200000D03*
X140100000Y-58700000D03*
X65000000Y-40000000D03*
X61800000Y-63800000D03*
X124500000Y-65400000D03*
X71100000Y-87300000D03*
X57800000Y-76800000D03*
X78900000Y-81800000D03*
X50000000Y-80000000D03*
X97000000Y-94000000D03*
X52400000Y-60000000D03*
X56400000Y-49000000D03*
X137000000Y-26000000D03*
X45000000Y-75000249D03*
X63600000Y-59800000D03*
X100600000Y-55600000D03*
X140500000Y-28000000D03*
X141500000Y-34000000D03*
X62600000Y-59800000D03*
X120000000Y-35000000D03*
X103200000Y-58800000D03*
X121000000Y-26000000D03*
X60000000Y-35000000D03*
X138500000Y-26000000D03*
X65000000Y-35000000D03*
X121310000Y-72190000D03*
X66000000Y-62200000D03*
X79000000Y-54800000D03*
X65000000Y-80000000D03*
X53600000Y-46800000D03*
X108000000Y-54800000D03*
X77000000Y-94000000D03*
X125000000Y-40000000D03*
X80200000Y-64800000D03*
X112600000Y-67600000D03*
X141500000Y-70000000D03*
X74200000Y-53800000D03*
X105000000Y-94000000D03*
X75200000Y-53600000D03*
X125800000Y-61800000D03*
X81300000Y-84900000D03*
X110300000Y-70700000D03*
X83400000Y-65600000D03*
X58100000Y-85600000D03*
X43500249Y-92000249D03*
X72800000Y-64800000D03*
X60000000Y-55000000D03*
X113200000Y-60400000D03*
X81700000Y-85800000D03*
X104200000Y-59000000D03*
X42500249Y-42000249D03*
X75000000Y-26000000D03*
X73000000Y-70200000D03*
X55000000Y-50000000D03*
X90000000Y-60000000D03*
X130500000Y-58900000D03*
X78400000Y-86700000D03*
X85000000Y-35000000D03*
X42500249Y-90000249D03*
X141500000Y-40000000D03*
X105000000Y-35000000D03*
X137600000Y-56000000D03*
X65600000Y-64400000D03*
X64000000Y-66600000D03*
X79000000Y-94000000D03*
X70000000Y-67400000D03*
X72000000Y-70200000D03*
X110000000Y-45000000D03*
X80800000Y-57600000D03*
X122800000Y-59600000D03*
X75000000Y-90000000D03*
X121900000Y-60100000D03*
X135800000Y-56800000D03*
X141500000Y-74000000D03*
X115000000Y-30000000D03*
X61000000Y-26000000D03*
X60000000Y-50000000D03*
X42500249Y-78000249D03*
X138500000Y-80000000D03*
X100000000Y-40000000D03*
X124800000Y-63400000D03*
X141500000Y-66000000D03*
X125000000Y-45000000D03*
X115000000Y-57200000D03*
X120800000Y-58000000D03*
X120000000Y-55000000D03*
X106700000Y-72400000D03*
X122500000Y-57000000D03*
X60400000Y-48800000D03*
X128600000Y-58900000D03*
X73000000Y-62400000D03*
X52400000Y-51000000D03*
X100000000Y-75000000D03*
X49800000Y-64000000D03*
X81400000Y-58400000D03*
X104600000Y-57800000D03*
X115000000Y-50000000D03*
X73000000Y-57200000D03*
X71000000Y-26000000D03*
X111000000Y-94000000D03*
X42500249Y-48000249D03*
X117600000Y-60900000D03*
X111000000Y-26000000D03*
X128000000Y-59800000D03*
X103200000Y-69000000D03*
X66600000Y-64400000D03*
X42500249Y-86000249D03*
X81000000Y-55000000D03*
X120000000Y-80000000D03*
X113600000Y-66100000D03*
X62400000Y-73200000D03*
X141500000Y-46000000D03*
X55200000Y-62800000D03*
X106400000Y-62200000D03*
X90000000Y-80000000D03*
X79200000Y-65000000D03*
X49800000Y-68000000D03*
X93000000Y-94000000D03*
X126500000Y-56800000D03*
X105000000Y-45000000D03*
X63000000Y-62200000D03*
X126400000Y-61000000D03*
X47000000Y-26000249D03*
X104200000Y-69400000D03*
X55000000Y-55000000D03*
X72600000Y-56200000D03*
X79000000Y-78200000D03*
X42500249Y-82000249D03*
X125600000Y-58900000D03*
X63500000Y-84900000D03*
X52400000Y-53000000D03*
X138500000Y-30000000D03*
X126600000Y-65800000D03*
X125100000Y-75400000D03*
X105000000Y-50000000D03*
X65000000Y-55000000D03*
X131500000Y-59400000D03*
X51800000Y-73400000D03*
X95000000Y-55000000D03*
X136800000Y-56600000D03*
X42500249Y-34000249D03*
X95000000Y-40000000D03*
X75400000Y-73400000D03*
X124200000Y-68400000D03*
X100000000Y-80000000D03*
X76000000Y-68200000D03*
X95000000Y-35000000D03*
X101400000Y-57800000D03*
X62400000Y-72000000D03*
X62000000Y-62200000D03*
X137000000Y-59400000D03*
X85000000Y-94000000D03*
X73400000Y-64000000D03*
X109400000Y-57200000D03*
X124600000Y-58900000D03*
X58400000Y-49000000D03*
X53600000Y-74400000D03*
X139500000Y-93000000D03*
X93000000Y-26000000D03*
X77000000Y-72200000D03*
X65000000Y-62200000D03*
X69100000Y-84300000D03*
X49800000Y-62000000D03*
X141500000Y-44000000D03*
X112300000Y-68500000D03*
X83800000Y-64600000D03*
X81800000Y-59400000D03*
X102200000Y-53800000D03*
X67600000Y-59800000D03*
X104600000Y-72800000D03*
X80000000Y-30000000D03*
X80800000Y-67200000D03*
X138500000Y-90000000D03*
X102800000Y-63400000D03*
X141500000Y-90000000D03*
X42500249Y-76000249D03*
X108600000Y-71800000D03*
X57800000Y-80800000D03*
X122600000Y-70600000D03*
X97000000Y-26000000D03*
X109600000Y-66800000D03*
X60500000Y-87000000D03*
X81800000Y-61400000D03*
X62000000Y-66800000D03*
X76400000Y-64400000D03*
X50000000Y-30000000D03*
X81000000Y-64200000D03*
X61500000Y-87000000D03*
X130000000Y-50000000D03*
X45000000Y-80000000D03*
X80000000Y-70000000D03*
X44500249Y-27000249D03*
X104600000Y-62800000D03*
X106000000Y-60000000D03*
X56600000Y-46800000D03*
X103000000Y-94000000D03*
X63000000Y-66600000D03*
X126200000Y-69800000D03*
X53000000Y-26000000D03*
X53000000Y-68800000D03*
X81100000Y-81800000D03*
X141500000Y-88000000D03*
X42500249Y-54000249D03*
X122000000Y-75200000D03*
X85000000Y-70000000D03*
X128500000Y-56800000D03*
X52400000Y-61000000D03*
X72000000Y-62200000D03*
X102800000Y-73600000D03*
X75000000Y-94000000D03*
X138500000Y-40000000D03*
X51800000Y-47600000D03*
X140200000Y-57200000D03*
X113000000Y-61400000D03*
X123800000Y-69200000D03*
X138400000Y-54200000D03*
X72600000Y-65800000D03*
X78900000Y-83800000D03*
X115000000Y-75000000D03*
X118400000Y-56200000D03*
X110000000Y-85000000D03*
X65000000Y-90000000D03*
X107400000Y-57200000D03*
X85000000Y-85000000D03*
X57400000Y-49000000D03*
X120000000Y-50000000D03*
X135700000Y-61600000D03*
X139500000Y-80000000D03*
X49800000Y-65000000D03*
X60200000Y-81000000D03*
X81700000Y-80800000D03*
X65000000Y-30000000D03*
X80000000Y-35000000D03*
X49800000Y-69000000D03*
X79900000Y-87700000D03*
X58600000Y-63600000D03*
X56000000Y-71600000D03*
X74400000Y-73400000D03*
X42500249Y-40000249D03*
X77000000Y-70200000D03*
X141200000Y-54600000D03*
X66600000Y-59800000D03*
X121700000Y-57600000D03*
X72600000Y-66800000D03*
X55800000Y-60800000D03*
X60200000Y-79000000D03*
X133000000Y-26000000D03*
X62400000Y-69200000D03*
X51000000Y-48200000D03*
X141500000Y-32000000D03*
X59000000Y-26000000D03*
X42500249Y-52000249D03*
X108000000Y-60000000D03*
X95000000Y-70000000D03*
X65000000Y-26000000D03*
X67000000Y-26000000D03*
X101000000Y-94000000D03*
X141500000Y-36000000D03*
X45000000Y-85000249D03*
X81800000Y-62400000D03*
X80800000Y-87500000D03*
X49800000Y-54000000D03*
X55600000Y-46800000D03*
X113300000Y-65200000D03*
X107000000Y-69900000D03*
X117400000Y-59800000D03*
X110000000Y-75000000D03*
X125500000Y-56800000D03*
X113000000Y-57200000D03*
X74400000Y-69000000D03*
X57400000Y-67000000D03*
X110200000Y-67600000D03*
X60600000Y-59800000D03*
X57400000Y-66000000D03*
X137700000Y-61700000D03*
X103000000Y-26000000D03*
X95000000Y-75000000D03*
X52400000Y-66000000D03*
X100800000Y-60200000D03*
X110300000Y-64200000D03*
X61400000Y-67600000D03*
X84200000Y-61600000D03*
X82800000Y-56000000D03*
X109400000Y-62200000D03*
X137000000Y-94000000D03*
X109600000Y-59200000D03*
X124500000Y-66400000D03*
X100000000Y-50000000D03*
X78900000Y-82800000D03*
X70600000Y-59800000D03*
X42500249Y-58000249D03*
X125000000Y-94000000D03*
X115000000Y-40000000D03*
X52600000Y-74000000D03*
X59500000Y-87000000D03*
X105000000Y-90000000D03*
X71600000Y-86500000D03*
X140300000Y-62300000D03*
X141500000Y-42000000D03*
X126600000Y-67800000D03*
X119000000Y-94000000D03*
X68400000Y-87000000D03*
X116400000Y-55000000D03*
X119500000Y-61700000D03*
X130000000Y-45000000D03*
X114000000Y-57200000D03*
X42500249Y-80000249D03*
X81000000Y-26000000D03*
X133500000Y-56800000D03*
X139200000Y-57400000D03*
X81100000Y-82800000D03*
X66000000Y-66600000D03*
X110000000Y-30000000D03*
X67000000Y-66600000D03*
X84200000Y-59600000D03*
X95000000Y-80000000D03*
X141500000Y-76000000D03*
X76200000Y-59200000D03*
X113000000Y-59200000D03*
X52600000Y-50000000D03*
X42500249Y-64000249D03*
X106800000Y-54800000D03*
X108400000Y-57200000D03*
X125000000Y-55000000D03*
X42500249Y-36000249D03*
X107000000Y-26000000D03*
X45000000Y-91000249D03*
X141000000Y-56600000D03*
X69000000Y-94000000D03*
X117400000Y-55600000D03*
X60200000Y-83800000D03*
X105600000Y-72400000D03*
X83000000Y-94000000D03*
X52600000Y-47000000D03*
X77200000Y-71200000D03*
X141500000Y-64000000D03*
X45000000Y-55000000D03*
X80000000Y-54800000D03*
X67600000Y-64400000D03*
X59000000Y-94000000D03*
X112800000Y-54800000D03*
X62500000Y-84900000D03*
X124400000Y-67400000D03*
X78000000Y-79800000D03*
X45000000Y-65000000D03*
X80000000Y-50000000D03*
X65500000Y-84900000D03*
X56600000Y-74400000D03*
X80000000Y-45000000D03*
X111200000Y-58000000D03*
X68200000Y-70200000D03*
X61200000Y-76000000D03*
X95000000Y-45000000D03*
X42500249Y-44000249D03*
X55200000Y-63800000D03*
X136200000Y-58800000D03*
X71000000Y-94000000D03*
X79000000Y-26000000D03*
X68400000Y-84900000D03*
X63000000Y-94000000D03*
X42500249Y-88000249D03*
X141500000Y-48000000D03*
X77800000Y-57200000D03*
X109000000Y-26000000D03*
X52400000Y-58000000D03*
X128800000Y-61700000D03*
X45500000Y-94000000D03*
X82000000Y-55400000D03*
X105000000Y-70000000D03*
X70000000Y-30000000D03*
X58000000Y-71000000D03*
X55000000Y-40000000D03*
X57600000Y-59800000D03*
X101000000Y-26000000D03*
X115000000Y-85000000D03*
X72600000Y-59800000D03*
X121000000Y-94000000D03*
X57400000Y-72200000D03*
X103800000Y-63200000D03*
X69600000Y-71800000D03*
X53600000Y-68000000D03*
X59600000Y-63200000D03*
X114000000Y-54800000D03*
X100800000Y-71600000D03*
X113000000Y-26000000D03*
X61000000Y-62200000D03*
X42500249Y-70000249D03*
X76800000Y-57400000D03*
X58700000Y-86400000D03*
X126600000Y-66800000D03*
X72600000Y-72400000D03*
X50000000Y-91000000D03*
X132500000Y-56800000D03*
X125000000Y-50000000D03*
X107000000Y-60000000D03*
X73400000Y-54400000D03*
X55600000Y-74400000D03*
X56600000Y-60200000D03*
X74200000Y-58800000D03*
X75000000Y-40000000D03*
X78800000Y-57200000D03*
X106000000Y-70000000D03*
X66500000Y-84900000D03*
X58000000Y-68000000D03*
X42500249Y-56000249D03*
X120400000Y-61200000D03*
X49800000Y-53000000D03*
X60000000Y-62200000D03*
X62400000Y-74200000D03*
X55000000Y-35000000D03*
X49800000Y-66000000D03*
X78200000Y-78800000D03*
X109500000Y-71300000D03*
X95000000Y-60000000D03*
X130000000Y-80000000D03*
X67800000Y-67200000D03*
X68800000Y-71000000D03*
X137600000Y-58400000D03*
X141500000Y-82000000D03*
X55400000Y-61800000D03*
X70200000Y-69400000D03*
X75400000Y-69000000D03*
X134700000Y-61600000D03*
X60200000Y-82000000D03*
X42500249Y-60000249D03*
X117000000Y-94000000D03*
X121400000Y-74300000D03*
X52800000Y-69800000D03*
X59000000Y-62200000D03*
X111000000Y-70000000D03*
X45000000Y-70000000D03*
X109700000Y-68400000D03*
X127000000Y-63900000D03*
X84000000Y-63600000D03*
X51000000Y-94000000D03*
X71000000Y-70000000D03*
X110400000Y-62200000D03*
X130700000Y-61600000D03*
X57000000Y-70000000D03*
X109400000Y-65900000D03*
X45500000Y-26000000D03*
X90000000Y-85000000D03*
X70000000Y-55000000D03*
X73400000Y-59400000D03*
X110000000Y-90000000D03*
X75000000Y-30000000D03*
X79000000Y-87400000D03*
X76000000Y-58000000D03*
X64500000Y-84900000D03*
X120000000Y-90000000D03*
X81600000Y-63400000D03*
X52400000Y-54000000D03*
X115000000Y-90000000D03*
X99000000Y-94000000D03*
X49800000Y-57000000D03*
X123000000Y-94000000D03*
X75800000Y-63200000D03*
X65000000Y-66600000D03*
X139500000Y-27000000D03*
X70000000Y-75000000D03*
X85000000Y-26000000D03*
X85000000Y-50000000D03*
X52400000Y-57000000D03*
X53200000Y-70800000D03*
X107400000Y-62200000D03*
X50000000Y-85000000D03*
X95000000Y-30000000D03*
X71600000Y-85500000D03*
X104600000Y-54200000D03*
X141500000Y-38000000D03*
X90000000Y-35000000D03*
X55200000Y-64800000D03*
X123170000Y-69920000D03*
X110400000Y-54800000D03*
X67800000Y-68200000D03*
X140500000Y-92000000D03*
X79800000Y-67400000D03*
X125000000Y-35000000D03*
X43500249Y-28000249D03*
X78300000Y-85700000D03*
X75200000Y-58800000D03*
X75000000Y-35000000D03*
X84200000Y-62600000D03*
X45000000Y-50000000D03*
X55000000Y-85000000D03*
X61600000Y-59800000D03*
X57800000Y-79800000D03*
X66500000Y-87000000D03*
X77200000Y-61800000D03*
X62200000Y-68200000D03*
X49800000Y-67000000D03*
X57800000Y-77800000D03*
X69200000Y-87700000D03*
X49800000Y-56000000D03*
X141500000Y-78000000D03*
X80000000Y-75000000D03*
X54000000Y-71600000D03*
X112800000Y-64400000D03*
X81800000Y-66800000D03*
X79800000Y-57200000D03*
X141400000Y-55600000D03*
X55000000Y-71800000D03*
X111600000Y-57200000D03*
X78000000Y-54800000D03*
X54400000Y-67400000D03*
X131500000Y-56800000D03*
X121310000Y-73190000D03*
X78200000Y-80800000D03*
X57800000Y-82800000D03*
X49000000Y-94000000D03*
X62500000Y-87000000D03*
X42500249Y-84000249D03*
X81100000Y-83800000D03*
X120000000Y-30000000D03*
X124500000Y-56800000D03*
X50000000Y-35000000D03*
X126600000Y-58900000D03*
X73600000Y-68400000D03*
X138500000Y-94000000D03*
X109000000Y-94000000D03*
X67000000Y-94000000D03*
X85000000Y-80000000D03*
X95000000Y-65000000D03*
X64600000Y-59800000D03*
X95000000Y-94000000D03*
X101000000Y-54400000D03*
X71100000Y-84700000D03*
X42500249Y-50000249D03*
X91000000Y-26000000D03*
X70000000Y-62200000D03*
X123000000Y-75700000D03*
X78800000Y-67400000D03*
X90000000Y-70000000D03*
X123500000Y-56800000D03*
X49800000Y-61000000D03*
X55200000Y-66800000D03*
X81000000Y-94000000D03*
X80000000Y-40000000D03*
X70000000Y-40000000D03*
X115000000Y-35000000D03*
X77000000Y-54800000D03*
D23*
X60000000Y-40000000D02*
X60000000Y-40025305D01*
X95000000Y-45000000D02*
X94725000Y-44725000D01*
X85000000Y-40000000D02*
X85025305Y-40000000D01*
X130000000Y-35000000D02*
X129972056Y-34972056D01*
X95000000Y-30000000D02*
X94900000Y-29900000D01*
G04 #@! TA.AperFunction,Conductor*
G36*
X88738533Y-89271186D02*
G01*
X88787228Y-89321292D01*
X88800878Y-89366194D01*
X88814326Y-89494144D01*
X88814327Y-89494147D01*
X88872818Y-89674165D01*
X88872821Y-89674172D01*
X88967467Y-89838104D01*
X89067769Y-89949500D01*
X89094129Y-89978776D01*
X89247265Y-90090036D01*
X89247270Y-90090039D01*
X89420192Y-90167030D01*
X89420197Y-90167032D01*
X89605354Y-90206388D01*
X89605355Y-90206388D01*
X89629916Y-90206388D01*
X89696955Y-90226073D01*
X89742710Y-90278877D01*
X89752654Y-90348035D01*
X89723629Y-90411591D01*
X89722135Y-90413281D01*
X89670411Y-90470728D01*
X89670409Y-90470729D01*
X89670408Y-90470732D01*
X89575765Y-90634659D01*
X89575762Y-90634666D01*
X89517271Y-90814684D01*
X89517270Y-90814688D01*
X89497484Y-91002944D01*
X89517270Y-91191200D01*
X89517271Y-91191203D01*
X89575762Y-91371221D01*
X89575765Y-91371228D01*
X89670411Y-91535160D01*
X89722067Y-91592530D01*
X89752296Y-91655519D01*
X89743671Y-91724854D01*
X89698930Y-91778520D01*
X89632277Y-91799478D01*
X89629916Y-91799500D01*
X89605354Y-91799500D01*
X89572897Y-91806398D01*
X89420197Y-91838855D01*
X89420192Y-91838857D01*
X89247270Y-91915848D01*
X89247265Y-91915851D01*
X89094129Y-92027111D01*
X88967466Y-92167785D01*
X88872821Y-92331715D01*
X88872818Y-92331722D01*
X88814327Y-92511740D01*
X88814326Y-92511744D01*
X88801188Y-92636746D01*
X88800879Y-92639690D01*
X88774294Y-92704304D01*
X88716997Y-92744289D01*
X88647178Y-92746949D01*
X88604673Y-92727046D01*
X88455678Y-92618795D01*
X88455673Y-92618792D01*
X88282751Y-92541801D01*
X88282746Y-92541799D01*
X88127474Y-92508796D01*
X88097590Y-92502444D01*
X87908298Y-92502444D01*
X87878414Y-92508796D01*
X87723141Y-92541799D01*
X87723136Y-92541801D01*
X87550215Y-92618792D01*
X87401214Y-92727047D01*
X87335407Y-92750526D01*
X87267354Y-92734700D01*
X87218659Y-92684594D01*
X87205009Y-92639695D01*
X87191562Y-92511744D01*
X87133067Y-92331716D01*
X87038421Y-92167784D01*
X86911759Y-92027112D01*
X86911758Y-92027111D01*
X86758622Y-91915851D01*
X86758617Y-91915848D01*
X86585695Y-91838857D01*
X86585690Y-91838855D01*
X86439889Y-91807865D01*
X86400534Y-91799500D01*
X86375972Y-91799500D01*
X86308933Y-91779815D01*
X86263178Y-91727011D01*
X86253234Y-91657853D01*
X86282259Y-91594297D01*
X86283752Y-91592606D01*
X86335477Y-91535160D01*
X86430123Y-91371228D01*
X86488618Y-91191200D01*
X86508404Y-91002944D01*
X86488618Y-90814688D01*
X86430123Y-90634660D01*
X86335477Y-90470728D01*
X86283820Y-90413357D01*
X86253592Y-90350369D01*
X86262217Y-90281034D01*
X86306958Y-90227368D01*
X86373611Y-90206410D01*
X86375972Y-90206388D01*
X86400532Y-90206388D01*
X86400534Y-90206388D01*
X86585691Y-90167032D01*
X86758618Y-90090039D01*
X86911759Y-89978776D01*
X87038421Y-89838104D01*
X87133067Y-89674172D01*
X87191562Y-89494144D01*
X87205009Y-89366193D01*
X87231592Y-89301584D01*
X87288889Y-89261598D01*
X87358708Y-89258938D01*
X87401214Y-89278841D01*
X87550209Y-89387092D01*
X87550214Y-89387095D01*
X87723136Y-89464086D01*
X87723141Y-89464088D01*
X87908298Y-89503444D01*
X87908299Y-89503444D01*
X88097588Y-89503444D01*
X88097590Y-89503444D01*
X88282747Y-89464088D01*
X88455674Y-89387095D01*
X88604674Y-89278839D01*
X88670479Y-89255361D01*
X88738533Y-89271186D01*
G37*
G04 #@! TD.AperFunction*
G04 #@! TA.AperFunction,Conductor*
G36*
X56335589Y-89268242D02*
G01*
X56384284Y-89318348D01*
X56397934Y-89363250D01*
X56411382Y-89491200D01*
X56411383Y-89491203D01*
X56469874Y-89671221D01*
X56469877Y-89671228D01*
X56564523Y-89835160D01*
X56667925Y-89949999D01*
X56691185Y-89975832D01*
X56844321Y-90087092D01*
X56844326Y-90087095D01*
X57017248Y-90164086D01*
X57017253Y-90164088D01*
X57202410Y-90203444D01*
X57202411Y-90203444D01*
X57226972Y-90203444D01*
X57294011Y-90223129D01*
X57339766Y-90275933D01*
X57349710Y-90345091D01*
X57320685Y-90408647D01*
X57319191Y-90410337D01*
X57267467Y-90467784D01*
X57267465Y-90467785D01*
X57267464Y-90467788D01*
X57172821Y-90631715D01*
X57172818Y-90631722D01*
X57114327Y-90811740D01*
X57114326Y-90811744D01*
X57094540Y-91000000D01*
X57114326Y-91188256D01*
X57114327Y-91188259D01*
X57172818Y-91368277D01*
X57172821Y-91368284D01*
X57267467Y-91532216D01*
X57319123Y-91589586D01*
X57349352Y-91652575D01*
X57340727Y-91721910D01*
X57295986Y-91775576D01*
X57229333Y-91796534D01*
X57226972Y-91796556D01*
X57202410Y-91796556D01*
X57169953Y-91803454D01*
X57017253Y-91835911D01*
X57017248Y-91835913D01*
X56844326Y-91912904D01*
X56844321Y-91912907D01*
X56691185Y-92024167D01*
X56564522Y-92164841D01*
X56469877Y-92328771D01*
X56469874Y-92328778D01*
X56413447Y-92502444D01*
X56411382Y-92508800D01*
X56397935Y-92636745D01*
X56397935Y-92636746D01*
X56371350Y-92701360D01*
X56314053Y-92741345D01*
X56244234Y-92744005D01*
X56201729Y-92724102D01*
X56052734Y-92615851D01*
X56052729Y-92615848D01*
X55879807Y-92538857D01*
X55879802Y-92538855D01*
X55734001Y-92507865D01*
X55694646Y-92499500D01*
X55505354Y-92499500D01*
X55472897Y-92506398D01*
X55320197Y-92538855D01*
X55320192Y-92538857D01*
X55147271Y-92615848D01*
X54998270Y-92724103D01*
X54932463Y-92747582D01*
X54864410Y-92731756D01*
X54815715Y-92681650D01*
X54802065Y-92636751D01*
X54788618Y-92508800D01*
X54730123Y-92328772D01*
X54635477Y-92164840D01*
X54508815Y-92024168D01*
X54508814Y-92024167D01*
X54355678Y-91912907D01*
X54355673Y-91912904D01*
X54182751Y-91835913D01*
X54182746Y-91835911D01*
X54036945Y-91804921D01*
X53997590Y-91796556D01*
X53973028Y-91796556D01*
X53905989Y-91776871D01*
X53860234Y-91724067D01*
X53850290Y-91654909D01*
X53879315Y-91591353D01*
X53880808Y-91589662D01*
X53932533Y-91532216D01*
X54027179Y-91368284D01*
X54085674Y-91188256D01*
X54105460Y-91000000D01*
X54085674Y-90811744D01*
X54027179Y-90631716D01*
X53932533Y-90467784D01*
X53880876Y-90410413D01*
X53850648Y-90347425D01*
X53859273Y-90278090D01*
X53904014Y-90224424D01*
X53970667Y-90203466D01*
X53973028Y-90203444D01*
X53997588Y-90203444D01*
X53997590Y-90203444D01*
X54182747Y-90164088D01*
X54355674Y-90087095D01*
X54508815Y-89975832D01*
X54635477Y-89835160D01*
X54730123Y-89671228D01*
X54788618Y-89491200D01*
X54802065Y-89363249D01*
X54828648Y-89298640D01*
X54885945Y-89258654D01*
X54955764Y-89255994D01*
X54998270Y-89275897D01*
X55147265Y-89384148D01*
X55147270Y-89384151D01*
X55320192Y-89461142D01*
X55320197Y-89461144D01*
X55505354Y-89500500D01*
X55505355Y-89500500D01*
X55694644Y-89500500D01*
X55694646Y-89500500D01*
X55879803Y-89461144D01*
X56052730Y-89384151D01*
X56201730Y-89275895D01*
X56267535Y-89252417D01*
X56335589Y-89268242D01*
G37*
G04 #@! TD.AperFunction*
G04 #@! TA.AperFunction,Conductor*
G36*
X129735589Y-89268242D02*
G01*
X129784284Y-89318348D01*
X129797934Y-89363250D01*
X129811382Y-89491200D01*
X129811383Y-89491203D01*
X129869874Y-89671221D01*
X129869877Y-89671228D01*
X129964523Y-89835160D01*
X130067925Y-89949999D01*
X130091185Y-89975832D01*
X130244321Y-90087092D01*
X130244326Y-90087095D01*
X130417248Y-90164086D01*
X130417253Y-90164088D01*
X130602410Y-90203444D01*
X130602411Y-90203444D01*
X130626972Y-90203444D01*
X130694011Y-90223129D01*
X130739766Y-90275933D01*
X130749710Y-90345091D01*
X130720685Y-90408647D01*
X130719191Y-90410337D01*
X130667467Y-90467784D01*
X130667465Y-90467785D01*
X130667464Y-90467788D01*
X130572821Y-90631715D01*
X130572818Y-90631722D01*
X130514327Y-90811740D01*
X130514326Y-90811744D01*
X130494540Y-91000000D01*
X130514326Y-91188256D01*
X130514327Y-91188259D01*
X130572818Y-91368277D01*
X130572821Y-91368284D01*
X130667467Y-91532216D01*
X130719123Y-91589586D01*
X130749352Y-91652575D01*
X130740727Y-91721910D01*
X130695986Y-91775576D01*
X130629333Y-91796534D01*
X130626972Y-91796556D01*
X130602410Y-91796556D01*
X130569953Y-91803454D01*
X130417253Y-91835911D01*
X130417248Y-91835913D01*
X130244326Y-91912904D01*
X130244321Y-91912907D01*
X130091185Y-92024167D01*
X129964522Y-92164841D01*
X129869877Y-92328771D01*
X129869874Y-92328778D01*
X129813447Y-92502444D01*
X129811382Y-92508800D01*
X129797935Y-92636745D01*
X129797935Y-92636746D01*
X129771350Y-92701360D01*
X129714053Y-92741345D01*
X129644234Y-92744005D01*
X129601729Y-92724102D01*
X129452734Y-92615851D01*
X129452729Y-92615848D01*
X129279807Y-92538857D01*
X129279802Y-92538855D01*
X129134001Y-92507865D01*
X129094646Y-92499500D01*
X128905354Y-92499500D01*
X128872897Y-92506398D01*
X128720197Y-92538855D01*
X128720192Y-92538857D01*
X128547271Y-92615848D01*
X128398270Y-92724103D01*
X128332463Y-92747582D01*
X128264410Y-92731756D01*
X128215715Y-92681650D01*
X128202065Y-92636751D01*
X128188618Y-92508800D01*
X128130123Y-92328772D01*
X128035477Y-92164840D01*
X127908815Y-92024168D01*
X127908814Y-92024167D01*
X127755678Y-91912907D01*
X127755673Y-91912904D01*
X127582751Y-91835913D01*
X127582746Y-91835911D01*
X127436945Y-91804921D01*
X127397590Y-91796556D01*
X127373028Y-91796556D01*
X127305989Y-91776871D01*
X127260234Y-91724067D01*
X127250290Y-91654909D01*
X127279315Y-91591353D01*
X127280808Y-91589662D01*
X127332533Y-91532216D01*
X127427179Y-91368284D01*
X127485674Y-91188256D01*
X127505460Y-91000000D01*
X127485674Y-90811744D01*
X127427179Y-90631716D01*
X127332533Y-90467784D01*
X127280876Y-90410413D01*
X127250648Y-90347425D01*
X127259273Y-90278090D01*
X127304014Y-90224424D01*
X127370667Y-90203466D01*
X127373028Y-90203444D01*
X127397588Y-90203444D01*
X127397590Y-90203444D01*
X127582747Y-90164088D01*
X127755674Y-90087095D01*
X127908815Y-89975832D01*
X128035477Y-89835160D01*
X128130123Y-89671228D01*
X128188618Y-89491200D01*
X128202065Y-89363249D01*
X128228648Y-89298640D01*
X128285945Y-89258654D01*
X128355764Y-89255994D01*
X128398270Y-89275897D01*
X128547265Y-89384148D01*
X128547270Y-89384151D01*
X128720192Y-89461142D01*
X128720197Y-89461144D01*
X128905354Y-89500500D01*
X128905355Y-89500500D01*
X129094644Y-89500500D01*
X129094646Y-89500500D01*
X129279803Y-89461144D01*
X129452730Y-89384151D01*
X129601730Y-89275895D01*
X129667535Y-89252417D01*
X129735589Y-89268242D01*
G37*
G04 #@! TD.AperFunction*
G04 #@! TA.AperFunction,Conductor*
G36*
X108035589Y-78568242D02*
G01*
X108084284Y-78618348D01*
X108097934Y-78663250D01*
X108111382Y-78791200D01*
X108111383Y-78791203D01*
X108169874Y-78971221D01*
X108169877Y-78971228D01*
X108264523Y-79135160D01*
X108372895Y-79255519D01*
X108391185Y-79275832D01*
X108544321Y-79387092D01*
X108544326Y-79387095D01*
X108717248Y-79464086D01*
X108717253Y-79464088D01*
X108902410Y-79503444D01*
X108902411Y-79503444D01*
X108926972Y-79503444D01*
X108994011Y-79523129D01*
X109039766Y-79575933D01*
X109049710Y-79645091D01*
X109020685Y-79708647D01*
X109019191Y-79710337D01*
X108967467Y-79767784D01*
X108967465Y-79767785D01*
X108967464Y-79767788D01*
X108872821Y-79931715D01*
X108872818Y-79931722D01*
X108814327Y-80111740D01*
X108814326Y-80111744D01*
X108794540Y-80300000D01*
X108814326Y-80488256D01*
X108814327Y-80488259D01*
X108872818Y-80668277D01*
X108872821Y-80668284D01*
X108967467Y-80832216D01*
X109019123Y-80889586D01*
X109049352Y-80952575D01*
X109040727Y-81021910D01*
X108995986Y-81075576D01*
X108929333Y-81096534D01*
X108926972Y-81096556D01*
X108902410Y-81096556D01*
X108869953Y-81103454D01*
X108717253Y-81135911D01*
X108717248Y-81135913D01*
X108544326Y-81212904D01*
X108544321Y-81212907D01*
X108391185Y-81324167D01*
X108264522Y-81464841D01*
X108169877Y-81628771D01*
X108169874Y-81628778D01*
X108111383Y-81808796D01*
X108111382Y-81808800D01*
X108108223Y-81838857D01*
X108097935Y-81936746D01*
X108071350Y-82001360D01*
X108014053Y-82041345D01*
X107944234Y-82044005D01*
X107901729Y-82024102D01*
X107752734Y-81915851D01*
X107752729Y-81915848D01*
X107579807Y-81838857D01*
X107579802Y-81838855D01*
X107434001Y-81807865D01*
X107394646Y-81799500D01*
X107205354Y-81799500D01*
X107172897Y-81806398D01*
X107020197Y-81838855D01*
X107020192Y-81838857D01*
X106847271Y-81915848D01*
X106698270Y-82024103D01*
X106632463Y-82047582D01*
X106564410Y-82031756D01*
X106515715Y-81981650D01*
X106502065Y-81936751D01*
X106488618Y-81808800D01*
X106430123Y-81628772D01*
X106335477Y-81464840D01*
X106208815Y-81324168D01*
X106208814Y-81324167D01*
X106055678Y-81212907D01*
X106055673Y-81212904D01*
X105882751Y-81135913D01*
X105882746Y-81135911D01*
X105736945Y-81104921D01*
X105697590Y-81096556D01*
X105673028Y-81096556D01*
X105605989Y-81076871D01*
X105560234Y-81024067D01*
X105550290Y-80954909D01*
X105579315Y-80891353D01*
X105580808Y-80889662D01*
X105632533Y-80832216D01*
X105727179Y-80668284D01*
X105785674Y-80488256D01*
X105805460Y-80300000D01*
X105785674Y-80111744D01*
X105727179Y-79931716D01*
X105632533Y-79767784D01*
X105580876Y-79710413D01*
X105550648Y-79647425D01*
X105559273Y-79578090D01*
X105604014Y-79524424D01*
X105670667Y-79503466D01*
X105673028Y-79503444D01*
X105697588Y-79503444D01*
X105697590Y-79503444D01*
X105882747Y-79464088D01*
X106055674Y-79387095D01*
X106208815Y-79275832D01*
X106335477Y-79135160D01*
X106430123Y-78971228D01*
X106488618Y-78791200D01*
X106502065Y-78663249D01*
X106528648Y-78598640D01*
X106585945Y-78558654D01*
X106655764Y-78555994D01*
X106698270Y-78575897D01*
X106847265Y-78684148D01*
X106847270Y-78684151D01*
X107020192Y-78761142D01*
X107020197Y-78761144D01*
X107205354Y-78800500D01*
X107205355Y-78800500D01*
X107394644Y-78800500D01*
X107394646Y-78800500D01*
X107579803Y-78761144D01*
X107752730Y-78684151D01*
X107901730Y-78575895D01*
X107967535Y-78552417D01*
X108035589Y-78568242D01*
G37*
G04 #@! TD.AperFunction*
G04 #@! TA.AperFunction,Conductor*
G36*
X101835219Y-64701666D02*
G01*
X101835220Y-64701668D01*
X102704022Y-65570470D01*
X102631655Y-65599123D01*
X102501858Y-65693426D01*
X102399590Y-65817046D01*
X102349640Y-65923193D01*
X101504779Y-65078332D01*
X101504777Y-65078329D01*
X100635977Y-64209529D01*
X100708345Y-64180877D01*
X100838142Y-64086574D01*
X100940410Y-63962954D01*
X100990359Y-63856806D01*
X101835219Y-64701666D01*
G37*
G04 #@! TD.AperFunction*
G04 #@! TA.AperFunction,Conductor*
G36*
X75735589Y-42768242D02*
G01*
X75784284Y-42818348D01*
X75797934Y-42863250D01*
X75811382Y-42991200D01*
X75811383Y-42991203D01*
X75869874Y-43171221D01*
X75869877Y-43171228D01*
X75964523Y-43335160D01*
X76060543Y-43441801D01*
X76091185Y-43475832D01*
X76244321Y-43587092D01*
X76244326Y-43587095D01*
X76417248Y-43664086D01*
X76417253Y-43664088D01*
X76602410Y-43703444D01*
X76602411Y-43703444D01*
X76626972Y-43703444D01*
X76694011Y-43723129D01*
X76739766Y-43775933D01*
X76749710Y-43845091D01*
X76720685Y-43908647D01*
X76719191Y-43910337D01*
X76667467Y-43967784D01*
X76667465Y-43967785D01*
X76667464Y-43967788D01*
X76572821Y-44131715D01*
X76572818Y-44131722D01*
X76519443Y-44295996D01*
X76514326Y-44311744D01*
X76494540Y-44500000D01*
X76514326Y-44688256D01*
X76514327Y-44688259D01*
X76572818Y-44868277D01*
X76572821Y-44868284D01*
X76663216Y-45024854D01*
X76667467Y-45032216D01*
X76719123Y-45089586D01*
X76749352Y-45152575D01*
X76740727Y-45221910D01*
X76695986Y-45275576D01*
X76629333Y-45296534D01*
X76626972Y-45296556D01*
X76602410Y-45296556D01*
X76569953Y-45303454D01*
X76417253Y-45335911D01*
X76417248Y-45335913D01*
X76244326Y-45412904D01*
X76244321Y-45412907D01*
X76091185Y-45524167D01*
X75964522Y-45664841D01*
X75869877Y-45828771D01*
X75869874Y-45828778D01*
X75814241Y-46000000D01*
X75811382Y-46008800D01*
X75798085Y-46135315D01*
X75797935Y-46136746D01*
X75771350Y-46201360D01*
X75714053Y-46241345D01*
X75644234Y-46244005D01*
X75601729Y-46224102D01*
X75452734Y-46115851D01*
X75452729Y-46115848D01*
X75279807Y-46038857D01*
X75279802Y-46038855D01*
X75117247Y-46004304D01*
X75094646Y-45999500D01*
X74905354Y-45999500D01*
X74882753Y-46004304D01*
X74720197Y-46038855D01*
X74720192Y-46038857D01*
X74547271Y-46115848D01*
X74398270Y-46224103D01*
X74332463Y-46247582D01*
X74264410Y-46231756D01*
X74215715Y-46181650D01*
X74202065Y-46136751D01*
X74188618Y-46008800D01*
X74130123Y-45828772D01*
X74035477Y-45664840D01*
X73908815Y-45524168D01*
X73841342Y-45475146D01*
X73755678Y-45412907D01*
X73755673Y-45412904D01*
X73582751Y-45335913D01*
X73582746Y-45335911D01*
X73436945Y-45304921D01*
X73397590Y-45296556D01*
X73373028Y-45296556D01*
X73305989Y-45276871D01*
X73260234Y-45224067D01*
X73250290Y-45154909D01*
X73279315Y-45091353D01*
X73280808Y-45089662D01*
X73332533Y-45032216D01*
X73427179Y-44868284D01*
X73485674Y-44688256D01*
X73505460Y-44500000D01*
X73485674Y-44311744D01*
X73427179Y-44131716D01*
X73332533Y-43967784D01*
X73280876Y-43910413D01*
X73250648Y-43847425D01*
X73259273Y-43778090D01*
X73304014Y-43724424D01*
X73370667Y-43703466D01*
X73373028Y-43703444D01*
X73397588Y-43703444D01*
X73397590Y-43703444D01*
X73582747Y-43664088D01*
X73755674Y-43587095D01*
X73908815Y-43475832D01*
X74035477Y-43335160D01*
X74130123Y-43171228D01*
X74188618Y-42991200D01*
X74202065Y-42863249D01*
X74228648Y-42798640D01*
X74285945Y-42758654D01*
X74355764Y-42755994D01*
X74398270Y-42775897D01*
X74547265Y-42884148D01*
X74547270Y-42884151D01*
X74720192Y-42961142D01*
X74720197Y-42961144D01*
X74905354Y-43000500D01*
X74905355Y-43000500D01*
X75094644Y-43000500D01*
X75094646Y-43000500D01*
X75279803Y-42961144D01*
X75452730Y-42884151D01*
X75601730Y-42775895D01*
X75667535Y-42752417D01*
X75735589Y-42768242D01*
G37*
G04 #@! TD.AperFunction*
G04 #@! TA.AperFunction,Conductor*
G36*
X88735589Y-42571186D02*
G01*
X88784284Y-42621292D01*
X88797934Y-42666194D01*
X88811382Y-42794144D01*
X88811383Y-42794147D01*
X88869874Y-42974165D01*
X88869877Y-42974172D01*
X88964523Y-43138104D01*
X89043514Y-43225832D01*
X89091185Y-43278776D01*
X89244321Y-43390036D01*
X89244326Y-43390039D01*
X89417248Y-43467030D01*
X89417253Y-43467032D01*
X89602410Y-43506388D01*
X89602411Y-43506388D01*
X89626972Y-43506388D01*
X89694011Y-43526073D01*
X89739766Y-43578877D01*
X89749710Y-43648035D01*
X89720685Y-43711591D01*
X89719191Y-43713281D01*
X89667467Y-43770728D01*
X89667465Y-43770729D01*
X89667464Y-43770732D01*
X89572821Y-43934659D01*
X89572818Y-43934666D01*
X89515403Y-44111372D01*
X89514326Y-44114688D01*
X89494540Y-44302944D01*
X89514326Y-44491200D01*
X89514327Y-44491203D01*
X89572818Y-44671221D01*
X89572821Y-44671228D01*
X89667467Y-44835160D01*
X89719123Y-44892530D01*
X89749352Y-44955519D01*
X89740727Y-45024854D01*
X89695986Y-45078520D01*
X89629333Y-45099478D01*
X89626972Y-45099500D01*
X89602410Y-45099500D01*
X89569953Y-45106398D01*
X89417253Y-45138855D01*
X89417248Y-45138857D01*
X89244326Y-45215848D01*
X89244321Y-45215851D01*
X89091185Y-45327111D01*
X88964522Y-45467785D01*
X88869877Y-45631715D01*
X88869874Y-45631722D01*
X88811383Y-45811740D01*
X88811382Y-45811744D01*
X88800131Y-45918792D01*
X88797935Y-45939690D01*
X88771350Y-46004304D01*
X88714053Y-46044289D01*
X88644234Y-46046949D01*
X88601729Y-46027046D01*
X88452734Y-45918795D01*
X88452729Y-45918792D01*
X88279807Y-45841801D01*
X88279802Y-45841799D01*
X88134001Y-45810809D01*
X88094646Y-45802444D01*
X87905354Y-45802444D01*
X87872897Y-45809342D01*
X87720197Y-45841799D01*
X87720192Y-45841801D01*
X87547271Y-45918792D01*
X87398270Y-46027047D01*
X87332463Y-46050526D01*
X87264410Y-46034700D01*
X87215715Y-45984594D01*
X87202065Y-45939695D01*
X87188618Y-45811744D01*
X87130123Y-45631716D01*
X87035477Y-45467784D01*
X86908815Y-45327112D01*
X86908814Y-45327111D01*
X86755678Y-45215851D01*
X86755673Y-45215848D01*
X86582751Y-45138857D01*
X86582746Y-45138855D01*
X86436945Y-45107865D01*
X86397590Y-45099500D01*
X86373028Y-45099500D01*
X86305989Y-45079815D01*
X86260234Y-45027011D01*
X86250290Y-44957853D01*
X86279315Y-44894297D01*
X86280808Y-44892606D01*
X86332533Y-44835160D01*
X86427179Y-44671228D01*
X86485674Y-44491200D01*
X86505460Y-44302944D01*
X86485674Y-44114688D01*
X86427179Y-43934660D01*
X86332533Y-43770728D01*
X86280876Y-43713357D01*
X86250648Y-43650369D01*
X86259273Y-43581034D01*
X86304014Y-43527368D01*
X86370667Y-43506410D01*
X86373028Y-43506388D01*
X86397588Y-43506388D01*
X86397590Y-43506388D01*
X86582747Y-43467032D01*
X86755674Y-43390039D01*
X86908815Y-43278776D01*
X87035477Y-43138104D01*
X87130123Y-42974172D01*
X87188618Y-42794144D01*
X87202065Y-42666193D01*
X87228648Y-42601584D01*
X87285945Y-42561598D01*
X87355764Y-42558938D01*
X87398270Y-42578841D01*
X87547265Y-42687092D01*
X87547270Y-42687095D01*
X87720192Y-42764086D01*
X87720197Y-42764088D01*
X87905354Y-42803444D01*
X87905355Y-42803444D01*
X88094644Y-42803444D01*
X88094646Y-42803444D01*
X88279803Y-42764088D01*
X88452730Y-42687095D01*
X88601730Y-42578839D01*
X88667535Y-42555361D01*
X88735589Y-42571186D01*
G37*
G04 #@! TD.AperFunction*
G04 #@! TA.AperFunction,Conductor*
G36*
X134985589Y-42518242D02*
G01*
X135034284Y-42568348D01*
X135047934Y-42613250D01*
X135061382Y-42741200D01*
X135061383Y-42741203D01*
X135119874Y-42921221D01*
X135119877Y-42921228D01*
X135214523Y-43085160D01*
X135322895Y-43205519D01*
X135341185Y-43225832D01*
X135494321Y-43337092D01*
X135494326Y-43337095D01*
X135667248Y-43414086D01*
X135667253Y-43414088D01*
X135852410Y-43453444D01*
X135852411Y-43453444D01*
X135876972Y-43453444D01*
X135944011Y-43473129D01*
X135989766Y-43525933D01*
X135999710Y-43595091D01*
X135970685Y-43658647D01*
X135969191Y-43660337D01*
X135917467Y-43717784D01*
X135917465Y-43717785D01*
X135917464Y-43717788D01*
X135822821Y-43881715D01*
X135822818Y-43881722D01*
X135764327Y-44061740D01*
X135764326Y-44061744D01*
X135744540Y-44250000D01*
X135764326Y-44438256D01*
X135764327Y-44438259D01*
X135822818Y-44618277D01*
X135822821Y-44618284D01*
X135917467Y-44782216D01*
X135969123Y-44839586D01*
X135999352Y-44902575D01*
X135990727Y-44971910D01*
X135945986Y-45025576D01*
X135879333Y-45046534D01*
X135876972Y-45046556D01*
X135852410Y-45046556D01*
X135819953Y-45053454D01*
X135667253Y-45085911D01*
X135667248Y-45085913D01*
X135494326Y-45162904D01*
X135494321Y-45162907D01*
X135341185Y-45274167D01*
X135214522Y-45414841D01*
X135119877Y-45578771D01*
X135119874Y-45578778D01*
X135064241Y-45750000D01*
X135061382Y-45758800D01*
X135050131Y-45865848D01*
X135047935Y-45886746D01*
X135021350Y-45951360D01*
X134964053Y-45991345D01*
X134894234Y-45994005D01*
X134851729Y-45974102D01*
X134702734Y-45865851D01*
X134702729Y-45865848D01*
X134529807Y-45788857D01*
X134529802Y-45788855D01*
X134384001Y-45757865D01*
X134344646Y-45749500D01*
X134155354Y-45749500D01*
X134122897Y-45756398D01*
X133970197Y-45788855D01*
X133970192Y-45788857D01*
X133797271Y-45865848D01*
X133648270Y-45974103D01*
X133582463Y-45997582D01*
X133514410Y-45981756D01*
X133465715Y-45931650D01*
X133452065Y-45886751D01*
X133438618Y-45758800D01*
X133380123Y-45578772D01*
X133285477Y-45414840D01*
X133158815Y-45274168D01*
X133158814Y-45274167D01*
X133005678Y-45162907D01*
X133005673Y-45162904D01*
X132832751Y-45085913D01*
X132832746Y-45085911D01*
X132686945Y-45054921D01*
X132647590Y-45046556D01*
X132623028Y-45046556D01*
X132555989Y-45026871D01*
X132510234Y-44974067D01*
X132500290Y-44904909D01*
X132529315Y-44841353D01*
X132530808Y-44839662D01*
X132582533Y-44782216D01*
X132677179Y-44618284D01*
X132735674Y-44438256D01*
X132755460Y-44250000D01*
X132735674Y-44061744D01*
X132677179Y-43881716D01*
X132582533Y-43717784D01*
X132530876Y-43660413D01*
X132500648Y-43597425D01*
X132509273Y-43528090D01*
X132554014Y-43474424D01*
X132620667Y-43453466D01*
X132623028Y-43453444D01*
X132647588Y-43453444D01*
X132647590Y-43453444D01*
X132832747Y-43414088D01*
X133005674Y-43337095D01*
X133158815Y-43225832D01*
X133285477Y-43085160D01*
X133380123Y-42921228D01*
X133438618Y-42741200D01*
X133452065Y-42613249D01*
X133478648Y-42548640D01*
X133535945Y-42508654D01*
X133605764Y-42505994D01*
X133648270Y-42525897D01*
X133797265Y-42634148D01*
X133797270Y-42634151D01*
X133970192Y-42711142D01*
X133970197Y-42711144D01*
X134155354Y-42750500D01*
X134155355Y-42750500D01*
X134344644Y-42750500D01*
X134344646Y-42750500D01*
X134529803Y-42711144D01*
X134702730Y-42634151D01*
X134851730Y-42525895D01*
X134917535Y-42502417D01*
X134985589Y-42518242D01*
G37*
G04 #@! TD.AperFunction*
G04 #@! TA.AperFunction,Conductor*
G36*
X63010507Y-43459844D02*
G01*
X63088239Y-43580798D01*
X63196900Y-43674952D01*
X63327685Y-43734680D01*
X63337466Y-43736086D01*
X62777555Y-44295996D01*
X62840604Y-44340143D01*
X62840606Y-44340144D01*
X62942413Y-44387618D01*
X62994852Y-44433791D01*
X63014004Y-44500984D01*
X62993788Y-44567865D01*
X62942413Y-44612382D01*
X62840602Y-44659857D01*
X62777555Y-44704001D01*
X63337467Y-45263913D01*
X63327685Y-45265320D01*
X63196900Y-45325048D01*
X63088239Y-45419202D01*
X63010507Y-45540156D01*
X62986922Y-45620476D01*
X62424001Y-45057555D01*
X62379858Y-45120600D01*
X62332657Y-45221822D01*
X62286484Y-45274261D01*
X62219290Y-45293412D01*
X62152409Y-45273196D01*
X62107893Y-45221820D01*
X62080971Y-45164086D01*
X62060579Y-45120354D01*
X62060577Y-45120351D01*
X62060576Y-45120349D01*
X61934677Y-44940547D01*
X61934672Y-44940541D01*
X61779458Y-44785327D01*
X61779452Y-44785322D01*
X61599650Y-44659423D01*
X61599642Y-44659419D01*
X61498770Y-44612382D01*
X61446330Y-44566210D01*
X61427178Y-44499017D01*
X61447393Y-44432135D01*
X61498770Y-44387618D01*
X61506860Y-44383845D01*
X61599646Y-44340579D01*
X61779457Y-44214674D01*
X61934674Y-44059457D01*
X62060579Y-43879646D01*
X62107895Y-43778175D01*
X62154064Y-43725740D01*
X62221258Y-43706587D01*
X62288139Y-43726802D01*
X62332657Y-43778177D01*
X62379857Y-43879396D01*
X62424002Y-43942442D01*
X62424003Y-43942443D01*
X62986922Y-43379523D01*
X63010507Y-43459844D01*
G37*
G04 #@! TD.AperFunction*
G04 #@! TA.AperFunction,Conductor*
G36*
X59929203Y-43957246D02*
G01*
X59949574Y-43979834D01*
X59966448Y-44003934D01*
X60005322Y-44059452D01*
X60005327Y-44059458D01*
X60160541Y-44214672D01*
X60160547Y-44214677D01*
X60340349Y-44340576D01*
X60340351Y-44340577D01*
X60340354Y-44340579D01*
X60384555Y-44361190D01*
X60441230Y-44387618D01*
X60493669Y-44433790D01*
X60512821Y-44500984D01*
X60492605Y-44567865D01*
X60441230Y-44612382D01*
X60340353Y-44659421D01*
X60340349Y-44659423D01*
X60160547Y-44785322D01*
X60160541Y-44785327D01*
X60005327Y-44940541D01*
X60005322Y-44940547D01*
X59879423Y-45120349D01*
X59879421Y-45120353D01*
X59832106Y-45221821D01*
X59785933Y-45274260D01*
X59718740Y-45293412D01*
X59651859Y-45273196D01*
X59607342Y-45221821D01*
X59560144Y-45120606D01*
X59560143Y-45120604D01*
X59515996Y-45057556D01*
X59515996Y-45057555D01*
X58953076Y-45620475D01*
X58929493Y-45540156D01*
X58851761Y-45419202D01*
X58743100Y-45325048D01*
X58612315Y-45265320D01*
X58602533Y-45263913D01*
X59162443Y-44704003D01*
X59160466Y-44681411D01*
X59155341Y-44675000D01*
X59148146Y-44605502D01*
X59179667Y-44543147D01*
X59239896Y-44507732D01*
X59268521Y-44504193D01*
X59268521Y-44504177D01*
X59268759Y-44504164D01*
X59270088Y-44504000D01*
X59271828Y-44504000D01*
X59271844Y-44503999D01*
X59331372Y-44497598D01*
X59331379Y-44497596D01*
X59466086Y-44447354D01*
X59466093Y-44447350D01*
X59581187Y-44361190D01*
X59581190Y-44361187D01*
X59667350Y-44246093D01*
X59667354Y-44246086D01*
X59717596Y-44111379D01*
X59717598Y-44111372D01*
X59723999Y-44051844D01*
X59724000Y-44051827D01*
X59724000Y-44050959D01*
X59724056Y-44050765D01*
X59724177Y-44048521D01*
X59724355Y-44048530D01*
X59724356Y-44048525D01*
X59724459Y-44048536D01*
X59724707Y-44048549D01*
X59743685Y-43983920D01*
X59796489Y-43938165D01*
X59865647Y-43928221D01*
X59929203Y-43957246D01*
G37*
G04 #@! TD.AperFunction*
G04 #@! TA.AperFunction,Conductor*
G36*
X56335589Y-27568242D02*
G01*
X56384284Y-27618348D01*
X56397934Y-27663250D01*
X56411382Y-27791200D01*
X56411383Y-27791203D01*
X56469874Y-27971221D01*
X56469877Y-27971228D01*
X56564523Y-28135160D01*
X56637175Y-28215848D01*
X56691185Y-28275832D01*
X56844321Y-28387092D01*
X56844326Y-28387095D01*
X57017248Y-28464086D01*
X57017253Y-28464088D01*
X57202410Y-28503444D01*
X57202411Y-28503444D01*
X57226972Y-28503444D01*
X57294011Y-28523129D01*
X57339766Y-28575933D01*
X57349710Y-28645091D01*
X57320685Y-28708647D01*
X57319191Y-28710337D01*
X57267467Y-28767784D01*
X57267465Y-28767785D01*
X57267464Y-28767788D01*
X57172821Y-28931715D01*
X57172818Y-28931722D01*
X57114327Y-29111740D01*
X57114326Y-29111744D01*
X57094540Y-29300000D01*
X57114326Y-29488256D01*
X57114327Y-29488259D01*
X57172818Y-29668277D01*
X57172821Y-29668284D01*
X57267467Y-29832216D01*
X57319123Y-29889586D01*
X57349352Y-29952575D01*
X57340727Y-30021910D01*
X57295986Y-30075576D01*
X57229333Y-30096534D01*
X57226972Y-30096556D01*
X57202410Y-30096556D01*
X57169953Y-30103454D01*
X57017253Y-30135911D01*
X57017248Y-30135913D01*
X56844326Y-30212904D01*
X56844321Y-30212907D01*
X56691185Y-30324167D01*
X56564522Y-30464841D01*
X56469877Y-30628771D01*
X56469874Y-30628778D01*
X56411383Y-30808796D01*
X56411382Y-30808800D01*
X56403031Y-30888256D01*
X56397935Y-30936746D01*
X56371350Y-31001360D01*
X56314053Y-31041345D01*
X56244234Y-31044005D01*
X56201729Y-31024102D01*
X56052734Y-30915851D01*
X56052729Y-30915848D01*
X55879807Y-30838857D01*
X55879802Y-30838855D01*
X55734001Y-30807865D01*
X55694646Y-30799500D01*
X55505354Y-30799500D01*
X55472897Y-30806398D01*
X55320197Y-30838855D01*
X55320192Y-30838857D01*
X55147271Y-30915848D01*
X54998270Y-31024103D01*
X54932463Y-31047582D01*
X54864410Y-31031756D01*
X54815715Y-30981650D01*
X54802065Y-30936751D01*
X54788618Y-30808800D01*
X54730123Y-30628772D01*
X54635477Y-30464840D01*
X54508815Y-30324168D01*
X54441342Y-30275146D01*
X54355678Y-30212907D01*
X54355673Y-30212904D01*
X54182751Y-30135913D01*
X54182746Y-30135911D01*
X54036945Y-30104921D01*
X53997590Y-30096556D01*
X53973028Y-30096556D01*
X53905989Y-30076871D01*
X53860234Y-30024067D01*
X53850290Y-29954909D01*
X53879315Y-29891353D01*
X53880808Y-29889662D01*
X53932533Y-29832216D01*
X54027179Y-29668284D01*
X54085674Y-29488256D01*
X54105460Y-29300000D01*
X54085674Y-29111744D01*
X54027179Y-28931716D01*
X53932533Y-28767784D01*
X53880876Y-28710413D01*
X53850648Y-28647425D01*
X53859273Y-28578090D01*
X53904014Y-28524424D01*
X53970667Y-28503466D01*
X53973028Y-28503444D01*
X53997588Y-28503444D01*
X53997590Y-28503444D01*
X54182747Y-28464088D01*
X54355674Y-28387095D01*
X54508815Y-28275832D01*
X54635477Y-28135160D01*
X54730123Y-27971228D01*
X54788618Y-27791200D01*
X54802065Y-27663249D01*
X54828648Y-27598640D01*
X54885945Y-27558654D01*
X54955764Y-27555994D01*
X54998270Y-27575897D01*
X55147265Y-27684148D01*
X55147270Y-27684151D01*
X55320192Y-27761142D01*
X55320197Y-27761144D01*
X55505354Y-27800500D01*
X55505355Y-27800500D01*
X55694644Y-27800500D01*
X55694646Y-27800500D01*
X55879803Y-27761144D01*
X56052730Y-27684151D01*
X56201730Y-27575895D01*
X56267535Y-27552417D01*
X56335589Y-27568242D01*
G37*
G04 #@! TD.AperFunction*
G04 #@! TA.AperFunction,Conductor*
G36*
X88738533Y-27271186D02*
G01*
X88787228Y-27321292D01*
X88800878Y-27366194D01*
X88814326Y-27494144D01*
X88814327Y-27494147D01*
X88872818Y-27674165D01*
X88872821Y-27674172D01*
X88967467Y-27838104D01*
X89091478Y-27975832D01*
X89094129Y-27978776D01*
X89247265Y-28090036D01*
X89247270Y-28090039D01*
X89420192Y-28167030D01*
X89420197Y-28167032D01*
X89605354Y-28206388D01*
X89605355Y-28206388D01*
X89629916Y-28206388D01*
X89696955Y-28226073D01*
X89742710Y-28278877D01*
X89752654Y-28348035D01*
X89723629Y-28411591D01*
X89722135Y-28413281D01*
X89670411Y-28470728D01*
X89670409Y-28470729D01*
X89670408Y-28470732D01*
X89575765Y-28634659D01*
X89575762Y-28634666D01*
X89517271Y-28814684D01*
X89517270Y-28814688D01*
X89497484Y-29002944D01*
X89517270Y-29191200D01*
X89517271Y-29191203D01*
X89575762Y-29371221D01*
X89575765Y-29371228D01*
X89670411Y-29535160D01*
X89722067Y-29592530D01*
X89752296Y-29655519D01*
X89743671Y-29724854D01*
X89698930Y-29778520D01*
X89632277Y-29799478D01*
X89629916Y-29799500D01*
X89605354Y-29799500D01*
X89572897Y-29806398D01*
X89420197Y-29838855D01*
X89420192Y-29838857D01*
X89247270Y-29915848D01*
X89247265Y-29915851D01*
X89094129Y-30027111D01*
X88967466Y-30167785D01*
X88872821Y-30331715D01*
X88872818Y-30331722D01*
X88814327Y-30511740D01*
X88814326Y-30511744D01*
X88801188Y-30636746D01*
X88800879Y-30639690D01*
X88774294Y-30704304D01*
X88716997Y-30744289D01*
X88647178Y-30746949D01*
X88604673Y-30727046D01*
X88455678Y-30618795D01*
X88455673Y-30618792D01*
X88282751Y-30541801D01*
X88282746Y-30541799D01*
X88127474Y-30508796D01*
X88097590Y-30502444D01*
X87908298Y-30502444D01*
X87878414Y-30508796D01*
X87723141Y-30541799D01*
X87723136Y-30541801D01*
X87550215Y-30618792D01*
X87401214Y-30727047D01*
X87335407Y-30750526D01*
X87267354Y-30734700D01*
X87218659Y-30684594D01*
X87205009Y-30639695D01*
X87191562Y-30511744D01*
X87133067Y-30331716D01*
X87038421Y-30167784D01*
X86911759Y-30027112D01*
X86844286Y-29978090D01*
X86758622Y-29915851D01*
X86758617Y-29915848D01*
X86585695Y-29838857D01*
X86585690Y-29838855D01*
X86439889Y-29807865D01*
X86400534Y-29799500D01*
X86375972Y-29799500D01*
X86308933Y-29779815D01*
X86263178Y-29727011D01*
X86253234Y-29657853D01*
X86282259Y-29594297D01*
X86283752Y-29592606D01*
X86335477Y-29535160D01*
X86430123Y-29371228D01*
X86488618Y-29191200D01*
X86508404Y-29002944D01*
X86488618Y-28814688D01*
X86430123Y-28634660D01*
X86335477Y-28470728D01*
X86283820Y-28413357D01*
X86253592Y-28350369D01*
X86262217Y-28281034D01*
X86306958Y-28227368D01*
X86373611Y-28206410D01*
X86375972Y-28206388D01*
X86400532Y-28206388D01*
X86400534Y-28206388D01*
X86585691Y-28167032D01*
X86758618Y-28090039D01*
X86911759Y-27978776D01*
X87038421Y-27838104D01*
X87133067Y-27674172D01*
X87191562Y-27494144D01*
X87205009Y-27366193D01*
X87231592Y-27301584D01*
X87288889Y-27261598D01*
X87358708Y-27258938D01*
X87401214Y-27278841D01*
X87550209Y-27387092D01*
X87550214Y-27387095D01*
X87723136Y-27464086D01*
X87723141Y-27464088D01*
X87908298Y-27503444D01*
X87908299Y-27503444D01*
X88097588Y-27503444D01*
X88097590Y-27503444D01*
X88282747Y-27464088D01*
X88455674Y-27387095D01*
X88604674Y-27278839D01*
X88670479Y-27255361D01*
X88738533Y-27271186D01*
G37*
G04 #@! TD.AperFunction*
G04 #@! TA.AperFunction,Conductor*
G36*
X129735589Y-27268242D02*
G01*
X129784284Y-27318348D01*
X129797934Y-27363250D01*
X129811382Y-27491200D01*
X129811383Y-27491203D01*
X129869874Y-27671221D01*
X129869877Y-27671228D01*
X129964523Y-27835160D01*
X130072895Y-27955519D01*
X130091185Y-27975832D01*
X130244321Y-28087092D01*
X130244326Y-28087095D01*
X130417248Y-28164086D01*
X130417253Y-28164088D01*
X130602410Y-28203444D01*
X130602411Y-28203444D01*
X130626972Y-28203444D01*
X130694011Y-28223129D01*
X130739766Y-28275933D01*
X130749710Y-28345091D01*
X130720685Y-28408647D01*
X130719191Y-28410337D01*
X130667467Y-28467784D01*
X130667465Y-28467785D01*
X130667464Y-28467788D01*
X130572821Y-28631715D01*
X130572818Y-28631722D01*
X130514756Y-28810421D01*
X130514326Y-28811744D01*
X130494540Y-29000000D01*
X130514326Y-29188256D01*
X130514327Y-29188259D01*
X130572818Y-29368277D01*
X130572821Y-29368284D01*
X130667467Y-29532216D01*
X130719123Y-29589586D01*
X130749352Y-29652575D01*
X130740727Y-29721910D01*
X130695986Y-29775576D01*
X130629333Y-29796534D01*
X130626972Y-29796556D01*
X130602410Y-29796556D01*
X130569953Y-29803454D01*
X130417253Y-29835911D01*
X130417248Y-29835913D01*
X130244326Y-29912904D01*
X130244321Y-29912907D01*
X130091185Y-30024167D01*
X129964522Y-30164841D01*
X129869877Y-30328771D01*
X129869874Y-30328778D01*
X129813447Y-30502444D01*
X129811382Y-30508800D01*
X129798773Y-30628771D01*
X129797935Y-30636746D01*
X129771350Y-30701360D01*
X129714053Y-30741345D01*
X129644234Y-30744005D01*
X129601729Y-30724102D01*
X129452734Y-30615851D01*
X129452729Y-30615848D01*
X129279807Y-30538857D01*
X129279802Y-30538855D01*
X129134001Y-30507865D01*
X129094646Y-30499500D01*
X128905354Y-30499500D01*
X128872897Y-30506398D01*
X128720197Y-30538855D01*
X128720192Y-30538857D01*
X128547271Y-30615848D01*
X128398270Y-30724103D01*
X128332463Y-30747582D01*
X128264410Y-30731756D01*
X128215715Y-30681650D01*
X128202065Y-30636751D01*
X128188618Y-30508800D01*
X128130123Y-30328772D01*
X128035477Y-30164840D01*
X127908815Y-30024168D01*
X127908676Y-30024067D01*
X127755678Y-29912907D01*
X127755673Y-29912904D01*
X127582751Y-29835913D01*
X127582746Y-29835911D01*
X127436945Y-29804921D01*
X127397590Y-29796556D01*
X127373028Y-29796556D01*
X127305989Y-29776871D01*
X127260234Y-29724067D01*
X127250290Y-29654909D01*
X127279315Y-29591353D01*
X127280808Y-29589662D01*
X127332533Y-29532216D01*
X127427179Y-29368284D01*
X127485674Y-29188256D01*
X127505460Y-29000000D01*
X127485674Y-28811744D01*
X127427179Y-28631716D01*
X127332533Y-28467784D01*
X127280876Y-28410413D01*
X127250648Y-28347425D01*
X127259273Y-28278090D01*
X127304014Y-28224424D01*
X127370667Y-28203466D01*
X127373028Y-28203444D01*
X127397588Y-28203444D01*
X127397590Y-28203444D01*
X127582747Y-28164088D01*
X127755674Y-28087095D01*
X127908815Y-27975832D01*
X128035477Y-27835160D01*
X128130123Y-27671228D01*
X128188618Y-27491200D01*
X128202065Y-27363249D01*
X128228648Y-27298640D01*
X128285945Y-27258654D01*
X128355764Y-27255994D01*
X128398270Y-27275897D01*
X128547265Y-27384148D01*
X128547270Y-27384151D01*
X128720192Y-27461142D01*
X128720197Y-27461144D01*
X128905354Y-27500500D01*
X128905355Y-27500500D01*
X129094644Y-27500500D01*
X129094646Y-27500500D01*
X129279803Y-27461144D01*
X129452730Y-27384151D01*
X129601730Y-27275895D01*
X129667535Y-27252417D01*
X129735589Y-27268242D01*
G37*
G04 #@! TD.AperFunction*
G04 #@! TA.AperFunction,Conductor*
G36*
X137667426Y-25009493D02*
G01*
X137870173Y-25018345D01*
X137875108Y-25018759D01*
X138092439Y-25045850D01*
X138295760Y-25072618D01*
X138300351Y-25073401D01*
X138514323Y-25118266D01*
X138687715Y-25156706D01*
X138715149Y-25162789D01*
X138719404Y-25163892D01*
X138928881Y-25226256D01*
X139125363Y-25288207D01*
X139129169Y-25289547D01*
X139332887Y-25369039D01*
X139523395Y-25447950D01*
X139526881Y-25449523D01*
X139645735Y-25507627D01*
X139723320Y-25545556D01*
X139906428Y-25640875D01*
X139909525Y-25642603D01*
X140097453Y-25754583D01*
X140271689Y-25865584D01*
X140274404Y-25867416D01*
X140452532Y-25994597D01*
X140616586Y-26120480D01*
X140618870Y-26122323D01*
X140730174Y-26216592D01*
X140785985Y-26263862D01*
X140939533Y-26404562D01*
X141095436Y-26560465D01*
X141225536Y-26702444D01*
X141236134Y-26714010D01*
X141324882Y-26818795D01*
X141377661Y-26881110D01*
X141379526Y-26883423D01*
X141413000Y-26927046D01*
X141505402Y-27047467D01*
X141632582Y-27225594D01*
X141634414Y-27228309D01*
X141745416Y-27402546D01*
X141857395Y-27590473D01*
X141859129Y-27593582D01*
X141954443Y-27776679D01*
X142050472Y-27973108D01*
X142052052Y-27976613D01*
X142130967Y-28167128D01*
X142210438Y-28370796D01*
X142211803Y-28374670D01*
X142273753Y-28571151D01*
X142336101Y-28780577D01*
X142337209Y-28784849D01*
X142381745Y-28985729D01*
X142426595Y-29199637D01*
X142427384Y-29204269D01*
X142454161Y-29407652D01*
X142481237Y-29624874D01*
X142481654Y-29629840D01*
X142490508Y-29832618D01*
X142499500Y-30050001D01*
X142499500Y-89949999D01*
X142490508Y-90167381D01*
X142481654Y-90370158D01*
X142481237Y-90375124D01*
X142454161Y-90592347D01*
X142427384Y-90795729D01*
X142426595Y-90800361D01*
X142381745Y-91014270D01*
X142337209Y-91215149D01*
X142336101Y-91219421D01*
X142273753Y-91428848D01*
X142211803Y-91625328D01*
X142210431Y-91629223D01*
X142130967Y-91832871D01*
X142052054Y-92023380D01*
X142050474Y-92026884D01*
X141954449Y-92223310D01*
X141859124Y-92406424D01*
X141857391Y-92409532D01*
X141745419Y-92597448D01*
X141634407Y-92771699D01*
X141632576Y-92774413D01*
X141505399Y-92952537D01*
X141379542Y-93116553D01*
X141377666Y-93118880D01*
X141236132Y-93285992D01*
X141095439Y-93439531D01*
X140939524Y-93595446D01*
X140786003Y-93736123D01*
X140618867Y-93877678D01*
X140616540Y-93879555D01*
X140452542Y-94005395D01*
X140274396Y-94132588D01*
X140271681Y-94134420D01*
X140097469Y-94245406D01*
X139909531Y-94357394D01*
X139906422Y-94359127D01*
X139723340Y-94454434D01*
X139526878Y-94550477D01*
X139523374Y-94552057D01*
X139332866Y-94630969D01*
X139129226Y-94710429D01*
X139125332Y-94711801D01*
X138928880Y-94773743D01*
X138719401Y-94836107D01*
X138715129Y-94837215D01*
X138514262Y-94881747D01*
X138300372Y-94926594D01*
X138295739Y-94927384D01*
X138092258Y-94954172D01*
X137875123Y-94981237D01*
X137870157Y-94981654D01*
X137667380Y-94990508D01*
X137449998Y-94999500D01*
X46550001Y-94999500D01*
X46332618Y-94990508D01*
X46129840Y-94981654D01*
X46124874Y-94981237D01*
X45907652Y-94954161D01*
X45704269Y-94927384D01*
X45699637Y-94926595D01*
X45485742Y-94881747D01*
X45468714Y-94877972D01*
X45284849Y-94837209D01*
X45280577Y-94836101D01*
X45071151Y-94773753D01*
X45071119Y-94773743D01*
X44874670Y-94711803D01*
X44870796Y-94710438D01*
X44667128Y-94630967D01*
X44476613Y-94552052D01*
X44473115Y-94550475D01*
X44351872Y-94491203D01*
X44276679Y-94454443D01*
X44093582Y-94359129D01*
X44090473Y-94357395D01*
X43902546Y-94245416D01*
X43728309Y-94134414D01*
X43725594Y-94132582D01*
X43547467Y-94005402D01*
X43452086Y-93932214D01*
X43383423Y-93879526D01*
X43381110Y-93877661D01*
X43297977Y-93807251D01*
X43214010Y-93736134D01*
X43213998Y-93736123D01*
X43060465Y-93595436D01*
X42904560Y-93439531D01*
X42763862Y-93285985D01*
X42700983Y-93211744D01*
X42622323Y-93118870D01*
X42620480Y-93116586D01*
X42494597Y-92952532D01*
X42367416Y-92774404D01*
X42365584Y-92771689D01*
X42254583Y-92597453D01*
X42142603Y-92409525D01*
X42140875Y-92406428D01*
X42045551Y-92223310D01*
X41988922Y-92107473D01*
X41949523Y-92026881D01*
X41947946Y-92023385D01*
X41927965Y-91975146D01*
X41869039Y-91832887D01*
X41789547Y-91629169D01*
X41788207Y-91625363D01*
X41726256Y-91428881D01*
X41663892Y-91219404D01*
X41662789Y-91215149D01*
X41656706Y-91187715D01*
X41618266Y-91014323D01*
X41615263Y-91000000D01*
X52294540Y-91000000D01*
X52314326Y-91188256D01*
X52314327Y-91188259D01*
X52372818Y-91368277D01*
X52372821Y-91368284D01*
X52467467Y-91532216D01*
X52551306Y-91625328D01*
X52594129Y-91672888D01*
X52747265Y-91784148D01*
X52747270Y-91784151D01*
X52920192Y-91861142D01*
X52920197Y-91861144D01*
X53105354Y-91900500D01*
X53105355Y-91900500D01*
X53129916Y-91900500D01*
X53196955Y-91920185D01*
X53242710Y-91972989D01*
X53252654Y-92042147D01*
X53223629Y-92105703D01*
X53222135Y-92107393D01*
X53170411Y-92164840D01*
X53170409Y-92164841D01*
X53170408Y-92164844D01*
X53075765Y-92328771D01*
X53075762Y-92328778D01*
X53019335Y-92502444D01*
X53017270Y-92508800D01*
X52997484Y-92697056D01*
X53017270Y-92885312D01*
X53017271Y-92885315D01*
X53075762Y-93065333D01*
X53075765Y-93065340D01*
X53170411Y-93229272D01*
X53278641Y-93349473D01*
X53297073Y-93369944D01*
X53450209Y-93481204D01*
X53450214Y-93481207D01*
X53623136Y-93558198D01*
X53623141Y-93558200D01*
X53808298Y-93597556D01*
X53808299Y-93597556D01*
X53997588Y-93597556D01*
X53997590Y-93597556D01*
X54182747Y-93558200D01*
X54355674Y-93481207D01*
X54504674Y-93372951D01*
X54570479Y-93349473D01*
X54638533Y-93365298D01*
X54687228Y-93415404D01*
X54700878Y-93460306D01*
X54714326Y-93588256D01*
X54714327Y-93588259D01*
X54772818Y-93768277D01*
X54772821Y-93768284D01*
X54867467Y-93932216D01*
X54985997Y-94063857D01*
X54994129Y-94072888D01*
X55147265Y-94184148D01*
X55147270Y-94184151D01*
X55320192Y-94261142D01*
X55320197Y-94261144D01*
X55505354Y-94300500D01*
X55505355Y-94300500D01*
X55694644Y-94300500D01*
X55694646Y-94300500D01*
X55879803Y-94261144D01*
X56052730Y-94184151D01*
X56205871Y-94072888D01*
X56332533Y-93932216D01*
X56427179Y-93768284D01*
X56485674Y-93588256D01*
X56499121Y-93460305D01*
X56525704Y-93395696D01*
X56583001Y-93355710D01*
X56652820Y-93353050D01*
X56695326Y-93372953D01*
X56844321Y-93481204D01*
X56844326Y-93481207D01*
X57017248Y-93558198D01*
X57017253Y-93558200D01*
X57202410Y-93597556D01*
X57202411Y-93597556D01*
X57391700Y-93597556D01*
X57391702Y-93597556D01*
X57576859Y-93558200D01*
X57749786Y-93481207D01*
X57902927Y-93369944D01*
X58029589Y-93229272D01*
X58124235Y-93065340D01*
X58182730Y-92885312D01*
X58202516Y-92697056D01*
X58182730Y-92508800D01*
X58124235Y-92328772D01*
X58029589Y-92164840D01*
X57977932Y-92107469D01*
X57947704Y-92044481D01*
X57956329Y-91975146D01*
X58001070Y-91921480D01*
X58067723Y-91900522D01*
X58070084Y-91900500D01*
X58094644Y-91900500D01*
X58094646Y-91900500D01*
X58279803Y-91861144D01*
X58452730Y-91784151D01*
X58605871Y-91672888D01*
X58732533Y-91532216D01*
X58827179Y-91368284D01*
X58885674Y-91188256D01*
X58905151Y-91002944D01*
X84697484Y-91002944D01*
X84717270Y-91191200D01*
X84717271Y-91191203D01*
X84775762Y-91371221D01*
X84775765Y-91371228D01*
X84870411Y-91535160D01*
X84955106Y-91629223D01*
X84997073Y-91675832D01*
X85150209Y-91787092D01*
X85150214Y-91787095D01*
X85323136Y-91864086D01*
X85323141Y-91864088D01*
X85508298Y-91903444D01*
X85508299Y-91903444D01*
X85532860Y-91903444D01*
X85599899Y-91923129D01*
X85645654Y-91975933D01*
X85655598Y-92045091D01*
X85626573Y-92108647D01*
X85625079Y-92110337D01*
X85573355Y-92167784D01*
X85573353Y-92167785D01*
X85573352Y-92167788D01*
X85478709Y-92331715D01*
X85478706Y-92331722D01*
X85420215Y-92511740D01*
X85420214Y-92511744D01*
X85400428Y-92700000D01*
X85420214Y-92888256D01*
X85420215Y-92888259D01*
X85478706Y-93068277D01*
X85478709Y-93068284D01*
X85573355Y-93232216D01*
X85678934Y-93349473D01*
X85700017Y-93372888D01*
X85853153Y-93484148D01*
X85853158Y-93484151D01*
X86026080Y-93561142D01*
X86026085Y-93561144D01*
X86211242Y-93600500D01*
X86211243Y-93600500D01*
X86400532Y-93600500D01*
X86400534Y-93600500D01*
X86585691Y-93561144D01*
X86758618Y-93484151D01*
X86907618Y-93375895D01*
X86973423Y-93352417D01*
X87041477Y-93368242D01*
X87090172Y-93418348D01*
X87103822Y-93463250D01*
X87117270Y-93591200D01*
X87117271Y-93591203D01*
X87175762Y-93771221D01*
X87175765Y-93771228D01*
X87270411Y-93935160D01*
X87386291Y-94063857D01*
X87397073Y-94075832D01*
X87550209Y-94187092D01*
X87550214Y-94187095D01*
X87723136Y-94264086D01*
X87723141Y-94264088D01*
X87908298Y-94303444D01*
X87908299Y-94303444D01*
X88097588Y-94303444D01*
X88097590Y-94303444D01*
X88282747Y-94264088D01*
X88455674Y-94187095D01*
X88608815Y-94075832D01*
X88735477Y-93935160D01*
X88830123Y-93771228D01*
X88888618Y-93591200D01*
X88902065Y-93463249D01*
X88928648Y-93398640D01*
X88985945Y-93358654D01*
X89055764Y-93355994D01*
X89098270Y-93375897D01*
X89247265Y-93484148D01*
X89247270Y-93484151D01*
X89420192Y-93561142D01*
X89420197Y-93561144D01*
X89605354Y-93600500D01*
X89605355Y-93600500D01*
X89794644Y-93600500D01*
X89794646Y-93600500D01*
X89979803Y-93561144D01*
X90152730Y-93484151D01*
X90305871Y-93372888D01*
X90432533Y-93232216D01*
X90527179Y-93068284D01*
X90585674Y-92888256D01*
X90605460Y-92700000D01*
X90585674Y-92511744D01*
X90527179Y-92331716D01*
X90432533Y-92167784D01*
X90380876Y-92110413D01*
X90350648Y-92047425D01*
X90359273Y-91978090D01*
X90404014Y-91924424D01*
X90470667Y-91903466D01*
X90473028Y-91903444D01*
X90497588Y-91903444D01*
X90497590Y-91903444D01*
X90682747Y-91864088D01*
X90855674Y-91787095D01*
X91008815Y-91675832D01*
X91135477Y-91535160D01*
X91230123Y-91371228D01*
X91288618Y-91191200D01*
X91308404Y-91002944D01*
X91308095Y-91000000D01*
X125694540Y-91000000D01*
X125714326Y-91188256D01*
X125714327Y-91188259D01*
X125772818Y-91368277D01*
X125772821Y-91368284D01*
X125867467Y-91532216D01*
X125951306Y-91625328D01*
X125994129Y-91672888D01*
X126147265Y-91784148D01*
X126147270Y-91784151D01*
X126320192Y-91861142D01*
X126320197Y-91861144D01*
X126505354Y-91900500D01*
X126505355Y-91900500D01*
X126529916Y-91900500D01*
X126596955Y-91920185D01*
X126642710Y-91972989D01*
X126652654Y-92042147D01*
X126623629Y-92105703D01*
X126622135Y-92107393D01*
X126570411Y-92164840D01*
X126570409Y-92164841D01*
X126570408Y-92164844D01*
X126475765Y-92328771D01*
X126475762Y-92328778D01*
X126419335Y-92502444D01*
X126417270Y-92508800D01*
X126397484Y-92697056D01*
X126417270Y-92885312D01*
X126417271Y-92885315D01*
X126475762Y-93065333D01*
X126475765Y-93065340D01*
X126570411Y-93229272D01*
X126678641Y-93349473D01*
X126697073Y-93369944D01*
X126850209Y-93481204D01*
X126850214Y-93481207D01*
X127023136Y-93558198D01*
X127023141Y-93558200D01*
X127208298Y-93597556D01*
X127208299Y-93597556D01*
X127397588Y-93597556D01*
X127397590Y-93597556D01*
X127582747Y-93558200D01*
X127755674Y-93481207D01*
X127904674Y-93372951D01*
X127970479Y-93349473D01*
X128038533Y-93365298D01*
X128087228Y-93415404D01*
X128100878Y-93460306D01*
X128114326Y-93588256D01*
X128114327Y-93588259D01*
X128172818Y-93768277D01*
X128172821Y-93768284D01*
X128267467Y-93932216D01*
X128385997Y-94063857D01*
X128394129Y-94072888D01*
X128547265Y-94184148D01*
X128547270Y-94184151D01*
X128720192Y-94261142D01*
X128720197Y-94261144D01*
X128905354Y-94300500D01*
X128905355Y-94300500D01*
X129094644Y-94300500D01*
X129094646Y-94300500D01*
X129279803Y-94261144D01*
X129452730Y-94184151D01*
X129605871Y-94072888D01*
X129732533Y-93932216D01*
X129827179Y-93768284D01*
X129885674Y-93588256D01*
X129899121Y-93460305D01*
X129925704Y-93395696D01*
X129983001Y-93355710D01*
X130052820Y-93353050D01*
X130095326Y-93372953D01*
X130244321Y-93481204D01*
X130244326Y-93481207D01*
X130417248Y-93558198D01*
X130417253Y-93558200D01*
X130602410Y-93597556D01*
X130602411Y-93597556D01*
X130791700Y-93597556D01*
X130791702Y-93597556D01*
X130976859Y-93558200D01*
X131149786Y-93481207D01*
X131302927Y-93369944D01*
X131429589Y-93229272D01*
X131524235Y-93065340D01*
X131582730Y-92885312D01*
X131602516Y-92697056D01*
X131582730Y-92508800D01*
X131524235Y-92328772D01*
X131429589Y-92164840D01*
X131377932Y-92107469D01*
X131347704Y-92044481D01*
X131356329Y-91975146D01*
X131401070Y-91921480D01*
X131467723Y-91900522D01*
X131470084Y-91900500D01*
X131494644Y-91900500D01*
X131494646Y-91900500D01*
X131679803Y-91861144D01*
X131852730Y-91784151D01*
X132005871Y-91672888D01*
X132132533Y-91532216D01*
X132227179Y-91368284D01*
X132285674Y-91188256D01*
X132305460Y-91000000D01*
X132285674Y-90811744D01*
X132227179Y-90631716D01*
X132132533Y-90467784D01*
X132005871Y-90327112D01*
X132005870Y-90327111D01*
X131852734Y-90215851D01*
X131852729Y-90215848D01*
X131679807Y-90138857D01*
X131679802Y-90138855D01*
X131534001Y-90107865D01*
X131494646Y-90099500D01*
X131470084Y-90099500D01*
X131403045Y-90079815D01*
X131357290Y-90027011D01*
X131347346Y-89957853D01*
X131376371Y-89894297D01*
X131377864Y-89892606D01*
X131429589Y-89835160D01*
X131524235Y-89671228D01*
X131582730Y-89491200D01*
X131602516Y-89302944D01*
X131582730Y-89114688D01*
X131524235Y-88934660D01*
X131429589Y-88770728D01*
X131302927Y-88630056D01*
X131302838Y-88629991D01*
X131149790Y-88518795D01*
X131149785Y-88518792D01*
X130976863Y-88441801D01*
X130976858Y-88441799D01*
X130831057Y-88410809D01*
X130791702Y-88402444D01*
X130602410Y-88402444D01*
X130569953Y-88409342D01*
X130417253Y-88441799D01*
X130417248Y-88441801D01*
X130244327Y-88518792D01*
X130095326Y-88627047D01*
X130029519Y-88650526D01*
X129961466Y-88634700D01*
X129912771Y-88584594D01*
X129899121Y-88539695D01*
X129885674Y-88411744D01*
X129827179Y-88231716D01*
X129732533Y-88067784D01*
X129605871Y-87927112D01*
X129605870Y-87927111D01*
X129452734Y-87815851D01*
X129452729Y-87815848D01*
X129279807Y-87738857D01*
X129279802Y-87738855D01*
X129134001Y-87707865D01*
X129094646Y-87699500D01*
X128905354Y-87699500D01*
X128872897Y-87706398D01*
X128720197Y-87738855D01*
X128720192Y-87738857D01*
X128547270Y-87815848D01*
X128547265Y-87815851D01*
X128394129Y-87927111D01*
X128267466Y-88067785D01*
X128172821Y-88231715D01*
X128172818Y-88231722D01*
X128116391Y-88405388D01*
X128114326Y-88411744D01*
X128100879Y-88539689D01*
X128100879Y-88539690D01*
X128074294Y-88604304D01*
X128016997Y-88644289D01*
X127947178Y-88646949D01*
X127904673Y-88627046D01*
X127755678Y-88518795D01*
X127755673Y-88518792D01*
X127582751Y-88441801D01*
X127582746Y-88441799D01*
X127436945Y-88410809D01*
X127397590Y-88402444D01*
X127208298Y-88402444D01*
X127175841Y-88409342D01*
X127023141Y-88441799D01*
X127023136Y-88441801D01*
X126850214Y-88518792D01*
X126850209Y-88518795D01*
X126697073Y-88630055D01*
X126570410Y-88770729D01*
X126475765Y-88934659D01*
X126475762Y-88934666D01*
X126417271Y-89114684D01*
X126417270Y-89114688D01*
X126397484Y-89302944D01*
X126417270Y-89491200D01*
X126417271Y-89491203D01*
X126475762Y-89671221D01*
X126475765Y-89671228D01*
X126570411Y-89835160D01*
X126622067Y-89892530D01*
X126652296Y-89955519D01*
X126643671Y-90024854D01*
X126598930Y-90078520D01*
X126532277Y-90099478D01*
X126529916Y-90099500D01*
X126505354Y-90099500D01*
X126472897Y-90106398D01*
X126320197Y-90138855D01*
X126320192Y-90138857D01*
X126147270Y-90215848D01*
X126147265Y-90215851D01*
X125994129Y-90327111D01*
X125867466Y-90467785D01*
X125772821Y-90631715D01*
X125772818Y-90631722D01*
X125714327Y-90811740D01*
X125714326Y-90811744D01*
X125694540Y-91000000D01*
X91308095Y-91000000D01*
X91288618Y-90814688D01*
X91230123Y-90634660D01*
X91135477Y-90470728D01*
X91008815Y-90330056D01*
X90941342Y-90281034D01*
X90855678Y-90218795D01*
X90855673Y-90218792D01*
X90682751Y-90141801D01*
X90682746Y-90141799D01*
X90536945Y-90110809D01*
X90497590Y-90102444D01*
X90473028Y-90102444D01*
X90405989Y-90082759D01*
X90360234Y-90029955D01*
X90350290Y-89960797D01*
X90379315Y-89897241D01*
X90380808Y-89895550D01*
X90432533Y-89838104D01*
X90527179Y-89674172D01*
X90585674Y-89494144D01*
X90605460Y-89305888D01*
X90585674Y-89117632D01*
X90527179Y-88937604D01*
X90432533Y-88773672D01*
X90305871Y-88633000D01*
X90301818Y-88630055D01*
X90152734Y-88521739D01*
X90152729Y-88521736D01*
X89979807Y-88444745D01*
X89979802Y-88444743D01*
X89824530Y-88411740D01*
X89794646Y-88405388D01*
X89605354Y-88405388D01*
X89575470Y-88411740D01*
X89420197Y-88444743D01*
X89420192Y-88444745D01*
X89247271Y-88521736D01*
X89098270Y-88629991D01*
X89032463Y-88653470D01*
X88964410Y-88637644D01*
X88915715Y-88587538D01*
X88902065Y-88542639D01*
X88888618Y-88414688D01*
X88830123Y-88234660D01*
X88735477Y-88070728D01*
X88608815Y-87930056D01*
X88604762Y-87927111D01*
X88455678Y-87818795D01*
X88455673Y-87818792D01*
X88282751Y-87741801D01*
X88282746Y-87741799D01*
X88136945Y-87710809D01*
X88097590Y-87702444D01*
X87908298Y-87702444D01*
X87875841Y-87709342D01*
X87723141Y-87741799D01*
X87723136Y-87741801D01*
X87550214Y-87818792D01*
X87550209Y-87818795D01*
X87397073Y-87930055D01*
X87270410Y-88070729D01*
X87175765Y-88234659D01*
X87175762Y-88234666D01*
X87117271Y-88414684D01*
X87117270Y-88414688D01*
X87104132Y-88539690D01*
X87103823Y-88542634D01*
X87077238Y-88607248D01*
X87019941Y-88647233D01*
X86950122Y-88649893D01*
X86907617Y-88629990D01*
X86758622Y-88521739D01*
X86758617Y-88521736D01*
X86585695Y-88444745D01*
X86585690Y-88444743D01*
X86430418Y-88411740D01*
X86400534Y-88405388D01*
X86211242Y-88405388D01*
X86181358Y-88411740D01*
X86026085Y-88444743D01*
X86026080Y-88444745D01*
X85853158Y-88521736D01*
X85853153Y-88521739D01*
X85700017Y-88632999D01*
X85573354Y-88773673D01*
X85478709Y-88937603D01*
X85478706Y-88937610D01*
X85420215Y-89117628D01*
X85420214Y-89117632D01*
X85400428Y-89305888D01*
X85420214Y-89494144D01*
X85420215Y-89494147D01*
X85478706Y-89674165D01*
X85478709Y-89674172D01*
X85573355Y-89838104D01*
X85625011Y-89895474D01*
X85655240Y-89958463D01*
X85646615Y-90027798D01*
X85601874Y-90081464D01*
X85535221Y-90102422D01*
X85532860Y-90102444D01*
X85508298Y-90102444D01*
X85475841Y-90109342D01*
X85323141Y-90141799D01*
X85323136Y-90141801D01*
X85150214Y-90218792D01*
X85150209Y-90218795D01*
X84997073Y-90330055D01*
X84870410Y-90470729D01*
X84775765Y-90634659D01*
X84775762Y-90634666D01*
X84717271Y-90814684D01*
X84717270Y-90814688D01*
X84697484Y-91002944D01*
X58905151Y-91002944D01*
X58905460Y-91000000D01*
X58885674Y-90811744D01*
X58827179Y-90631716D01*
X58732533Y-90467784D01*
X58605871Y-90327112D01*
X58605870Y-90327111D01*
X58452734Y-90215851D01*
X58452729Y-90215848D01*
X58279807Y-90138857D01*
X58279802Y-90138855D01*
X58134001Y-90107865D01*
X58094646Y-90099500D01*
X58070084Y-90099500D01*
X58003045Y-90079815D01*
X57957290Y-90027011D01*
X57947346Y-89957853D01*
X57976371Y-89894297D01*
X57977864Y-89892606D01*
X58029589Y-89835160D01*
X58124235Y-89671228D01*
X58182730Y-89491200D01*
X58202516Y-89302944D01*
X58182730Y-89114688D01*
X58124235Y-88934660D01*
X58029589Y-88770728D01*
X57902927Y-88630056D01*
X57902838Y-88629991D01*
X57749790Y-88518795D01*
X57749785Y-88518792D01*
X57576863Y-88441801D01*
X57576858Y-88441799D01*
X57431057Y-88410809D01*
X57391702Y-88402444D01*
X57202410Y-88402444D01*
X57169953Y-88409342D01*
X57017253Y-88441799D01*
X57017248Y-88441801D01*
X56844327Y-88518792D01*
X56695326Y-88627047D01*
X56629519Y-88650526D01*
X56561466Y-88634700D01*
X56512771Y-88584594D01*
X56499121Y-88539695D01*
X56485674Y-88411744D01*
X56427179Y-88231716D01*
X56332533Y-88067784D01*
X56205871Y-87927112D01*
X56205870Y-87927111D01*
X56052734Y-87815851D01*
X56052729Y-87815848D01*
X55879807Y-87738857D01*
X55879802Y-87738855D01*
X55734001Y-87707865D01*
X55694646Y-87699500D01*
X55505354Y-87699500D01*
X55472897Y-87706398D01*
X55320197Y-87738855D01*
X55320192Y-87738857D01*
X55147270Y-87815848D01*
X55147265Y-87815851D01*
X54994129Y-87927111D01*
X54867466Y-88067785D01*
X54772821Y-88231715D01*
X54772818Y-88231722D01*
X54716391Y-88405388D01*
X54714326Y-88411744D01*
X54700879Y-88539689D01*
X54700879Y-88539690D01*
X54674294Y-88604304D01*
X54616997Y-88644289D01*
X54547178Y-88646949D01*
X54504673Y-88627046D01*
X54355678Y-88518795D01*
X54355673Y-88518792D01*
X54182751Y-88441801D01*
X54182746Y-88441799D01*
X54036945Y-88410809D01*
X53997590Y-88402444D01*
X53808298Y-88402444D01*
X53775841Y-88409342D01*
X53623141Y-88441799D01*
X53623136Y-88441801D01*
X53450214Y-88518792D01*
X53450209Y-88518795D01*
X53297073Y-88630055D01*
X53170410Y-88770729D01*
X53075765Y-88934659D01*
X53075762Y-88934666D01*
X53017271Y-89114684D01*
X53017270Y-89114688D01*
X52997484Y-89302944D01*
X53017270Y-89491200D01*
X53017271Y-89491203D01*
X53075762Y-89671221D01*
X53075765Y-89671228D01*
X53170411Y-89835160D01*
X53222067Y-89892530D01*
X53252296Y-89955519D01*
X53243671Y-90024854D01*
X53198930Y-90078520D01*
X53132277Y-90099478D01*
X53129916Y-90099500D01*
X53105354Y-90099500D01*
X53072897Y-90106398D01*
X52920197Y-90138855D01*
X52920192Y-90138857D01*
X52747270Y-90215848D01*
X52747265Y-90215851D01*
X52594129Y-90327111D01*
X52467466Y-90467785D01*
X52372821Y-90631715D01*
X52372818Y-90631722D01*
X52314327Y-90811740D01*
X52314326Y-90811744D01*
X52294540Y-91000000D01*
X41615263Y-91000000D01*
X41573401Y-90800351D01*
X41572618Y-90795760D01*
X41545838Y-90592347D01*
X41518759Y-90375108D01*
X41518345Y-90370173D01*
X41509488Y-90167311D01*
X41509476Y-90167032D01*
X41500500Y-89950000D01*
X41500500Y-89949500D01*
X41500500Y-86000001D01*
X68534532Y-86000001D01*
X68554364Y-86226686D01*
X68554366Y-86226697D01*
X68613258Y-86446488D01*
X68613261Y-86446497D01*
X68709431Y-86652732D01*
X68709432Y-86652734D01*
X68839954Y-86839141D01*
X69000858Y-87000045D01*
X69000861Y-87000047D01*
X69187266Y-87130568D01*
X69393504Y-87226739D01*
X69613308Y-87285635D01*
X69775230Y-87299801D01*
X69839998Y-87305468D01*
X69840000Y-87305468D01*
X69840002Y-87305468D01*
X69896673Y-87300509D01*
X70066692Y-87285635D01*
X70286496Y-87226739D01*
X70492734Y-87130568D01*
X70679139Y-87000047D01*
X70840047Y-86839139D01*
X70970568Y-86652734D01*
X71066739Y-86446496D01*
X71125635Y-86226692D01*
X71145468Y-86000001D01*
X78694532Y-86000001D01*
X78714364Y-86226686D01*
X78714366Y-86226697D01*
X78773258Y-86446488D01*
X78773261Y-86446497D01*
X78869431Y-86652732D01*
X78869432Y-86652734D01*
X78999954Y-86839141D01*
X79160858Y-87000045D01*
X79160861Y-87000047D01*
X79347266Y-87130568D01*
X79553504Y-87226739D01*
X79773308Y-87285635D01*
X79935230Y-87299801D01*
X79999998Y-87305468D01*
X80000000Y-87305468D01*
X80000002Y-87305468D01*
X80056673Y-87300509D01*
X80226692Y-87285635D01*
X80446496Y-87226739D01*
X80652734Y-87130568D01*
X80839139Y-87000047D01*
X81000047Y-86839139D01*
X81130568Y-86652734D01*
X81226739Y-86446496D01*
X81285635Y-86226692D01*
X81305468Y-86000000D01*
X81285635Y-85773308D01*
X81226739Y-85553504D01*
X81130568Y-85347266D01*
X81000047Y-85160861D01*
X81000045Y-85160858D01*
X80839141Y-84999954D01*
X80652734Y-84869432D01*
X80652732Y-84869431D01*
X80446497Y-84773261D01*
X80446488Y-84773258D01*
X80226697Y-84714366D01*
X80226693Y-84714365D01*
X80226692Y-84714365D01*
X80226691Y-84714364D01*
X80226686Y-84714364D01*
X80000002Y-84694532D01*
X79999998Y-84694532D01*
X79773313Y-84714364D01*
X79773302Y-84714366D01*
X79553511Y-84773258D01*
X79553502Y-84773261D01*
X79347267Y-84869431D01*
X79347265Y-84869432D01*
X79160858Y-84999954D01*
X78999954Y-85160858D01*
X78869432Y-85347265D01*
X78869431Y-85347267D01*
X78773261Y-85553502D01*
X78773258Y-85553511D01*
X78714366Y-85773302D01*
X78714364Y-85773313D01*
X78694532Y-85999998D01*
X78694532Y-86000001D01*
X71145468Y-86000001D01*
X71145468Y-86000000D01*
X71125635Y-85773308D01*
X71066739Y-85553504D01*
X70970568Y-85347266D01*
X70840047Y-85160861D01*
X70840045Y-85160858D01*
X70679141Y-84999954D01*
X70492734Y-84869432D01*
X70492732Y-84869431D01*
X70286497Y-84773261D01*
X70286488Y-84773258D01*
X70066697Y-84714366D01*
X70066693Y-84714365D01*
X70066692Y-84714365D01*
X70066691Y-84714364D01*
X70066686Y-84714364D01*
X69840002Y-84694532D01*
X69839998Y-84694532D01*
X69613313Y-84714364D01*
X69613302Y-84714366D01*
X69393511Y-84773258D01*
X69393502Y-84773261D01*
X69187267Y-84869431D01*
X69187265Y-84869432D01*
X69000858Y-84999954D01*
X68839954Y-85160858D01*
X68709432Y-85347265D01*
X68709431Y-85347267D01*
X68613261Y-85553502D01*
X68613258Y-85553511D01*
X68554366Y-85773302D01*
X68554364Y-85773313D01*
X68534532Y-85999998D01*
X68534532Y-86000001D01*
X41500500Y-86000001D01*
X41500500Y-84660001D01*
X121784390Y-84660001D01*
X121804804Y-84945433D01*
X121865628Y-85225037D01*
X121865630Y-85225043D01*
X121865631Y-85225046D01*
X121965557Y-85492958D01*
X121965635Y-85493166D01*
X122102770Y-85744309D01*
X122102775Y-85744317D01*
X122274254Y-85973387D01*
X122274270Y-85973405D01*
X122476594Y-86175729D01*
X122476612Y-86175745D01*
X122705682Y-86347224D01*
X122705690Y-86347229D01*
X122956833Y-86484364D01*
X122956832Y-86484364D01*
X122956836Y-86484365D01*
X122956839Y-86484367D01*
X123224954Y-86584369D01*
X123224960Y-86584370D01*
X123224962Y-86584371D01*
X123504566Y-86645195D01*
X123504568Y-86645195D01*
X123504572Y-86645196D01*
X123758220Y-86663337D01*
X123789999Y-86665610D01*
X123790000Y-86665610D01*
X123790001Y-86665610D01*
X123818595Y-86663564D01*
X124075428Y-86645196D01*
X124355046Y-86584369D01*
X124623161Y-86484367D01*
X124874315Y-86347226D01*
X125103395Y-86175739D01*
X125305739Y-85973395D01*
X125477226Y-85744315D01*
X125614367Y-85493161D01*
X125714369Y-85225046D01*
X125739196Y-85110918D01*
X125775195Y-84945433D01*
X125775195Y-84945432D01*
X125775196Y-84945428D01*
X125795610Y-84660001D01*
X128134390Y-84660001D01*
X128154804Y-84945433D01*
X128215628Y-85225037D01*
X128215630Y-85225043D01*
X128215631Y-85225046D01*
X128315557Y-85492958D01*
X128315635Y-85493166D01*
X128452770Y-85744309D01*
X128452775Y-85744317D01*
X128624254Y-85973387D01*
X128624270Y-85973405D01*
X128826594Y-86175729D01*
X128826612Y-86175745D01*
X129055682Y-86347224D01*
X129055690Y-86347229D01*
X129306833Y-86484364D01*
X129306832Y-86484364D01*
X129306836Y-86484365D01*
X129306839Y-86484367D01*
X129574954Y-86584369D01*
X129574960Y-86584370D01*
X129574962Y-86584371D01*
X129854566Y-86645195D01*
X129854568Y-86645195D01*
X129854572Y-86645196D01*
X130108220Y-86663337D01*
X130139999Y-86665610D01*
X130140000Y-86665610D01*
X130140001Y-86665610D01*
X130168595Y-86663564D01*
X130425428Y-86645196D01*
X130705046Y-86584369D01*
X130973161Y-86484367D01*
X131224315Y-86347226D01*
X131453395Y-86175739D01*
X131655739Y-85973395D01*
X131827226Y-85744315D01*
X131964367Y-85493161D01*
X132064369Y-85225046D01*
X132089196Y-85110918D01*
X132125195Y-84945433D01*
X132125195Y-84945432D01*
X132125196Y-84945428D01*
X132145610Y-84660001D01*
X134484891Y-84660001D01*
X134505300Y-84945362D01*
X134566109Y-85224895D01*
X134666091Y-85492958D01*
X134803191Y-85744038D01*
X134803196Y-85744046D01*
X134909882Y-85886561D01*
X134909883Y-85886562D01*
X135812803Y-84983641D01*
X135836059Y-85037553D01*
X135940756Y-85178185D01*
X136075062Y-85290882D01*
X136166665Y-85336886D01*
X135263436Y-86240115D01*
X135405960Y-86346807D01*
X135405961Y-86346808D01*
X135657042Y-86483908D01*
X135657041Y-86483908D01*
X135925104Y-86583890D01*
X136204637Y-86644699D01*
X136489999Y-86665109D01*
X136490001Y-86665109D01*
X136775362Y-86644699D01*
X137054895Y-86583890D01*
X137322958Y-86483908D01*
X137574047Y-86346803D01*
X137716561Y-86240116D01*
X137716562Y-86240115D01*
X136815946Y-85339498D01*
X136828891Y-85334787D01*
X136975373Y-85238445D01*
X137095688Y-85110918D01*
X137168447Y-84984894D01*
X138070115Y-85886562D01*
X138070116Y-85886561D01*
X138176803Y-85744047D01*
X138313908Y-85492958D01*
X138413890Y-85224895D01*
X138474699Y-84945362D01*
X138495109Y-84660001D01*
X138495109Y-84659998D01*
X138474699Y-84374637D01*
X138413890Y-84095104D01*
X138313908Y-83827041D01*
X138176808Y-83575961D01*
X138176807Y-83575960D01*
X138070115Y-83433436D01*
X137167195Y-84336356D01*
X137143941Y-84282447D01*
X137039244Y-84141815D01*
X136904938Y-84029118D01*
X136813333Y-83983112D01*
X137716562Y-83079883D01*
X137716561Y-83079882D01*
X137574046Y-82973196D01*
X137574038Y-82973191D01*
X137322957Y-82836091D01*
X137322958Y-82836091D01*
X137054895Y-82736109D01*
X136775362Y-82675300D01*
X136490001Y-82654891D01*
X136489999Y-82654891D01*
X136204637Y-82675300D01*
X135925104Y-82736109D01*
X135657041Y-82836091D01*
X135405961Y-82973191D01*
X135405953Y-82973196D01*
X135263437Y-83079882D01*
X135263436Y-83079883D01*
X136164054Y-83980501D01*
X136151109Y-83985213D01*
X136004627Y-84081555D01*
X135884312Y-84209082D01*
X135811552Y-84335105D01*
X134909883Y-83433436D01*
X134909882Y-83433437D01*
X134803196Y-83575953D01*
X134803191Y-83575961D01*
X134666091Y-83827041D01*
X134566109Y-84095104D01*
X134505300Y-84374637D01*
X134484891Y-84659998D01*
X134484891Y-84660001D01*
X132145610Y-84660001D01*
X132145610Y-84660000D01*
X132125196Y-84374572D01*
X132105155Y-84282447D01*
X132064371Y-84094962D01*
X132064370Y-84094960D01*
X132064369Y-84094954D01*
X131964367Y-83826839D01*
X131827372Y-83575953D01*
X131827229Y-83575690D01*
X131827224Y-83575682D01*
X131655745Y-83346612D01*
X131655729Y-83346594D01*
X131453405Y-83144270D01*
X131453387Y-83144254D01*
X131224317Y-82972775D01*
X131224309Y-82972770D01*
X130973166Y-82835635D01*
X130973167Y-82835635D01*
X130865915Y-82795632D01*
X130705046Y-82735631D01*
X130705043Y-82735630D01*
X130705037Y-82735628D01*
X130425433Y-82674804D01*
X130140001Y-82654390D01*
X130139999Y-82654390D01*
X129854566Y-82674804D01*
X129574962Y-82735628D01*
X129306833Y-82835635D01*
X129055690Y-82972770D01*
X129055682Y-82972775D01*
X128826612Y-83144254D01*
X128826594Y-83144270D01*
X128624270Y-83346594D01*
X128624254Y-83346612D01*
X128452775Y-83575682D01*
X128452770Y-83575690D01*
X128315635Y-83826833D01*
X128215628Y-84094962D01*
X128154804Y-84374566D01*
X128134390Y-84659998D01*
X128134390Y-84660001D01*
X125795610Y-84660001D01*
X125795610Y-84660000D01*
X125775196Y-84374572D01*
X125755155Y-84282447D01*
X125714371Y-84094962D01*
X125714370Y-84094960D01*
X125714369Y-84094954D01*
X125614367Y-83826839D01*
X125477372Y-83575953D01*
X125477229Y-83575690D01*
X125477224Y-83575682D01*
X125305745Y-83346612D01*
X125305729Y-83346594D01*
X125103405Y-83144270D01*
X125103387Y-83144254D01*
X124874317Y-82972775D01*
X124874309Y-82972770D01*
X124623166Y-82835635D01*
X124623167Y-82835635D01*
X124515915Y-82795632D01*
X124355046Y-82735631D01*
X124355043Y-82735630D01*
X124355037Y-82735628D01*
X124075433Y-82674804D01*
X123790001Y-82654390D01*
X123789999Y-82654390D01*
X123504566Y-82674804D01*
X123224962Y-82735628D01*
X122956833Y-82835635D01*
X122705690Y-82972770D01*
X122705682Y-82972775D01*
X122476612Y-83144254D01*
X122476594Y-83144270D01*
X122274270Y-83346594D01*
X122274254Y-83346612D01*
X122102775Y-83575682D01*
X122102770Y-83575690D01*
X121965635Y-83826833D01*
X121865628Y-84094962D01*
X121804804Y-84374566D01*
X121784390Y-84659998D01*
X121784390Y-84660001D01*
X41500500Y-84660001D01*
X41500500Y-79910005D01*
X68454859Y-79910005D01*
X68475385Y-80157729D01*
X68475387Y-80157738D01*
X68536412Y-80398717D01*
X68636266Y-80626364D01*
X68736564Y-80779882D01*
X69476923Y-80039523D01*
X69500507Y-80119844D01*
X69578239Y-80240798D01*
X69686900Y-80334952D01*
X69817685Y-80394680D01*
X69827466Y-80396086D01*
X69089942Y-81133609D01*
X69136768Y-81170055D01*
X69136770Y-81170056D01*
X69355385Y-81288364D01*
X69355396Y-81288369D01*
X69590506Y-81369083D01*
X69835707Y-81410000D01*
X70084293Y-81410000D01*
X70329493Y-81369083D01*
X70564603Y-81288369D01*
X70564614Y-81288364D01*
X70783228Y-81170057D01*
X70783231Y-81170055D01*
X70830056Y-81133609D01*
X70092533Y-80396086D01*
X70102315Y-80394680D01*
X70233100Y-80334952D01*
X70341761Y-80240798D01*
X70419493Y-80119844D01*
X70443076Y-80039524D01*
X71183434Y-80779882D01*
X71283731Y-80626369D01*
X71383587Y-80398717D01*
X71444612Y-80157738D01*
X71444614Y-80157729D01*
X71465141Y-79910005D01*
X78454357Y-79910005D01*
X78474890Y-80157812D01*
X78474892Y-80157824D01*
X78535936Y-80398881D01*
X78635826Y-80626606D01*
X78771833Y-80834782D01*
X78771836Y-80834785D01*
X78940256Y-81017738D01*
X79136491Y-81170474D01*
X79136493Y-81170475D01*
X79354332Y-81288364D01*
X79355190Y-81288828D01*
X79574141Y-81363994D01*
X79588964Y-81369083D01*
X79590386Y-81369571D01*
X79835665Y-81410500D01*
X80084335Y-81410500D01*
X80329614Y-81369571D01*
X80564810Y-81288828D01*
X80783509Y-81170474D01*
X80979744Y-81017738D01*
X81148164Y-80834785D01*
X81284173Y-80626607D01*
X81384063Y-80398881D01*
X81409103Y-80300000D01*
X103994540Y-80300000D01*
X104014326Y-80488256D01*
X104014327Y-80488259D01*
X104072818Y-80668277D01*
X104072821Y-80668284D01*
X104167467Y-80832216D01*
X104275839Y-80952575D01*
X104294129Y-80972888D01*
X104447265Y-81084148D01*
X104447270Y-81084151D01*
X104620192Y-81161142D01*
X104620197Y-81161144D01*
X104805354Y-81200500D01*
X104805355Y-81200500D01*
X104829916Y-81200500D01*
X104896955Y-81220185D01*
X104942710Y-81272989D01*
X104952654Y-81342147D01*
X104923629Y-81405703D01*
X104922135Y-81407393D01*
X104870411Y-81464840D01*
X104870409Y-81464841D01*
X104870408Y-81464844D01*
X104775765Y-81628771D01*
X104775762Y-81628778D01*
X104717271Y-81808796D01*
X104717270Y-81808800D01*
X104697484Y-81997056D01*
X104717270Y-82185312D01*
X104717271Y-82185315D01*
X104775762Y-82365333D01*
X104775765Y-82365340D01*
X104870411Y-82529272D01*
X104978641Y-82649473D01*
X104997073Y-82669944D01*
X105150209Y-82781204D01*
X105150214Y-82781207D01*
X105323136Y-82858198D01*
X105323141Y-82858200D01*
X105508298Y-82897556D01*
X105508299Y-82897556D01*
X105697588Y-82897556D01*
X105697590Y-82897556D01*
X105882747Y-82858200D01*
X106055674Y-82781207D01*
X106204674Y-82672951D01*
X106270479Y-82649473D01*
X106338533Y-82665298D01*
X106387228Y-82715404D01*
X106400878Y-82760306D01*
X106414326Y-82888256D01*
X106414327Y-82888259D01*
X106472818Y-83068277D01*
X106472821Y-83068284D01*
X106567467Y-83232216D01*
X106670454Y-83346594D01*
X106694129Y-83372888D01*
X106847265Y-83484148D01*
X106847270Y-83484151D01*
X107020192Y-83561142D01*
X107020197Y-83561144D01*
X107205354Y-83600500D01*
X107205355Y-83600500D01*
X107394644Y-83600500D01*
X107394646Y-83600500D01*
X107579803Y-83561144D01*
X107752730Y-83484151D01*
X107905871Y-83372888D01*
X108032533Y-83232216D01*
X108127179Y-83068284D01*
X108185674Y-82888256D01*
X108199121Y-82760305D01*
X108225704Y-82695696D01*
X108283001Y-82655710D01*
X108352820Y-82653050D01*
X108395326Y-82672953D01*
X108544321Y-82781204D01*
X108544326Y-82781207D01*
X108717248Y-82858198D01*
X108717253Y-82858200D01*
X108902410Y-82897556D01*
X108902411Y-82897556D01*
X109091700Y-82897556D01*
X109091702Y-82897556D01*
X109276859Y-82858200D01*
X109449786Y-82781207D01*
X109602927Y-82669944D01*
X109729589Y-82529272D01*
X109824235Y-82365340D01*
X109882730Y-82185312D01*
X109902516Y-81997056D01*
X109882730Y-81808800D01*
X109824235Y-81628772D01*
X109729589Y-81464840D01*
X109677932Y-81407469D01*
X109647704Y-81344481D01*
X109656329Y-81275146D01*
X109701070Y-81221480D01*
X109767723Y-81200522D01*
X109770084Y-81200500D01*
X109794644Y-81200500D01*
X109794646Y-81200500D01*
X109979803Y-81161144D01*
X110152730Y-81084151D01*
X110305871Y-80972888D01*
X110432533Y-80832216D01*
X110527179Y-80668284D01*
X110585674Y-80488256D01*
X110605460Y-80300000D01*
X110585674Y-80111744D01*
X110527179Y-79931716D01*
X110432533Y-79767784D01*
X110305871Y-79627112D01*
X110305870Y-79627111D01*
X110152734Y-79515851D01*
X110152729Y-79515848D01*
X109979807Y-79438857D01*
X109979802Y-79438855D01*
X109834001Y-79407865D01*
X109794646Y-79399500D01*
X109770084Y-79399500D01*
X109703045Y-79379815D01*
X109657290Y-79327011D01*
X109647346Y-79257853D01*
X109676371Y-79194297D01*
X109677864Y-79192606D01*
X109729589Y-79135160D01*
X109824235Y-78971228D01*
X109882730Y-78791200D01*
X109902516Y-78602944D01*
X109882730Y-78414688D01*
X109824235Y-78234660D01*
X109729589Y-78070728D01*
X109602927Y-77930056D01*
X109602926Y-77930055D01*
X109449790Y-77818795D01*
X109449785Y-77818792D01*
X109276863Y-77741801D01*
X109276858Y-77741799D01*
X109131057Y-77710809D01*
X109091702Y-77702444D01*
X108902410Y-77702444D01*
X108869953Y-77709342D01*
X108717253Y-77741799D01*
X108717248Y-77741801D01*
X108544327Y-77818792D01*
X108395326Y-77927047D01*
X108329519Y-77950526D01*
X108261466Y-77934700D01*
X108212771Y-77884594D01*
X108199121Y-77839695D01*
X108185674Y-77711744D01*
X108127179Y-77531716D01*
X108032533Y-77367784D01*
X107905871Y-77227112D01*
X107905870Y-77227111D01*
X107752734Y-77115851D01*
X107752729Y-77115848D01*
X107579807Y-77038857D01*
X107579802Y-77038855D01*
X107434001Y-77007865D01*
X107394646Y-76999500D01*
X107205354Y-76999500D01*
X107172897Y-77006398D01*
X107020197Y-77038855D01*
X107020192Y-77038857D01*
X106847270Y-77115848D01*
X106847265Y-77115851D01*
X106694129Y-77227111D01*
X106567466Y-77367785D01*
X106472821Y-77531715D01*
X106472818Y-77531722D01*
X106414327Y-77711740D01*
X106414326Y-77711744D01*
X106411167Y-77741801D01*
X106400879Y-77839690D01*
X106374294Y-77904304D01*
X106316997Y-77944289D01*
X106247178Y-77946949D01*
X106204673Y-77927046D01*
X106055678Y-77818795D01*
X106055673Y-77818792D01*
X105882751Y-77741801D01*
X105882746Y-77741799D01*
X105736945Y-77710809D01*
X105697590Y-77702444D01*
X105508298Y-77702444D01*
X105475841Y-77709342D01*
X105323141Y-77741799D01*
X105323136Y-77741801D01*
X105150214Y-77818792D01*
X105150209Y-77818795D01*
X104997073Y-77930055D01*
X104870410Y-78070729D01*
X104775765Y-78234659D01*
X104775762Y-78234666D01*
X104718793Y-78410000D01*
X104717270Y-78414688D01*
X104697484Y-78602944D01*
X104717270Y-78791200D01*
X104717271Y-78791203D01*
X104775762Y-78971221D01*
X104775765Y-78971228D01*
X104870411Y-79135160D01*
X104922067Y-79192530D01*
X104952296Y-79255519D01*
X104943671Y-79324854D01*
X104898930Y-79378520D01*
X104832277Y-79399478D01*
X104829916Y-79399500D01*
X104805354Y-79399500D01*
X104772897Y-79406398D01*
X104620197Y-79438855D01*
X104620192Y-79438857D01*
X104447270Y-79515848D01*
X104447265Y-79515851D01*
X104294129Y-79627111D01*
X104167466Y-79767785D01*
X104072821Y-79931715D01*
X104072818Y-79931722D01*
X104014327Y-80111740D01*
X104014326Y-80111744D01*
X103994540Y-80300000D01*
X81409103Y-80300000D01*
X81445108Y-80157821D01*
X81448926Y-80111744D01*
X81465643Y-79910005D01*
X81465643Y-79909994D01*
X81445109Y-79662187D01*
X81445107Y-79662175D01*
X81384063Y-79421118D01*
X81284173Y-79193393D01*
X81148166Y-78985217D01*
X81126557Y-78961744D01*
X80979744Y-78802262D01*
X80783509Y-78649526D01*
X80783507Y-78649525D01*
X80783506Y-78649524D01*
X80564811Y-78531172D01*
X80564802Y-78531169D01*
X80329616Y-78450429D01*
X80084335Y-78409500D01*
X79835665Y-78409500D01*
X79590383Y-78450429D01*
X79355197Y-78531169D01*
X79355188Y-78531172D01*
X79136493Y-78649524D01*
X78940257Y-78802261D01*
X78771833Y-78985217D01*
X78635826Y-79193393D01*
X78535936Y-79421118D01*
X78474892Y-79662175D01*
X78474890Y-79662187D01*
X78454357Y-79909994D01*
X78454357Y-79910005D01*
X71465141Y-79910005D01*
X71465141Y-79909994D01*
X71444614Y-79662270D01*
X71444612Y-79662261D01*
X71383587Y-79421282D01*
X71283731Y-79193630D01*
X71183434Y-79040116D01*
X70443076Y-79780475D01*
X70419493Y-79700156D01*
X70341761Y-79579202D01*
X70233100Y-79485048D01*
X70102315Y-79425320D01*
X70092534Y-79423913D01*
X70830057Y-78686390D01*
X70830056Y-78686389D01*
X70783229Y-78649943D01*
X70564614Y-78531635D01*
X70564603Y-78531630D01*
X70329493Y-78450916D01*
X70084293Y-78410000D01*
X69835707Y-78410000D01*
X69590506Y-78450916D01*
X69355396Y-78531630D01*
X69355390Y-78531632D01*
X69136761Y-78649949D01*
X69089942Y-78686388D01*
X69089942Y-78686390D01*
X69827466Y-79423913D01*
X69817685Y-79425320D01*
X69686900Y-79485048D01*
X69578239Y-79579202D01*
X69500507Y-79700156D01*
X69476923Y-79780475D01*
X68736564Y-79040116D01*
X68636267Y-79193632D01*
X68536412Y-79421282D01*
X68475387Y-79662261D01*
X68475385Y-79662270D01*
X68454859Y-79909994D01*
X68454859Y-79910005D01*
X41500500Y-79910005D01*
X41500500Y-74897870D01*
X58149500Y-74897870D01*
X58149501Y-74897876D01*
X58155908Y-74957483D01*
X58206202Y-75092328D01*
X58206206Y-75092335D01*
X58292452Y-75207544D01*
X58292455Y-75207547D01*
X58407664Y-75293793D01*
X58407671Y-75293797D01*
X58542517Y-75344091D01*
X58542516Y-75344091D01*
X58549444Y-75344835D01*
X58602127Y-75350500D01*
X61397872Y-75350499D01*
X61457483Y-75344091D01*
X61592331Y-75293796D01*
X61707546Y-75207546D01*
X61793796Y-75092331D01*
X61844091Y-74957483D01*
X61850500Y-74897873D01*
X61850499Y-73230001D01*
X121784390Y-73230001D01*
X121804804Y-73515433D01*
X121865628Y-73795037D01*
X121865630Y-73795043D01*
X121865631Y-73795046D01*
X121965557Y-74062958D01*
X121965635Y-74063166D01*
X122102770Y-74314309D01*
X122102775Y-74314317D01*
X122274254Y-74543387D01*
X122274270Y-74543405D01*
X122476594Y-74745729D01*
X122476612Y-74745745D01*
X122705682Y-74917224D01*
X122705690Y-74917229D01*
X122956833Y-75054364D01*
X122956832Y-75054364D01*
X122956836Y-75054365D01*
X122956839Y-75054367D01*
X123224954Y-75154369D01*
X123224960Y-75154370D01*
X123224962Y-75154371D01*
X123504566Y-75215195D01*
X123504568Y-75215195D01*
X123504572Y-75215196D01*
X123758220Y-75233337D01*
X123789999Y-75235610D01*
X123790000Y-75235610D01*
X123790001Y-75235610D01*
X123818595Y-75233564D01*
X124075428Y-75215196D01*
X124355046Y-75154369D01*
X124623161Y-75054367D01*
X124874315Y-74917226D01*
X125103395Y-74745739D01*
X125305739Y-74543395D01*
X125477226Y-74314315D01*
X125614367Y-74063161D01*
X125714369Y-73795046D01*
X125739196Y-73680918D01*
X125775195Y-73515433D01*
X125775195Y-73515432D01*
X125775196Y-73515428D01*
X125795610Y-73230001D01*
X128134891Y-73230001D01*
X128155300Y-73515362D01*
X128216109Y-73794895D01*
X128316091Y-74062958D01*
X128453191Y-74314038D01*
X128453196Y-74314046D01*
X128559882Y-74456561D01*
X128559883Y-74456562D01*
X129462803Y-73553641D01*
X129486059Y-73607553D01*
X129590756Y-73748185D01*
X129725062Y-73860882D01*
X129816665Y-73906886D01*
X128913436Y-74810115D01*
X129055960Y-74916807D01*
X129055961Y-74916808D01*
X129307042Y-75053908D01*
X129307041Y-75053908D01*
X129575104Y-75153890D01*
X129854637Y-75214699D01*
X130139999Y-75235109D01*
X130140001Y-75235109D01*
X130425362Y-75214699D01*
X130704895Y-75153890D01*
X130972958Y-75053908D01*
X131224047Y-74916803D01*
X131366561Y-74810116D01*
X131366562Y-74810115D01*
X130465946Y-73909498D01*
X130478891Y-73904787D01*
X130625373Y-73808445D01*
X130745688Y-73680918D01*
X130818447Y-73554894D01*
X131720115Y-74456562D01*
X131720116Y-74456561D01*
X131826803Y-74314047D01*
X131963908Y-74062958D01*
X132063890Y-73794895D01*
X132124699Y-73515362D01*
X132145109Y-73230001D01*
X134484891Y-73230001D01*
X134505300Y-73515362D01*
X134566109Y-73794895D01*
X134666091Y-74062958D01*
X134803191Y-74314038D01*
X134803196Y-74314046D01*
X134909882Y-74456561D01*
X134909883Y-74456562D01*
X135812803Y-73553641D01*
X135836059Y-73607553D01*
X135940756Y-73748185D01*
X136075062Y-73860882D01*
X136166665Y-73906886D01*
X135263436Y-74810115D01*
X135405960Y-74916807D01*
X135405961Y-74916808D01*
X135657042Y-75053908D01*
X135657041Y-75053908D01*
X135925104Y-75153890D01*
X136204637Y-75214699D01*
X136489999Y-75235109D01*
X136490001Y-75235109D01*
X136775362Y-75214699D01*
X137054895Y-75153890D01*
X137322958Y-75053908D01*
X137574047Y-74916803D01*
X137716561Y-74810116D01*
X137716562Y-74810115D01*
X136815946Y-73909498D01*
X136828891Y-73904787D01*
X136975373Y-73808445D01*
X137095688Y-73680918D01*
X137168447Y-73554894D01*
X138070115Y-74456562D01*
X138070116Y-74456561D01*
X138176803Y-74314047D01*
X138313908Y-74062958D01*
X138413890Y-73794895D01*
X138474699Y-73515362D01*
X138495109Y-73230001D01*
X138495109Y-73229998D01*
X138474699Y-72944637D01*
X138413890Y-72665104D01*
X138313908Y-72397041D01*
X138176808Y-72145961D01*
X138176807Y-72145960D01*
X138070115Y-72003436D01*
X137167195Y-72906356D01*
X137143941Y-72852447D01*
X137039244Y-72711815D01*
X136904938Y-72599118D01*
X136813333Y-72553112D01*
X137716562Y-71649883D01*
X137716561Y-71649882D01*
X137574046Y-71543196D01*
X137574038Y-71543191D01*
X137322957Y-71406091D01*
X137322958Y-71406091D01*
X137054895Y-71306109D01*
X136775362Y-71245300D01*
X136490001Y-71224891D01*
X136489999Y-71224891D01*
X136204637Y-71245300D01*
X135925104Y-71306109D01*
X135657041Y-71406091D01*
X135405961Y-71543191D01*
X135405953Y-71543196D01*
X135263437Y-71649882D01*
X135263436Y-71649883D01*
X136164054Y-72550501D01*
X136151109Y-72555213D01*
X136004627Y-72651555D01*
X135884312Y-72779082D01*
X135811552Y-72905105D01*
X134909883Y-72003436D01*
X134909882Y-72003437D01*
X134803196Y-72145953D01*
X134803191Y-72145961D01*
X134666091Y-72397041D01*
X134566109Y-72665104D01*
X134505300Y-72944637D01*
X134484891Y-73229998D01*
X134484891Y-73230001D01*
X132145109Y-73230001D01*
X132145109Y-73229998D01*
X132124699Y-72944637D01*
X132063890Y-72665104D01*
X131963908Y-72397041D01*
X131826808Y-72145961D01*
X131826807Y-72145960D01*
X131720115Y-72003436D01*
X130817195Y-72906356D01*
X130793941Y-72852447D01*
X130689244Y-72711815D01*
X130554938Y-72599118D01*
X130463333Y-72553112D01*
X131366562Y-71649883D01*
X131366561Y-71649882D01*
X131224046Y-71543196D01*
X131224038Y-71543191D01*
X130972957Y-71406091D01*
X130972958Y-71406091D01*
X130704895Y-71306109D01*
X130425362Y-71245300D01*
X130140001Y-71224891D01*
X130139999Y-71224891D01*
X129854637Y-71245300D01*
X129575104Y-71306109D01*
X129307041Y-71406091D01*
X129055961Y-71543191D01*
X129055953Y-71543196D01*
X128913437Y-71649882D01*
X128913436Y-71649883D01*
X129814054Y-72550501D01*
X129801109Y-72555213D01*
X129654627Y-72651555D01*
X129534312Y-72779082D01*
X129461552Y-72905105D01*
X128559883Y-72003436D01*
X128559882Y-72003437D01*
X128453196Y-72145953D01*
X128453191Y-72145961D01*
X128316091Y-72397041D01*
X128216109Y-72665104D01*
X128155300Y-72944637D01*
X128134891Y-73229998D01*
X128134891Y-73230001D01*
X125795610Y-73230001D01*
X125795610Y-73230000D01*
X125775196Y-72944572D01*
X125763920Y-72892738D01*
X125714371Y-72664962D01*
X125714370Y-72664960D01*
X125714369Y-72664954D01*
X125614367Y-72396839D01*
X125477372Y-72145953D01*
X125477229Y-72145690D01*
X125477224Y-72145682D01*
X125305745Y-71916612D01*
X125305729Y-71916594D01*
X125103405Y-71714270D01*
X125103387Y-71714254D01*
X124874317Y-71542775D01*
X124874309Y-71542770D01*
X124623166Y-71405635D01*
X124623167Y-71405635D01*
X124515915Y-71365632D01*
X124355046Y-71305631D01*
X124355043Y-71305630D01*
X124355037Y-71305628D01*
X124075433Y-71244804D01*
X123790001Y-71224390D01*
X123789999Y-71224390D01*
X123504566Y-71244804D01*
X123224962Y-71305628D01*
X122956833Y-71405635D01*
X122705690Y-71542770D01*
X122705682Y-71542775D01*
X122476612Y-71714254D01*
X122476594Y-71714270D01*
X122274270Y-71916594D01*
X122274254Y-71916612D01*
X122102775Y-72145682D01*
X122102770Y-72145690D01*
X121965635Y-72396833D01*
X121865628Y-72664962D01*
X121804804Y-72944566D01*
X121784390Y-73229998D01*
X121784390Y-73230001D01*
X61850499Y-73230001D01*
X61850499Y-72102128D01*
X61844091Y-72042517D01*
X61793796Y-71907669D01*
X61793795Y-71907668D01*
X61793793Y-71907664D01*
X61707547Y-71792455D01*
X61707544Y-71792452D01*
X61592335Y-71706206D01*
X61592328Y-71706202D01*
X61457482Y-71655908D01*
X61457483Y-71655908D01*
X61397883Y-71649501D01*
X61397881Y-71649500D01*
X61397873Y-71649500D01*
X61397864Y-71649500D01*
X58602129Y-71649500D01*
X58602123Y-71649501D01*
X58542516Y-71655908D01*
X58407671Y-71706202D01*
X58407664Y-71706206D01*
X58292455Y-71792452D01*
X58292452Y-71792455D01*
X58206206Y-71907664D01*
X58206202Y-71907671D01*
X58155908Y-72042517D01*
X58149501Y-72102116D01*
X58149501Y-72102123D01*
X58149500Y-72102135D01*
X58149500Y-74897870D01*
X41500500Y-74897870D01*
X41500500Y-69440346D01*
X53595702Y-69440346D01*
X53605819Y-69678528D01*
X53605819Y-69678532D01*
X53656045Y-69911580D01*
X53704586Y-70032377D01*
X53744936Y-70132790D01*
X53869931Y-70335795D01*
X54027436Y-70514755D01*
X54212920Y-70664523D01*
X54421046Y-70780790D01*
X54438447Y-70786938D01*
X54645829Y-70860211D01*
X54880790Y-70900499D01*
X54880798Y-70900499D01*
X54880800Y-70900500D01*
X54880801Y-70900500D01*
X55059502Y-70900500D01*
X55237536Y-70885347D01*
X55237539Y-70885346D01*
X55237541Y-70885346D01*
X55468249Y-70825275D01*
X55600973Y-70765279D01*
X55685480Y-70727080D01*
X55685481Y-70727078D01*
X55685486Y-70727077D01*
X55883003Y-70593579D01*
X56055118Y-70428621D01*
X56196879Y-70236947D01*
X56304207Y-70024074D01*
X56374016Y-69796123D01*
X56404298Y-69559654D01*
X56402148Y-69509051D01*
X56401764Y-69500001D01*
X58144773Y-69500001D01*
X58163657Y-69764027D01*
X58163658Y-69764034D01*
X58219921Y-70022673D01*
X58312426Y-70270690D01*
X58312428Y-70270694D01*
X58439280Y-70503005D01*
X58439285Y-70503013D01*
X58597906Y-70714907D01*
X58597922Y-70714925D01*
X58785074Y-70902077D01*
X58785092Y-70902093D01*
X58996986Y-71060714D01*
X58996994Y-71060719D01*
X59229305Y-71187571D01*
X59229309Y-71187573D01*
X59229311Y-71187574D01*
X59477322Y-71280077D01*
X59477325Y-71280077D01*
X59477326Y-71280078D01*
X59594792Y-71305631D01*
X59735974Y-71336343D01*
X59979660Y-71353772D01*
X59999999Y-71355227D01*
X60000000Y-71355227D01*
X60000001Y-71355227D01*
X60018885Y-71353876D01*
X60264026Y-71336343D01*
X60522678Y-71280077D01*
X60630118Y-71240004D01*
X73224535Y-71240004D01*
X73244363Y-71504609D01*
X73244364Y-71504614D01*
X73303410Y-71763313D01*
X73303412Y-71763322D01*
X73303414Y-71763327D01*
X73400361Y-72010345D01*
X73533042Y-72240155D01*
X73698492Y-72447623D01*
X73893016Y-72628114D01*
X74112268Y-72777598D01*
X74112273Y-72777600D01*
X74112274Y-72777601D01*
X74112276Y-72777602D01*
X74248886Y-72843390D01*
X74351350Y-72892734D01*
X74604922Y-72970950D01*
X74604923Y-72970950D01*
X74604926Y-72970951D01*
X74867311Y-73010499D01*
X74867316Y-73010499D01*
X74867319Y-73010500D01*
X74867320Y-73010500D01*
X75132680Y-73010500D01*
X75132681Y-73010500D01*
X75132688Y-73010499D01*
X75395073Y-72970951D01*
X75395074Y-72970950D01*
X75395078Y-72970950D01*
X75648650Y-72892734D01*
X75840071Y-72800550D01*
X75887725Y-72777602D01*
X75887725Y-72777601D01*
X75887733Y-72777598D01*
X76106984Y-72628114D01*
X76301508Y-72447623D01*
X76466958Y-72240155D01*
X76599639Y-72010345D01*
X76696586Y-71763327D01*
X76755635Y-71504619D01*
X76755636Y-71504609D01*
X76775465Y-71240004D01*
X101164535Y-71240004D01*
X101184363Y-71504609D01*
X101184364Y-71504614D01*
X101243410Y-71763313D01*
X101243412Y-71763322D01*
X101243414Y-71763327D01*
X101340361Y-72010345D01*
X101473042Y-72240155D01*
X101638492Y-72447623D01*
X101833016Y-72628114D01*
X102052268Y-72777598D01*
X102052273Y-72777600D01*
X102052274Y-72777601D01*
X102052276Y-72777602D01*
X102188886Y-72843390D01*
X102291350Y-72892734D01*
X102544922Y-72970950D01*
X102544923Y-72970950D01*
X102544926Y-72970951D01*
X102807311Y-73010499D01*
X102807316Y-73010499D01*
X102807319Y-73010500D01*
X102807320Y-73010500D01*
X103072680Y-73010500D01*
X103072681Y-73010500D01*
X103072688Y-73010499D01*
X103335073Y-72970951D01*
X103335074Y-72970950D01*
X103335078Y-72970950D01*
X103588650Y-72892734D01*
X103780071Y-72800550D01*
X103827725Y-72777602D01*
X103827725Y-72777601D01*
X103827733Y-72777598D01*
X104046984Y-72628114D01*
X104241508Y-72447623D01*
X104406958Y-72240155D01*
X104539639Y-72010345D01*
X104636586Y-71763327D01*
X104695635Y-71504619D01*
X104695636Y-71504609D01*
X104715465Y-71240004D01*
X104715465Y-71239995D01*
X104695636Y-70975390D01*
X104695635Y-70975385D01*
X104695635Y-70975381D01*
X104636586Y-70716673D01*
X104539639Y-70469655D01*
X104406958Y-70239845D01*
X104241508Y-70032377D01*
X104046984Y-69851886D01*
X103965195Y-69796123D01*
X103827736Y-69702404D01*
X103827725Y-69702397D01*
X103588655Y-69587268D01*
X103588636Y-69587261D01*
X103335083Y-69509051D01*
X103335073Y-69509048D01*
X103072688Y-69469500D01*
X103072681Y-69469500D01*
X102807319Y-69469500D01*
X102807311Y-69469500D01*
X102544926Y-69509048D01*
X102544916Y-69509051D01*
X102291363Y-69587261D01*
X102291344Y-69587268D01*
X102052276Y-69702397D01*
X102052274Y-69702398D01*
X101833015Y-69851886D01*
X101638494Y-70032375D01*
X101638492Y-70032377D01*
X101473042Y-70239845D01*
X101340361Y-70469654D01*
X101243416Y-70716667D01*
X101243410Y-70716686D01*
X101184364Y-70975385D01*
X101184363Y-70975390D01*
X101164535Y-71239995D01*
X101164535Y-71240004D01*
X76775465Y-71240004D01*
X76775465Y-71239995D01*
X76755636Y-70975390D01*
X76755635Y-70975385D01*
X76755635Y-70975381D01*
X76696586Y-70716673D01*
X76599639Y-70469655D01*
X76466958Y-70239845D01*
X76301508Y-70032377D01*
X76106984Y-69851886D01*
X76025195Y-69796123D01*
X75887736Y-69702404D01*
X75887725Y-69702397D01*
X75648655Y-69587268D01*
X75648636Y-69587261D01*
X75395083Y-69509051D01*
X75395073Y-69509048D01*
X75132688Y-69469500D01*
X75132681Y-69469500D01*
X74867319Y-69469500D01*
X74867311Y-69469500D01*
X74604926Y-69509048D01*
X74604916Y-69509051D01*
X74351363Y-69587261D01*
X74351344Y-69587268D01*
X74112276Y-69702397D01*
X74112274Y-69702398D01*
X73893015Y-69851886D01*
X73698494Y-70032375D01*
X73698492Y-70032377D01*
X73533042Y-70239845D01*
X73400361Y-70469654D01*
X73303416Y-70716667D01*
X73303410Y-70716686D01*
X73244364Y-70975385D01*
X73244363Y-70975390D01*
X73224535Y-71239995D01*
X73224535Y-71240004D01*
X60630118Y-71240004D01*
X60770689Y-71187574D01*
X61003011Y-71060716D01*
X61214915Y-70902087D01*
X61402087Y-70714915D01*
X61560716Y-70503011D01*
X61687574Y-70270689D01*
X61780077Y-70022678D01*
X61836343Y-69764026D01*
X61855227Y-69500006D01*
X63594700Y-69500006D01*
X63613864Y-69731297D01*
X63613866Y-69731308D01*
X63670842Y-69956300D01*
X63764075Y-70168848D01*
X63891016Y-70363147D01*
X63891019Y-70363151D01*
X63891021Y-70363153D01*
X64048216Y-70533913D01*
X64048219Y-70533915D01*
X64048222Y-70533918D01*
X64231365Y-70676464D01*
X64231371Y-70676468D01*
X64231374Y-70676470D01*
X64435497Y-70786936D01*
X64547175Y-70825275D01*
X64655015Y-70862297D01*
X64655017Y-70862297D01*
X64655019Y-70862298D01*
X64883951Y-70900500D01*
X64883952Y-70900500D01*
X65116048Y-70900500D01*
X65116049Y-70900500D01*
X65344981Y-70862298D01*
X65564503Y-70786936D01*
X65768626Y-70676470D01*
X65951784Y-70533913D01*
X66108979Y-70363153D01*
X66235924Y-70168849D01*
X66329157Y-69956300D01*
X66386134Y-69731305D01*
X66388529Y-69702402D01*
X66405300Y-69500006D01*
X66405300Y-69499993D01*
X66386135Y-69268702D01*
X66386133Y-69268691D01*
X66329157Y-69043699D01*
X66235924Y-68831151D01*
X66108983Y-68636852D01*
X66108980Y-68636849D01*
X66108979Y-68636847D01*
X65951784Y-68466087D01*
X65951779Y-68466083D01*
X65951777Y-68466081D01*
X65768634Y-68323535D01*
X65768628Y-68323531D01*
X65564504Y-68213064D01*
X65564495Y-68213061D01*
X65344984Y-68137702D01*
X65173282Y-68109050D01*
X65116049Y-68099500D01*
X64883951Y-68099500D01*
X64838164Y-68107140D01*
X64655015Y-68137702D01*
X64435504Y-68213061D01*
X64435495Y-68213064D01*
X64231371Y-68323531D01*
X64231365Y-68323535D01*
X64048222Y-68466081D01*
X64048219Y-68466084D01*
X63891016Y-68636852D01*
X63764075Y-68831151D01*
X63670842Y-69043699D01*
X63613866Y-69268691D01*
X63613864Y-69268702D01*
X63594700Y-69499993D01*
X63594700Y-69500006D01*
X61855227Y-69500006D01*
X61855227Y-69500000D01*
X61855226Y-69499993D01*
X61850960Y-69440346D01*
X61836343Y-69235974D01*
X61780077Y-68977322D01*
X61687574Y-68729311D01*
X61652023Y-68664205D01*
X61560719Y-68496994D01*
X61560714Y-68496986D01*
X61402093Y-68285092D01*
X61402077Y-68285074D01*
X61214925Y-68097922D01*
X61214907Y-68097906D01*
X61003013Y-67939285D01*
X61003005Y-67939280D01*
X60770694Y-67812428D01*
X60770690Y-67812426D01*
X60522673Y-67719921D01*
X60264034Y-67663658D01*
X60264027Y-67663657D01*
X60000001Y-67644773D01*
X59999999Y-67644773D01*
X59735972Y-67663657D01*
X59735965Y-67663658D01*
X59477326Y-67719921D01*
X59229309Y-67812426D01*
X59229305Y-67812428D01*
X58996994Y-67939280D01*
X58996986Y-67939285D01*
X58785092Y-68097906D01*
X58785074Y-68097922D01*
X58597922Y-68285074D01*
X58597906Y-68285092D01*
X58439285Y-68496986D01*
X58439280Y-68496994D01*
X58312428Y-68729305D01*
X58312426Y-68729309D01*
X58219921Y-68977326D01*
X58163658Y-69235965D01*
X58163657Y-69235972D01*
X58144773Y-69499998D01*
X58144773Y-69500001D01*
X56401764Y-69500001D01*
X56394180Y-69321471D01*
X56394180Y-69321467D01*
X56343954Y-69088419D01*
X56255064Y-68867211D01*
X56255064Y-68867210D01*
X56130069Y-68664205D01*
X55972564Y-68485245D01*
X55787080Y-68335477D01*
X55673130Y-68271820D01*
X55578955Y-68219210D01*
X55354170Y-68139788D01*
X55119209Y-68099500D01*
X55119200Y-68099500D01*
X54940503Y-68099500D01*
X54940498Y-68099500D01*
X54762463Y-68114652D01*
X54531751Y-68174724D01*
X54314519Y-68272919D01*
X54314511Y-68272924D01*
X54117006Y-68406413D01*
X54116997Y-68406421D01*
X53944881Y-68571379D01*
X53803123Y-68763050D01*
X53803120Y-68763054D01*
X53695796Y-68975920D01*
X53695793Y-68975926D01*
X53625983Y-69203878D01*
X53595702Y-69440346D01*
X41500500Y-69440346D01*
X41500500Y-65500001D01*
X58144773Y-65500001D01*
X58163657Y-65764027D01*
X58163658Y-65764034D01*
X58219921Y-66022673D01*
X58312426Y-66270690D01*
X58312428Y-66270694D01*
X58439280Y-66503005D01*
X58439285Y-66503013D01*
X58597906Y-66714907D01*
X58597922Y-66714925D01*
X58785074Y-66902077D01*
X58785092Y-66902093D01*
X58996986Y-67060714D01*
X58996994Y-67060719D01*
X59229305Y-67187571D01*
X59229309Y-67187573D01*
X59229311Y-67187574D01*
X59477322Y-67280077D01*
X59477325Y-67280077D01*
X59477326Y-67280078D01*
X59594043Y-67305468D01*
X59735974Y-67336343D01*
X59979660Y-67353772D01*
X59999999Y-67355227D01*
X60000000Y-67355227D01*
X60000001Y-67355227D01*
X60018885Y-67353876D01*
X60264026Y-67336343D01*
X60522678Y-67280077D01*
X60770689Y-67187574D01*
X61003011Y-67060716D01*
X61214915Y-66902087D01*
X61402087Y-66714915D01*
X61560716Y-66503011D01*
X61687574Y-66270689D01*
X61728857Y-66160004D01*
X73224535Y-66160004D01*
X73244363Y-66424609D01*
X73244364Y-66424614D01*
X73244364Y-66424618D01*
X73244365Y-66424619D01*
X73249320Y-66446326D01*
X73303410Y-66683313D01*
X73303412Y-66683322D01*
X73303414Y-66683327D01*
X73400361Y-66930345D01*
X73533042Y-67160155D01*
X73698492Y-67367623D01*
X73893016Y-67548114D01*
X74112268Y-67697598D01*
X74351350Y-67812734D01*
X74604922Y-67890950D01*
X74604923Y-67890950D01*
X74604926Y-67890951D01*
X74867311Y-67930499D01*
X74867316Y-67930499D01*
X74867319Y-67930500D01*
X74867320Y-67930500D01*
X75132680Y-67930500D01*
X75132681Y-67930500D01*
X75132688Y-67930499D01*
X75395073Y-67890951D01*
X75395074Y-67890950D01*
X75395078Y-67890950D01*
X75648650Y-67812734D01*
X75887733Y-67697598D01*
X76106984Y-67548114D01*
X76301508Y-67367623D01*
X76466958Y-67160155D01*
X76599639Y-66930345D01*
X76696586Y-66683327D01*
X76755635Y-66424619D01*
X76755641Y-66424540D01*
X76775465Y-66160004D01*
X76775465Y-66159995D01*
X76755636Y-65895390D01*
X76755635Y-65895385D01*
X76755635Y-65895381D01*
X76696586Y-65636673D01*
X76599639Y-65389655D01*
X76466958Y-65159845D01*
X76301508Y-64952377D01*
X76106984Y-64771886D01*
X76044538Y-64729311D01*
X75887736Y-64622404D01*
X75887725Y-64622397D01*
X75648655Y-64507268D01*
X75648636Y-64507261D01*
X75395083Y-64429051D01*
X75395073Y-64429048D01*
X75132688Y-64389500D01*
X75132681Y-64389500D01*
X74867319Y-64389500D01*
X74867311Y-64389500D01*
X74604926Y-64429048D01*
X74604916Y-64429051D01*
X74351363Y-64507261D01*
X74351344Y-64507268D01*
X74112276Y-64622397D01*
X74112274Y-64622398D01*
X73893015Y-64771886D01*
X73698494Y-64952375D01*
X73698492Y-64952377D01*
X73533042Y-65159845D01*
X73400362Y-65389653D01*
X73400361Y-65389653D01*
X73303416Y-65636667D01*
X73303410Y-65636686D01*
X73244364Y-65895385D01*
X73244363Y-65895390D01*
X73224535Y-66159995D01*
X73224535Y-66160004D01*
X61728857Y-66160004D01*
X61780077Y-66022678D01*
X61836343Y-65764026D01*
X61855227Y-65500000D01*
X61836343Y-65235974D01*
X61794552Y-65043864D01*
X61780078Y-64977326D01*
X61756997Y-64915444D01*
X61687574Y-64729311D01*
X61679413Y-64714366D01*
X61560719Y-64496994D01*
X61560714Y-64496986D01*
X61402093Y-64285092D01*
X61402077Y-64285074D01*
X61214925Y-64097922D01*
X61214907Y-64097906D01*
X61003013Y-63939285D01*
X61003005Y-63939280D01*
X60770694Y-63812428D01*
X60770690Y-63812426D01*
X60522673Y-63719921D01*
X60264034Y-63663658D01*
X60264027Y-63663657D01*
X60000001Y-63644773D01*
X59999999Y-63644773D01*
X59735972Y-63663657D01*
X59735965Y-63663658D01*
X59477326Y-63719921D01*
X59229309Y-63812426D01*
X59229305Y-63812428D01*
X58996994Y-63939280D01*
X58996986Y-63939285D01*
X58785092Y-64097906D01*
X58785074Y-64097922D01*
X58597922Y-64285074D01*
X58597906Y-64285092D01*
X58439285Y-64496986D01*
X58439280Y-64496994D01*
X58312428Y-64729305D01*
X58312426Y-64729309D01*
X58219921Y-64977326D01*
X58163658Y-65235965D01*
X58163657Y-65235972D01*
X58144773Y-65499998D01*
X58144773Y-65500001D01*
X41500500Y-65500001D01*
X41500500Y-63620004D01*
X98625037Y-63620004D01*
X98644860Y-63884535D01*
X98644861Y-63884540D01*
X98703890Y-64143166D01*
X98703896Y-64143185D01*
X98800814Y-64390128D01*
X98800813Y-64390128D01*
X98933457Y-64619871D01*
X98983642Y-64682803D01*
X98983643Y-64682803D01*
X99809356Y-63857090D01*
X99820868Y-63892519D01*
X99906835Y-64027981D01*
X100023790Y-64137809D01*
X100160555Y-64212996D01*
X99336438Y-65037112D01*
X99512525Y-65157166D01*
X99512526Y-65157167D01*
X99751530Y-65272264D01*
X99751528Y-65272264D01*
X100005025Y-65350458D01*
X100005031Y-65350459D01*
X100267351Y-65389999D01*
X100267358Y-65390000D01*
X100532642Y-65390000D01*
X100532648Y-65389999D01*
X100794968Y-65350459D01*
X100794974Y-65350458D01*
X101048467Y-65272265D01*
X101185261Y-65206389D01*
X101254203Y-65195037D01*
X101318337Y-65222759D01*
X101357303Y-65280754D01*
X101358728Y-65350610D01*
X101346452Y-65380106D01*
X101340813Y-65389872D01*
X101243896Y-65636814D01*
X101243890Y-65636833D01*
X101184861Y-65895459D01*
X101184860Y-65895464D01*
X101165037Y-66159995D01*
X101165037Y-66160004D01*
X101184860Y-66424535D01*
X101184861Y-66424540D01*
X101243890Y-66683166D01*
X101243896Y-66683185D01*
X101340814Y-66930128D01*
X101340813Y-66930128D01*
X101473457Y-67159871D01*
X101523642Y-67222803D01*
X101523643Y-67222803D01*
X102349356Y-66397090D01*
X102360868Y-66432519D01*
X102446835Y-66567981D01*
X102563790Y-66677809D01*
X102700555Y-66752996D01*
X101876438Y-67577112D01*
X102052525Y-67697166D01*
X102052526Y-67697167D01*
X102291530Y-67812264D01*
X102291528Y-67812264D01*
X102545025Y-67890458D01*
X102545031Y-67890459D01*
X102807351Y-67929999D01*
X102807358Y-67930000D01*
X103072642Y-67930000D01*
X103072648Y-67929999D01*
X103334968Y-67890459D01*
X103334974Y-67890458D01*
X103588470Y-67812264D01*
X103827479Y-67697164D01*
X104003560Y-67577112D01*
X103175977Y-66749529D01*
X103248345Y-66720877D01*
X103378142Y-66626574D01*
X103480410Y-66502954D01*
X103530359Y-66396806D01*
X104356355Y-67222803D01*
X104356356Y-67222802D01*
X104406545Y-67159869D01*
X104539185Y-66930128D01*
X104636103Y-66683185D01*
X104636109Y-66683166D01*
X104695138Y-66424540D01*
X104695139Y-66424535D01*
X104714963Y-66160004D01*
X104714963Y-66159995D01*
X104702973Y-66000001D01*
X110194532Y-66000001D01*
X110214364Y-66226686D01*
X110214366Y-66226697D01*
X110273258Y-66446488D01*
X110273261Y-66446497D01*
X110369431Y-66652732D01*
X110369432Y-66652734D01*
X110499954Y-66839141D01*
X110660858Y-67000045D01*
X110660861Y-67000047D01*
X110847266Y-67130568D01*
X111053504Y-67226739D01*
X111273308Y-67285635D01*
X111435230Y-67299801D01*
X111499998Y-67305468D01*
X111500000Y-67305468D01*
X111500002Y-67305468D01*
X111556673Y-67300509D01*
X111726692Y-67285635D01*
X111946496Y-67226739D01*
X112152734Y-67130568D01*
X112339139Y-67000047D01*
X112500047Y-66839139D01*
X112630568Y-66652734D01*
X112726739Y-66446496D01*
X112785635Y-66226692D01*
X112805468Y-66000000D01*
X112785635Y-65773308D01*
X112779389Y-65749999D01*
X117841127Y-65749999D01*
X117841128Y-65750000D01*
X118804314Y-65750000D01*
X118792359Y-65761955D01*
X118734835Y-65874852D01*
X118715014Y-66000000D01*
X118734835Y-66125148D01*
X118792359Y-66238045D01*
X118804314Y-66250000D01*
X117841128Y-66250000D01*
X117893730Y-66446317D01*
X117893734Y-66446326D01*
X117989865Y-66652482D01*
X118120342Y-66838820D01*
X118281179Y-66999657D01*
X118467517Y-67130134D01*
X118673673Y-67226265D01*
X118673682Y-67226269D01*
X118869999Y-67278872D01*
X118870000Y-67278871D01*
X118870000Y-66315686D01*
X118881955Y-66327641D01*
X118994852Y-66385165D01*
X119088519Y-66400000D01*
X119151481Y-66400000D01*
X119245148Y-66385165D01*
X119358045Y-66327641D01*
X119370000Y-66315686D01*
X119370000Y-67278872D01*
X119566317Y-67226269D01*
X119566326Y-67226265D01*
X119772482Y-67130134D01*
X119958820Y-66999657D01*
X120119657Y-66838820D01*
X120250134Y-66652482D01*
X120346265Y-66446326D01*
X120346269Y-66446317D01*
X120398872Y-66250000D01*
X119435686Y-66250000D01*
X119447641Y-66238045D01*
X119505165Y-66125148D01*
X119524986Y-66000000D01*
X119505165Y-65874852D01*
X119447641Y-65761955D01*
X119435686Y-65750000D01*
X120398872Y-65750000D01*
X120398872Y-65749999D01*
X120346269Y-65553682D01*
X120346265Y-65553673D01*
X120321239Y-65500005D01*
X138185202Y-65500005D01*
X138204361Y-65731218D01*
X138261317Y-65956135D01*
X138354516Y-66168609D01*
X138438811Y-66297633D01*
X139027226Y-65709219D01*
X139065901Y-65802588D01*
X139162075Y-65927925D01*
X139287412Y-66024099D01*
X139380779Y-66062772D01*
X138791199Y-66652351D01*
X138821650Y-66676050D01*
X139025697Y-66786476D01*
X139025706Y-66786479D01*
X139245139Y-66861811D01*
X139473993Y-66900000D01*
X139706007Y-66900000D01*
X139934860Y-66861811D01*
X140154293Y-66786479D01*
X140154302Y-66786476D01*
X140358350Y-66676050D01*
X140388798Y-66652351D01*
X139799220Y-66062773D01*
X139892588Y-66024099D01*
X140017925Y-65927925D01*
X140114099Y-65802589D01*
X140152773Y-65709220D01*
X140741186Y-66297634D01*
X140825484Y-66168606D01*
X140918682Y-65956135D01*
X140975638Y-65731218D01*
X140994798Y-65500005D01*
X140994798Y-65499994D01*
X140975638Y-65268781D01*
X140918682Y-65043864D01*
X140825483Y-64831390D01*
X140741186Y-64702364D01*
X140152772Y-65290778D01*
X140114099Y-65197412D01*
X140017925Y-65072075D01*
X139892588Y-64975901D01*
X139799220Y-64937227D01*
X140388799Y-64347648D01*
X140388799Y-64347647D01*
X140358349Y-64323949D01*
X140154302Y-64213523D01*
X140154293Y-64213520D01*
X139934860Y-64138188D01*
X139706007Y-64100000D01*
X139473993Y-64100000D01*
X139245139Y-64138188D01*
X139025706Y-64213520D01*
X139025698Y-64213523D01*
X138821644Y-64323952D01*
X138791200Y-64347646D01*
X138791200Y-64347647D01*
X139380779Y-64937226D01*
X139287412Y-64975901D01*
X139162075Y-65072075D01*
X139065901Y-65197411D01*
X139027226Y-65290779D01*
X138438812Y-64702365D01*
X138354516Y-64831391D01*
X138354514Y-64831395D01*
X138261317Y-65043864D01*
X138204361Y-65268781D01*
X138185202Y-65499994D01*
X138185202Y-65500005D01*
X120321239Y-65500005D01*
X120250134Y-65347517D01*
X120119657Y-65161179D01*
X119958820Y-65000342D01*
X119772482Y-64869865D01*
X119566328Y-64773734D01*
X119370000Y-64721127D01*
X119370000Y-65684314D01*
X119358045Y-65672359D01*
X119245148Y-65614835D01*
X119151481Y-65600000D01*
X119088519Y-65600000D01*
X118994852Y-65614835D01*
X118881955Y-65672359D01*
X118870000Y-65684314D01*
X118870000Y-64721127D01*
X118673671Y-64773734D01*
X118467517Y-64869865D01*
X118281179Y-65000342D01*
X118120342Y-65161179D01*
X117989865Y-65347517D01*
X117893734Y-65553673D01*
X117893730Y-65553682D01*
X117841127Y-65749999D01*
X112779389Y-65749999D01*
X112726739Y-65553504D01*
X112630568Y-65347266D01*
X112500047Y-65160861D01*
X112500045Y-65160858D01*
X112339141Y-64999954D01*
X112152734Y-64869432D01*
X112152732Y-64869431D01*
X111946497Y-64773261D01*
X111946488Y-64773258D01*
X111726697Y-64714366D01*
X111726693Y-64714365D01*
X111726692Y-64714365D01*
X111726691Y-64714364D01*
X111726686Y-64714364D01*
X111500002Y-64694532D01*
X111499998Y-64694532D01*
X111273313Y-64714364D01*
X111273302Y-64714366D01*
X111053511Y-64773258D01*
X111053502Y-64773261D01*
X110847267Y-64869431D01*
X110847265Y-64869432D01*
X110660858Y-64999954D01*
X110499954Y-65160858D01*
X110369432Y-65347265D01*
X110369431Y-65347267D01*
X110273261Y-65553502D01*
X110273258Y-65553511D01*
X110214366Y-65773302D01*
X110214364Y-65773313D01*
X110194532Y-65999998D01*
X110194532Y-66000001D01*
X104702973Y-66000001D01*
X104695139Y-65895464D01*
X104695138Y-65895459D01*
X104636109Y-65636833D01*
X104636103Y-65636814D01*
X104539185Y-65389871D01*
X104539186Y-65389871D01*
X104406543Y-65160129D01*
X104406536Y-65160118D01*
X104356356Y-65097196D01*
X104356355Y-65097195D01*
X103530643Y-65922908D01*
X103519132Y-65887481D01*
X103433165Y-65752019D01*
X103316210Y-65642191D01*
X103179444Y-65567003D01*
X104003560Y-64742886D01*
X103827484Y-64622839D01*
X103827474Y-64622832D01*
X103588469Y-64507735D01*
X103588471Y-64507735D01*
X103334974Y-64429541D01*
X103334968Y-64429540D01*
X103072648Y-64390000D01*
X102807351Y-64390000D01*
X102545031Y-64429540D01*
X102545025Y-64429541D01*
X102291535Y-64507733D01*
X102154737Y-64573611D01*
X102085795Y-64584962D01*
X102021661Y-64557239D01*
X101982696Y-64499244D01*
X101981271Y-64429388D01*
X101993553Y-64399883D01*
X101999186Y-64390126D01*
X102096103Y-64143185D01*
X102096109Y-64143166D01*
X102155138Y-63884540D01*
X102155139Y-63884535D01*
X102174963Y-63620004D01*
X102174963Y-63619995D01*
X102155139Y-63355464D01*
X102155138Y-63355459D01*
X102096109Y-63096833D01*
X102096103Y-63096814D01*
X101999187Y-62849874D01*
X101993994Y-62840880D01*
X101977521Y-62772980D01*
X102000373Y-62706953D01*
X102055294Y-62663762D01*
X102124847Y-62657120D01*
X102155180Y-62667158D01*
X102291350Y-62732734D01*
X102544922Y-62810950D01*
X102544923Y-62810950D01*
X102544926Y-62810951D01*
X102807311Y-62850499D01*
X102807316Y-62850499D01*
X102807319Y-62850500D01*
X102807320Y-62850500D01*
X103072680Y-62850500D01*
X103072681Y-62850500D01*
X103072688Y-62850499D01*
X103335073Y-62810951D01*
X103335074Y-62810950D01*
X103335078Y-62810950D01*
X103588650Y-62732734D01*
X103780071Y-62640550D01*
X103827725Y-62617602D01*
X103827725Y-62617601D01*
X103827733Y-62617598D01*
X104046984Y-62468114D01*
X104241508Y-62287623D01*
X104406958Y-62080155D01*
X104539639Y-61850345D01*
X104636586Y-61603327D01*
X104695635Y-61344619D01*
X104700055Y-61285635D01*
X104715465Y-61080004D01*
X104715465Y-61079995D01*
X104695636Y-60815390D01*
X104695635Y-60815385D01*
X104695635Y-60815381D01*
X104636586Y-60556673D01*
X104539639Y-60309655D01*
X104406958Y-60079845D01*
X104343285Y-60000001D01*
X110194532Y-60000001D01*
X110214364Y-60226686D01*
X110214366Y-60226697D01*
X110273258Y-60446488D01*
X110273261Y-60446497D01*
X110369431Y-60652732D01*
X110369432Y-60652734D01*
X110499954Y-60839141D01*
X110660858Y-61000045D01*
X110660861Y-61000047D01*
X110847266Y-61130568D01*
X111053504Y-61226739D01*
X111273308Y-61285635D01*
X111435230Y-61299801D01*
X111499998Y-61305468D01*
X111500000Y-61305468D01*
X111500002Y-61305468D01*
X111556673Y-61300509D01*
X111726692Y-61285635D01*
X111946496Y-61226739D01*
X112152734Y-61130568D01*
X112339139Y-61000047D01*
X112500047Y-60839139D01*
X112630568Y-60652734D01*
X112726739Y-60446496D01*
X112785635Y-60226692D01*
X112805468Y-60000001D01*
X117814532Y-60000001D01*
X117834364Y-60226686D01*
X117834366Y-60226697D01*
X117893258Y-60446488D01*
X117893261Y-60446497D01*
X117989431Y-60652732D01*
X117989432Y-60652734D01*
X118119954Y-60839141D01*
X118280858Y-61000045D01*
X118280861Y-61000047D01*
X118467266Y-61130568D01*
X118673504Y-61226739D01*
X118893308Y-61285635D01*
X119055230Y-61299801D01*
X119119998Y-61305468D01*
X119120000Y-61305468D01*
X119120002Y-61305468D01*
X119176673Y-61300509D01*
X119346692Y-61285635D01*
X119566496Y-61226739D01*
X119772734Y-61130568D01*
X119959139Y-61000047D01*
X120120047Y-60839139D01*
X120250568Y-60652734D01*
X120321787Y-60500006D01*
X138184700Y-60500006D01*
X138203864Y-60731297D01*
X138203866Y-60731308D01*
X138260842Y-60956300D01*
X138354075Y-61168848D01*
X138481016Y-61363147D01*
X138481019Y-61363151D01*
X138481021Y-61363153D01*
X138638216Y-61533913D01*
X138638219Y-61533915D01*
X138638222Y-61533918D01*
X138821365Y-61676464D01*
X138821371Y-61676468D01*
X138821374Y-61676470D01*
X139025497Y-61786936D01*
X139139487Y-61826068D01*
X139245015Y-61862297D01*
X139245017Y-61862297D01*
X139245019Y-61862298D01*
X139473951Y-61900500D01*
X139473952Y-61900500D01*
X139706048Y-61900500D01*
X139706049Y-61900500D01*
X139934981Y-61862298D01*
X140154503Y-61786936D01*
X140358626Y-61676470D01*
X140541784Y-61533913D01*
X140698979Y-61363153D01*
X140825924Y-61168849D01*
X140919157Y-60956300D01*
X140976134Y-60731305D01*
X140976135Y-60731297D01*
X140995300Y-60500006D01*
X140995300Y-60499993D01*
X140976135Y-60268702D01*
X140976133Y-60268691D01*
X140919157Y-60043699D01*
X140825924Y-59831151D01*
X140698983Y-59636852D01*
X140698980Y-59636849D01*
X140698979Y-59636847D01*
X140541784Y-59466087D01*
X140541779Y-59466083D01*
X140541777Y-59466081D01*
X140358634Y-59323535D01*
X140358628Y-59323531D01*
X140154504Y-59213064D01*
X140154495Y-59213061D01*
X139934984Y-59137702D01*
X139763282Y-59109050D01*
X139706049Y-59099500D01*
X139473951Y-59099500D01*
X139428164Y-59107140D01*
X139245015Y-59137702D01*
X139025504Y-59213061D01*
X139025495Y-59213064D01*
X138821371Y-59323531D01*
X138821365Y-59323535D01*
X138638222Y-59466081D01*
X138638219Y-59466084D01*
X138481016Y-59636852D01*
X138354075Y-59831151D01*
X138260842Y-60043699D01*
X138203866Y-60268691D01*
X138203864Y-60268702D01*
X138184700Y-60499993D01*
X138184700Y-60500006D01*
X120321787Y-60500006D01*
X120346739Y-60446496D01*
X120405635Y-60226692D01*
X120425468Y-60000000D01*
X120405635Y-59773308D01*
X120346739Y-59553504D01*
X120250568Y-59347266D01*
X120120047Y-59160861D01*
X120120045Y-59160858D01*
X119959141Y-58999954D01*
X119772734Y-58869432D01*
X119772732Y-58869431D01*
X119566497Y-58773261D01*
X119566488Y-58773258D01*
X119346697Y-58714366D01*
X119346693Y-58714365D01*
X119346692Y-58714365D01*
X119346691Y-58714364D01*
X119346686Y-58714364D01*
X119120002Y-58694532D01*
X119119998Y-58694532D01*
X118893313Y-58714364D01*
X118893302Y-58714366D01*
X118673511Y-58773258D01*
X118673502Y-58773261D01*
X118467267Y-58869431D01*
X118467265Y-58869432D01*
X118280858Y-58999954D01*
X118119954Y-59160858D01*
X117989432Y-59347265D01*
X117989431Y-59347267D01*
X117893261Y-59553502D01*
X117893258Y-59553511D01*
X117834366Y-59773302D01*
X117834364Y-59773313D01*
X117814532Y-59999998D01*
X117814532Y-60000001D01*
X112805468Y-60000001D01*
X112805468Y-60000000D01*
X112785635Y-59773308D01*
X112726739Y-59553504D01*
X112630568Y-59347266D01*
X112500047Y-59160861D01*
X112500045Y-59160858D01*
X112339141Y-58999954D01*
X112152734Y-58869432D01*
X112152732Y-58869431D01*
X111946497Y-58773261D01*
X111946488Y-58773258D01*
X111726697Y-58714366D01*
X111726693Y-58714365D01*
X111726692Y-58714365D01*
X111726691Y-58714364D01*
X111726686Y-58714364D01*
X111500002Y-58694532D01*
X111499998Y-58694532D01*
X111273313Y-58714364D01*
X111273302Y-58714366D01*
X111053511Y-58773258D01*
X111053502Y-58773261D01*
X110847267Y-58869431D01*
X110847265Y-58869432D01*
X110660858Y-58999954D01*
X110499954Y-59160858D01*
X110369432Y-59347265D01*
X110369431Y-59347267D01*
X110273261Y-59553502D01*
X110273258Y-59553511D01*
X110214366Y-59773302D01*
X110214364Y-59773313D01*
X110194532Y-59999998D01*
X110194532Y-60000001D01*
X104343285Y-60000001D01*
X104241508Y-59872377D01*
X104046984Y-59691886D01*
X103966257Y-59636847D01*
X103827736Y-59542404D01*
X103827725Y-59542397D01*
X103588655Y-59427268D01*
X103588636Y-59427261D01*
X103335083Y-59349051D01*
X103335073Y-59349048D01*
X103072688Y-59309500D01*
X103072681Y-59309500D01*
X102807319Y-59309500D01*
X102807311Y-59309500D01*
X102544926Y-59349048D01*
X102544916Y-59349051D01*
X102291363Y-59427261D01*
X102291344Y-59427268D01*
X102052276Y-59542397D01*
X102052274Y-59542398D01*
X101833015Y-59691886D01*
X101638494Y-59872375D01*
X101638492Y-59872377D01*
X101473042Y-60079845D01*
X101340361Y-60309654D01*
X101243416Y-60556667D01*
X101243410Y-60556686D01*
X101184364Y-60815385D01*
X101184363Y-60815390D01*
X101164535Y-61079995D01*
X101164535Y-61080004D01*
X101184363Y-61344609D01*
X101184364Y-61344614D01*
X101243410Y-61603313D01*
X101243416Y-61603332D01*
X101340360Y-61850344D01*
X101345648Y-61859502D01*
X101362122Y-61927402D01*
X101339270Y-61993430D01*
X101284350Y-62036621D01*
X101214797Y-62043263D01*
X101184461Y-62033225D01*
X101048464Y-61967733D01*
X100794974Y-61889541D01*
X100794968Y-61889540D01*
X100532648Y-61850000D01*
X100267351Y-61850000D01*
X100005031Y-61889540D01*
X100005025Y-61889541D01*
X99751529Y-61967735D01*
X99512526Y-62082832D01*
X99512518Y-62082837D01*
X99336438Y-62202886D01*
X100164022Y-63030470D01*
X100091655Y-63059123D01*
X99961858Y-63153426D01*
X99859590Y-63277046D01*
X99809640Y-63383193D01*
X98983643Y-62557196D01*
X98933456Y-62620128D01*
X98800814Y-62849871D01*
X98703896Y-63096814D01*
X98703890Y-63096833D01*
X98644861Y-63355459D01*
X98644860Y-63355464D01*
X98625037Y-63619995D01*
X98625037Y-63620004D01*
X41500500Y-63620004D01*
X41500500Y-61080004D01*
X73224535Y-61080004D01*
X73244363Y-61344609D01*
X73244364Y-61344614D01*
X73303410Y-61603313D01*
X73303412Y-61603322D01*
X73303414Y-61603327D01*
X73400361Y-61850345D01*
X73533042Y-62080155D01*
X73698492Y-62287623D01*
X73893016Y-62468114D01*
X74112268Y-62617598D01*
X74112273Y-62617600D01*
X74112274Y-62617601D01*
X74112276Y-62617602D01*
X74194336Y-62657120D01*
X74351350Y-62732734D01*
X74604922Y-62810950D01*
X74604923Y-62810950D01*
X74604926Y-62810951D01*
X74867311Y-62850499D01*
X74867316Y-62850499D01*
X74867319Y-62850500D01*
X74867320Y-62850500D01*
X75132680Y-62850500D01*
X75132681Y-62850500D01*
X75132688Y-62850499D01*
X75395073Y-62810951D01*
X75395074Y-62810950D01*
X75395078Y-62810950D01*
X75648650Y-62732734D01*
X75840071Y-62640550D01*
X75887725Y-62617602D01*
X75887725Y-62617601D01*
X75887733Y-62617598D01*
X76106984Y-62468114D01*
X76301508Y-62287623D01*
X76466958Y-62080155D01*
X76599639Y-61850345D01*
X76696586Y-61603327D01*
X76755635Y-61344619D01*
X76760055Y-61285635D01*
X76775465Y-61080004D01*
X76775465Y-61079995D01*
X76755636Y-60815390D01*
X76755635Y-60815385D01*
X76755635Y-60815381D01*
X76696586Y-60556673D01*
X76599639Y-60309655D01*
X76466958Y-60079845D01*
X76301508Y-59872377D01*
X76106984Y-59691886D01*
X76026257Y-59636847D01*
X75887736Y-59542404D01*
X75887725Y-59542397D01*
X75648655Y-59427268D01*
X75648636Y-59427261D01*
X75395083Y-59349051D01*
X75395073Y-59349048D01*
X75132688Y-59309500D01*
X75132681Y-59309500D01*
X74867319Y-59309500D01*
X74867311Y-59309500D01*
X74604926Y-59349048D01*
X74604916Y-59349051D01*
X74351363Y-59427261D01*
X74351344Y-59427268D01*
X74112276Y-59542397D01*
X74112274Y-59542398D01*
X73893015Y-59691886D01*
X73698494Y-59872375D01*
X73698492Y-59872377D01*
X73533042Y-60079845D01*
X73400361Y-60309654D01*
X73303416Y-60556667D01*
X73303410Y-60556686D01*
X73244364Y-60815385D01*
X73244363Y-60815390D01*
X73224535Y-61079995D01*
X73224535Y-61080004D01*
X41500500Y-61080004D01*
X41500500Y-56000004D01*
X73224535Y-56000004D01*
X73244363Y-56264609D01*
X73244364Y-56264614D01*
X73303410Y-56523313D01*
X73303412Y-56523322D01*
X73303414Y-56523327D01*
X73400361Y-56770345D01*
X73533042Y-57000155D01*
X73698492Y-57207623D01*
X73893016Y-57388114D01*
X74112268Y-57537598D01*
X74351350Y-57652734D01*
X74604922Y-57730950D01*
X74604923Y-57730950D01*
X74604926Y-57730951D01*
X74867311Y-57770499D01*
X74867316Y-57770499D01*
X74867319Y-57770500D01*
X74867320Y-57770500D01*
X75132680Y-57770500D01*
X75132681Y-57770500D01*
X75132688Y-57770499D01*
X75395073Y-57730951D01*
X75395074Y-57730950D01*
X75395078Y-57730950D01*
X75648650Y-57652734D01*
X75887733Y-57537598D01*
X76106984Y-57388114D01*
X76301508Y-57207623D01*
X76466958Y-57000155D01*
X76599639Y-56770345D01*
X76696586Y-56523327D01*
X76755635Y-56264619D01*
X76775465Y-56000004D01*
X101164535Y-56000004D01*
X101184363Y-56264609D01*
X101184364Y-56264614D01*
X101243410Y-56523313D01*
X101243412Y-56523322D01*
X101243414Y-56523327D01*
X101340361Y-56770345D01*
X101473042Y-57000155D01*
X101638492Y-57207623D01*
X101833016Y-57388114D01*
X102052268Y-57537598D01*
X102291350Y-57652734D01*
X102544922Y-57730950D01*
X102544923Y-57730950D01*
X102544926Y-57730951D01*
X102807311Y-57770499D01*
X102807316Y-57770499D01*
X102807319Y-57770500D01*
X102807320Y-57770500D01*
X103072680Y-57770500D01*
X103072681Y-57770500D01*
X103072688Y-57770499D01*
X103335073Y-57730951D01*
X103335074Y-57730950D01*
X103335078Y-57730950D01*
X103588650Y-57652734D01*
X103827733Y-57537598D01*
X104046984Y-57388114D01*
X104241508Y-57207623D01*
X104406958Y-57000155D01*
X104539639Y-56770345D01*
X104636586Y-56523327D01*
X104695635Y-56264619D01*
X104715465Y-56000000D01*
X104712190Y-55956300D01*
X104695636Y-55735390D01*
X104695635Y-55735385D01*
X104695635Y-55735381D01*
X104641912Y-55500006D01*
X138184700Y-55500006D01*
X138203864Y-55731297D01*
X138203866Y-55731308D01*
X138260842Y-55956300D01*
X138354075Y-56168848D01*
X138481016Y-56363147D01*
X138481019Y-56363151D01*
X138481021Y-56363153D01*
X138638216Y-56533913D01*
X138638219Y-56533915D01*
X138638222Y-56533918D01*
X138821365Y-56676464D01*
X138821371Y-56676468D01*
X138821374Y-56676470D01*
X139025497Y-56786936D01*
X139139487Y-56826068D01*
X139245015Y-56862297D01*
X139245017Y-56862297D01*
X139245019Y-56862298D01*
X139473951Y-56900500D01*
X139473952Y-56900500D01*
X139706048Y-56900500D01*
X139706049Y-56900500D01*
X139934981Y-56862298D01*
X140154503Y-56786936D01*
X140358626Y-56676470D01*
X140541784Y-56533913D01*
X140698979Y-56363153D01*
X140825924Y-56168849D01*
X140919157Y-55956300D01*
X140976134Y-55731305D01*
X140995300Y-55500000D01*
X140995300Y-55499993D01*
X140976135Y-55268702D01*
X140976133Y-55268691D01*
X140919157Y-55043699D01*
X140825924Y-54831151D01*
X140698983Y-54636852D01*
X140698980Y-54636849D01*
X140698979Y-54636847D01*
X140541784Y-54466087D01*
X140541779Y-54466083D01*
X140541777Y-54466081D01*
X140358634Y-54323535D01*
X140358628Y-54323531D01*
X140154504Y-54213064D01*
X140154495Y-54213061D01*
X139934984Y-54137702D01*
X139763282Y-54109050D01*
X139706049Y-54099500D01*
X139473951Y-54099500D01*
X139428164Y-54107140D01*
X139245015Y-54137702D01*
X139025504Y-54213061D01*
X139025495Y-54213064D01*
X138821371Y-54323531D01*
X138821365Y-54323535D01*
X138638222Y-54466081D01*
X138638219Y-54466084D01*
X138481016Y-54636852D01*
X138354075Y-54831151D01*
X138260842Y-55043699D01*
X138203866Y-55268691D01*
X138203864Y-55268702D01*
X138184700Y-55499993D01*
X138184700Y-55500006D01*
X104641912Y-55500006D01*
X104636586Y-55476673D01*
X104539639Y-55229655D01*
X104406958Y-54999845D01*
X104241508Y-54792377D01*
X104046984Y-54611886D01*
X103833133Y-54466084D01*
X103827736Y-54462404D01*
X103827725Y-54462397D01*
X103588655Y-54347268D01*
X103588636Y-54347261D01*
X103335083Y-54269051D01*
X103335073Y-54269048D01*
X103072688Y-54229500D01*
X103072681Y-54229500D01*
X102807319Y-54229500D01*
X102807311Y-54229500D01*
X102544926Y-54269048D01*
X102544916Y-54269051D01*
X102291363Y-54347261D01*
X102291344Y-54347268D01*
X102052276Y-54462397D01*
X102052274Y-54462398D01*
X101833015Y-54611886D01*
X101638494Y-54792375D01*
X101638492Y-54792377D01*
X101473042Y-54999845D01*
X101340361Y-55229654D01*
X101243416Y-55476667D01*
X101243410Y-55476686D01*
X101184364Y-55735385D01*
X101184363Y-55735390D01*
X101164535Y-55999995D01*
X101164535Y-56000004D01*
X76775465Y-56000004D01*
X76775465Y-56000000D01*
X76772190Y-55956300D01*
X76755636Y-55735390D01*
X76755635Y-55735385D01*
X76755635Y-55735381D01*
X76696586Y-55476673D01*
X76599639Y-55229655D01*
X76466958Y-54999845D01*
X76301508Y-54792377D01*
X76106984Y-54611886D01*
X75893133Y-54466084D01*
X75887736Y-54462404D01*
X75887725Y-54462397D01*
X75648655Y-54347268D01*
X75648636Y-54347261D01*
X75395083Y-54269051D01*
X75395073Y-54269048D01*
X75132688Y-54229500D01*
X75132681Y-54229500D01*
X74867319Y-54229500D01*
X74867311Y-54229500D01*
X74604926Y-54269048D01*
X74604916Y-54269051D01*
X74351363Y-54347261D01*
X74351344Y-54347268D01*
X74112276Y-54462397D01*
X74112274Y-54462398D01*
X73893015Y-54611886D01*
X73698494Y-54792375D01*
X73698492Y-54792377D01*
X73533042Y-54999845D01*
X73400361Y-55229654D01*
X73303416Y-55476667D01*
X73303410Y-55476686D01*
X73244364Y-55735385D01*
X73244363Y-55735390D01*
X73224535Y-55999995D01*
X73224535Y-56000004D01*
X41500500Y-56000004D01*
X41500500Y-45750000D01*
X57211210Y-45750000D01*
X57230333Y-45968582D01*
X57230335Y-45968592D01*
X57287121Y-46180524D01*
X57287124Y-46180533D01*
X57379855Y-46379393D01*
X57379856Y-46379395D01*
X57424002Y-46442442D01*
X57424003Y-46442443D01*
X57986922Y-45879523D01*
X58010507Y-45959844D01*
X58088239Y-46080798D01*
X58196900Y-46174952D01*
X58327685Y-46234680D01*
X58337466Y-46236086D01*
X57777555Y-46795996D01*
X57840604Y-46840143D01*
X57840606Y-46840144D01*
X58039466Y-46932875D01*
X58039475Y-46932878D01*
X58251407Y-46989664D01*
X58251417Y-46989666D01*
X58469999Y-47008790D01*
X58470001Y-47008790D01*
X58688582Y-46989666D01*
X58688592Y-46989664D01*
X58900524Y-46932878D01*
X58900533Y-46932874D01*
X59099392Y-46840145D01*
X59162443Y-46795996D01*
X58602534Y-46236086D01*
X58612315Y-46234680D01*
X58743100Y-46174952D01*
X58851761Y-46080798D01*
X58929493Y-45959844D01*
X58953076Y-45879523D01*
X59515996Y-46442443D01*
X59560146Y-46379390D01*
X59607342Y-46278179D01*
X59653514Y-46225739D01*
X59720707Y-46206587D01*
X59787589Y-46226802D01*
X59832106Y-46278178D01*
X59879421Y-46379646D01*
X59879423Y-46379650D01*
X60005322Y-46559452D01*
X60005327Y-46559458D01*
X60160541Y-46714672D01*
X60160547Y-46714677D01*
X60340349Y-46840576D01*
X60340351Y-46840577D01*
X60340354Y-46840579D01*
X60539297Y-46933347D01*
X60751326Y-46990161D01*
X60907521Y-47003826D01*
X60969998Y-47009292D01*
X60970000Y-47009292D01*
X60970002Y-47009292D01*
X61024668Y-47004509D01*
X61188674Y-46990161D01*
X61400703Y-46933347D01*
X61599646Y-46840579D01*
X61779457Y-46714674D01*
X61934674Y-46559457D01*
X62060579Y-46379646D01*
X62107895Y-46278175D01*
X62154064Y-46225740D01*
X62221258Y-46206587D01*
X62288139Y-46226802D01*
X62332657Y-46278177D01*
X62379857Y-46379396D01*
X62424002Y-46442442D01*
X62424003Y-46442443D01*
X62986922Y-45879523D01*
X63010507Y-45959844D01*
X63088239Y-46080798D01*
X63196900Y-46174952D01*
X63327685Y-46234680D01*
X63337466Y-46236086D01*
X62777555Y-46795996D01*
X62840604Y-46840143D01*
X62840606Y-46840144D01*
X63039466Y-46932875D01*
X63039475Y-46932878D01*
X63251407Y-46989664D01*
X63251417Y-46989666D01*
X63469999Y-47008790D01*
X63470001Y-47008790D01*
X63688582Y-46989666D01*
X63688592Y-46989664D01*
X63900524Y-46932878D01*
X63900533Y-46932874D01*
X64099392Y-46840145D01*
X64162443Y-46795996D01*
X63602534Y-46236086D01*
X63612315Y-46234680D01*
X63743100Y-46174952D01*
X63851761Y-46080798D01*
X63929493Y-45959844D01*
X63953076Y-45879523D01*
X64515996Y-46442443D01*
X64560145Y-46379392D01*
X64652874Y-46180533D01*
X64652878Y-46180524D01*
X64709664Y-45968592D01*
X64709666Y-45968582D01*
X64728790Y-45750000D01*
X64728790Y-45749999D01*
X64709666Y-45531417D01*
X64709664Y-45531407D01*
X64652878Y-45319475D01*
X64652875Y-45319466D01*
X64560144Y-45120606D01*
X64560143Y-45120604D01*
X64515996Y-45057556D01*
X64515996Y-45057555D01*
X63953076Y-45620475D01*
X63929493Y-45540156D01*
X63851761Y-45419202D01*
X63743100Y-45325048D01*
X63612315Y-45265320D01*
X63602533Y-45263913D01*
X64162443Y-44704003D01*
X64162442Y-44704002D01*
X64099395Y-44659856D01*
X64099393Y-44659855D01*
X63997587Y-44612382D01*
X63945148Y-44566209D01*
X63926276Y-44500000D01*
X71694540Y-44500000D01*
X71714326Y-44688256D01*
X71714327Y-44688259D01*
X71772818Y-44868277D01*
X71772821Y-44868284D01*
X71867467Y-45032216D01*
X71963487Y-45138857D01*
X71994129Y-45172888D01*
X72147265Y-45284148D01*
X72147270Y-45284151D01*
X72320192Y-45361142D01*
X72320197Y-45361144D01*
X72505354Y-45400500D01*
X72505355Y-45400500D01*
X72529916Y-45400500D01*
X72596955Y-45420185D01*
X72642710Y-45472989D01*
X72652654Y-45542147D01*
X72623629Y-45605703D01*
X72622135Y-45607393D01*
X72570411Y-45664840D01*
X72570409Y-45664841D01*
X72570408Y-45664844D01*
X72475765Y-45828771D01*
X72475762Y-45828778D01*
X72420129Y-46000000D01*
X72417270Y-46008800D01*
X72397484Y-46197056D01*
X72417270Y-46385312D01*
X72417271Y-46385315D01*
X72475762Y-46565333D01*
X72475765Y-46565340D01*
X72570411Y-46729272D01*
X72676915Y-46847556D01*
X72697073Y-46869944D01*
X72850209Y-46981204D01*
X72850214Y-46981207D01*
X73023136Y-47058198D01*
X73023141Y-47058200D01*
X73208298Y-47097556D01*
X73208299Y-47097556D01*
X73397588Y-47097556D01*
X73397590Y-47097556D01*
X73582747Y-47058200D01*
X73755674Y-46981207D01*
X73904674Y-46872951D01*
X73970479Y-46849473D01*
X74038533Y-46865298D01*
X74087228Y-46915404D01*
X74100878Y-46960306D01*
X74114326Y-47088256D01*
X74114327Y-47088259D01*
X74172818Y-47268277D01*
X74172821Y-47268284D01*
X74267467Y-47432216D01*
X74373971Y-47550500D01*
X74394129Y-47572888D01*
X74547265Y-47684148D01*
X74547270Y-47684151D01*
X74720192Y-47761142D01*
X74720197Y-47761144D01*
X74905354Y-47800500D01*
X74905355Y-47800500D01*
X75094644Y-47800500D01*
X75094646Y-47800500D01*
X75279803Y-47761144D01*
X75452730Y-47684151D01*
X75605871Y-47572888D01*
X75732533Y-47432216D01*
X75827179Y-47268284D01*
X75885674Y-47088256D01*
X75899121Y-46960305D01*
X75925704Y-46895696D01*
X75983001Y-46855710D01*
X76052820Y-46853050D01*
X76095326Y-46872953D01*
X76244321Y-46981204D01*
X76244326Y-46981207D01*
X76417248Y-47058198D01*
X76417253Y-47058200D01*
X76602410Y-47097556D01*
X76602411Y-47097556D01*
X76791700Y-47097556D01*
X76791702Y-47097556D01*
X76976859Y-47058200D01*
X77149786Y-46981207D01*
X77302927Y-46869944D01*
X77429589Y-46729272D01*
X77524235Y-46565340D01*
X77582730Y-46385312D01*
X77602516Y-46197056D01*
X77582730Y-46008800D01*
X77524235Y-45828772D01*
X77429589Y-45664840D01*
X77377932Y-45607469D01*
X77347704Y-45544481D01*
X77356329Y-45475146D01*
X77401070Y-45421480D01*
X77467723Y-45400522D01*
X77470084Y-45400500D01*
X77494644Y-45400500D01*
X77494646Y-45400500D01*
X77679803Y-45361144D01*
X77852730Y-45284151D01*
X78005871Y-45172888D01*
X78132533Y-45032216D01*
X78227179Y-44868284D01*
X78285674Y-44688256D01*
X78305460Y-44500000D01*
X78285674Y-44311744D01*
X78282815Y-44302944D01*
X84694540Y-44302944D01*
X84714326Y-44491200D01*
X84714327Y-44491203D01*
X84772818Y-44671221D01*
X84772821Y-44671228D01*
X84867467Y-44835160D01*
X84946458Y-44922888D01*
X84994129Y-44975832D01*
X85147265Y-45087092D01*
X85147270Y-45087095D01*
X85320192Y-45164086D01*
X85320197Y-45164088D01*
X85505354Y-45203444D01*
X85505355Y-45203444D01*
X85529916Y-45203444D01*
X85596955Y-45223129D01*
X85642710Y-45275933D01*
X85652654Y-45345091D01*
X85623629Y-45408647D01*
X85622135Y-45410337D01*
X85570411Y-45467784D01*
X85570409Y-45467785D01*
X85570408Y-45467788D01*
X85475765Y-45631715D01*
X85475762Y-45631722D01*
X85417271Y-45811740D01*
X85417270Y-45811744D01*
X85397484Y-46000000D01*
X85417270Y-46188256D01*
X85417271Y-46188259D01*
X85475762Y-46368277D01*
X85475765Y-46368284D01*
X85570411Y-46532216D01*
X85678641Y-46652417D01*
X85697073Y-46672888D01*
X85850209Y-46784148D01*
X85850214Y-46784151D01*
X86023136Y-46861142D01*
X86023141Y-46861144D01*
X86208298Y-46900500D01*
X86208299Y-46900500D01*
X86397588Y-46900500D01*
X86397590Y-46900500D01*
X86582747Y-46861144D01*
X86755674Y-46784151D01*
X86904674Y-46675895D01*
X86970479Y-46652417D01*
X87038533Y-46668242D01*
X87087228Y-46718348D01*
X87100878Y-46763250D01*
X87114326Y-46891200D01*
X87114327Y-46891203D01*
X87172818Y-47071221D01*
X87172821Y-47071228D01*
X87267467Y-47235160D01*
X87346458Y-47322888D01*
X87394129Y-47375832D01*
X87547265Y-47487092D01*
X87547270Y-47487095D01*
X87720192Y-47564086D01*
X87720197Y-47564088D01*
X87905354Y-47603444D01*
X87905355Y-47603444D01*
X88094644Y-47603444D01*
X88094646Y-47603444D01*
X88279803Y-47564088D01*
X88452730Y-47487095D01*
X88605871Y-47375832D01*
X88732533Y-47235160D01*
X88827179Y-47071228D01*
X88885674Y-46891200D01*
X88899121Y-46763249D01*
X88925704Y-46698640D01*
X88983001Y-46658654D01*
X89052820Y-46655994D01*
X89095326Y-46675897D01*
X89244321Y-46784148D01*
X89244326Y-46784151D01*
X89417248Y-46861142D01*
X89417253Y-46861144D01*
X89602410Y-46900500D01*
X89602411Y-46900500D01*
X89791700Y-46900500D01*
X89791702Y-46900500D01*
X89976859Y-46861144D01*
X90149786Y-46784151D01*
X90302927Y-46672888D01*
X90429589Y-46532216D01*
X90524235Y-46368284D01*
X90582730Y-46188256D01*
X90602516Y-46000000D01*
X90582730Y-45811744D01*
X90524235Y-45631716D01*
X90429589Y-45467784D01*
X90377932Y-45410413D01*
X90347704Y-45347425D01*
X90356329Y-45278090D01*
X90401070Y-45224424D01*
X90467723Y-45203466D01*
X90470084Y-45203444D01*
X90494644Y-45203444D01*
X90494646Y-45203444D01*
X90679803Y-45164088D01*
X90852730Y-45087095D01*
X91005871Y-44975832D01*
X91132533Y-44835160D01*
X91227179Y-44671228D01*
X91285674Y-44491200D01*
X91305460Y-44302944D01*
X91299896Y-44250000D01*
X130944540Y-44250000D01*
X130964326Y-44438256D01*
X130964327Y-44438259D01*
X131022818Y-44618277D01*
X131022821Y-44618284D01*
X131117467Y-44782216D01*
X131225839Y-44902575D01*
X131244129Y-44922888D01*
X131397265Y-45034148D01*
X131397270Y-45034151D01*
X131570192Y-45111142D01*
X131570197Y-45111144D01*
X131755354Y-45150500D01*
X131755355Y-45150500D01*
X131779916Y-45150500D01*
X131846955Y-45170185D01*
X131892710Y-45222989D01*
X131902654Y-45292147D01*
X131873629Y-45355703D01*
X131872135Y-45357393D01*
X131820411Y-45414840D01*
X131820409Y-45414841D01*
X131820408Y-45414844D01*
X131725765Y-45578771D01*
X131725762Y-45578778D01*
X131670129Y-45750000D01*
X131667270Y-45758800D01*
X131647484Y-45947056D01*
X131667270Y-46135312D01*
X131667271Y-46135315D01*
X131725762Y-46315333D01*
X131725765Y-46315340D01*
X131820411Y-46479272D01*
X131928641Y-46599473D01*
X131947073Y-46619944D01*
X132100209Y-46731204D01*
X132100214Y-46731207D01*
X132273136Y-46808198D01*
X132273141Y-46808200D01*
X132458298Y-46847556D01*
X132458299Y-46847556D01*
X132647588Y-46847556D01*
X132647590Y-46847556D01*
X132832747Y-46808200D01*
X133005674Y-46731207D01*
X133154674Y-46622951D01*
X133220479Y-46599473D01*
X133288533Y-46615298D01*
X133337228Y-46665404D01*
X133350878Y-46710306D01*
X133364326Y-46838256D01*
X133364327Y-46838259D01*
X133422818Y-47018277D01*
X133422821Y-47018284D01*
X133517467Y-47182216D01*
X133644129Y-47322888D01*
X133797265Y-47434148D01*
X133797270Y-47434151D01*
X133970192Y-47511142D01*
X133970197Y-47511144D01*
X134155354Y-47550500D01*
X134155355Y-47550500D01*
X134344644Y-47550500D01*
X134344646Y-47550500D01*
X134529803Y-47511144D01*
X134702730Y-47434151D01*
X134855871Y-47322888D01*
X134982533Y-47182216D01*
X135077179Y-47018284D01*
X135135674Y-46838256D01*
X135149121Y-46710305D01*
X135175704Y-46645696D01*
X135233001Y-46605710D01*
X135302820Y-46603050D01*
X135345326Y-46622953D01*
X135494321Y-46731204D01*
X135494326Y-46731207D01*
X135667248Y-46808198D01*
X135667253Y-46808200D01*
X135852410Y-46847556D01*
X135852411Y-46847556D01*
X136041700Y-46847556D01*
X136041702Y-46847556D01*
X136226859Y-46808200D01*
X136399786Y-46731207D01*
X136552927Y-46619944D01*
X136679589Y-46479272D01*
X136774235Y-46315340D01*
X136832730Y-46135312D01*
X136852516Y-45947056D01*
X136832730Y-45758800D01*
X136774235Y-45578772D01*
X136679589Y-45414840D01*
X136627932Y-45357469D01*
X136597704Y-45294481D01*
X136606329Y-45225146D01*
X136651070Y-45171480D01*
X136717723Y-45150522D01*
X136720084Y-45150500D01*
X136744644Y-45150500D01*
X136744646Y-45150500D01*
X136929803Y-45111144D01*
X137102730Y-45034151D01*
X137255871Y-44922888D01*
X137382533Y-44782216D01*
X137477179Y-44618284D01*
X137535674Y-44438256D01*
X137555460Y-44250000D01*
X137535674Y-44061744D01*
X137477179Y-43881716D01*
X137382533Y-43717784D01*
X137255871Y-43577112D01*
X137188398Y-43528090D01*
X137102734Y-43465851D01*
X137102729Y-43465848D01*
X136929807Y-43388857D01*
X136929802Y-43388855D01*
X136784001Y-43357865D01*
X136744646Y-43349500D01*
X136720084Y-43349500D01*
X136653045Y-43329815D01*
X136607290Y-43277011D01*
X136597346Y-43207853D01*
X136626371Y-43144297D01*
X136627864Y-43142606D01*
X136679589Y-43085160D01*
X136774235Y-42921228D01*
X136832730Y-42741200D01*
X136852516Y-42552944D01*
X136832730Y-42364688D01*
X136774235Y-42184660D01*
X136679589Y-42020728D01*
X136552927Y-41880056D01*
X136552926Y-41880055D01*
X136399790Y-41768795D01*
X136399785Y-41768792D01*
X136226863Y-41691801D01*
X136226858Y-41691799D01*
X136081057Y-41660809D01*
X136041702Y-41652444D01*
X135852410Y-41652444D01*
X135819953Y-41659342D01*
X135667253Y-41691799D01*
X135667248Y-41691801D01*
X135494327Y-41768792D01*
X135345326Y-41877047D01*
X135279519Y-41900526D01*
X135211466Y-41884700D01*
X135162771Y-41834594D01*
X135149121Y-41789695D01*
X135135674Y-41661744D01*
X135077179Y-41481716D01*
X134982533Y-41317784D01*
X134855871Y-41177112D01*
X134855870Y-41177111D01*
X134702734Y-41065851D01*
X134702729Y-41065848D01*
X134529807Y-40988857D01*
X134529802Y-40988855D01*
X134384001Y-40957865D01*
X134344646Y-40949500D01*
X134155354Y-40949500D01*
X134122897Y-40956398D01*
X133970197Y-40988855D01*
X133970192Y-40988857D01*
X133797270Y-41065848D01*
X133797265Y-41065851D01*
X133644129Y-41177111D01*
X133517466Y-41317785D01*
X133422821Y-41481715D01*
X133422818Y-41481722D01*
X133364327Y-41661740D01*
X133364326Y-41661744D01*
X133353075Y-41768792D01*
X133350879Y-41789690D01*
X133324294Y-41854304D01*
X133266997Y-41894289D01*
X133197178Y-41896949D01*
X133154673Y-41877046D01*
X133005678Y-41768795D01*
X133005673Y-41768792D01*
X132832751Y-41691801D01*
X132832746Y-41691799D01*
X132686945Y-41660809D01*
X132647590Y-41652444D01*
X132458298Y-41652444D01*
X132425841Y-41659342D01*
X132273141Y-41691799D01*
X132273136Y-41691801D01*
X132100214Y-41768792D01*
X132100209Y-41768795D01*
X131947073Y-41880055D01*
X131820410Y-42020729D01*
X131725765Y-42184659D01*
X131725762Y-42184666D01*
X131692104Y-42288256D01*
X131667270Y-42364688D01*
X131647484Y-42552944D01*
X131667270Y-42741200D01*
X131667271Y-42741203D01*
X131725762Y-42921221D01*
X131725765Y-42921228D01*
X131789382Y-43031417D01*
X131820411Y-43085160D01*
X131872067Y-43142530D01*
X131902296Y-43205519D01*
X131893671Y-43274854D01*
X131848930Y-43328520D01*
X131782277Y-43349478D01*
X131779916Y-43349500D01*
X131755354Y-43349500D01*
X131722897Y-43356398D01*
X131570197Y-43388855D01*
X131570192Y-43388857D01*
X131397270Y-43465848D01*
X131397265Y-43465851D01*
X131244129Y-43577111D01*
X131117466Y-43717785D01*
X131022821Y-43881715D01*
X131022818Y-43881722D01*
X130964327Y-44061740D01*
X130964326Y-44061744D01*
X130944540Y-44250000D01*
X91299896Y-44250000D01*
X91285674Y-44114688D01*
X91227179Y-43934660D01*
X91132533Y-43770728D01*
X91005871Y-43630056D01*
X90969393Y-43603553D01*
X90852734Y-43518795D01*
X90852729Y-43518792D01*
X90679807Y-43441801D01*
X90679802Y-43441799D01*
X90534001Y-43410809D01*
X90494646Y-43402444D01*
X90470084Y-43402444D01*
X90403045Y-43382759D01*
X90357290Y-43329955D01*
X90347346Y-43260797D01*
X90376371Y-43197241D01*
X90377864Y-43195550D01*
X90429589Y-43138104D01*
X90524235Y-42974172D01*
X90582730Y-42794144D01*
X90602516Y-42605888D01*
X90582730Y-42417632D01*
X90524235Y-42237604D01*
X90429589Y-42073672D01*
X90302927Y-41933000D01*
X90302926Y-41932999D01*
X90149790Y-41821739D01*
X90149785Y-41821736D01*
X89976863Y-41744745D01*
X89976858Y-41744743D01*
X89831057Y-41713753D01*
X89791702Y-41705388D01*
X89602410Y-41705388D01*
X89569953Y-41712286D01*
X89417253Y-41744743D01*
X89417248Y-41744745D01*
X89244327Y-41821736D01*
X89095326Y-41929991D01*
X89029519Y-41953470D01*
X88961466Y-41937644D01*
X88912771Y-41887538D01*
X88899121Y-41842639D01*
X88885674Y-41714688D01*
X88827179Y-41534660D01*
X88732533Y-41370728D01*
X88605871Y-41230056D01*
X88605870Y-41230055D01*
X88452734Y-41118795D01*
X88452729Y-41118792D01*
X88279807Y-41041801D01*
X88279802Y-41041799D01*
X88134001Y-41010809D01*
X88094646Y-41002444D01*
X87905354Y-41002444D01*
X87872897Y-41009342D01*
X87720197Y-41041799D01*
X87720192Y-41041801D01*
X87547270Y-41118792D01*
X87547265Y-41118795D01*
X87394129Y-41230055D01*
X87267466Y-41370729D01*
X87172821Y-41534659D01*
X87172818Y-41534666D01*
X87114327Y-41714684D01*
X87114326Y-41714688D01*
X87103075Y-41821736D01*
X87100879Y-41842634D01*
X87074294Y-41907248D01*
X87016997Y-41947233D01*
X86947178Y-41949893D01*
X86904673Y-41929990D01*
X86755678Y-41821739D01*
X86755673Y-41821736D01*
X86582751Y-41744745D01*
X86582746Y-41744743D01*
X86436945Y-41713753D01*
X86397590Y-41705388D01*
X86208298Y-41705388D01*
X86175841Y-41712286D01*
X86023141Y-41744743D01*
X86023136Y-41744745D01*
X85850214Y-41821736D01*
X85850209Y-41821739D01*
X85697073Y-41932999D01*
X85570410Y-42073673D01*
X85475765Y-42237603D01*
X85475762Y-42237610D01*
X85426694Y-42388627D01*
X85417270Y-42417632D01*
X85397484Y-42605888D01*
X85417270Y-42794144D01*
X85417271Y-42794147D01*
X85475762Y-42974165D01*
X85475765Y-42974172D01*
X85570411Y-43138104D01*
X85622067Y-43195474D01*
X85652296Y-43258463D01*
X85643671Y-43327798D01*
X85598930Y-43381464D01*
X85532277Y-43402422D01*
X85529916Y-43402444D01*
X85505354Y-43402444D01*
X85472897Y-43409342D01*
X85320197Y-43441799D01*
X85320192Y-43441801D01*
X85147270Y-43518792D01*
X85147265Y-43518795D01*
X84994129Y-43630055D01*
X84867466Y-43770729D01*
X84772821Y-43934659D01*
X84772818Y-43934666D01*
X84715403Y-44111372D01*
X84714326Y-44114688D01*
X84694540Y-44302944D01*
X78282815Y-44302944D01*
X78227179Y-44131716D01*
X78132533Y-43967784D01*
X78005871Y-43827112D01*
X78005870Y-43827111D01*
X77852734Y-43715851D01*
X77852729Y-43715848D01*
X77679807Y-43638857D01*
X77679802Y-43638855D01*
X77513714Y-43603553D01*
X77494646Y-43599500D01*
X77470084Y-43599500D01*
X77403045Y-43579815D01*
X77357290Y-43527011D01*
X77347346Y-43457853D01*
X77376371Y-43394297D01*
X77377864Y-43392606D01*
X77429589Y-43335160D01*
X77524235Y-43171228D01*
X77582730Y-42991200D01*
X77602516Y-42802944D01*
X77582730Y-42614688D01*
X77526146Y-42440541D01*
X77524237Y-42434666D01*
X77524236Y-42434665D01*
X77524235Y-42434660D01*
X77429589Y-42270728D01*
X77302927Y-42130056D01*
X77302926Y-42130055D01*
X77149790Y-42018795D01*
X77149785Y-42018792D01*
X76976863Y-41941801D01*
X76976858Y-41941799D01*
X76814303Y-41907248D01*
X76791702Y-41902444D01*
X76602410Y-41902444D01*
X76579809Y-41907248D01*
X76417253Y-41941799D01*
X76417248Y-41941801D01*
X76244327Y-42018792D01*
X76095326Y-42127047D01*
X76029519Y-42150526D01*
X75961466Y-42134700D01*
X75912771Y-42084594D01*
X75899121Y-42039695D01*
X75885674Y-41911744D01*
X75827179Y-41731716D01*
X75732533Y-41567784D01*
X75605871Y-41427112D01*
X75605870Y-41427111D01*
X75452734Y-41315851D01*
X75452729Y-41315848D01*
X75279807Y-41238857D01*
X75279802Y-41238855D01*
X75134001Y-41207865D01*
X75094646Y-41199500D01*
X74905354Y-41199500D01*
X74872897Y-41206398D01*
X74720197Y-41238855D01*
X74720192Y-41238857D01*
X74547270Y-41315848D01*
X74547265Y-41315851D01*
X74394129Y-41427111D01*
X74267466Y-41567785D01*
X74172821Y-41731715D01*
X74172818Y-41731722D01*
X74117185Y-41902944D01*
X74114326Y-41911744D01*
X74100879Y-42039689D01*
X74100879Y-42039690D01*
X74074294Y-42104304D01*
X74016997Y-42144289D01*
X73947178Y-42146949D01*
X73904673Y-42127046D01*
X73755678Y-42018795D01*
X73755673Y-42018792D01*
X73582751Y-41941801D01*
X73582746Y-41941799D01*
X73420191Y-41907248D01*
X73397590Y-41902444D01*
X73208298Y-41902444D01*
X73185697Y-41907248D01*
X73023141Y-41941799D01*
X73023136Y-41941801D01*
X72850214Y-42018792D01*
X72850209Y-42018795D01*
X72697073Y-42130055D01*
X72570410Y-42270729D01*
X72475765Y-42434659D01*
X72475762Y-42434666D01*
X72420129Y-42605888D01*
X72417270Y-42614688D01*
X72397484Y-42802944D01*
X72417270Y-42991200D01*
X72417271Y-42991203D01*
X72475762Y-43171221D01*
X72475765Y-43171228D01*
X72566160Y-43327798D01*
X72570411Y-43335160D01*
X72622067Y-43392530D01*
X72652296Y-43455519D01*
X72643671Y-43524854D01*
X72598930Y-43578520D01*
X72532277Y-43599478D01*
X72529916Y-43599500D01*
X72505354Y-43599500D01*
X72486286Y-43603553D01*
X72320197Y-43638855D01*
X72320192Y-43638857D01*
X72147270Y-43715848D01*
X72147265Y-43715851D01*
X71994129Y-43827111D01*
X71867466Y-43967785D01*
X71772821Y-44131715D01*
X71772818Y-44131722D01*
X71719443Y-44295996D01*
X71714326Y-44311744D01*
X71694540Y-44500000D01*
X63926276Y-44500000D01*
X63925996Y-44499016D01*
X63946212Y-44432135D01*
X63997587Y-44387618D01*
X64099392Y-44340145D01*
X64162443Y-44295996D01*
X63602534Y-43736086D01*
X63612315Y-43734680D01*
X63743100Y-43674952D01*
X63851761Y-43580798D01*
X63929493Y-43459844D01*
X63953076Y-43379523D01*
X64515996Y-43942443D01*
X64560145Y-43879392D01*
X64652874Y-43680533D01*
X64652878Y-43680524D01*
X64709664Y-43468592D01*
X64709666Y-43468582D01*
X64728790Y-43250000D01*
X64728790Y-43249999D01*
X64709666Y-43031417D01*
X64709664Y-43031407D01*
X64652878Y-42819475D01*
X64652875Y-42819466D01*
X64560144Y-42620606D01*
X64560143Y-42620604D01*
X64515996Y-42557556D01*
X64515996Y-42557555D01*
X63953076Y-43120475D01*
X63929493Y-43040156D01*
X63851761Y-42919202D01*
X63743100Y-42825048D01*
X63612315Y-42765320D01*
X63602533Y-42763913D01*
X64162443Y-42204003D01*
X64162442Y-42204002D01*
X64099395Y-42159856D01*
X64099393Y-42159855D01*
X63900533Y-42067124D01*
X63900524Y-42067121D01*
X63688592Y-42010335D01*
X63688582Y-42010333D01*
X63470001Y-41991210D01*
X63469999Y-41991210D01*
X63251417Y-42010333D01*
X63251407Y-42010335D01*
X63039475Y-42067121D01*
X63039466Y-42067124D01*
X62840602Y-42159857D01*
X62777555Y-42204001D01*
X63337467Y-42763913D01*
X63327685Y-42765320D01*
X63196900Y-42825048D01*
X63088239Y-42919202D01*
X63010507Y-43040156D01*
X62986922Y-43120476D01*
X62424001Y-42557555D01*
X62379858Y-42620600D01*
X62332657Y-42721822D01*
X62286484Y-42774261D01*
X62219290Y-42793412D01*
X62152409Y-42773196D01*
X62107893Y-42721820D01*
X62102914Y-42711142D01*
X62060579Y-42620354D01*
X62060577Y-42620351D01*
X62060576Y-42620349D01*
X61934677Y-42440547D01*
X61934672Y-42440541D01*
X61779458Y-42285327D01*
X61779452Y-42285322D01*
X61599650Y-42159423D01*
X61599642Y-42159419D01*
X61400708Y-42066655D01*
X61400706Y-42066654D01*
X61400703Y-42066653D01*
X61249885Y-42026240D01*
X61188675Y-42009839D01*
X61188668Y-42009838D01*
X60970002Y-41990708D01*
X60969998Y-41990708D01*
X60751331Y-42009838D01*
X60751324Y-42009839D01*
X60628902Y-42042642D01*
X60539297Y-42066653D01*
X60539295Y-42066653D01*
X60539291Y-42066655D01*
X60340357Y-42159419D01*
X60340349Y-42159423D01*
X60160547Y-42285322D01*
X60160541Y-42285327D01*
X60005326Y-42440542D01*
X59949575Y-42520164D01*
X59894998Y-42563788D01*
X59825499Y-42570981D01*
X59763145Y-42539459D01*
X59727731Y-42479229D01*
X59724300Y-42451472D01*
X59724177Y-42451479D01*
X59724081Y-42449702D01*
X59724000Y-42449040D01*
X59724000Y-42448172D01*
X59723999Y-42448155D01*
X59717598Y-42388627D01*
X59717596Y-42388620D01*
X59667354Y-42253913D01*
X59667350Y-42253906D01*
X59581190Y-42138812D01*
X59581187Y-42138809D01*
X59466093Y-42052649D01*
X59466086Y-42052645D01*
X59331379Y-42002403D01*
X59331372Y-42002401D01*
X59271844Y-41996000D01*
X58720000Y-41996000D01*
X58720000Y-42814498D01*
X58612315Y-42765320D01*
X58505763Y-42750000D01*
X58434237Y-42750000D01*
X58327685Y-42765320D01*
X58220000Y-42814498D01*
X58220000Y-41996000D01*
X57668155Y-41996000D01*
X57608627Y-42002401D01*
X57608620Y-42002403D01*
X57473913Y-42052645D01*
X57473906Y-42052649D01*
X57358812Y-42138809D01*
X57358809Y-42138812D01*
X57272649Y-42253906D01*
X57272645Y-42253913D01*
X57222403Y-42388620D01*
X57222401Y-42388627D01*
X57216000Y-42448155D01*
X57216000Y-43000000D01*
X58036314Y-43000000D01*
X58010507Y-43040156D01*
X57970000Y-43178111D01*
X57970000Y-43321889D01*
X58010507Y-43459844D01*
X58036314Y-43500000D01*
X57216000Y-43500000D01*
X57216000Y-44051844D01*
X57222401Y-44111372D01*
X57222403Y-44111379D01*
X57272645Y-44246086D01*
X57272649Y-44246093D01*
X57358809Y-44361187D01*
X57358812Y-44361190D01*
X57473906Y-44447350D01*
X57473913Y-44447354D01*
X57608620Y-44497596D01*
X57608627Y-44497598D01*
X57668155Y-44503999D01*
X57668172Y-44504000D01*
X57669909Y-44504000D01*
X57670296Y-44504113D01*
X57671479Y-44504177D01*
X57671469Y-44504355D01*
X57671475Y-44504356D01*
X57671464Y-44504456D01*
X57736948Y-44523685D01*
X57782703Y-44576489D01*
X57792647Y-44645647D01*
X57780295Y-44672693D01*
X57777555Y-44704001D01*
X58337467Y-45263913D01*
X58327685Y-45265320D01*
X58196900Y-45325048D01*
X58088239Y-45419202D01*
X58010507Y-45540156D01*
X57986922Y-45620476D01*
X57424001Y-45057555D01*
X57379857Y-45120602D01*
X57287124Y-45319466D01*
X57287121Y-45319475D01*
X57230335Y-45531407D01*
X57230333Y-45531417D01*
X57211210Y-45749999D01*
X57211210Y-45750000D01*
X41500500Y-45750000D01*
X41500500Y-30050000D01*
X41509494Y-29832530D01*
X41510938Y-29799478D01*
X41518345Y-29629822D01*
X41518759Y-29624896D01*
X41545845Y-29407594D01*
X41560010Y-29300000D01*
X52294540Y-29300000D01*
X52314326Y-29488256D01*
X52314327Y-29488259D01*
X52372818Y-29668277D01*
X52372821Y-29668284D01*
X52467467Y-29832216D01*
X52531621Y-29903466D01*
X52594129Y-29972888D01*
X52747265Y-30084148D01*
X52747270Y-30084151D01*
X52920192Y-30161142D01*
X52920197Y-30161144D01*
X53105354Y-30200500D01*
X53105355Y-30200500D01*
X53129916Y-30200500D01*
X53196955Y-30220185D01*
X53242710Y-30272989D01*
X53252654Y-30342147D01*
X53223629Y-30405703D01*
X53222135Y-30407393D01*
X53170411Y-30464840D01*
X53170409Y-30464841D01*
X53170408Y-30464844D01*
X53075765Y-30628771D01*
X53075762Y-30628778D01*
X53017271Y-30808796D01*
X53017270Y-30808800D01*
X52997484Y-30997056D01*
X53017270Y-31185312D01*
X53017271Y-31185315D01*
X53075762Y-31365333D01*
X53075765Y-31365340D01*
X53170411Y-31529272D01*
X53278641Y-31649473D01*
X53297073Y-31669944D01*
X53450209Y-31781204D01*
X53450214Y-31781207D01*
X53623136Y-31858198D01*
X53623141Y-31858200D01*
X53808298Y-31897556D01*
X53808299Y-31897556D01*
X53997588Y-31897556D01*
X53997590Y-31897556D01*
X54182747Y-31858200D01*
X54355674Y-31781207D01*
X54504674Y-31672951D01*
X54570479Y-31649473D01*
X54638533Y-31665298D01*
X54687228Y-31715404D01*
X54700878Y-31760306D01*
X54714326Y-31888256D01*
X54714327Y-31888259D01*
X54772818Y-32068277D01*
X54772821Y-32068284D01*
X54867467Y-32232216D01*
X54994129Y-32372888D01*
X55147265Y-32484148D01*
X55147270Y-32484151D01*
X55320192Y-32561142D01*
X55320197Y-32561144D01*
X55505354Y-32600500D01*
X55505355Y-32600500D01*
X55694644Y-32600500D01*
X55694646Y-32600500D01*
X55879803Y-32561144D01*
X56052730Y-32484151D01*
X56205871Y-32372888D01*
X56332533Y-32232216D01*
X56427179Y-32068284D01*
X56485674Y-31888256D01*
X56499121Y-31760305D01*
X56525704Y-31695696D01*
X56583001Y-31655710D01*
X56652820Y-31653050D01*
X56695326Y-31672953D01*
X56844321Y-31781204D01*
X56844326Y-31781207D01*
X57017248Y-31858198D01*
X57017253Y-31858200D01*
X57202410Y-31897556D01*
X57202411Y-31897556D01*
X57391700Y-31897556D01*
X57391702Y-31897556D01*
X57576859Y-31858200D01*
X57749786Y-31781207D01*
X57902927Y-31669944D01*
X58029589Y-31529272D01*
X58124235Y-31365340D01*
X58182730Y-31185312D01*
X58202516Y-30997056D01*
X58182730Y-30808800D01*
X58124235Y-30628772D01*
X58029589Y-30464840D01*
X57977932Y-30407469D01*
X57947704Y-30344481D01*
X57956329Y-30275146D01*
X58001070Y-30221480D01*
X58067723Y-30200522D01*
X58070084Y-30200500D01*
X58094644Y-30200500D01*
X58094646Y-30200500D01*
X58279803Y-30161144D01*
X58452730Y-30084151D01*
X58605871Y-29972888D01*
X58732533Y-29832216D01*
X58827179Y-29668284D01*
X58885674Y-29488256D01*
X58905460Y-29300000D01*
X58885674Y-29111744D01*
X58850323Y-29002944D01*
X84697484Y-29002944D01*
X84717270Y-29191200D01*
X84717271Y-29191203D01*
X84775762Y-29371221D01*
X84775765Y-29371228D01*
X84870411Y-29535160D01*
X84958521Y-29633016D01*
X84997073Y-29675832D01*
X85150209Y-29787092D01*
X85150214Y-29787095D01*
X85323136Y-29864086D01*
X85323141Y-29864088D01*
X85508298Y-29903444D01*
X85508299Y-29903444D01*
X85532860Y-29903444D01*
X85599899Y-29923129D01*
X85645654Y-29975933D01*
X85655598Y-30045091D01*
X85626573Y-30108647D01*
X85625079Y-30110337D01*
X85573355Y-30167784D01*
X85573353Y-30167785D01*
X85573352Y-30167788D01*
X85478709Y-30331715D01*
X85478706Y-30331722D01*
X85420215Y-30511740D01*
X85420214Y-30511744D01*
X85400428Y-30700000D01*
X85420214Y-30888256D01*
X85420215Y-30888259D01*
X85478706Y-31068277D01*
X85478709Y-31068284D01*
X85573355Y-31232216D01*
X85678934Y-31349473D01*
X85700017Y-31372888D01*
X85853153Y-31484148D01*
X85853158Y-31484151D01*
X86026080Y-31561142D01*
X86026085Y-31561144D01*
X86211242Y-31600500D01*
X86211243Y-31600500D01*
X86400532Y-31600500D01*
X86400534Y-31600500D01*
X86585691Y-31561144D01*
X86758618Y-31484151D01*
X86907618Y-31375895D01*
X86973423Y-31352417D01*
X87041477Y-31368242D01*
X87090172Y-31418348D01*
X87103822Y-31463250D01*
X87117270Y-31591200D01*
X87117271Y-31591203D01*
X87175762Y-31771221D01*
X87175765Y-31771228D01*
X87270411Y-31935160D01*
X87390270Y-32068277D01*
X87397073Y-32075832D01*
X87550209Y-32187092D01*
X87550214Y-32187095D01*
X87723136Y-32264086D01*
X87723141Y-32264088D01*
X87908298Y-32303444D01*
X87908299Y-32303444D01*
X88097588Y-32303444D01*
X88097590Y-32303444D01*
X88282747Y-32264088D01*
X88455674Y-32187095D01*
X88608815Y-32075832D01*
X88735477Y-31935160D01*
X88830123Y-31771228D01*
X88888618Y-31591200D01*
X88902065Y-31463249D01*
X88928648Y-31398640D01*
X88985945Y-31358654D01*
X89055764Y-31355994D01*
X89098270Y-31375897D01*
X89247265Y-31484148D01*
X89247270Y-31484151D01*
X89420192Y-31561142D01*
X89420197Y-31561144D01*
X89605354Y-31600500D01*
X89605355Y-31600500D01*
X89794644Y-31600500D01*
X89794646Y-31600500D01*
X89979803Y-31561144D01*
X90152730Y-31484151D01*
X90305871Y-31372888D01*
X90432533Y-31232216D01*
X90527179Y-31068284D01*
X90585674Y-30888256D01*
X90605460Y-30700000D01*
X90585674Y-30511744D01*
X90527179Y-30331716D01*
X90432533Y-30167784D01*
X90380876Y-30110413D01*
X90350648Y-30047425D01*
X90359273Y-29978090D01*
X90404014Y-29924424D01*
X90470667Y-29903466D01*
X90473028Y-29903444D01*
X90497588Y-29903444D01*
X90497590Y-29903444D01*
X90682747Y-29864088D01*
X90855674Y-29787095D01*
X91008815Y-29675832D01*
X91135477Y-29535160D01*
X91230123Y-29371228D01*
X91288618Y-29191200D01*
X91308404Y-29002944D01*
X91308095Y-29000000D01*
X125694540Y-29000000D01*
X125714326Y-29188256D01*
X125714327Y-29188259D01*
X125772818Y-29368277D01*
X125772821Y-29368284D01*
X125867467Y-29532216D01*
X125958228Y-29633016D01*
X125994129Y-29672888D01*
X126147265Y-29784148D01*
X126147270Y-29784151D01*
X126320192Y-29861142D01*
X126320197Y-29861144D01*
X126505354Y-29900500D01*
X126505355Y-29900500D01*
X126529916Y-29900500D01*
X126596955Y-29920185D01*
X126642710Y-29972989D01*
X126652654Y-30042147D01*
X126623629Y-30105703D01*
X126622135Y-30107393D01*
X126570411Y-30164840D01*
X126570409Y-30164841D01*
X126570408Y-30164844D01*
X126475765Y-30328771D01*
X126475762Y-30328778D01*
X126419335Y-30502444D01*
X126417270Y-30508800D01*
X126397484Y-30697056D01*
X126417270Y-30885312D01*
X126417271Y-30885315D01*
X126475762Y-31065333D01*
X126475765Y-31065340D01*
X126570411Y-31229272D01*
X126662652Y-31331716D01*
X126697073Y-31369944D01*
X126850209Y-31481204D01*
X126850214Y-31481207D01*
X127023136Y-31558198D01*
X127023141Y-31558200D01*
X127208298Y-31597556D01*
X127208299Y-31597556D01*
X127397588Y-31597556D01*
X127397590Y-31597556D01*
X127582747Y-31558200D01*
X127755674Y-31481207D01*
X127904674Y-31372951D01*
X127970479Y-31349473D01*
X128038533Y-31365298D01*
X128087228Y-31415404D01*
X128100878Y-31460306D01*
X128114326Y-31588256D01*
X128114327Y-31588259D01*
X128172818Y-31768277D01*
X128172821Y-31768284D01*
X128267467Y-31932216D01*
X128389977Y-32068277D01*
X128394129Y-32072888D01*
X128547265Y-32184148D01*
X128547270Y-32184151D01*
X128720192Y-32261142D01*
X128720197Y-32261144D01*
X128905354Y-32300500D01*
X128905355Y-32300500D01*
X129094644Y-32300500D01*
X129094646Y-32300500D01*
X129279803Y-32261144D01*
X129452730Y-32184151D01*
X129605871Y-32072888D01*
X129732533Y-31932216D01*
X129827179Y-31768284D01*
X129885674Y-31588256D01*
X129899121Y-31460305D01*
X129925704Y-31395696D01*
X129983001Y-31355710D01*
X130052820Y-31353050D01*
X130095326Y-31372953D01*
X130244321Y-31481204D01*
X130244326Y-31481207D01*
X130417248Y-31558198D01*
X130417253Y-31558200D01*
X130602410Y-31597556D01*
X130602411Y-31597556D01*
X130791700Y-31597556D01*
X130791702Y-31597556D01*
X130976859Y-31558200D01*
X131149786Y-31481207D01*
X131302927Y-31369944D01*
X131429589Y-31229272D01*
X131524235Y-31065340D01*
X131582730Y-30885312D01*
X131602516Y-30697056D01*
X131582730Y-30508800D01*
X131524235Y-30328772D01*
X131429589Y-30164840D01*
X131377932Y-30107469D01*
X131347704Y-30044481D01*
X131356329Y-29975146D01*
X131401070Y-29921480D01*
X131467723Y-29900522D01*
X131470084Y-29900500D01*
X131494644Y-29900500D01*
X131494646Y-29900500D01*
X131679803Y-29861144D01*
X131852730Y-29784151D01*
X132005871Y-29672888D01*
X132132533Y-29532216D01*
X132227179Y-29368284D01*
X132285674Y-29188256D01*
X132305460Y-29000000D01*
X132285674Y-28811744D01*
X132227179Y-28631716D01*
X132132533Y-28467784D01*
X132005871Y-28327112D01*
X132005732Y-28327011D01*
X131852734Y-28215851D01*
X131852729Y-28215848D01*
X131679807Y-28138857D01*
X131679802Y-28138855D01*
X131534001Y-28107865D01*
X131494646Y-28099500D01*
X131470084Y-28099500D01*
X131403045Y-28079815D01*
X131357290Y-28027011D01*
X131347346Y-27957853D01*
X131376371Y-27894297D01*
X131377864Y-27892606D01*
X131429589Y-27835160D01*
X131524235Y-27671228D01*
X131582730Y-27491200D01*
X131602516Y-27302944D01*
X131582730Y-27114688D01*
X131524235Y-26934660D01*
X131429589Y-26770728D01*
X131302927Y-26630056D01*
X131302838Y-26629991D01*
X131149790Y-26518795D01*
X131149785Y-26518792D01*
X130976863Y-26441801D01*
X130976858Y-26441799D01*
X130831057Y-26410809D01*
X130791702Y-26402444D01*
X130602410Y-26402444D01*
X130569953Y-26409342D01*
X130417253Y-26441799D01*
X130417248Y-26441801D01*
X130244327Y-26518792D01*
X130095326Y-26627047D01*
X130029519Y-26650526D01*
X129961466Y-26634700D01*
X129912771Y-26584594D01*
X129899121Y-26539695D01*
X129885674Y-26411744D01*
X129827179Y-26231716D01*
X129732533Y-26067784D01*
X129605871Y-25927112D01*
X129605870Y-25927111D01*
X129452734Y-25815851D01*
X129452729Y-25815848D01*
X129279807Y-25738857D01*
X129279802Y-25738855D01*
X129132937Y-25707639D01*
X129094646Y-25699500D01*
X128905354Y-25699500D01*
X128872897Y-25706398D01*
X128720197Y-25738855D01*
X128720192Y-25738857D01*
X128547270Y-25815848D01*
X128547265Y-25815851D01*
X128394129Y-25927111D01*
X128267466Y-26067785D01*
X128172821Y-26231715D01*
X128172818Y-26231722D01*
X128116656Y-26404573D01*
X128114326Y-26411744D01*
X128101717Y-26531715D01*
X128100879Y-26539690D01*
X128074294Y-26604304D01*
X128016997Y-26644289D01*
X127947178Y-26646949D01*
X127904673Y-26627046D01*
X127755678Y-26518795D01*
X127755673Y-26518792D01*
X127582751Y-26441801D01*
X127582746Y-26441799D01*
X127436945Y-26410809D01*
X127397590Y-26402444D01*
X127208298Y-26402444D01*
X127175841Y-26409342D01*
X127023141Y-26441799D01*
X127023136Y-26441801D01*
X126850214Y-26518792D01*
X126850209Y-26518795D01*
X126697073Y-26630055D01*
X126570410Y-26770729D01*
X126475765Y-26934659D01*
X126475762Y-26934666D01*
X126417271Y-27114684D01*
X126417270Y-27114688D01*
X126397484Y-27302944D01*
X126417270Y-27491200D01*
X126417271Y-27491203D01*
X126475762Y-27671221D01*
X126475765Y-27671228D01*
X126570411Y-27835160D01*
X126622067Y-27892530D01*
X126652296Y-27955519D01*
X126643671Y-28024854D01*
X126598930Y-28078520D01*
X126532277Y-28099478D01*
X126529916Y-28099500D01*
X126505354Y-28099500D01*
X126472897Y-28106398D01*
X126320197Y-28138855D01*
X126320192Y-28138857D01*
X126147270Y-28215848D01*
X126147265Y-28215851D01*
X125994129Y-28327111D01*
X125867466Y-28467785D01*
X125772821Y-28631715D01*
X125772818Y-28631722D01*
X125714756Y-28810421D01*
X125714326Y-28811744D01*
X125694540Y-29000000D01*
X91308095Y-29000000D01*
X91288618Y-28814688D01*
X91230123Y-28634660D01*
X91135477Y-28470728D01*
X91008815Y-28330056D01*
X90941342Y-28281034D01*
X90855678Y-28218795D01*
X90855673Y-28218792D01*
X90682751Y-28141801D01*
X90682746Y-28141799D01*
X90536945Y-28110809D01*
X90497590Y-28102444D01*
X90473028Y-28102444D01*
X90405989Y-28082759D01*
X90360234Y-28029955D01*
X90350290Y-27960797D01*
X90379315Y-27897241D01*
X90380808Y-27895550D01*
X90432533Y-27838104D01*
X90527179Y-27674172D01*
X90585674Y-27494144D01*
X90605460Y-27305888D01*
X90585674Y-27117632D01*
X90527179Y-26937604D01*
X90432533Y-26773672D01*
X90305871Y-26633000D01*
X90301818Y-26630055D01*
X90152734Y-26521739D01*
X90152729Y-26521736D01*
X89979807Y-26444745D01*
X89979802Y-26444743D01*
X89824530Y-26411740D01*
X89794646Y-26405388D01*
X89605354Y-26405388D01*
X89575470Y-26411740D01*
X89420197Y-26444743D01*
X89420192Y-26444745D01*
X89247271Y-26521736D01*
X89098270Y-26629991D01*
X89032463Y-26653470D01*
X88964410Y-26637644D01*
X88915715Y-26587538D01*
X88902065Y-26542639D01*
X88888618Y-26414688D01*
X88830123Y-26234660D01*
X88735477Y-26070728D01*
X88608815Y-25930056D01*
X88604762Y-25927111D01*
X88455678Y-25818795D01*
X88455673Y-25818792D01*
X88282751Y-25741801D01*
X88282746Y-25741799D01*
X88136945Y-25710809D01*
X88097590Y-25702444D01*
X87908298Y-25702444D01*
X87883857Y-25707639D01*
X87723141Y-25741799D01*
X87723136Y-25741801D01*
X87550214Y-25818792D01*
X87550209Y-25818795D01*
X87397073Y-25930055D01*
X87270410Y-26070729D01*
X87175765Y-26234659D01*
X87175762Y-26234666D01*
X87117271Y-26414684D01*
X87117270Y-26414688D01*
X87104132Y-26539690D01*
X87103823Y-26542634D01*
X87077238Y-26607248D01*
X87019941Y-26647233D01*
X86950122Y-26649893D01*
X86907617Y-26629990D01*
X86758622Y-26521739D01*
X86758617Y-26521736D01*
X86585695Y-26444745D01*
X86585690Y-26444743D01*
X86430418Y-26411740D01*
X86400534Y-26405388D01*
X86211242Y-26405388D01*
X86181358Y-26411740D01*
X86026085Y-26444743D01*
X86026080Y-26444745D01*
X85853158Y-26521736D01*
X85853153Y-26521739D01*
X85700017Y-26632999D01*
X85573354Y-26773673D01*
X85478709Y-26937603D01*
X85478706Y-26937610D01*
X85420215Y-27117628D01*
X85420214Y-27117632D01*
X85400428Y-27305888D01*
X85420214Y-27494144D01*
X85420215Y-27494147D01*
X85478706Y-27674165D01*
X85478709Y-27674172D01*
X85573355Y-27838104D01*
X85625011Y-27895474D01*
X85655240Y-27958463D01*
X85646615Y-28027798D01*
X85601874Y-28081464D01*
X85535221Y-28102422D01*
X85532860Y-28102444D01*
X85508298Y-28102444D01*
X85475841Y-28109342D01*
X85323141Y-28141799D01*
X85323136Y-28141801D01*
X85150214Y-28218792D01*
X85150209Y-28218795D01*
X84997073Y-28330055D01*
X84870410Y-28470729D01*
X84775765Y-28634659D01*
X84775762Y-28634666D01*
X84717271Y-28814684D01*
X84717270Y-28814688D01*
X84697484Y-29002944D01*
X58850323Y-29002944D01*
X58827179Y-28931716D01*
X58732533Y-28767784D01*
X58605871Y-28627112D01*
X58538398Y-28578090D01*
X58452734Y-28515851D01*
X58452729Y-28515848D01*
X58279807Y-28438857D01*
X58279802Y-28438855D01*
X58134001Y-28407865D01*
X58094646Y-28399500D01*
X58070084Y-28399500D01*
X58003045Y-28379815D01*
X57957290Y-28327011D01*
X57947346Y-28257853D01*
X57976371Y-28194297D01*
X57977864Y-28192606D01*
X58029589Y-28135160D01*
X58124235Y-27971228D01*
X58182730Y-27791200D01*
X58202516Y-27602944D01*
X58182730Y-27414688D01*
X58124235Y-27234660D01*
X58029589Y-27070728D01*
X57902927Y-26930056D01*
X57902926Y-26930055D01*
X57749790Y-26818795D01*
X57749785Y-26818792D01*
X57576863Y-26741801D01*
X57576858Y-26741799D01*
X57431057Y-26710809D01*
X57391702Y-26702444D01*
X57202410Y-26702444D01*
X57169953Y-26709342D01*
X57017253Y-26741799D01*
X57017248Y-26741801D01*
X56844327Y-26818792D01*
X56695326Y-26927047D01*
X56629519Y-26950526D01*
X56561466Y-26934700D01*
X56512771Y-26884594D01*
X56499121Y-26839695D01*
X56485674Y-26711744D01*
X56427179Y-26531716D01*
X56332533Y-26367784D01*
X56205871Y-26227112D01*
X56205870Y-26227111D01*
X56052734Y-26115851D01*
X56052729Y-26115848D01*
X55879807Y-26038857D01*
X55879802Y-26038855D01*
X55734001Y-26007865D01*
X55694646Y-25999500D01*
X55505354Y-25999500D01*
X55472897Y-26006398D01*
X55320197Y-26038855D01*
X55320192Y-26038857D01*
X55147270Y-26115848D01*
X55147265Y-26115851D01*
X54994129Y-26227111D01*
X54867466Y-26367785D01*
X54772821Y-26531715D01*
X54772818Y-26531722D01*
X54714327Y-26711740D01*
X54714326Y-26711744D01*
X54705975Y-26791200D01*
X54700879Y-26839690D01*
X54674294Y-26904304D01*
X54616997Y-26944289D01*
X54547178Y-26946949D01*
X54504673Y-26927046D01*
X54355678Y-26818795D01*
X54355673Y-26818792D01*
X54182751Y-26741801D01*
X54182746Y-26741799D01*
X54036945Y-26710809D01*
X53997590Y-26702444D01*
X53808298Y-26702444D01*
X53775841Y-26709342D01*
X53623141Y-26741799D01*
X53623136Y-26741801D01*
X53450214Y-26818792D01*
X53450209Y-26818795D01*
X53297073Y-26930055D01*
X53170410Y-27070729D01*
X53075765Y-27234659D01*
X53075762Y-27234666D01*
X53021215Y-27402546D01*
X53017270Y-27414688D01*
X52997484Y-27602944D01*
X53017270Y-27791200D01*
X53017271Y-27791203D01*
X53075762Y-27971221D01*
X53075765Y-27971228D01*
X53170411Y-28135160D01*
X53222067Y-28192530D01*
X53252296Y-28255519D01*
X53243671Y-28324854D01*
X53198930Y-28378520D01*
X53132277Y-28399478D01*
X53129916Y-28399500D01*
X53105354Y-28399500D01*
X53072897Y-28406398D01*
X52920197Y-28438855D01*
X52920192Y-28438857D01*
X52747270Y-28515848D01*
X52747265Y-28515851D01*
X52594129Y-28627111D01*
X52467466Y-28767785D01*
X52372821Y-28931715D01*
X52372818Y-28931722D01*
X52314327Y-29111740D01*
X52314326Y-29111744D01*
X52294540Y-29300000D01*
X41560010Y-29300000D01*
X41572618Y-29204234D01*
X41573399Y-29199657D01*
X41618270Y-28985657D01*
X41662791Y-28784841D01*
X41663888Y-28780609D01*
X41726256Y-28571120D01*
X41788213Y-28374617D01*
X41789540Y-28370849D01*
X41869051Y-28167079D01*
X41947960Y-27976580D01*
X41949511Y-27973142D01*
X42045560Y-27776669D01*
X42053644Y-27761142D01*
X42140891Y-27593541D01*
X42142603Y-27590473D01*
X42254599Y-27402520D01*
X42365595Y-27228291D01*
X42367396Y-27225623D01*
X42494603Y-27047458D01*
X42620496Y-26883392D01*
X42622289Y-26881169D01*
X42763880Y-26713992D01*
X42904551Y-26560477D01*
X43060477Y-26404551D01*
X43213992Y-26263880D01*
X43381169Y-26122289D01*
X43383392Y-26120496D01*
X43547442Y-25994614D01*
X43725623Y-25867396D01*
X43728291Y-25865595D01*
X43902520Y-25754599D01*
X44090483Y-25642596D01*
X44093541Y-25640891D01*
X44276660Y-25545565D01*
X44473142Y-25449511D01*
X44476580Y-25447960D01*
X44667079Y-25369051D01*
X44870849Y-25289540D01*
X44874617Y-25288213D01*
X45071120Y-25226256D01*
X45280609Y-25163888D01*
X45284841Y-25162791D01*
X45485657Y-25118270D01*
X45699657Y-25073399D01*
X45704234Y-25072618D01*
X45907594Y-25045845D01*
X46124896Y-25018759D01*
X46129821Y-25018345D01*
X46332777Y-25009484D01*
X46549976Y-25000501D01*
X46601854Y-25000501D01*
X46601863Y-25000500D01*
X132949901Y-25000500D01*
X137449500Y-25000500D01*
X137450000Y-25000500D01*
X137667426Y-25009493D01*
G37*
G04 #@! TD.AperFunction*
M02*
